<?xml version="1.0" encoding="iso-8859-1"?>
<!-- Generator: Adobe Illustrator 16.0.0, SVG Export Plug-In . SVG Version: 6.00 Build 0)  -->
<!DOCTYPE svg PUBLIC "-//W3C//DTD SVG 1.1//EN" "http://www.w3.org/Graphics/SVG/1.1/DTD/svg11.dtd">
<svg xmlns="http://www.w3.org/2000/svg" xmlns:xlink="http://www.w3.org/1999/xlink" version="1.1" id="Capa_1" x="0px" y="0px" width="512px" height="512px" viewBox="0 0 477.59 477.59" style="enable-background:new 0 0 477.59 477.59;" xml:space="preserve">
<g>
	<g>
		<path d="M238.985,190.655c-29.139,0-56.801,15.578-77.892,43.866c-18.43,24.719-29.433,56.024-29.433,83.744    c0,10.634,2.219,18.335,6.785,23.546c4.311,4.92,10.608,7.414,18.715,7.414c10.298,0,22.895-3.922,36.23-8.072    c15.324-4.771,31.169-9.703,45.594-9.703c12.683,0,27.906,4.705,42.626,9.256c14.175,4.382,27.562,8.521,38.673,8.521    c12.172,0,26.681-5.371,26.681-30.961c0-27.672-11.131-58.986-29.773-83.766C295.917,206.226,268.143,190.655,238.985,190.655z     M320.284,337.225c-9.298,0-21.845-3.879-35.129-7.984c-15.572-4.813-31.675-9.791-46.17-9.791    c-16.25,0-33.734,5.443-49.161,10.244c-12.44,3.873-24.19,7.531-32.664,7.531c-6.075,0-8.439-1.896-9.69-3.322    c-2.528-2.887-3.81-8.146-3.81-15.638c0-24.851,10.366-54.19,27.053-76.571c18.77-25.174,43.016-39.039,68.272-39.039    c57.699,0,95.979,69.585,95.979,115.61C334.965,335.76,327.713,337.225,320.284,337.225z" fill="#555555"/>
		<path d="M273.776,183.114c2.604,0.624,5.284,0.94,7.963,0.94c18.857,0,36.28-15.597,41.425-37.085    c2.855-11.918,1.677-24.097-3.319-34.295c-5.186-10.582-13.824-17.796-24.329-20.313c-2.604-0.624-5.285-0.94-7.963-0.94    c-18.856,0-36.279,15.598-41.427,37.088c-2.856,11.915-1.677,24.094,3.319,34.292    C254.633,173.385,263.273,180.599,273.776,183.114z M257.796,131.305c3.87-16.157,16.384-27.884,29.757-27.884    c1.737,0,3.478,0.205,5.167,0.61c6.961,1.667,12.768,6.612,16.35,13.923c3.771,7.697,4.633,17.008,2.426,26.22    c-3.868,16.154-16.381,27.88-29.755,27.88c-1.737,0-3.477-0.205-5.168-0.61c-6.96-1.666-12.768-6.611-16.35-13.923    C256.45,149.824,255.589,140.514,257.796,131.305z" fill="#555555"/>
		<path d="M194.374,184.054c0.001,0,0.002,0,0.003,0c2.677,0,5.355-0.316,7.96-0.94c10.503-2.515,19.145-9.729,24.331-20.313    c4.998-10.198,6.178-22.377,3.323-34.291c-5.147-21.491-22.57-37.089-41.428-37.089c-2.679,0-5.358,0.316-7.964,0.94    c-21.239,5.089-33.643,29.585-27.651,54.607C158.096,168.456,175.518,184.052,194.374,184.054z M183.394,104.032    c1.691-0.405,3.43-0.61,5.169-0.61c13.374,0,25.889,11.727,29.758,27.885c2.207,9.207,1.344,18.517-2.428,26.215    c-3.583,7.312-9.39,12.257-16.351,13.923c-1.69,0.405-3.428,0.61-5.165,0.61h-0.001c-13.373-0.001-25.888-11.728-29.759-27.881    C160.166,125.587,168.59,107.579,183.394,104.032z" fill="#555555"/>
		<path d="M396.677,166.562c-6.646-6.648-15.863-10.31-25.952-10.31c-12.555,0-25.328,5.575-35.05,15.295    c-18.192,18.189-20.431,45.555-4.985,61.004c6.647,6.646,15.865,10.307,25.955,10.307c12.553,0,25.326-5.573,35.046-15.29    c8.667-8.664,14.029-19.663,15.103-30.97C407.905,184.867,404.313,174.2,396.677,166.562z M394.846,195.465    c-0.81,8.533-4.942,16.921-11.641,23.616c-7.485,7.484-17.167,11.776-26.562,11.776c-6.984,0-13.025-2.349-17.471-6.792    c-10.766-10.769-8.528-30.521,4.985-44.032c7.487-7.487,17.17-11.781,26.563-11.781c6.983,0,13.023,2.35,17.469,6.794    C393.252,180.108,395.615,187.359,394.846,195.465z" fill="#555555"/>
		<path d="M157.019,202.513c-1.073-11.306-6.436-22.303-15.1-30.965c-9.72-9.721-22.495-15.296-35.047-15.296    c-10.088,0-19.306,3.661-25.956,10.309c-7.637,7.638-11.23,18.305-10.117,30.037c1.073,11.306,6.435,22.304,15.101,30.97    c9.721,9.718,22.496,15.29,35.048,15.29c10.088,0,19.306-3.66,25.956-10.308C154.54,224.914,158.132,214.246,157.019,202.513z     M138.419,224.065c-4.445,4.444-10.486,6.793-17.47,6.793c-9.394,0-19.077-4.292-26.563-11.775    c-6.696-6.696-10.83-15.084-11.639-23.617c-0.769-8.106,1.595-15.357,6.655-20.418c4.446-4.445,10.487-6.795,17.471-6.795    c9.394,0,19.075,4.294,26.562,11.781c6.695,6.694,10.829,15.08,11.639,23.613C145.842,211.754,143.478,219.005,138.419,224.065z" fill="#555555"/>
		<path d="M407.651,69.941C362.548,24.838,302.582,0,238.796,0C175.011,0,115.045,24.839,69.942,69.941S0,175.01,0,238.795    s24.839,123.751,69.941,168.854c45.102,45.104,105.069,69.941,168.854,69.941c63.786,0,123.753-24.84,168.855-69.941    c45.102-45.103,69.939-105.068,69.939-168.854S452.753,115.044,407.651,69.941z M238.796,465.59    c-125.056,0-226.795-101.74-226.795-226.795C12.001,113.74,113.74,12,238.796,12c125.057,0,226.796,101.74,226.796,226.795    C465.592,363.85,363.852,465.59,238.796,465.59z" fill="#555555"/>
	</g>
</g>
<g>
</g>
<g>
</g>
<g>
</g>
<g>
</g>
<g>
</g>
<g>
</g>
<g>
</g>
<g>
</g>
<g>
</g>
<g>
</g>
<g>
</g>
<g>
</g>
<g>
</g>
<g>
</g>
<g>
</g>
</svg>
