<?xml version="1.0" encoding="iso-8859-1"?>
<!-- Generator: Adobe Illustrator 19.0.0, SVG Export Plug-In . SVG Version: 6.00 Build 0)  -->
<svg version="1.1" id="Layer_1" xmlns="http://www.w3.org/2000/svg" xmlns:xlink="http://www.w3.org/1999/xlink" x="0px" y="0px"
	 viewBox="0 0 512.001 512.001" style="enable-background:new 0 0 512.001 512.001;" xml:space="preserve">
<g>
	<path style="fill:#D2555A;" d="M388.414,167.725H256c-4.875,0-8.828,3.953-8.828,8.828v17.655h158.897v-8.828
		C406.069,175.629,398.165,167.725,388.414,167.725z"/>
	<path style="fill:#D2555A;" d="M229.517,176.552H114.759c-4.875,0-8.828,3.953-8.828,8.828v8.828h132.414v-8.828
		C238.345,180.505,234.392,176.552,229.517,176.552z"/>
</g>
<path style="fill:#FF6464;" d="M8.828,185.38h478.436c4.138,0,7.72,2.873,8.618,6.912l15.908,71.586
	c0.14,0.629,0.211,1.271,0.211,1.916v52c0,4.875-3.953,8.828-8.828,8.828H141.24l-132.963-8.31C3.625,318.02,0,314.162,0,309.5
	V194.207C0,189.332,3.953,185.38,8.828,185.38z"/>
<path style="fill:#625D6B;" d="M22.069,264.828h488.959c0.312-0.39,0.449-0.561,0.761-0.949l-13.521-60.844h-476.2
	c-2.438,0-4.414,1.976-4.414,4.414v52.965C17.655,262.852,19.631,264.828,22.069,264.828z"/>
<path style="fill:#D2555A;" d="M8.277,318.311l132.963,8.31h361.932c4.875,0,8.828-3.953,8.828-8.828v-17.655H0v9.362
	C0,314.162,3.625,318.02,8.277,318.311z"/>
<circle style="fill:#504B5A;" cx="132.414" cy="317.794" r="26.483"/>
<circle style="fill:#DCDBDE;" cx="132.414" cy="317.794" r="13.241"/>
<circle style="fill:#504B5A;" cx="388.414" cy="317.794" r="26.483"/>
<circle style="fill:#DCDBDE;" cx="388.414" cy="317.794" r="13.241"/>
<g>
	<path style="fill:#504B5A;" d="M432.552,211.863h44.138c4.875,0,8.828,3.953,8.828,8.828v97.103c0,4.875-3.953,8.828-8.828,8.828
		h-44.138c-4.875,0-8.828-3.953-8.828-8.828V220.69C423.724,215.815,427.677,211.863,432.552,211.863z"/>
	<path style="fill:#504B5A;" d="M203.034,211.863h44.138c4.875,0,8.828,3.953,8.828,8.828v97.103c0,4.875-3.953,8.828-8.828,8.828
		h-44.138c-4.875,0-8.828-3.953-8.828-8.828V220.69C194.207,215.815,198.159,211.863,203.034,211.863z"/>
</g>
<g>
	<path style="fill:#625D6B;" d="M216.276,308.966h-8.828c-2.438,0-4.414-1.976-4.414-4.414v-70.621c0-2.438,1.976-4.414,4.414-4.414
		h8.828c2.438,0,4.414,1.976,4.414,4.414v70.621C220.69,306.99,218.713,308.966,216.276,308.966z"/>
	<path style="fill:#625D6B;" d="M242.759,308.966h-8.828c-2.438,0-4.414-1.976-4.414-4.414v-70.621c0-2.438,1.976-4.414,4.414-4.414
		h8.828c2.438,0,4.414,1.976,4.414,4.414v70.621C247.172,306.99,245.196,308.966,242.759,308.966z"/>
	<path style="fill:#625D6B;" d="M445.793,308.966h-8.828c-2.438,0-4.414-1.976-4.414-4.414v-70.621c0-2.438,1.976-4.414,4.414-4.414
		h8.828c2.438,0,4.414,1.976,4.414,4.414v70.621C450.207,306.99,448.231,308.966,445.793,308.966z"/>
	<path style="fill:#625D6B;" d="M472.276,308.966h-8.828c-2.438,0-4.414-1.976-4.414-4.414v-70.621c0-2.438,1.976-4.414,4.414-4.414
		h8.828c2.438,0,4.414,1.976,4.414,4.414v70.621C476.69,306.99,474.713,308.966,472.276,308.966z"/>
</g>
<g>
	<path style="fill:#736F7B;" d="M269.241,256.001h61.793c2.438,0,4.414-1.976,4.414-4.414v-35.31c0-2.438-1.976-4.414-4.414-4.414
		h-61.793c-2.438,0-4.414,1.976-4.414,4.414v35.31C264.828,254.024,266.804,256.001,269.241,256.001z"/>
	<path style="fill:#736F7B;" d="M119.172,256.001h61.793c2.438,0,4.414-1.976,4.414-4.414v-35.31c0-2.438-1.976-4.414-4.414-4.414
		h-61.793c-2.438,0-4.414,1.976-4.414,4.414v35.31C114.759,254.024,116.735,256.001,119.172,256.001z"/>
	<path style="fill:#736F7B;" d="M39.724,256.001h61.793c2.438,0,4.414-1.976,4.414-4.414v-35.31c0-2.438-1.976-4.414-4.414-4.414
		H39.724c-2.438,0-4.414,1.976-4.414,4.414v35.31C35.31,254.024,37.287,256.001,39.724,256.001z"/>
	<path style="fill:#736F7B;" d="M348.69,256.001h61.793c2.438,0,4.414-1.976,4.414-4.414v-35.31c0-2.438-1.976-4.414-4.414-4.414
		H348.69c-2.438,0-4.414,1.976-4.414,4.414v35.31C344.276,254.024,346.252,256.001,348.69,256.001z"/>
	<path style="fill:#736F7B;" d="M500.231,211.863h-1.472c-2.438,0-4.414,1.976-4.414,4.414v35.31c0,2.438,1.976,4.414,4.414,4.414
		h11.281L500.231,211.863z"/>
</g>
<g>
</g>
<g>
</g>
<g>
</g>
<g>
</g>
<g>
</g>
<g>
</g>
<g>
</g>
<g>
</g>
<g>
</g>
<g>
</g>
<g>
</g>
<g>
</g>
<g>
</g>
<g>
</g>
<g>
</g>
</svg>
