<?xml version="1.0" encoding="iso-8859-1"?>
<!-- Generator: Adobe Illustrator 19.0.0, SVG Export Plug-In . SVG Version: 6.00 Build 0)  -->
<svg version="1.1" id="Layer_1" xmlns="http://www.w3.org/2000/svg" xmlns:xlink="http://www.w3.org/1999/xlink" x="0px" y="0px"
	 viewBox="0 0 512 512" style="enable-background:new 0 0 512 512;" xml:space="preserve">
<path style="fill:#B9B7BD;" d="M401.19,331.267c-1.095-2.185-3.733-3.057-5.922-1.974l-12.439,6.22
	c-2.802,1.401-5.94,2.142-9.078,2.142h-25.856l-8.118-40.59c-0.483-2.397-2.897-3.961-5.19-3.462
	c-2.397,0.479-3.948,2.802-3.466,5.194l7.772,38.858h-95.164l7.772-38.858c0.483-2.392-1.069-4.715-3.466-5.194
	c-2.276-0.495-4.707,1.065-5.19,3.462l-8.118,40.59h-31.692c-2.44,0-4.414,1.974-4.414,4.414s1.974,4.414,4.414,4.414H373.75
	c4.5,0,9-1.065,13.026-3.073l12.439-6.22C401.397,336.099,402.276,333.449,401.19,331.267z"/>
<polygon style="fill:#A7A5AC;" points="291.31,200.828 282.483,200.828 278.069,165.517 295.724,165.517 "/>
<g>
	<path style="fill:#504B5A;" d="M278.069,174.345H66.207c-2.438,0-4.414-1.976-4.414-4.414l0,0c0-2.438,1.976-4.414,4.414-4.414
		h211.862c2.438,0,4.414,1.976,4.414,4.414l0,0C282.483,172.369,280.506,174.345,278.069,174.345z"/>
	<path style="fill:#504B5A;" d="M507.586,174.345H295.724c-2.438,0-4.414-1.976-4.414-4.414l0,0c0-2.438,1.976-4.414,4.414-4.414
		h211.862c2.438,0,4.414,1.976,4.414,4.414l0,0C512,172.369,510.024,174.345,507.586,174.345z"/>
</g>
<path style="fill:#D2555A;" d="M19.551,195.791c-1.162-2.324-3.538-3.791-6.135-3.791H0l17.655,52.966L0,280.276h12.97
	c2.95,0,5.727-1.389,7.497-3.748l23.671-31.562L19.551,195.791z"/>
<path style="fill:#DCDBDE;" d="M423.272,269.129l-26.03-6.508c-17.655-35.31-44.138-44.138-52.966-44.138c-6.005,0-24.247,0-35.31,0
	v-8.828c0-4.875-3.953-8.828-8.828-8.828h-61.793c-21.985,0-62.22,24.334-75.254,32.6c-2.813,1.784-6.067,2.71-9.398,2.71H17.9
	c-5.011,0-9.073,4.062-9.073,9.073l0,0c0,4.815,3.762,8.791,8.569,9.058l141.729,7.874c3.666,0.204,6.824,2.665,7.921,6.168
	c2.854,9.112,6.176,17.462,9.505,20.792c8.828,8.828,61.793,17.655,79.448,17.655s35.31,0,88.276,0
	c38.293,0,67.358-9.228,80.522-14.342c4.71-1.829,7.754-6.35,7.754-11.403C432.552,275.392,428.726,270.492,423.272,269.129z"/>
<g>
	<path style="fill:#625D6B;" d="M269.241,227.31c-2.438,0-4.414,1.976-4.414,4.414v35.31c0,2.438,1.976,4.414,4.414,4.414h35.31
		c2.438,0,4.414-1.976,4.414-4.414v-35.31c0-2.438-1.976-4.414-4.414-4.414H269.241z"/>
	<path style="fill:#625D6B;" d="M340.841,227.31h-15.586c-2.438,0-4.414,1.976-4.414,4.414v35.31c0,2.438,1.976,4.414,4.414,4.414
		h23.433c2.824,0,4.921-2.615,4.309-5.372l-7.847-35.31C344.701,228.747,342.91,227.31,340.841,227.31z"/>
	<path style="fill:#625D6B;" d="M367.785,269.15c0.499,1.497,2.001,2.405,3.564,2.191c2.018-0.276,4.013-0.702,5.954-1.348
		l19.938-7.372l0,0c-9.237-18.475-20.876-29.653-31.154-36.157h-8.032c-2.214,0-3.776,2.168-3.076,4.267L367.785,269.15z"/>
</g>
<g>
	<path style="fill:#FF6464;" d="M432.552,281.014c0-5.622-3.826-10.522-9.28-11.885l-26.03-6.508l-25.891,8.828H168.097
		c2.607,7.822,5.518,14.72,8.455,17.655h252.801C431.313,286.905,432.552,284.103,432.552,281.014z"/>
	<path style="fill:#FF6464;" d="M256,209.655v-8.828h-17.655c-21.985,0-62.22,24.334-75.254,32.6
		c-2.813,1.784-6.067,2.71-9.398,2.71H17.9c-5.011,0-9.073,4.062-9.073,9.073l0,0c0,4.814,3.762,8.791,8.569,9.058l141.728,7.874
		c2.401,0.134,4.518,1.301,6.047,3.03l48.128-40.475c4.772-4.014,10.809-6.215,17.045-6.215h16.828
		C252.047,218.483,256,214.53,256,209.655z"/>
</g>
<g>
</g>
<g>
</g>
<g>
</g>
<g>
</g>
<g>
</g>
<g>
</g>
<g>
</g>
<g>
</g>
<g>
</g>
<g>
</g>
<g>
</g>
<g>
</g>
<g>
</g>
<g>
</g>
<g>
</g>
</svg>
