<?xml version="1.0" encoding="iso-8859-1"?>
<!-- Generator: Adobe Illustrator 19.0.0, SVG Export Plug-In . SVG Version: 6.00 Build 0)  -->
<svg version="1.1" id="Layer_1" xmlns="http://www.w3.org/2000/svg" xmlns:xlink="http://www.w3.org/1999/xlink" x="0px" y="0px"
	 viewBox="0 0 512 512" style="enable-background:new 0 0 512 512;" xml:space="preserve">
<path style="fill:#FF7D5A;" d="M477.288,203.932V190.75c0-2.037-1.304-3.847-3.237-4.491l-42.601-14.2
	c-3.065-1.022-6.231,1.259-6.231,4.491v27.382H477.288z"/>
<path style="fill:#8D8A94;" d="M156.203,325.424H34.712c-4.792,0-8.678-3.886-8.678-8.678V299.39h130.169V325.424z"/>
<path style="fill:#A7A5AC;" d="M234.789,308.068H17.356c-4.792,0-8.678-3.886-8.678-8.678v-17.356h286.373l-44.738,22.37
	C245.492,306.813,240.178,308.068,234.789,308.068z"/>
<circle style="fill:#504B5A;" cx="138.847" cy="316.746" r="26.034"/>
<circle style="fill:#DCDBDE;" cx="138.847" cy="316.746" r="13.017"/>
<circle style="fill:#504B5A;" cx="86.78" cy="316.746" r="26.034"/>
<circle style="fill:#DCDBDE;" cx="86.78" cy="316.746" r="13.017"/>
<rect x="321.085" y="290.712" style="fill:#B9B7BD;" width="190.915" height="34.712"/>
<circle style="fill:#504B5A;" cx="373.153" cy="316.746" r="26.034"/>
<circle style="fill:#DCDBDE;" cx="373.153" cy="316.746" r="13.017"/>
<circle style="fill:#504B5A;" cx="321.085" cy="316.746" r="26.034"/>
<circle style="fill:#DCDBDE;" cx="321.085" cy="316.746" r="13.017"/>
<path style="fill:#FF9164;" d="M512,308.068h-43.39v-17.356h-43.39v-95.458h70.441c4.377,0,8.068,3.259,8.611,7.602l6.053,48.42
	c1.116,8.926,1.675,17.913,1.675,26.909L512,308.068L512,308.068z"/>
<rect x="468.61" y="290.712" style="fill:#FF7D5A;" width="43.39" height="17.356"/>
<circle style="fill:#504B5A;" cx="468.61" cy="316.746" r="26.034"/>
<circle style="fill:#DCDBDE;" cx="468.61" cy="316.746" r="13.017"/>
<g>
	<path style="fill:#FF7D5A;" d="M468.61,212.61h-21.695c-2.396,0-4.339,1.943-4.339,4.339v25.152c0,3.05,2.119,5.692,5.096,6.353
		l20.938,4.652V212.61z"/>
	<path style="fill:#FF7D5A;" d="M510.325,251.276l-4.834-38.666h-58.576c-2.396,0-4.339,1.943-4.339,4.339v25.152
		c0,3.05,2.119,5.692,5.096,6.353l63.713,14.158C511.113,258.827,510.796,255.043,510.325,251.276z"/>
</g>
<path style="fill:#625D6B;" d="M468.61,253.107l42.776,9.506c-0.272-3.786-0.59-7.569-1.061-11.338l-4.834-38.665H468.61V253.107z"
	/>
<path style="fill:#FFB47D;" d="M8.678,169.22h399.186c4.792,0,8.678,3.886,8.678,8.678v104.136c0,4.792-3.886,8.678-8.678,8.678
	H8.678c-4.792,0-8.678-3.886-8.678-8.678V177.898C0,173.106,3.886,169.22,8.678,169.22z"/>
<path style="fill:#FF9164;" d="M390.508,273.356H26.034c-4.792,0-8.678-3.886-8.678-8.678l0,0c0-4.792,3.886-8.678,8.678-8.678
	h364.475c4.792,0,8.678,3.886,8.678,8.678l0,0C399.186,269.47,395.301,273.356,390.508,273.356z"/>
<g>
</g>
<g>
</g>
<g>
</g>
<g>
</g>
<g>
</g>
<g>
</g>
<g>
</g>
<g>
</g>
<g>
</g>
<g>
</g>
<g>
</g>
<g>
</g>
<g>
</g>
<g>
</g>
<g>
</g>
</svg>
