<?xml version="1.0" encoding="iso-8859-1"?>
<!-- Generator: Adobe Illustrator 19.0.0, SVG Export Plug-In . SVG Version: 6.00 Build 0)  -->
<svg version="1.1" id="Layer_1" xmlns="http://www.w3.org/2000/svg" xmlns:xlink="http://www.w3.org/1999/xlink" x="0px" y="0px"
	 viewBox="0 0 512 512" style="enable-background:new 0 0 512 512;" xml:space="preserve">
<path style="fill:#FF6464;" d="M298.305,193.67c-0.226,0-0.452-0.018-0.687-0.052l-115.757-17.809
	c-2.426-0.374-4.096-2.648-3.722-5.079c0.374-2.431,2.609-4.057,5.079-3.722l115.757,17.809c2.426,0.374,4.096,2.648,3.722,5.079
	C302.356,192.096,300.461,193.67,298.305,193.67z"/>
<rect x="280.487" y="198.122" style="fill:#625D6B;" width="17.809" height="26.713"/>
<rect x="8.904" y="162.504" style="fill:#504B5A;" width="8.904" height="62.33"/>
<rect x="325.009" y="313.878" style="fill:#625D6B;" width="26.713" height="26.713"/>
<path style="fill:#736F7B;" d="M414.052,349.496h-62.33c-4.917,0-8.904-3.987-8.904-8.904v-35.617h71.235V349.496z"/>
<path style="fill:#625D6B;" d="M391.791,340.591h-26.713c-2.459,0-4.452-1.993-4.452-4.452v-8.904c0-2.459,1.993-4.452,4.452-4.452
	h26.713c2.459,0,4.452,1.993,4.452,4.452v8.904C396.243,338.598,394.25,340.591,391.791,340.591z"/>
<path style="fill:#736F7B;" d="M325.009,340.591H22.261c-4.917,0-8.904-3.987-8.904-8.904V296.07h311.652V340.591z"/>
<rect x="244.87" y="296.07" style="fill:#625D6B;" width="80.139" height="17.809"/>
<path style="fill:#FF6464;" d="M431.861,260.452l-15.569-56.733c-1.352-3.38-4.627-5.598-8.268-5.598h-56.302
	c-4.917,0-8.904,3.987-8.904,8.904v106.852h151.374v-36.799c0-4.431-3.258-8.189-7.645-8.815L431.861,260.452z"/>
<polygon style="fill:#D2555A;" points="419.642,215.93 342.817,215.93 342.817,260.452 431.861,260.452 "/>
<path style="fill:#B9B7BD;" d="M218.157,358.4h53.426c4.917,0,8.904-3.987,8.904-8.904v-17.809c0-4.917-3.987-8.904-8.904-8.904
	h-53.426c-4.917,0-8.904,3.987-8.904,8.904v17.809C209.252,354.413,213.239,358.4,218.157,358.4z"/>
<circle style="fill:#504B5A;" cx="115.757" cy="345.043" r="31.165"/>
<circle style="fill:#DCDBDE;" cx="115.757" cy="345.043" r="17.809"/>
<circle style="fill:#504B5A;" cx="178.087" cy="345.043" r="31.165"/>
<circle style="fill:#DCDBDE;" cx="178.087" cy="345.043" r="17.809"/>
<g>
	<path style="fill:#625D6B;" d="M421.264,260.452h10.597l-12.219-44.522h-6.671c-4.048,0-7.085,3.703-6.29,7.672l5.956,29.778
		C413.46,257.493,417.071,260.452,421.264,260.452z"/>
	<path style="fill:#625D6B;" d="M398.68,260.452h-33.602c-2.459,0-4.452-1.993-4.452-4.452v-35.617c0-2.459,1.993-4.452,4.452-4.452
		h25.914c3.054,0,5.683,2.156,6.282,5.15l6.606,33.03C404.536,257.391,402.026,260.452,398.68,260.452z"/>
</g>
<g>
	<path style="fill:#FF6464;" d="M258.226,313.878H8.904c-2.459,0-4.452-1.993-4.452-4.452v-8.904c0-2.459,1.993-4.452,4.452-4.452
		h249.322c2.459,0,4.452,1.993,4.452,4.452v8.904C262.678,311.885,260.685,313.878,258.226,313.878z"/>
	<path style="fill:#FF6464;" d="M329.461,349.496h-8.904c-2.459,0-4.452-1.993-4.452-4.452V229.287c0-2.459,1.993-4.452,4.452-4.452
		h8.904c2.459,0,4.452,1.993,4.452,4.452v115.757C333.913,347.502,331.92,349.496,329.461,349.496z"/>
	<path style="fill:#FF6464;" d="M62.33,349.496h-8.904c-2.459,0-4.452-1.993-4.452-4.452v-35.617c0-2.459,1.993-4.452,4.452-4.452
		h8.904c2.459,0,4.452,1.993,4.452,4.452v35.617C66.783,347.502,64.789,349.496,62.33,349.496z"/>
	<path style="fill:#FF6464;" d="M302.748,304.974h-26.713c-2.459,0-4.452-1.993-4.452-4.452v-80.139
		c0-2.459,1.993-4.452,4.452-4.452h26.713c2.459,0,4.452,1.993,4.452,4.452v80.139C307.2,302.98,305.207,304.974,302.748,304.974z"
		/>
</g>
<path style="fill:#D2555A;" d="M405.148,349.496h97.948v-35.617c0-9.836-7.973-17.809-17.809-17.809h-44.522
	c-19.671,0-35.617,15.947-35.617,35.617V349.496z"/>
<path style="fill:#736F7B;" d="M507.548,349.496h-22.261v-17.809h22.261c2.459,0,4.452,1.993,4.452,4.452v8.904
	C512,347.502,510.007,349.496,507.548,349.496z"/>
<circle style="fill:#504B5A;" cx="463.026" cy="345.043" r="31.165"/>
<circle style="fill:#DCDBDE;" cx="463.026" cy="345.043" r="17.809"/>
<path style="fill:#FF6464;" d="M13.357,135.791h329.461c4.917,0,8.904,3.987,8.904,8.904v8.904c0,4.917-3.987,8.904-8.904,8.904
	H13.357V135.791z"/>
<path style="fill:#736F7B;" d="M13.357,180.313L13.357,180.313c-4.917,0-8.904-3.987-8.904-8.904v-26.713
	c0-4.917,3.987-8.904,8.904-8.904h8.904c4.917,0,8.904,3.987,8.904,8.904v17.809C31.165,172.34,23.192,180.313,13.357,180.313z"/>
<path style="fill:#FF6464;" d="M13.357,282.713C5.992,282.713,0,276.722,0,269.357c0-4.979,2.739-9.509,7.148-11.826
	c1.052-0.557,1.756-1.982,1.756-3.552v-11.335c0-2.461,1.991-4.452,4.452-4.452s4.452,1.991,4.452,4.452v11.335
	c0,4.94-2.495,9.317-6.521,11.431c-1.47,0.772-2.383,2.286-2.383,3.947c0,2.456,2,4.452,4.452,4.452s4.452-1.996,4.452-4.452
	c0-2.461,1.991-4.452,4.452-4.452s4.452,1.991,4.452,4.452C26.713,276.722,20.722,282.713,13.357,282.713z"/>
<path style="fill:#FFC84B;" d="M13.357,251.548L13.357,251.548c-4.917,0-8.904-3.987-8.904-8.904v-17.809
	c0-4.917,3.987-8.904,8.904-8.904l0,0c4.917,0,8.904,3.987,8.904,8.904v17.809C22.261,247.561,18.274,251.548,13.357,251.548z"/>
<g>
	<path style="fill:#D2555A;" d="M329.591,145.966c-4.226-2.53-9.687-1.161-12.218,3.052l-24.12,40.2h-12.767
		c-4.917,0-8.904,3.987-8.904,8.904c0,4.917,3.987,8.904,8.904,8.904h17.809c0.006,0,0.009-0.002,0.014-0.002
		c1.053-0.002,2.076-0.255,3.059-0.618c0.232-0.086,0.451-0.164,0.672-0.267c0.908-0.422,1.761-0.959,2.494-1.682
		c0.079-0.077,0.127-0.175,0.203-0.255c0.433-0.459,0.855-0.934,1.193-1.497l26.713-44.522
		C335.174,153.965,333.808,148.496,329.591,145.966z"/>
	<path style="fill:#D2555A;" d="M164.73,180.313h17.809c4.917,0,8.904-3.987,8.904-8.904v-8.904h-35.617v8.904
		C155.826,176.326,159.813,180.313,164.73,180.313z"/>
</g>
<g>
</g>
<g>
</g>
<g>
</g>
<g>
</g>
<g>
</g>
<g>
</g>
<g>
</g>
<g>
</g>
<g>
</g>
<g>
</g>
<g>
</g>
<g>
</g>
<g>
</g>
<g>
</g>
<g>
</g>
</svg>
