<?xml version="1.0" encoding="iso-8859-1"?>
<!-- Generator: Adobe Illustrator 19.0.0, SVG Export Plug-In . SVG Version: 6.00 Build 0)  -->
<svg version="1.1" id="Layer_1" xmlns="http://www.w3.org/2000/svg" xmlns:xlink="http://www.w3.org/1999/xlink" x="0px" y="0px"
	 viewBox="0 0 512.001 512.001" style="enable-background:new 0 0 512.001 512.001;" xml:space="preserve">
<path style="fill:#FFC84B;" d="M441.379,305.237c-2.259,0-4.518-0.862-6.241-2.586c-3.448-3.448-3.448-9.035,0-12.483l6.241-6.241
	v-75.794c0-9.737,7.923-17.655,17.655-17.655l19.181,0.004C496.845,190.487,512,205.647,512,224.276
	c0,9.026-3.518,17.513-9.897,23.892l-54.483,54.483C445.897,304.375,443.638,305.237,441.379,305.237z"/>
<rect x="322.19" y="22.747" transform="matrix(-0.5998 -0.8001 0.8001 -0.5998 433.6757 438.9358)" style="fill:#CAC9CD;" width="8.824" height="176.545"/>
<path style="fill:#FFC84B;" d="M238.044,326.146l-34.707-6.508l24.211-129.132c2.388-12.735,10.25-23.777,21.502-30.199
	l139.887-79.846c4.904-2.799,11.074-1.971,15.068,2.022l0,0c5.619,5.619,4.653,14.982-1.993,19.336l-132.685,86.932
	c-4.02,2.633-6.792,6.791-7.678,11.514L238.044,326.146z"/>
<rect x="185.379" y="367.029" style="fill:#625D6B;" width="70.621" height="35.31"/>
<path style="fill:#736F7B;" d="M141.241,305.237H17.655v-8.828c0-4.875,3.953-8.828,8.828-8.828h105.931
	c4.875,0,8.828,3.953,8.828,8.828V305.237z"/>
<path style="fill:#504B5A;" d="M353.103,464.134H52.966c-19.501,0-35.31-15.809-35.31-35.31l0,0c0-19.501,15.809-35.31,35.31-35.31
	h300.138c19.501,0,35.31,15.809,35.31,35.31l0,0C388.414,448.325,372.605,464.134,353.103,464.134z"/>
<rect x="52.966" y="411.167" style="fill:#625D6B;" width="300.138" height="35.31"/>
<g>
	<circle style="fill:#736F7B;" cx="52.966" cy="428.822" r="17.655"/>
	<circle style="fill:#736F7B;" cx="353.103" cy="428.822" r="17.655"/>
</g>
<path style="fill:#FFDC5A;" d="M267.748,225.789H167.724c-4.875,0-8.828,3.953-8.828,8.828v70.621H8.828
	c-4.875,0-8.828,3.953-8.828,8.828v52.966c0,4.875,3.953,8.828,8.828,8.828h150.069H291.31c4.875,0,8.828-3.953,8.828-8.828v-24.235
	c0-13.239-1.192-26.451-3.56-39.477l-11.46-63.032C283.592,231.891,276.28,225.789,267.748,225.789z"/>
<path style="fill:#FFC84B;" d="M291.31,375.858H8.828c-4.875,0-8.828-3.953-8.828-8.828v-17.655h300.138v17.655
	C300.138,371.905,296.185,375.858,291.31,375.858z"/>
<path style="fill:#736F7B;" d="M296.578,303.318l-11.46-63.032c-1.526-8.395-8.838-14.497-17.37-14.497h-82.368v55.994
	c0,9.365,3.72,18.346,10.343,24.968l14.626,14.626c6.622,6.622,15.604,10.343,24.968,10.343h64.324
	C299.161,322.199,298.285,312.704,296.578,303.318z"/>
<g>
	<path style="fill:#625D6B;" d="M207.448,234.617h-8.828c-2.438,0-4.414,1.976-4.414,4.414v42.753c0,7.023,2.791,13.76,7.757,18.727
		l3.048,3.048c2.528,2.528,6.85,0.737,6.85-2.838V239.03C211.862,236.593,209.886,234.617,207.448,234.617z"/>
	<path style="fill:#625D6B;" d="M287.893,304.896l-11.46-63.032c-0.764-4.198-4.418-7.249-8.685-7.249h-33.816
		c-2.438,0-4.414,1.976-4.414,4.414v79.448c0,2.438,1.976,4.414,4.414,4.414h51.416c2.607,0,4.68-2.286,4.406-4.879
		C289.263,313.373,288.65,309.059,287.893,304.896z"/>
</g>
<path style="fill:#FFDC5A;" d="M478.216,190.483l-5.453-0.001c-0.013-0.031-0.023-0.063-0.036-0.094l-59.32-133.471
	c-3.835-8.627-14.511-11.724-22.367-6.487c-6.504,4.335-8.67,12.892-5.012,19.799l64.753,122.31
	c-5.583,2.968-9.399,8.841-9.399,15.595v75.794l-6.241,6.241c-3.448,3.448-3.448,9.035,0,12.483
	c1.725,1.725,3.982,2.586,6.241,2.586c2.259,0,4.517-0.862,6.241-2.586l54.483-54.483c6.379-6.379,9.897-14.867,9.897-23.892
	C512,205.647,496.845,190.487,478.216,190.483z M489.621,235.686l-30.586,30.585v-58.139l19.181,0.004
	c8.897,0.004,16.129,7.242,16.129,16.138C494.345,228.586,492.664,232.638,489.621,235.686z"/>
<g>
</g>
<g>
</g>
<g>
</g>
<g>
</g>
<g>
</g>
<g>
</g>
<g>
</g>
<g>
</g>
<g>
</g>
<g>
</g>
<g>
</g>
<g>
</g>
<g>
</g>
<g>
</g>
<g>
</g>
</svg>
