<?xml version="1.0" encoding="iso-8859-1"?>
<!-- Generator: Adobe Illustrator 19.0.0, SVG Export Plug-In . SVG Version: 6.00 Build 0)  -->
<svg version="1.1" id="Layer_1" xmlns="http://www.w3.org/2000/svg" xmlns:xlink="http://www.w3.org/1999/xlink" x="0px" y="0px"
	 viewBox="0 0 512 512" style="enable-background:new 0 0 512 512;" xml:space="preserve">
<rect x="214.183" y="208.882" style="fill:#CAC9CD;" width="17.135" height="42.837"/>
<rect x="308.423" y="208.882" style="fill:#736F7B;" width="8.567" height="42.837"/>
<g>
	<path style="fill:#8D8A94;" d="M415.515,191.745L415.515,191.745c-2.366,0-4.284,1.918-4.284,4.284v68.539
		c0,2.366,1.918,4.284,4.284,4.284l0,0c2.366,0,4.284-1.918,4.284-4.284v-68.539C419.799,193.663,417.881,191.745,415.515,191.745z"
		/>
	<path style="fill:#8D8A94;" d="M137.077,243.149h244.169c2.366,0,4.284,1.918,4.284,4.284v21.418H137.077V243.149z"/>
</g>
<path style="fill:#DCDBDE;" d="M338.409,217.447h-128.51c-2.366,0-4.284-1.918-4.284-4.284v-8.567c0-2.366,1.918-4.284,4.284-4.284
	h128.51c2.366,0,4.284,1.918,4.284,4.284v8.567C342.693,215.529,340.775,217.447,338.409,217.447z"/>
<path style="fill:#B9B7BD;" d="M63.316,174.611h9.507c2.366,0,4.284,1.918,4.284,4.284v29.986H51.404l7.757-31.024
	C59.637,175.948,61.351,174.611,63.316,174.611z"/>
<g>
	<path style="fill:#DCDBDE;" d="M94.24,191.745v42.837H77.106v-29.986c0-2.366-1.918-4.284-4.284-4.284H42.837h-4.284
		c-2.366,0-4.284,1.918-4.284,4.284c0,2.366,1.918,4.284,4.284,4.284h4.284v25.702H21.418c-2.366,0-4.284,1.918-4.284,4.284v29.986
		h128.51v-77.106H94.24z"/>
	<path style="fill:#DCDBDE;" d="M458.351,234.582h42.837c2.366,0,4.284,1.918,4.284,4.284v21.418h-51.404v-21.418
		C454.068,236.5,455.986,234.582,458.351,234.582z"/>
</g>
<path style="fill:#D2555A;" d="M137.077,337.39H57.866c-3.825,0-7.187-2.536-8.237-6.213l-15.359-53.758h102.808V337.39z"/>
<path style="fill:#FF6464;" d="M0,264.567v12.851l94.617,47.309c16.655,8.327,35.019,12.663,53.64,12.663h268.081
	c7.371,0,14.11-4.165,17.407-10.758l0,0c2.058-4.118,5.51-7.371,9.741-9.184l46.009-19.718c4.744-2.034,8.486-5.868,10.404-10.66
	l11.791-29.477c1.126-2.813-0.947-5.875-3.977-5.875h-96.481l-17.135,8.567H4.284C1.918,260.284,0,262.202,0,264.567z"/>
<path style="fill:#625D6B;" d="M507.712,251.716h-96.481l-17.135,8.567H4.284c-2.366,0-4.284,1.918-4.284,4.284v12.851h503.758
	l7.931-19.827C512.815,254.777,510.743,251.716,507.712,251.716z"/>
<g>
	<rect x="94.24" y="217.449" style="fill:#CAC9CD;" width="51.404" height="17.135"/>
	<path style="fill:#CAC9CD;" d="M59.971,260.284H17.135v-21.418c0-2.366,1.918-4.284,4.284-4.284h34.269
		c2.366,0,4.284,1.918,4.284,4.284V260.284z"/>
</g>
<path style="fill:#EDEDEE;" d="M149.928,191.745H89.957c-2.366,0-4.284-1.918-4.284-4.284v-8.567c0-2.366,1.918-4.284,4.284-4.284
	h59.971c2.366,0,4.284,1.918,4.284,4.284v8.567C154.212,189.827,152.294,191.745,149.928,191.745z"/>
<g>
</g>
<g>
</g>
<g>
</g>
<g>
</g>
<g>
</g>
<g>
</g>
<g>
</g>
<g>
</g>
<g>
</g>
<g>
</g>
<g>
</g>
<g>
</g>
<g>
</g>
<g>
</g>
<g>
</g>
</svg>
