<?xml version="1.0" encoding="iso-8859-1"?>
<!-- Generator: Adobe Illustrator 19.0.0, SVG Export Plug-In . SVG Version: 6.00 Build 0)  -->
<svg version="1.1" id="Layer_1" xmlns="http://www.w3.org/2000/svg" xmlns:xlink="http://www.w3.org/1999/xlink" x="0px" y="0px"
	 viewBox="0 0 512 512" style="enable-background:new 0 0 512 512;" xml:space="preserve">
<g>
	<polygon style="fill:#A7A5AC;" points="252.116,430.345 243.113,430.345 235.034,470.737 235.034,471.172 243.954,471.172 	"/>
	<polygon style="fill:#A7A5AC;" points="268.887,430.345 259.884,430.345 268.046,471.172 277.053,471.172 	"/>
</g>
<path style="fill:#FFE682;" d="M286.918,432.552c3.044,0,5.948-1.25,8.033-3.468c51.987-55.281,137.601-160.303,137.601-252.532
	C432.552,79.044,353.507,0,256,0S79.448,79.044,79.448,176.552c0,92.228,85.614,197.251,137.6,252.532
	c2.086,2.218,4.989,3.468,8.033,3.468H286.918z"/>
<g>
	<path style="fill:#FFC850;" d="M147.147,344.276h217.706c8.039-11.368,15.821-23.192,23.09-35.31H124.057
		C131.326,321.084,139.108,332.908,147.147,344.276z"/>
	<path style="fill:#FFC850;" d="M79.448,176.552c0,8.73,0.775,17.576,2.208,26.483h348.687c1.433-8.907,2.208-17.752,2.208-26.483
		c0-21.773-4.13-42.536-11.338-61.793H90.786C83.578,134.016,79.448,154.778,79.448,176.552z"/>
</g>
<path style="fill:#FF9164;" d="M273.655,512h-35.31c-4.875,0-8.828-3.953-8.828-8.828V476.69c0-4.875,3.953-8.828,8.828-8.828h35.31
	c4.875,0,8.828,3.953,8.828,8.828v26.483C282.483,508.047,278.53,512,273.655,512z"/>
<path style="fill:#96E178;" d="M284.538,432.552c41.259-54.264,112.703-161.805,112.703-256C397.241,79.044,334.006,0,256,0
	S114.759,79.044,114.759,176.552c0,94.195,71.444,201.736,112.703,256H284.538z"/>
<g>
	<path style="fill:#8CCD73;" d="M347.971,335.448H164.029c6.711,12.31,13.695,24.11,20.697,35.31h142.547
		C334.276,359.559,341.26,347.758,347.971,335.448z"/>
	<path style="fill:#8CCD73;" d="M382.988,256c8.714-26.572,14.253-53.508,14.253-79.448c0-2.98-0.239-5.884-0.356-8.828h-281.77
		c-0.117,2.944-0.356,5.847-0.356,8.828c0,25.94,5.539,52.876,14.253,79.448H382.988z"/>
</g>
<path style="fill:#FFC850;" d="M275.62,432.552c28.365-54.264,77.483-161.805,77.483-256C353.103,79.044,309.629,0,256,0
	s-97.103,79.044-97.103,176.552c0,94.195,49.118,201.736,77.483,256H275.62z"/>
<g>
	<path style="fill:#FFAA50;" d="M328.518,308.966H183.482c4.003,12.13,8.274,23.933,12.7,35.31h119.636
		C320.245,332.898,324.514,321.096,328.518,308.966z"/>
	<path style="fill:#FFAA50;" d="M158.897,176.552c0,8.724,0.546,17.583,1.333,26.483H351.77c0.787-8.899,1.333-17.759,1.333-26.483
		c0-21.773-2.272-42.536-6.236-61.793H165.132C161.169,134.016,158.897,154.778,158.897,176.552z"/>
</g>
<path style="fill:#FF6464;" d="M263.135,432.552c10.315-54.264,28.175-161.805,28.175-256C291.31,79.044,275.501,0,256,0
	s-35.31,79.044-35.31,176.552c0,94.195,17.86,201.736,28.175,256H263.135z"/>
<g>
	<path style="fill:#D2555A;" d="M220.69,176.552c0,17.341,0.614,35.136,1.665,52.966h67.289c1.053-17.83,1.665-35.625,1.665-52.966
		c0-12.094-0.246-23.9-0.71-35.31h-69.203C220.936,152.652,220.69,164.458,220.69,176.552z"/>
	<path style="fill:#D2555A;" d="M236.831,361.931h38.338c1.706-11.262,3.383-23.073,4.986-35.31h-48.311
		C233.448,338.858,235.125,350.669,236.831,361.931z"/>
</g>
<g>
</g>
<g>
</g>
<g>
</g>
<g>
</g>
<g>
</g>
<g>
</g>
<g>
</g>
<g>
</g>
<g>
</g>
<g>
</g>
<g>
</g>
<g>
</g>
<g>
</g>
<g>
</g>
<g>
</g>
</svg>
