<?xml version="1.0" encoding="iso-8859-1"?>
<!-- Generator: Adobe Illustrator 19.0.0, SVG Export Plug-In . SVG Version: 6.00 Build 0)  -->
<svg version="1.1" id="Layer_1" xmlns="http://www.w3.org/2000/svg" xmlns:xlink="http://www.w3.org/1999/xlink" x="0px" y="0px"
	 viewBox="0 0 512 512" style="enable-background:new 0 0 512 512;" xml:space="preserve">
<path style="fill:#736F7B;" d="M353.112,211.863c-2.854,0-5.655-1.379-7.353-3.932l-12.414-18.621
	c-1.638-2.465-4.388-3.932-7.345-3.932h-8.207c-4.879,0-8.828-3.953-8.828-8.828c0-4.875,3.948-8.828,8.828-8.828h8.207
	c8.871,0,17.112,4.409,22.035,11.794l12.414,18.621c2.707,4.061,1.612,9.535-2.449,12.242
	C356.491,211.38,354.793,211.863,353.112,211.863z"/>
<path style="fill:#DCDBDE;" d="M498.759,256.001l-9.705-25.88c-2.319-6.186-6.687-11.404-12.396-14.729
	c-19.607-11.421-68.146-38.013-108.668-46.522c-3.352-0.704-6.602,1.571-7.274,4.931l-7.613,38.062l70.621,44.138H498.759z"/>
<path style="fill:#64BEF0;" d="M273.655,229.518l32.047-25.639c7.827-6.261,17.55-9.672,27.573-9.672h21.155
	c10.536,0,20.725,3.769,28.725,10.626l49.396,42.339H287.652L273.655,229.518z"/>
<path style="fill:#DCDBDE;" d="M176.552,211.863H84.871c-3.473,0-6.802,1.379-9.257,3.834l-13.821,13.821l141.241,35.31
	L176.552,211.863z"/>
<path style="fill:#625D6B;" d="M203.925,211.863L203.925,211.863c-5.652-5.652-13.319-8.828-21.312-8.828h-14.546
	c-7.313,0-11.674,8.15-7.618,14.236l25.821,38.73l52.966,17.655l38.368-13.484c8.64-2.468,14.598-10.366,14.598-19.352v-0.002
	c0-11.116-9.011-20.127-20.127-20.127h-46.837C217.244,220.69,209.577,217.514,203.925,211.863z"/>
<path style="fill:#DCDBDE;" d="M105.931,238.345l-67.144,14.921c-7.785,1.73-14.376,6.876-17.942,14.008L8.828,291.311h194.207
	l8.828-26.483L105.931,238.345z"/>
<path style="fill:#A7A5AC;" d="M229.526,282.483c-0.785,0-1.578-0.104-2.37-0.319L68.259,238.026
	c-4.698-1.311-7.448-6.173-6.146-10.871c1.302-4.698,6.164-7.414,10.871-6.146l158.897,44.138c4.698,1.311,7.448,6.173,6.146,10.871
	C236.94,279.923,233.388,282.483,229.526,282.483z"/>
<path style="fill:#625D6B;" d="M8.828,335.449c0,4.875,3.953,8.828,8.828,8.828H291.31c70.621,0,158.897-8.828,207.448-70.621
	v-17.655H300.138l-105.931,35.31H8.828V335.449z"/>
<path style="fill:#EDEDEE;" d="M13.241,308.966h253.941c10.108,0,20.121-1.929,29.506-5.683l59.864-23.946
	c9.385-3.754,19.399-5.683,29.506-5.683h112.7c7.313,0,13.241-5.929,13.241-13.241l0,0c0-7.313-5.929-13.241-13.241-13.241H296.48
	c-9.26,0-18.449,1.619-27.15,4.783l-83.95,30.528H13.241C5.929,282.483,0,288.412,0,295.725l0,0
	C0,303.037,5.929,308.966,13.241,308.966z"/>
<path style="fill:#625D6B;" d="M459.034,238.345c0,4.875,3.953,8.828,8.828,8.828h27.586l-6.395-17.053
	c-0.078-0.21-0.203-0.395-0.287-0.602h-20.905C462.987,229.518,459.034,233.47,459.034,238.345z"/>
<g>
</g>
<g>
</g>
<g>
</g>
<g>
</g>
<g>
</g>
<g>
</g>
<g>
</g>
<g>
</g>
<g>
</g>
<g>
</g>
<g>
</g>
<g>
</g>
<g>
</g>
<g>
</g>
<g>
</g>
</svg>
