<?xml version="1.0" encoding="iso-8859-1"?>
<!-- Generator: Adobe Illustrator 19.0.0, SVG Export Plug-In . SVG Version: 6.00 Build 0)  -->
<svg version="1.1" id="Layer_1" xmlns="http://www.w3.org/2000/svg" xmlns:xlink="http://www.w3.org/1999/xlink" x="0px" y="0px"
	 viewBox="0 0 512 512" style="enable-background:new 0 0 512 512;" xml:space="preserve">
<g>
	<polygon style="fill:#DCDBDE;" points="185.379,167.724 185.379,176.552 211.862,211.862 238.345,211.862 	"/>
	<path style="fill:#DCDBDE;" d="M158.897,247.172l35.31-44.138h73.056c4.13,0,8.13,1.448,11.303,4.092l48.055,40.046H158.897z"/>
</g>
<g>
	<path style="fill:#EDEDEE;" d="M0,341.744c0,6.273,5.086,11.359,11.359,11.359h391.608c54.084,0,92.637-36.243,107.725-53.216
		c2.965-3.335,0.555-8.577-3.907-8.577H88.343c-11.581,0-22.93,3.254-32.75,9.393L5.338,332.111C2.017,334.187,0,337.827,0,341.744
		L0,341.744z"/>
	<path style="fill:#EDEDEE;" d="M85.438,250.01l7.211-7.211c2.852-2.852,6.721-4.455,10.755-4.455h230.944
		c12.334,0,24.499,2.871,35.53,8.387l89.156,44.578H123.586L150.069,256H87.918C84.792,256,83.228,252.221,85.438,250.01z"/>
</g>
<polygon style="fill:#DCDBDE;" points="150.069,256 123.586,291.31 459.034,291.31 388.414,256 "/>
<g>
	<path style="fill:#625D6B;" d="M441.379,282.483L388.414,256h-88.276l89.12,24.306c5.299,1.446,10.766,2.177,16.259,2.177H441.379z
		"/>
	<path style="fill:#625D6B;" d="M327.777,275.369L264.828,256h-88.276l-13.774,18.366c-2.508,3.345-0.122,8.117,4.058,8.117h159.872
		C330.883,282.483,331.768,276.597,327.777,275.369z"/>
</g>
<path style="fill:#DCDBDE;" d="M397.241,335.448H61.793c-4.875,0-8.828-3.953-8.828-8.828l0,0c0-4.875,3.953-8.828,8.828-8.828
	h335.448c4.875,0,8.828,3.953,8.828,8.828l0,0C406.069,331.496,402.116,335.448,397.241,335.448z"/>
<path style="fill:#EDEDEE;" d="M278.566,207.126c-3.172-2.644-7.172-4.092-11.303-4.092H163.31c-2.438,0-4.414,1.976-4.414,4.414
	l0,0c0,2.438,1.976,4.414,4.414,4.414h120.938L278.566,207.126z"/>
<path style="fill:#625D6B;" d="M205.058,229.517h100.376l-21.186-17.655h-81.214l-3.975,7.949
	C196.83,224.27,200.073,229.517,205.058,229.517z"/>
<path style="fill:#EDEDEE;" d="M189.793,176.552h-8.828c-2.438,0-4.414-1.976-4.414-4.414v-8.828c0-2.438,1.976-4.414,4.414-4.414
	h8.828c2.438,0,4.414,1.976,4.414,4.414v8.828C194.207,174.575,192.231,176.552,189.793,176.552z"/>
<g>
</g>
<g>
</g>
<g>
</g>
<g>
</g>
<g>
</g>
<g>
</g>
<g>
</g>
<g>
</g>
<g>
</g>
<g>
</g>
<g>
</g>
<g>
</g>
<g>
</g>
<g>
</g>
<g>
</g>
</svg>
