<?xml version="1.0" encoding="iso-8859-1"?>
<!-- Generator: Adobe Illustrator 19.0.0, SVG Export Plug-In . SVG Version: 6.00 Build 0)  -->
<svg version="1.1" id="Layer_1" xmlns="http://www.w3.org/2000/svg" xmlns:xlink="http://www.w3.org/1999/xlink" x="0px" y="0px"
	 viewBox="0 0 512 512" style="enable-background:new 0 0 512 512;" xml:space="preserve">
<rect x="283.767" y="101.509" transform="matrix(-0.4472 -0.8944 0.8944 -0.4472 354.8328 439.9714)" style="fill:#CAC9CD;" width="59.216" height="17.655"/>
<path style="fill:#B9B7BD;" d="M445.793,392.828c-12.189,0-22.069-9.88-22.069-22.069c0-12.189,9.88-22.069,22.069-22.069
	c12.189,0,22.069,9.88,22.069,22.069C467.862,382.947,457.982,392.828,445.793,392.828z"/>
<path style="fill:#504B5A;" d="M445.793,304.552c-36.565,0-66.207,29.642-66.207,66.207s29.642,66.207,66.207,66.207
	S512,407.324,512,370.759S482.358,304.552,445.793,304.552z M445.793,410.483c-21.939,0-39.724-17.785-39.724-39.724
	c0-21.939,17.785-39.724,39.724-39.724c21.939,0,39.724,17.785,39.724,39.724C485.517,392.697,467.732,410.483,445.793,410.483z"/>
<path style="fill:#DCDBDE;" d="M445.526,379.034c-3,0-5.922-1.526-7.577-4.28l-43.423-72.276c-2.508-4.181-1.155-9.603,3.026-12.116
	c4.181-2.517,9.603-1.146,12.113,3.021l43.423,72.276c2.508,4.181,1.155,9.603-3.026,12.116
	C448.638,378.63,447.069,379.034,445.526,379.034z"/>
<path style="fill:#00AADC;" d="M386.574,326.069h82.831c3.333,0,6.379-1.892,7.854-4.883l4.577-9.274
	c2.411-4.885,1.191-10.718-2.906-14.308c-9.674-8.48-31.27-22.42-72.862-28.362L386.574,326.069z"/>
<path style="fill:#504B5A;" d="M83.862,304.552c-36.565,0-66.207,29.642-66.207,66.207s29.642,66.207,66.207,66.207
	s66.207-29.642,66.207-66.207S120.427,304.552,83.862,304.552z M83.862,410.483c-21.939,0-39.724-17.785-39.724-39.724
	c0-21.939,17.785-39.724,39.724-39.724s39.724,17.785,39.724,39.724C123.586,392.697,105.801,410.483,83.862,410.483z"/>
<path style="fill:#DCDBDE;" d="M172.138,392.828H83.862c-12.189,0-22.069-9.88-22.069-22.069l0,0
	c0-12.189,9.88-22.069,22.069-22.069h88.276c12.189,0,22.069,9.88,22.069,22.069l0,0
	C194.207,382.947,184.327,392.828,172.138,392.828z"/>
<path style="fill:#00AADC;" d="M326.621,366.345l15.272-83.991c1.571-8.642,1.282-17.519-0.849-26.041l-23.251-101.829h26.483
	l44.138,114.759l-26.483,97.103H326.621z"/>
<path style="fill:#64BEF0;" d="M380.226,363.487l37.441-81.123c3.775-8.179,3.134-17.716-1.703-25.315l-50.377-79.165
	c-2.078-3.265-6.286-4.43-9.748-2.7l-0.009,0.004c-6.679,3.34-9.988,10.999-7.843,18.152l14.546,48.487
	c5.4,18.001,6.297,37.053,2.611,55.481l-9.204,46.017c-1.649,8.253-8.895,14.193-17.311,14.193h-91.457l17.655-97.103
	l-17.655-26.483l-114.759-8.828l-67.453,7.495c-6.829,0.759-11.996,6.531-11.996,13.402l0,0c0,3.576,1.421,7.007,3.949,9.535
	l13.706,13.706c0,0-70.621,17.655-70.621,61.793v8.828c0,4.875,3.953,8.828,8.828,8.828h133.929c4.682,0,9.173,1.86,12.484,5.171
	l24.968,24.968c3.311,3.311,7.801,5.171,12.484,5.171h155.474C361.939,384,374.455,375.992,380.226,363.487z"/>
<path style="fill:#00AADC;" d="M264.828,260.414l-17.655-26.483l-114.759-8.828l-67.453,7.495
	c-6.829,0.758-11.996,6.531-11.996,13.402c0,3.576,1.421,7.007,3.95,9.535l13.705,13.706h192.601L264.828,260.414z"/>
<path style="fill:#64BEF0;" d="M370.759,163.31h-44.138c-9.751,0-17.655-7.904-17.655-17.655l0,0
	c0-9.751,7.904-17.655,17.655-17.655h44.138V163.31z"/>
<path style="fill:#625D6B;" d="M326.621,154.483c-2.259,0-4.518-0.862-6.241-2.586l-6.242-6.241H291.31
	c-4.879,0-8.828-3.953-8.828-8.828c0-4.875,3.948-8.828,8.828-8.828h22.827c4.647,0,9.198,1.884,12.483,5.173l6.241,6.241
	c3.448,3.448,3.448,9.035,0,12.483C331.138,153.621,328.879,154.483,326.621,154.483z"/>
<path style="fill:#DCDBDE;" d="M370.759,163.31h-8.828V128h8.828c4.875,0,8.828,3.953,8.828,8.828v17.655
	C379.586,159.358,375.634,163.31,370.759,163.31z"/>
<circle style="fill:#EDEDEE;" cx="83.862" cy="370.759" r="22.069"/>
<path style="fill:#625D6B;" d="M114.759,227.776L114.759,227.776c0,3.846,1.922,7.436,5.121,9.569l30.054,20.035
	c11.601,7.734,25.23,11.861,39.174,11.861h73.781c5.57,0,9.749-5.097,8.657-10.559l-1.038-5.194
	c-3.303-16.504-17.794-28.385-34.626-28.385h-47.374c-7.939,0-15.849-0.973-23.552-2.9l-12.115-3.029
	c-7.702-1.926-15.613-2.9-23.552-2.9h-3.029C119.907,216.276,114.759,221.425,114.759,227.776z"/>
<path style="fill:#00AADC;" d="M162.428,315.145l26.483,35.31c3.335,4.446,8.567,7.062,14.124,7.062h44.138l12.84-70.621h-83.46
	C162.003,286.897,153.698,303.506,162.428,315.145z"/>
<path style="fill:#DCDBDE;" d="M300.138,110.345h-8.828c-4.875,0-8.828-3.953-8.828-8.828V83.862c0-4.875,3.953-8.828,8.828-8.828
	h8.828c9.751,0,17.655,7.904,17.655,17.655l0,0C317.793,102.441,309.889,110.345,300.138,110.345z"/>
<g>
</g>
<g>
</g>
<g>
</g>
<g>
</g>
<g>
</g>
<g>
</g>
<g>
</g>
<g>
</g>
<g>
</g>
<g>
</g>
<g>
</g>
<g>
</g>
<g>
</g>
<g>
</g>
<g>
</g>
</svg>
