<?xml version="1.0" encoding="iso-8859-1"?>
<!-- Generator: Adobe Illustrator 19.0.0, SVG Export Plug-In . SVG Version: 6.00 Build 0)  -->
<svg version="1.1" id="Layer_1" xmlns="http://www.w3.org/2000/svg" xmlns:xlink="http://www.w3.org/1999/xlink" x="0px" y="0px"
	 viewBox="0 0 512 512" style="enable-background:new 0 0 512 512;" xml:space="preserve">
<circle style="fill:#625D6B;" cx="273.655" cy="242.759" r="123.586"/>
<path style="fill:#CAC9CD;" d="M141.241,388.414h-22.069c-2.438,0-4.414-1.976-4.414-4.414v-17.655c0-2.438,1.976-4.414,4.414-4.414
	h22.069V388.414z"/>
<path style="fill:#625D6B;" d="M467.862,392.828H141.241c-4.875,0-8.828-3.953-8.828-8.828v-17.655c0-4.875,3.953-8.828,8.828-8.828
	h326.621c9.751,0,17.655,7.904,17.655,17.655l0,0C485.517,384.924,477.613,392.828,467.862,392.828z"/>
<path style="fill:#FFDC5A;" d="M158.897,286.897l0.001,70.621c0,4.875,3.953,8.828,8.828,8.828H476.69
	c19.501,0,35.31-15.809,35.31-35.31v-52.966c0-19.501-15.809-35.31-35.31-35.31H17.655C7.904,242.759,0,250.663,0,260.414v0.001
	c0,4.875,3.953,8.828,8.828,8.828l132.414-0.001C150.993,269.241,158.897,277.145,158.897,286.897z"/>
<path style="fill:#FFC84B;" d="M158.897,357.517L41.804,341.905c-8.771-1.17-15.321-8.651-15.321-17.501v-55.163h114.759
	c9.751,0,17.655,7.904,17.655,17.655V357.517z"/>
<path style="fill:#625D6B;" d="M476.69,322.207H512v-35.31h-35.31c-4.875,0-8.828,3.953-8.828,8.828v17.655
	C467.862,318.254,471.815,322.207,476.69,322.207z"/>
<path style="fill:#CAC9CD;" d="M459.034,410.483H158.897c-4.875,0-8.828-3.953-8.828-8.828l0,0c0-4.875,3.953-8.828,8.828-8.828
	h300.138c4.875,0,8.828,3.953,8.828,8.828l0,0C467.862,406.53,463.91,410.483,459.034,410.483z"/>
<g>
	<rect x="185.379" y="366.345" style="fill:#A7A5AC;" width="17.655" height="26.483"/>
	<rect x="414.897" y="366.345" style="fill:#A7A5AC;" width="17.655" height="26.483"/>
	<path style="fill:#A7A5AC;" d="M238.345,106.165c-60.817,15.743-105.931,70.925-105.931,136.594h17.655
		c0-55.873,37.292-103.145,88.276-118.381V106.165z"/>
</g>
<path style="fill:#CAC9CD;" d="M313.379,128h-79.448c-2.438,0-4.414-1.976-4.414-4.414v-17.655c0-2.438,1.976-4.414,4.414-4.414
	h79.448c2.438,0,4.414,1.976,4.414,4.414v17.655C317.793,126.024,315.817,128,313.379,128z"/>
<path style="fill:#FFC84B;" d="M220.69,322.207L220.69,322.207c-9.751,0-17.655-7.904-17.655-17.655v-61.793h35.31v61.793
	C238.345,314.303,230.441,322.207,220.69,322.207z"/>
<g>
	<circle style="fill:#504B5A;" cx="220.69" cy="242.759" r="17.655"/>
	<circle style="fill:#504B5A;" cx="61.793" cy="286.897" r="17.655"/>
</g>
<g>
</g>
<g>
</g>
<g>
</g>
<g>
</g>
<g>
</g>
<g>
</g>
<g>
</g>
<g>
</g>
<g>
</g>
<g>
</g>
<g>
</g>
<g>
</g>
<g>
</g>
<g>
</g>
<g>
</g>
</svg>
