<?xml version="1.0" encoding="iso-8859-1"?>
<!-- Generator: Adobe Illustrator 19.0.0, SVG Export Plug-In . SVG Version: 6.00 Build 0)  -->
<svg version="1.1" id="Layer_1" xmlns="http://www.w3.org/2000/svg" xmlns:xlink="http://www.w3.org/1999/xlink" x="0px" y="0px"
	 viewBox="0 0 512 512" style="enable-background:new 0 0 512 512;" xml:space="preserve">
<rect x="102.4" y="302.933" style="fill:#504B5A;" width="59.733" height="25.6"/>
<g>
	<circle style="fill:#625D6B;" cx="102.4" cy="320" r="17.067"/>
	<circle style="fill:#625D6B;" cx="162.133" cy="320" r="17.067"/>
</g>
<rect x="349.867" y="302.933" style="fill:#504B5A;" width="59.733" height="25.6"/>
<g>
	<circle style="fill:#625D6B;" cx="349.867" cy="320" r="17.067"/>
	<circle style="fill:#625D6B;" cx="409.6" cy="320" r="17.067"/>
</g>
<g>
	<path style="fill:#DCDBDE;" d="M329.713,326.175l11.62-23.242H170.667l11.62,23.242c0.723,1.445,2.201,2.358,3.817,2.358h139.793
		C327.513,328.533,328.99,327.62,329.713,326.175z"/>
	<path style="fill:#DCDBDE;" d="M93.867,302.933H0V320c0,4.713,3.821,8.533,8.533,8.533H78.43c1.616,0,3.093-0.913,3.817-2.358
		L93.867,302.933z"/>
	<path style="fill:#DCDBDE;" d="M418.133,302.933l11.62,23.242c0.723,1.445,2.201,2.358,3.817,2.358h64.719
		c4.128,0,6.591-4.602,4.301-8.036l-11.709-17.564H418.133z"/>
</g>
<path style="fill:#EDEDEE;" d="M494.933,311.467H0v-128c0-4.713,3.821-8.533,8.533-8.533H358.4c68.267,0,153.6,68.268,153.6,102.4
	V294.4C512,303.826,504.359,311.467,494.933,311.467z"/>
<g>
	<path style="fill:#64BEF0;" d="M469.326,251.729c-0.022,0-0.035,0.004-0.058,0.004h0.065L469.326,251.729z"/>
	<path style="fill:#64BEF0;" d="M427.732,241.584l-55.134-36.752c-4.204-2.803-9.145-4.299-14.198-4.299H25.6
		c-4.713,0-8.533,3.821-8.533,8.533V243.2c0,4.713,3.821,8.533,8.533,8.533h399.06C430.141,251.733,432.293,244.624,427.732,241.584
		z"/>
</g>
<g>
	<path style="fill:#625D6B;" d="M81.067,243.2H38.4c-2.356,0-4.267-1.91-4.267-4.267v-25.6c0-2.356,1.91-4.267,4.267-4.267h42.667
		c2.356,0,4.267,1.91,4.267,4.267v25.6C85.333,241.29,83.423,243.2,81.067,243.2z"/>
	<path style="fill:#625D6B;" d="M149.333,243.2h-42.667c-2.356,0-4.267-1.91-4.267-4.267v-25.6c0-2.356,1.91-4.267,4.267-4.267
		h42.667c2.356,0,4.267,1.91,4.267,4.267v25.6C153.6,241.29,151.69,243.2,149.333,243.2z"/>
	<path style="fill:#625D6B;" d="M217.6,243.2h-42.667c-2.356,0-4.267-1.91-4.267-4.267v-25.6c0-2.356,1.91-4.267,4.267-4.267H217.6
		c2.356,0,4.267,1.91,4.267,4.267v25.6C221.867,241.29,219.956,243.2,217.6,243.2z"/>
	<path style="fill:#625D6B;" d="M285.867,243.2H243.2c-2.356,0-4.267-1.91-4.267-4.267v-25.6c0-2.356,1.91-4.267,4.267-4.267h42.667
		c2.356,0,4.267,1.91,4.267,4.267v25.6C290.133,241.29,288.223,243.2,285.867,243.2z"/>
	<path style="fill:#625D6B;" d="M354.133,243.2h-42.667c-2.356,0-4.267-1.91-4.267-4.267v-25.6c0-2.356,1.91-4.267,4.267-4.267
		h42.667c2.356,0,4.267,1.91,4.267,4.267v25.6C358.4,241.29,356.49,243.2,354.133,243.2z"/>
</g>
<g>
	<path style="fill:#DCDBDE;" d="M460.8,285.867H25.6c-4.713,0-8.533-3.821-8.533-8.533l0,0c0-4.713,3.821-8.533,8.533-8.533h435.2
		c4.713,0,8.533,3.821,8.533,8.533l0,0C469.333,282.046,465.513,285.867,460.8,285.867z"/>
	<path style="fill:#DCDBDE;" d="M486.4,277.333c0,4.713,3.821,8.533,8.533,8.533H512v-8.533c0-2.649-0.571-5.522-1.55-8.533h-15.517
		C490.221,268.8,486.4,272.621,486.4,277.333z"/>
</g>
<path style="fill:#625D6B;" d="M431.65,195.486c-0.571-0.293-1.154-0.599-1.713-0.883c-1.748-0.889-3.504-1.759-5.274-2.602h-32.156
	c-4.911,0-6.755,6.429-2.591,9.031l24.761,15.475c18.889,11.806,45.854,26.514,79.739,26.666
	C479.653,226.286,456.957,208.618,431.65,195.486z"/>
<g>
</g>
<g>
</g>
<g>
</g>
<g>
</g>
<g>
</g>
<g>
</g>
<g>
</g>
<g>
</g>
<g>
</g>
<g>
</g>
<g>
</g>
<g>
</g>
<g>
</g>
<g>
</g>
<g>
</g>
</svg>
