<?xml version="1.0" encoding="iso-8859-1"?>
<!-- Generator: Adobe Illustrator 19.0.0, SVG Export Plug-In . SVG Version: 6.00 Build 0)  -->
<svg version="1.1" id="Layer_1" xmlns="http://www.w3.org/2000/svg" xmlns:xlink="http://www.w3.org/1999/xlink" x="0px" y="0px"
	 viewBox="0 0 512 512" style="enable-background:new 0 0 512 512;" xml:space="preserve">
<path style="fill:#736F7B;" d="M383.991,155.045c-4.152,0-7.911-2.843-8.893-7.063l-16.831-72.009
	c-1.402-5.831-0.803-12.112,1.696-17.639l7.178-15.862c0.822-1.808,0.169-3.272-0.286-3.986c-0.464-0.714-1.536-1.915-3.518-1.915
	h-6.767c-5.054,0-9.143-4.094-9.143-9.143s4.089-9.143,9.143-9.143h6.768c7.67,0,14.733,3.848,18.883,10.295
	s4.741,14.459,1.581,21.442l-7.178,15.843c-0.831,1.839-1.035,3.937-0.562,5.897l16.839,72.058
	c1.152,4.915-1.902,9.834-6.822,10.982C385.384,154.97,384.679,155.045,383.991,155.045z"/>
<rect x="118.857" y="402.286" style="fill:#625D6B;" width="219.429" height="27.429"/>
<circle style="fill:#736F7B;" cx="59.429" cy="434.286" r="32"/>
<g>
	<path style="fill:#504B5A;" d="M59.429,374.858C26.607,374.858,0,401.465,0,434.286s26.607,59.429,59.429,59.429
		s59.429-26.607,59.429-59.429S92.25,374.858,59.429,374.858z M59.429,466.286c-17.673,0-32-14.327-32-32s14.327-32,32-32
		s32,14.327,32,32S77.102,466.286,59.429,466.286z"/>
	<path style="fill:#504B5A;" d="M452.571,374.858c-32.822,0-59.429,26.607-59.429,59.429s26.607,59.429,59.429,59.429
		S512,467.108,512,434.286S485.393,374.858,452.571,374.858z M452.571,466.286c-17.673,0-32-14.327-32-32s14.327-32,32-32
		s32,14.327,32,32S470.245,466.286,452.571,466.286z"/>
</g>
<path style="fill:#96E178;" d="M59.429,356.572c-21.562,0-42.33,9.072-56.991,24.883c-3.429,3.701-3.215,9.487,0.491,12.92
	c3.696,3.424,9.482,3.215,12.92-0.491c8.311-8.966,19.194-15.098,30.991-17.669c6.898-1.503,13.877,2.246,16.251,8.895
	l19.194,53.747L128,443.429c5.054,0,9.143-4.094,9.143-9.143C137.143,391.434,102.277,356.572,59.429,356.572z"/>
<path style="fill:#8CCD73;" d="M309.15,447.809H59.429c-7.574,0-13.714-6.141-13.714-13.714l0,0c0-7.574,6.141-13.714,13.714-13.714
	h249.723c2.746,0,5.347-1.234,7.083-3.362l93.712-114.83l21.25,17.339l-93.712,114.832
	C330.538,442.87,320.135,447.809,309.15,447.809z"/>
<path style="fill:#96E178;" d="M439.162,437.526L372.778,158.34c-1.169-4.89,1.845-9.803,6.734-10.976l8.965-2.151
	c4.894-1.175,9.814,1.843,10.984,6.738l66.405,279.274c1.735,7.354-2.803,14.727-10.151,16.489l0,0
	C448.328,449.487,440.906,444.919,439.162,437.526z"/>
<path style="fill:#625D6B;" d="M352,45.715L352,45.715c-7.543,0-13.714-6.171-13.714-13.714l0,0c0-7.543,6.171-13.714,13.714-13.714
	l0,0c7.543,0,13.714,6.171,13.714,13.714l0,0C365.714,39.543,359.543,45.715,352,45.715z"/>
<g>
</g>
<g>
</g>
<g>
</g>
<g>
</g>
<g>
</g>
<g>
</g>
<g>
</g>
<g>
</g>
<g>
</g>
<g>
</g>
<g>
</g>
<g>
</g>
<g>
</g>
<g>
</g>
<g>
</g>
</svg>
