<?xml version="1.0" encoding="iso-8859-1"?>
<!-- Generator: Adobe Illustrator 19.0.0, SVG Export Plug-In . SVG Version: 6.00 Build 0)  -->
<svg version="1.1" id="Layer_1" xmlns="http://www.w3.org/2000/svg" xmlns:xlink="http://www.w3.org/1999/xlink" x="0px" y="0px"
	 viewBox="0 0 512 512" style="enable-background:new 0 0 512 512;" xml:space="preserve">
<path style="fill:#DCDBDE;" d="M306.669,176.615l43.684-150.132h28.681V8.828h-28.681c-7.794,0-14.767,5.228-16.957,12.724
	l-43.924,150.973C295.176,173.988,300.916,175.33,306.669,176.615z"/>
<path style="fill:#CAC9CD;" d="M282.483,335.448H256v-53.138c0-6.972,0.971-13.909,2.887-20.611l35.551-124.435
	c1.34-4.687,6.226-7.402,10.913-6.063l8.49,2.425c4.687,1.34,7.402,6.226,6.062,10.913l-35.554,124.447
	c-1.238,4.333-1.866,8.818-1.866,13.324L282.483,335.448L282.483,335.448z"/>
<circle style="fill:#625D6B;" cx="225.103" cy="406.069" r="105.931"/>
<circle style="fill:#504B5A;" cx="225.103" cy="406.069" r="79.448"/>
<circle style="fill:#625D6B;" cx="225.103" cy="406.069" r="44.138"/>
<g>
	<path style="fill:#DCDBDE;" d="M225.103,375.172c-2.44,0-4.414-1.974-4.414-4.414v-26.483c0-2.44,1.974-4.414,4.414-4.414
		c2.44,0,4.414,1.974,4.414,4.414v26.483C229.517,373.198,227.543,375.172,225.103,375.172z"/>
	<path style="fill:#DCDBDE;" d="M225.103,472.276c-2.44,0-4.414-1.974-4.414-4.414v-26.483c0-2.44,1.974-4.414,4.414-4.414
		c2.44,0,4.414,1.974,4.414,4.414v26.483C229.517,470.302,227.543,472.276,225.103,472.276z"/>
	<path style="fill:#DCDBDE;" d="M171.586,441.379c-1.517,0-3.009-0.793-3.819-2.207c-1.224-2.112-0.5-4.81,1.612-6.03l22.94-13.241
		c2.103-1.219,4.81-0.495,6.026,1.617c1.224,2.112,0.5,4.81-1.612,6.03l-22.94,13.241
		C173.095,441.19,172.337,441.379,171.586,441.379z"/>
	<path style="fill:#DCDBDE;" d="M255.681,392.828c-1.517,0-3.009-0.793-3.819-2.207c-1.224-2.112-0.5-4.81,1.612-6.03l22.94-13.241
		c2.103-1.216,4.819-0.495,6.026,1.617c1.224,2.112,0.5,4.81-1.612,6.03l-22.94,13.241
		C257.19,392.638,256.431,392.828,255.681,392.828z"/>
	<path style="fill:#DCDBDE;" d="M278.621,441.379c-0.75,0-1.508-0.19-2.207-0.59l-22.94-13.241c-2.112-1.219-2.836-3.918-1.612-6.03
		c1.216-2.108,3.923-2.824,6.026-1.617l22.94,13.241c2.112,1.219,2.836,3.918,1.612,6.03
		C281.63,440.586,280.138,441.379,278.621,441.379z"/>
	<path style="fill:#DCDBDE;" d="M194.526,392.828c-0.75,0-1.508-0.19-2.207-0.59l-22.94-13.241c-2.112-1.219-2.836-3.918-1.612-6.03
		c1.216-2.108,3.923-2.819,6.026-1.617l22.94,13.241c2.112,1.219,2.836,3.918,1.612,6.03
		C197.535,392.034,196.043,392.828,194.526,392.828z"/>
</g>
<circle style="fill:#504B5A;" cx="225.103" cy="406.069" r="17.655"/>
<circle style="fill:#625D6B;" cx="379.586" cy="13.241" r="13.241"/>
<g>
</g>
<g>
</g>
<g>
</g>
<g>
</g>
<g>
</g>
<g>
</g>
<g>
</g>
<g>
</g>
<g>
</g>
<g>
</g>
<g>
</g>
<g>
</g>
<g>
</g>
<g>
</g>
<g>
</g>
</svg>
