<?xml version="1.0" encoding="iso-8859-1"?>
<!-- Generator: Adobe Illustrator 19.0.0, SVG Export Plug-In . SVG Version: 6.00 Build 0)  -->
<svg version="1.1" id="Layer_1" xmlns="http://www.w3.org/2000/svg" xmlns:xlink="http://www.w3.org/1999/xlink" x="0px" y="0px"
	 viewBox="0 0 512 512" style="enable-background:new 0 0 512 512;" xml:space="preserve">
<rect x="97.103" y="326.621" style="fill:#504B5A;" width="61.793" height="26.483"/>
<g>
	<circle style="fill:#625D6B;" cx="97.103" cy="344.276" r="17.655"/>
	<circle style="fill:#625D6B;" cx="158.897" cy="344.276" r="17.655"/>
</g>
<rect x="353.103" y="326.621" style="fill:#504B5A;" width="61.793" height="26.483"/>
<g>
	<circle style="fill:#625D6B;" cx="353.103" cy="344.276" r="17.655"/>
	<circle style="fill:#625D6B;" cx="414.897" cy="344.276" r="17.655"/>
</g>
<path style="fill:#FFDC5A;" d="M473.346,167.724H38.654c-7.833,0-14.702,5.174-16.993,12.664
	c-11.533,37.707-11.533,78.205,0,115.912c2.291,7.491,9.16,12.665,16.993,12.665h434.692c7.833,0,14.702-5.174,16.993-12.664
	c11.533-37.707,11.533-78.205,0-115.912C488.049,172.898,481.18,167.724,473.346,167.724z"/>
<path style="fill:#96E178;" d="M35.31,168.274c-6.361,1.254-11.699,5.736-13.651,12.116c-11.532,37.707-11.532,78.205,0,115.912
	c1.952,6.38,7.289,10.862,13.651,12.116V168.274z"/>
<path style="fill:#EDEDEE;" d="M35.31,308.416c1.107,0.218,2.183,0.549,3.343,0.549h14.312V167.724H38.654
	c-1.162,0-2.237,0.331-3.343,0.55C35.31,168.274,35.31,308.416,35.31,308.416z"/>
<path style="fill:#96E178;" d="M476.69,308.416c6.361-1.254,11.699-5.736,13.651-12.116c11.532-37.707,11.532-78.205,0-115.912
	c-1.952-6.38-7.289-10.862-13.651-12.116V308.416z"/>
<path style="fill:#EDEDEE;" d="M476.69,168.274c-1.107-0.218-2.183-0.55-3.343-0.55h-14.312v141.241h14.312
	c1.162,0,2.237-0.331,3.343-0.549V168.274z"/>
<g>
	<path style="fill:#FFC84B;" d="M423.724,308.966h-17.655V163.31c0-2.438,1.976-4.414,4.414-4.414h8.828
		c2.438,0,4.414,1.976,4.414,4.414V308.966z"/>
	<path style="fill:#FFC84B;" d="M105.931,308.966H88.276V163.31c0-2.438,1.976-4.414,4.414-4.414h8.828
		c2.438,0,4.414,1.976,4.414,4.414V308.966z"/>
	<path style="fill:#FFC84B;" d="M300.138,167.724h-88.276v-8.828c0-4.875,3.953-8.828,8.828-8.828h70.621
		c4.875,0,8.828,3.953,8.828,8.828V167.724z"/>
</g>
<path style="fill:#96E178;" d="M4.414,308.966h503.172c2.438,0,4.414,1.976,4.414,4.414v8.828c0,2.438-1.976,4.414-4.414,4.414
	H4.414c-2.438,0-4.414-1.976-4.414-4.414v-8.828C0,310.942,1.976,308.966,4.414,308.966z"/>
<g>
	<path style="fill:#8CCD73;" d="M114.759,308.966h-35.31v-13.241c0-2.438,1.976-4.414,4.414-4.414h26.483
		c2.438,0,4.414,1.976,4.414,4.414V308.966z"/>
	<path style="fill:#8CCD73;" d="M432.552,308.966h-35.31v-13.241c0-2.438,1.976-4.414,4.414-4.414h26.483
		c2.438,0,4.414,1.976,4.414,4.414V308.966z"/>
</g>
<path style="fill:#FFC84B;" d="M269.241,185.379h-26.483c-2.438,0-4.414,1.976-4.414,4.414v119.172h35.31V189.793
	C273.655,187.356,271.679,185.379,269.241,185.379z"/>
<g>
</g>
<g>
</g>
<g>
</g>
<g>
</g>
<g>
</g>
<g>
</g>
<g>
</g>
<g>
</g>
<g>
</g>
<g>
</g>
<g>
</g>
<g>
</g>
<g>
</g>
<g>
</g>
<g>
</g>
</svg>
