<?xml version="1.0" encoding="iso-8859-1"?>
<!-- Generator: Adobe Illustrator 19.0.0, SVG Export Plug-In . SVG Version: 6.00 Build 0)  -->
<svg version="1.1" id="Layer_1" xmlns="http://www.w3.org/2000/svg" xmlns:xlink="http://www.w3.org/1999/xlink" x="0px" y="0px"
	 viewBox="0 0 512.001 512.001" style="enable-background:new 0 0 512.001 512.001;" xml:space="preserve">
<path style="fill:#FFC84B;" d="M256.001,215.303c-0.652,0-1.314-0.151-1.916-0.452l-68.548-34.274
	c-1.448-0.728-2.368-2.21-2.368-3.832c0-1.623,0.92-3.104,2.368-3.832l68.548-34.274c1.205-0.603,2.627-0.603,3.832,0l68.548,34.274
	c1.448,0.728,2.368,2.21,2.368,3.832c0,1.623-0.92,3.104-2.368,3.832l-68.548,34.274
	C257.315,215.153,256.654,215.303,256.001,215.303z M197.033,176.745l58.967,29.483l58.967-29.483l-58.967-29.483L197.033,176.745z"
	/>
<path style="fill:#504B5A;" d="M500.203,373.82H11.798c-2.366,0-4.284-1.918-4.284-4.284v-8.569c0-2.366,1.918-4.284,4.284-4.284
	h488.404c2.366,0,4.284,1.918,4.284,4.284v8.569C504.487,371.902,502.569,373.82,500.203,373.82z"/>
<g>
	<circle style="fill:#625D6B;" cx="118.91" cy="365.246" r="17.137"/>
	<circle style="fill:#625D6B;" cx="187.447" cy="365.246" r="17.137"/>
	<circle style="fill:#625D6B;" cx="324.543" cy="365.246" r="17.137"/>
	<circle style="fill:#625D6B;" cx="393.091" cy="365.246" r="17.137"/>
</g>
<path style="fill:#FFC84B;" d="M510.978,288.391l-15.059-60.235H16.083L1.023,288.391c-1.365,5.458-1.365,11.168,0,16.625
	l13.436,53.745c0.953,3.814,4.381,6.491,8.313,6.491h83.279l4.284-8.569h85.685l4.284,8.569h111.391l4.284-8.569h85.685l4.284,8.569
	h83.279c3.932,0,7.359-2.676,8.313-6.491l13.436-53.745C512.342,299.559,512.342,293.849,510.978,288.391z"/>
<polygon style="fill:#FF6464;" points="9.656,339.546 502.345,339.546 510.913,305.272 1.088,305.272 "/>
<path style="fill:#FFDC5A;" d="M495.919,219.587H16.083c-4.732,0-8.568,3.837-8.568,8.568v4.284c0,2.366,1.918,4.284,4.284,4.284
	h488.404c2.366,0,4.284-1.918,4.284-4.284v-4.284C504.487,223.424,500.65,219.587,495.919,219.587z"/>
<path style="fill:#A7A5AC;" d="M474.497,228.156H37.504c-2.366,0-4.284-1.918-4.284-4.284v-8.568c0-2.366,1.918-4.284,4.284-4.284
	h436.993c2.366,0,4.284,1.918,4.284,4.284v8.568C478.782,226.237,476.863,228.156,474.497,228.156z"/>
<path style="fill:#736F7B;" d="M268.853,219.587h-25.706c-2.366,0-4.284-1.918-4.284-4.284v-8.569c0-2.366,1.918-4.284,4.284-4.284
	h25.706c2.366,0,4.284,1.918,4.284,4.284v8.569C273.138,217.669,271.219,219.587,268.853,219.587z"/>
<path style="fill:#FFDC5A;" d="M277.422,365.252h-42.842c-4.732,0-8.569-3.837-8.569-8.569V253.861c0-4.732,3.837-8.568,8.569-8.568
	h42.842c4.732,0,8.568,3.837,8.568,8.568v102.822C285.99,361.415,282.154,365.252,277.422,365.252z"/>
<g>
	<path style="fill:#625D6B;" d="M247.432,305.272h-8.568c-2.366,0-4.284-1.918-4.284-4.284v-42.842c0-2.366,1.918-4.284,4.284-4.284
		h8.568c2.366,0,4.284,1.918,4.284,4.284v42.842C251.716,303.354,249.798,305.272,247.432,305.272z"/>
	<path style="fill:#625D6B;" d="M273.138,305.272h-8.569c-2.366,0-4.284-1.918-4.284-4.284v-42.842c0-2.366,1.918-4.284,4.284-4.284
		h8.569c2.366,0,4.284,1.918,4.284,4.284v42.842C277.422,303.354,275.503,305.272,273.138,305.272z"/>
</g>
<path style="fill:#FFDC5A;" d="M461.645,365.252h-42.842c-4.732,0-8.569-3.837-8.569-8.569V253.861c0-4.732,3.837-8.568,8.569-8.568
	h42.842c4.732,0,8.568,3.837,8.568,8.568v102.822C470.213,361.415,466.376,365.252,461.645,365.252z"/>
<g>
	<path style="fill:#625D6B;" d="M431.655,305.272h-8.568c-2.366,0-4.284-1.918-4.284-4.284v-42.842c0-2.366,1.918-4.284,4.284-4.284
		h8.568c2.366,0,4.284,1.918,4.284,4.284v42.842C435.939,303.354,434.021,305.272,431.655,305.272z"/>
	<path style="fill:#625D6B;" d="M457.36,305.272h-8.568c-2.366,0-4.284-1.918-4.284-4.284v-42.842c0-2.366,1.918-4.284,4.284-4.284
		h8.568c2.366,0,4.284,1.918,4.284,4.284v42.842C461.645,303.354,459.726,305.272,457.36,305.272z"/>
</g>
<path style="fill:#FFDC5A;" d="M93.199,365.252H50.357c-4.732,0-8.569-3.837-8.569-8.569V253.861c0-4.732,3.837-8.568,8.569-8.568
	h42.842c4.732,0,8.568,3.837,8.568,8.568v102.822C101.768,361.415,97.931,365.252,93.199,365.252z"/>
<g>
	<path style="fill:#625D6B;" d="M63.209,305.272h-8.569c-2.366,0-4.284-1.918-4.284-4.284v-42.842c0-2.366,1.918-4.284,4.284-4.284
		h8.569c2.366,0,4.284,1.918,4.284,4.284v42.842C67.494,303.354,65.575,305.272,63.209,305.272z"/>
	<path style="fill:#625D6B;" d="M88.915,305.272h-8.569c-2.366,0-4.284-1.918-4.284-4.284v-42.842c0-2.366,1.918-4.284,4.284-4.284
		h8.569c2.366,0,4.284,1.918,4.284,4.284v42.842C93.199,303.354,91.281,305.272,88.915,305.272z"/>
	<path style="fill:#625D6B;" d="M140.326,296.704H114.62c-2.366,0-4.284-1.918-4.284-4.284v-42.843c0-2.366,1.918-4.284,4.284-4.284
		h25.705c2.366,0,4.284,1.918,4.284,4.284v42.843C144.61,294.785,142.692,296.704,140.326,296.704z"/>
	<path style="fill:#625D6B;" d="M208.874,296.704h-51.411c-2.366,0-4.284-1.918-4.284-4.284v-42.843
		c0-2.366,1.918-4.284,4.284-4.284h51.411c2.366,0,4.284,1.918,4.284,4.284v42.843C213.158,294.785,211.24,296.704,208.874,296.704z
		"/>
	<path style="fill:#625D6B;" d="M328.833,296.704h-25.705c-2.366,0-4.284-1.918-4.284-4.284v-42.843
		c0-2.366,1.918-4.284,4.284-4.284h25.705c2.366,0,4.284,1.918,4.284,4.284v42.843C333.117,294.785,331.199,296.704,328.833,296.704
		z"/>
	<path style="fill:#625D6B;" d="M397.381,296.704H345.97c-2.366,0-4.284-1.918-4.284-4.284v-42.843c0-2.366,1.918-4.284,4.284-4.284
		h51.411c2.366,0,4.284,1.918,4.284,4.284v42.843C401.665,294.785,399.747,296.704,397.381,296.704z"/>
	<path style="fill:#625D6B;" d="M500.203,245.293h-17.137c-2.366,0-4.284,1.918-4.284,4.284v42.843c0,2.366,1.918,4.284,4.284,4.284
		h28.935c0-2.791-0.341-5.583-1.024-8.313L500.203,245.293z"/>
	<path style="fill:#625D6B;" d="M33.22,292.419v-42.843c0-2.366-1.918-4.284-4.284-4.284H11.798L1.023,288.391
		c-0.681,2.729-1.023,5.521-1.023,8.313h28.935C31.301,296.704,33.22,294.785,33.22,292.419z"/>
</g>
<path style="fill:#736F7B;" d="M256.001,155.323c-2.368,0-4.284-1.916-4.284-4.284v-17.137c0-2.368,1.916-4.284,4.284-4.284
	c2.368,0,4.284,1.916,4.284,4.284v17.137C260.285,153.407,258.369,155.323,256.001,155.323z"/>
<g>
</g>
<g>
</g>
<g>
</g>
<g>
</g>
<g>
</g>
<g>
</g>
<g>
</g>
<g>
</g>
<g>
</g>
<g>
</g>
<g>
</g>
<g>
</g>
<g>
</g>
<g>
</g>
<g>
</g>
</svg>
