<?xml version="1.0" encoding="iso-8859-1"?>
<!-- Generator: Adobe Illustrator 19.0.0, SVG Export Plug-In . SVG Version: 6.00 Build 0)  -->
<svg version="1.1" id="Layer_1" xmlns="http://www.w3.org/2000/svg" xmlns:xlink="http://www.w3.org/1999/xlink" x="0px" y="0px"
	 viewBox="0 0 512.001 512.001" style="enable-background:new 0 0 512.001 512.001;" xml:space="preserve">
<path style="fill:#736F7B;" d="M211.862,231.725c-0.638,0-1.293-0.138-1.906-0.431L6.922,134.19
	c-1.534-0.733-2.508-2.284-2.508-3.982v-8.828c0-2.44,1.974-4.414,4.414-4.414h8.828c2.44,0,4.414,1.974,4.414,4.414
	c0,2.44-1.974,4.414-4.414,4.414h-4.414v1.633l200.526,95.901c2.198,1.052,3.129,3.69,2.078,5.888
	C215.086,230.798,213.508,231.725,211.862,231.725z"/>
<path style="fill:#EDEDEE;" d="M300.138,218.483h-88.276c-9.751,0-17.655,7.904-17.655,17.655v8.828h123.586v-8.828
	C317.793,226.387,309.889,218.483,300.138,218.483z"/>
<path style="fill:#DCDBDE;" d="M8.828,236.138h478.436c4.138,0,7.72,2.873,8.618,6.912l15.908,71.586
	c0.14,0.629,0.211,1.271,0.211,1.916v52c0,4.875-3.953,8.828-8.828,8.828H141.24L8.277,369.07C3.625,368.778,0,364.921,0,360.259
	V244.966C0,240.091,3.953,236.138,8.828,236.138z"/>
<path style="fill:#96E178;" d="M0,324.414v35.844c0,4.662,3.625,8.52,8.277,8.81l132.963,8.311h361.932
	c4.875,0,8.828-3.953,8.828-8.828v-44.138H0z"/>
<path style="fill:#625D6B;" d="M22.069,315.587h488.959c0.312-0.39,0.449-0.561,0.761-0.949l-13.521-60.844h-476.2
	c-2.438,0-4.414,1.976-4.414,4.414v52.966C17.655,313.611,19.631,315.587,22.069,315.587z"/>
<path style="fill:#8CCD73;" d="M8.277,369.07l132.963,8.31h361.932c4.875,0,8.828-3.953,8.828-8.828v-17.655H0v9.362
	C0,364.921,3.625,368.778,8.277,369.07z"/>
<circle style="fill:#504B5A;" cx="132.414" cy="368.552" r="26.483"/>
<circle style="fill:#DCDBDE;" cx="132.414" cy="368.552" r="13.241"/>
<circle style="fill:#504B5A;" cx="388.414" cy="368.552" r="26.483"/>
<circle style="fill:#DCDBDE;" cx="388.414" cy="368.552" r="13.241"/>
<g>
	<path style="fill:#504B5A;" d="M432.552,262.621h44.138c4.875,0,8.828,3.953,8.828,8.828v97.103c0,4.875-3.953,8.828-8.828,8.828
		h-44.138c-4.875,0-8.828-3.953-8.828-8.828v-97.103C423.724,266.574,427.677,262.621,432.552,262.621z"/>
	<path style="fill:#504B5A;" d="M203.034,262.621h44.138c4.875,0,8.828,3.953,8.828,8.828v97.103c0,4.875-3.953,8.828-8.828,8.828
		h-44.138c-4.875,0-8.828-3.953-8.828-8.828v-97.103C194.207,266.574,198.159,262.621,203.034,262.621z"/>
</g>
<g>
	<path style="fill:#625D6B;" d="M216.276,359.725h-8.828c-2.438,0-4.414-1.976-4.414-4.414V284.69c0-2.438,1.976-4.414,4.414-4.414
		h8.828c2.438,0,4.414,1.976,4.414,4.414v70.621C220.69,357.748,218.713,359.725,216.276,359.725z"/>
	<path style="fill:#625D6B;" d="M242.759,359.725h-8.828c-2.438,0-4.414-1.976-4.414-4.414V284.69c0-2.438,1.976-4.414,4.414-4.414
		h8.828c2.438,0,4.414,1.976,4.414,4.414v70.621C247.172,357.748,245.196,359.725,242.759,359.725z"/>
	<path style="fill:#625D6B;" d="M445.793,359.725h-8.828c-2.438,0-4.414-1.976-4.414-4.414V284.69c0-2.438,1.976-4.414,4.414-4.414
		h8.828c2.438,0,4.414,1.976,4.414,4.414v70.621C450.207,357.748,448.231,359.725,445.793,359.725z"/>
	<path style="fill:#625D6B;" d="M472.276,359.725h-8.828c-2.438,0-4.414-1.976-4.414-4.414V284.69c0-2.438,1.976-4.414,4.414-4.414
		h8.828c2.438,0,4.414,1.976,4.414,4.414v70.621C476.69,357.748,474.713,359.725,472.276,359.725z"/>
</g>
<g>
	<path style="fill:#736F7B;" d="M269.241,306.759h61.793c2.438,0,4.414-1.976,4.414-4.414v-35.31c0-2.438-1.976-4.414-4.414-4.414
		h-61.793c-2.438,0-4.414,1.976-4.414,4.414v35.31C264.828,304.783,266.804,306.759,269.241,306.759z"/>
	<path style="fill:#736F7B;" d="M119.172,306.759h61.793c2.438,0,4.414-1.976,4.414-4.414v-35.31c0-2.438-1.976-4.414-4.414-4.414
		h-61.793c-2.438,0-4.414,1.976-4.414,4.414v35.31C114.759,304.783,116.735,306.759,119.172,306.759z"/>
	<path style="fill:#736F7B;" d="M39.724,306.759h61.793c2.438,0,4.414-1.976,4.414-4.414v-35.31c0-2.438-1.976-4.414-4.414-4.414
		H39.724c-2.438,0-4.414,1.976-4.414,4.414v35.31C35.31,304.783,37.287,306.759,39.724,306.759z"/>
	<path style="fill:#736F7B;" d="M348.69,306.759h61.793c2.438,0,4.414-1.976,4.414-4.414v-35.31c0-2.438-1.976-4.414-4.414-4.414
		H348.69c-2.438,0-4.414,1.976-4.414,4.414v35.31C344.276,304.783,346.252,306.759,348.69,306.759z"/>
	<path style="fill:#736F7B;" d="M500.231,262.621h-1.472c-2.438,0-4.414,1.976-4.414,4.414v35.31c0,2.438,1.976,4.414,4.414,4.414
		h11.281L500.231,262.621z"/>
</g>
<g>
</g>
<g>
</g>
<g>
</g>
<g>
</g>
<g>
</g>
<g>
</g>
<g>
</g>
<g>
</g>
<g>
</g>
<g>
</g>
<g>
</g>
<g>
</g>
<g>
</g>
<g>
</g>
<g>
</g>
</svg>
