<?xml version="1.0" encoding="iso-8859-1"?>
<!-- Generator: Adobe Illustrator 19.0.0, SVG Export Plug-In . SVG Version: 6.00 Build 0)  -->
<svg version="1.1" id="Layer_1" xmlns="http://www.w3.org/2000/svg" xmlns:xlink="http://www.w3.org/1999/xlink" x="0px" y="0px"
	 viewBox="0 0 512 512" style="enable-background:new 0 0 512 512;" xml:space="preserve">
<path style="fill:#DCDBDE;" d="M337.384,353.103h-74.492c-4.051,0-7.582-2.756-8.564-6.687l-7.156-28.623h105.931l-7.156,28.623
	C344.966,350.347,341.434,353.103,337.384,353.103z"/>
<g>
	<path style="fill:#625D6B;" d="M273.655,317.793v17.655c0,4.875,3.953,8.828,8.828,8.828h26.483c4.875,0,8.828-3.953,8.828-8.828
		v-17.655H273.655z"/>
	<path style="fill:#625D6B;" d="M326.621,317.793v17.655c0,4.875,3.953,8.828,8.828,8.828h11.034l6.621-26.483H326.621z"/>
</g>
<g>
	<path style="fill:#DCDBDE;" d="M44.138,211.862l-7.114-42.687c-0.897-5.38,3.252-10.279,8.707-10.279h25.23
		c5.519,0,10.901,1.725,15.393,4.932l54.887,39.206L44.138,211.862z"/>
	<path style="fill:#DCDBDE;" d="M44.138,282.483l-7.114,42.687c-0.897,5.38,3.252,10.279,8.707,10.279h25.23
		c5.519,0,10.901-1.725,15.393-4.932l54.887-39.206L44.138,282.483z"/>
</g>
<path style="fill:#EDEDEE;" d="M512,247.172c0,43.878-90.902,79.448-203.034,79.448C150.069,326.621,0,291.05,0,247.172
	s150.069-79.448,308.966-79.448C421.098,167.724,512,203.295,512,247.172z"/>
<path style="fill:#D2555A;" d="M0,247.172c0,9.288,6.787,18.197,18.897,26.483h481.504C507.887,265.369,512,256.46,512,247.172
	c0-2.986-0.457-5.928-1.277-8.828H2.099C0.755,241.245,0,244.186,0,247.172z"/>
<path style="fill:#FF6464;" d="M506.905,229.517c-3.592-6.191-9.013-12.107-16.061-17.655H34.287
	c-11.306,5.548-20.095,11.464-25.95,17.655H506.905z"/>
<g>
	<path style="fill:#DCDBDE;" d="M114.759,256H44.138c-4.875,0-8.828-3.953-8.828-8.828l0,0c0-4.875,3.953-8.828,8.828-8.828h70.621
		c4.875,0,8.828,3.953,8.828,8.828l0,0C123.586,252.047,119.634,256,114.759,256z"/>
	<path style="fill:#DCDBDE;" d="M485.517,207.957v78.431C502.342,274.815,512,261.439,512,247.172
		C512,232.906,502.342,219.53,485.517,207.957z"/>
</g>
<g>
</g>
<g>
</g>
<g>
</g>
<g>
</g>
<g>
</g>
<g>
</g>
<g>
</g>
<g>
</g>
<g>
</g>
<g>
</g>
<g>
</g>
<g>
</g>
<g>
</g>
<g>
</g>
<g>
</g>
</svg>
