<?xml version="1.0" encoding="iso-8859-1"?>
<!-- Generator: Adobe Illustrator 19.0.0, SVG Export Plug-In . SVG Version: 6.00 Build 0)  -->
<svg version="1.1" id="Layer_1" xmlns="http://www.w3.org/2000/svg" xmlns:xlink="http://www.w3.org/1999/xlink" x="0px" y="0px"
	 viewBox="0 0 512 512" style="enable-background:new 0 0 512 512;" xml:space="preserve">
<path style="fill:#E8E8E8;" d="M156.155,323.288l-13.019-66.197c-3.127-15.897-18.549-26.25-34.446-23.123l0,0
	c-12.742,2.507-21.502,12.664-23.333,24.281c-9.577-3.424-20.669-1.775-28.956,5.305l0,0c-11.214,9.579-13.117,25.24-6.382,36.958
	c-11.234,1.308-21.179,9.083-24.685,20.594l0,0c-5.724,18.79,8.276,37.788,27.919,37.884l67.465,0.332
	C129.008,359.362,158.229,333.832,156.155,323.288z"/>
<path style="opacity:0.03;enable-background:new    ;" d="M156.155,323.288l-6.898-35.074
	c-30.411,15.542-51.524,41.265-55.385,70.975l26.844,0.132C129.008,359.362,158.229,333.832,156.155,323.288z"/>
<path style="fill:#F4B759;" d="M314.651,482.587h-33.139v-73.494h-29.412v73.494h-10.945c-8.122,0-14.706,6.584-14.706,14.706l0,0
	c0,8.122,6.584,14.706,14.706,14.706h73.494c8.122,0,14.706-6.584,14.706-14.706l0,0
	C329.357,489.172,322.773,482.587,314.651,482.587z"/>
<path style="fill:#F7DA70;" d="M253.943,482.587h-33.14v-73.494h-29.412v73.494h-10.944c-8.122,0-14.706,6.584-14.706,14.706l0,0
	c0,8.122,6.584,14.706,14.706,14.706h73.494c8.122,0,14.705-6.584,14.705-14.706l0,0
	C268.648,489.172,262.064,482.587,253.943,482.587z"/>
<path style="opacity:0.05;enable-background:new    ;" d="M191.391,409.093v44.483c9.269,2.627,19.126,4.498,29.412,5.553v-50.036
	L191.391,409.093L191.391,409.093z"/>
<path style="opacity:0.05;enable-background:new    ;" d="M252.1,409.093v50.706c10.49-0.621,20.323-2.104,29.412-4.388v-46.318
	H252.1z"/>
<path style="fill:#E8E8E8;" d="M352.614,359.264c0,53.323-43.652,87.812-111.918,87.812s-123.606-34.489-123.606-87.812
	s55.34-96.549,123.606-96.549S352.614,305.942,352.614,359.264z"/>
<path style="opacity:0.03;enable-background:new    ;" d="M240.696,262.715c-25.499,0-49.192,6.033-68.874,16.368
	c24.947,41.001,76.115,68.966,142.745,68.966c12.933,0,25.278-1.062,36.969-3.06C344.457,298.437,302.75,262.715,240.696,262.715z"
	/>
<path style="fill:#D4624E;" d="M343.055,0L343.055,0c-8.788,0-16.444,4.777-20.565,11.862c-5.045-8.238-14.821-12.908-24.857-10.941
	l0,0c-9.867,1.934-16.793,9.526-18.7,18.406c-8.476-5.274-19.71-4.826-27.799,1.916c-12.241,10.2-11.194,29.315,2.088,38.117
	l45.617,30.233c4.613,3.057,49.323,0.136,51.322-6.545l15.69-52.429C370.421,15.354,358.99,0,343.055,0z"/>
<path style="fill:#E8E8E8;" d="M487.959,198.098c0,71.166-63.825,128.857-159.534,128.857S168.89,269.263,168.89,198.098
	S232.714,69.24,328.424,69.24S487.959,126.931,487.959,198.098z"/>
<g>
	<path style="fill:#4A5058;" d="M314.224,163.464c-4.509,0-8.163-3.655-8.163-8.163v-12.156c0-4.508,3.654-8.163,8.163-8.163
		s8.163,3.655,8.163,8.163v12.156C322.387,159.809,318.733,163.464,314.224,163.464z"/>
	<path style="fill:#4A5058;" d="M437.832,163.464c-4.509,0-8.163-3.655-8.163-8.163v-12.156c0-4.508,3.654-8.163,8.163-8.163
		s8.163,3.655,8.163,8.163v12.156C445.995,159.809,442.34,163.464,437.832,163.464z"/>
</g>
<path style="fill:#D4624E;" d="M396.857,252.7l-8.114-27.111c-1.034-3.455-4.212-5.822-7.819-5.822c-4.507,0-11.816,0-16.323,0
	c-3.606,0-6.785,2.366-7.819,5.822l-8.113,27.111c-2.363,7.893,3.549,15.833,11.788,15.833c6.796,0,12.305-5.509,12.305-12.305
	c0,6.796,5.509,12.305,12.305,12.305C393.308,268.533,399.219,260.594,396.857,252.7z"/>
<path style="fill:#F4B759;" d="M351.228,200.457v8.714c0,10.141,8.221,18.361,18.362,18.361h13.945
	c10.356,0,19.875-5.689,24.781-14.809l6.597-12.266L351.228,200.457L351.228,200.457z"/>
<path style="fill:#F7DA70;" d="M423.473,206.556h-72.245v-19.639c0-13.455,10.908-24.363,24.363-24.363h12.286
	c21.98,0,39.798,17.818,39.798,39.798l0,0C427.675,204.674,425.793,206.556,423.473,206.556z"/>
<path style="opacity:0.05;enable-background:new    ;" d="M227.419,401.367h-13.91c-27.345,0-52.487-14.998-65.478-39.062l0,0
	c-5.342-9.894,1.823-21.904,13.067-21.904h66.321c16.835,0,30.483,13.647,30.483,30.483l0,0
	C257.901,387.72,244.254,401.367,227.419,401.367z"/>
<g>
</g>
<g>
</g>
<g>
</g>
<g>
</g>
<g>
</g>
<g>
</g>
<g>
</g>
<g>
</g>
<g>
</g>
<g>
</g>
<g>
</g>
<g>
</g>
<g>
</g>
<g>
</g>
<g>
</g>
</svg>
