<?xml version="1.0" encoding="iso-8859-1"?>
<!-- Generator: Adobe Illustrator 19.0.0, SVG Export Plug-In . SVG Version: 6.00 Build 0)  -->
<svg version="1.1" id="Layer_1" xmlns="http://www.w3.org/2000/svg" xmlns:xlink="http://www.w3.org/1999/xlink" x="0px" y="0px"
	 viewBox="0 0 512 512" style="enable-background:new 0 0 512 512;" xml:space="preserve">
<path style="fill:#EDBCB9;" d="M351.606,509.628H297.56c-10.338,0-18.719-8.38-18.719-18.719s8.38-18.719,18.719-18.719h54.045
	c10.338,0,18.719,8.38,18.719,18.719C370.324,501.248,361.944,509.628,351.606,509.628z"/>
<path style="opacity:0.08;enable-background:new    ;" d="M351.606,472.191H297.56c-10.338,0-18.719,8.38-18.719,18.719
	c0,10.338,8.38,18.719,18.719,18.719h17.333c19.725-7.054,35.621-18.528,45.388-35.296
	C357.686,472.971,354.739,472.191,351.606,472.191z"/>
<g>
	<path style="fill:#EDBCB9;" d="M214.44,509.628h-54.045c-10.338,0-18.719-8.38-18.719-18.719s8.38-18.719,18.719-18.719h54.045
		c10.338,0,18.718,8.38,18.718,18.719C233.158,501.248,224.778,509.628,214.44,509.628z"/>
	<path style="fill:#EDBCB9;" d="M191.875,465.632c-89.471,0-162.263-72.791-162.263-162.264v-32.466c0-4.512,3.658-8.17,8.17-8.17
		s8.17,3.658,8.17,8.17v32.466c0,80.462,65.461,145.923,145.922,145.923c4.512,0,8.17,3.658,8.17,8.17
		C200.045,461.974,196.387,465.632,191.875,465.632z"/>
</g>
<path style="opacity:0.08;enable-background:new    ;" d="M214.44,472.191h-54.045c-3.133,0-6.081,0.78-8.676,2.141
	c9.767,16.767,25.663,28.243,45.388,35.296h17.333c10.338,0,18.718-8.38,18.718-18.719
	C233.158,480.573,224.778,472.191,214.44,472.191z"/>
<path style="fill:#E8E8E8;" d="M370.994,417.724c0,63.51-51.484,87.785-114.994,87.785s-114.994-24.275-114.994-87.785
	S192.49,302.73,256,302.73S370.994,354.215,370.994,417.724z"/>
<path style="opacity:0.08;enable-background:new    ;" d="M256,302.73c-45.133,0-84.186,26.005-103.012,63.845
	c28.512,13.901,64.232,20.07,103.012,20.07c38.779,0,74.499-6.169,103.011-20.07C340.186,328.736,301.133,302.73,256,302.73z"/>
<circle style="fill:#E8E8E8;" cx="106.169" cy="108.541" r="106.169"/>
<circle style="fill:#EDBCB9;" cx="106.169" cy="108.541" r="55.743"/>
<path style="opacity:0.08;enable-background:new    ;" d="M209.757,85.176c-67.861,8.941-123.017,58.162-140.682,122.863
	c11.548,4.307,24.047,6.667,37.097,6.667c58.636,0,106.17-47.534,106.17-106.17C212.341,100.509,211.445,92.693,209.757,85.176z"/>
<circle style="fill:#E8E8E8;" cx="405.831" cy="108.541" r="106.169"/>
<circle style="fill:#EDBCB9;" cx="405.831" cy="108.541" r="55.743"/>
<path style="fill:#E8E8E8;" d="M424.922,236.478c0,93.293-75.629,128.952-168.922,128.952S87.078,329.77,87.078,236.478
	S162.707,67.556,256,67.556S424.922,143.185,424.922,236.478z"/>
<g>
	<path style="fill:#4A5058;" d="M201.862,234.188c-4.512,0-8.17-3.658-8.17-8.17c0-3.46-2.815-6.275-6.275-6.275
		s-6.275,2.815-6.275,6.275c0,4.512-3.658,8.17-8.17,8.17s-8.17-3.658-8.17-8.17c0-12.47,10.145-22.615,22.615-22.615
		s22.615,10.145,22.615,22.615C210.032,230.531,206.374,234.188,201.862,234.188z"/>
	<path style="fill:#4A5058;" d="M339.028,234.188c-4.513,0-8.17-3.658-8.17-8.17c0-3.46-2.815-6.275-6.275-6.275
		s-6.275,2.815-6.275,6.275c0,4.512-3.657,8.17-8.17,8.17c-4.513,0-8.17-3.658-8.17-8.17c0-12.47,10.145-22.615,22.615-22.615
		c12.47,0,22.615,10.145,22.615,22.615C347.198,230.531,343.54,234.188,339.028,234.188z"/>
	<path style="fill:#4A5058;" d="M200.643,278.604h-40.249c-4.512,0-8.17-3.658-8.17-8.17c0-4.512,3.658-8.17,8.17-8.17h40.249
		c4.512,0,8.17,3.658,8.17,8.17C208.813,274.946,205.155,278.604,200.643,278.604z"/>
	<path style="fill:#4A5058;" d="M170.753,326.9c-2.713,0-5.364-1.349-6.919-3.813c-2.407-3.816-1.266-8.862,2.551-11.269
		l35.277-22.253c3.816-2.407,8.862-1.265,11.269,2.551c2.408,3.817,1.266,8.862-2.551,11.269l-35.277,22.253
		C173.751,326.493,172.243,326.9,170.753,326.9z"/>
	<path style="fill:#4A5058;" d="M351.606,278.604h-40.248c-4.513,0-8.17-3.658-8.17-8.17c0-4.512,3.657-8.17,8.17-8.17h40.248
		c4.513,0,8.17,3.658,8.17,8.17C359.776,274.946,356.118,278.604,351.606,278.604z"/>
	<path style="fill:#4A5058;" d="M341.248,326.9c-1.49,0-2.998-0.407-4.352-1.261l-35.277-22.253
		c-3.816-2.407-4.959-7.452-2.551-11.269c2.409-3.817,7.452-4.959,11.271-2.551l35.277,22.253c3.816,2.408,4.959,7.452,2.551,11.269
		C346.612,325.55,343.959,326.9,341.248,326.9z"/>
</g>
<circle style="fill:#EDBCB9;" cx="256" cy="270.431" r="30.23"/>
<g>
	<path style="fill:#FFFFFF;" d="M214.873,453.615c-4.507,0-9.025-1.617-12.616-4.896c-14.695-13.418-21.701-31.909-21.992-43.41
		c-0.261-10.335,7.904-18.924,18.239-19.186c10.282-0.283,18.876,7.859,19.184,18.153c0.237,2.551,3.364,10.909,9.813,16.797
		c7.634,6.971,8.172,18.81,1.202,26.444C225.01,451.561,219.95,453.615,214.873,453.615z"/>
	<path style="fill:#FFFFFF;" d="M297.126,453.615c-5.076,0-10.135-2.052-13.828-6.097c-6.971-7.634-6.432-19.473,1.202-26.444
		c6.48-5.915,9.604-14.322,9.815-16.831c0.26-10.334,8.819-18.453,19.181-18.179c10.335,0.26,18.498,8.91,18.238,19.245
		c-0.29,11.503-7.297,29.994-21.992,43.413C306.152,451.997,301.631,453.615,297.126,453.615z"/>
</g>
<g>
</g>
<g>
</g>
<g>
</g>
<g>
</g>
<g>
</g>
<g>
</g>
<g>
</g>
<g>
</g>
<g>
</g>
<g>
</g>
<g>
</g>
<g>
</g>
<g>
</g>
<g>
</g>
<g>
</g>
</svg>
