<?xml version="1.0" encoding="iso-8859-1"?>
<!-- Generator: Adobe Illustrator 19.0.0, SVG Export Plug-In . SVG Version: 6.00 Build 0)  -->
<svg version="1.1" id="Layer_1" xmlns="http://www.w3.org/2000/svg" xmlns:xlink="http://www.w3.org/1999/xlink" x="0px" y="0px"
	 viewBox="0 0 512.001 512.001" style="enable-background:new 0 0 512.001 512.001;" xml:space="preserve">
<path style="fill:#F4B759;" d="M0.261,198.818l5.58,34.068c7.69,46.951,40.115,86.099,84.812,102.399l43.404,15.828
	c13.222,4.822,26.683-6.535,24.157-20.38l-8.422-46.162c-4.843-26.548-23.795-48.333-49.416-56.807l0,0
	c-22.512-7.445-43.095-19.782-60.272-36.125l-9.381-8.925C18.098,170.704-2.555,181.623,0.261,198.818z"/>
<path style="fill:#E8E8E8;" d="M40.103,191.639l-9.381-8.925c-12.624-12.01-33.278-1.091-30.461,16.104l5.58,34.068
	c0.891,5.438,2.127,10.765,3.662,15.97c20.987-3.961,42.174-14.014,57.322-36.693C57.254,206.291,48.288,199.426,40.103,191.639z"/>
<path style="opacity:0.05;enable-background:new    ;" d="M158.213,330.732l-7.523-41.235c-24.926,5.841-44.96,24.347-52.951,48.371
	l36.317,13.244C147.278,355.935,160.74,344.577,158.213,330.732z"/>
<rect x="268.657" y="374.332" style="fill:#F4B759;" width="41.741" height="48.827"/>
<path style="fill:#4A5058;" d="M313.684,423.163H268.66v20.115c0,6.072,4.922,10.994,10.994,10.994h48.336
	c4.64,0,8.402-3.762,8.402-8.402l0,0C336.391,433.329,326.224,423.163,313.684,423.163z"/>
<path style="opacity:0.15;enable-background:new    ;" d="M313.684,423.163h-3.283v-48.829H268.66v68.944
	c0,6.072,4.922,10.994,10.994,10.994h48.336c4.64,0,8.402-3.762,8.402-8.402C336.391,433.329,326.224,423.163,313.684,423.163z"/>
<path style="fill:#F4B759;" d="M184.461,288.721c-40.623,0-73.553,32.931-73.553,73.553v60.89h41.741v-32.053h50.068v32.053h41.741
	v-32.053h20.569c41.079,0,74.378-33.301,74.378-74.378v-28.011H184.461V288.721z"/>
<path style="opacity:0.05;enable-background:new    ;" d="M190,288.721c25.993,42.878,77.122,76.181,120.232,87.061
	c17.731-13.594,29.174-34.981,29.174-59.05v-28.011L190,288.721L190,288.721z"/>
<path style="fill:#4A5058;" d="M318.069,133.466l-118.626,56.627l-1.884-16.37c-3.853-33.471-3.109-67.313,2.21-100.583l0,0
	c2.021-12.636,16.064-19.341,27.16-12.965l0,0c29.214,16.786,55.994,37.488,79.596,61.532L318.069,133.466z"/>
<path style="fill:#EDBCB9;" d="M287.891,143.132c-14.672-16.294-31.087-30.552-48.786-42.38l0,0
	c-6.723-4.492-14.708-0.68-15.442,7.371l0,0c-1.935,21.2-1.17,42.929,2.273,64.582l0.7,4.406l64.241-30.666L287.891,143.132z"/>
<path style="fill:#4A5058;" d="M376.831,133.466l118.626,56.627l1.884-16.37c3.852-33.471,3.109-67.313-2.209-100.583l0,0
	c-2.021-12.636-16.064-19.341-27.16-12.965l0,0c-29.214,16.786-55.994,37.488-79.596,61.532L376.831,133.466z"/>
<path style="fill:#EDBCB9;" d="M407.008,143.132c14.672-16.294,31.086-30.552,48.786-42.38l0,0
	c6.723-4.492,14.708-0.68,15.442,7.371l0,0c1.935,21.2,1.17,42.929-2.273,64.582l-0.701,4.406l-64.241-30.666L407.008,143.132z"/>
<path style="fill:#F4B759;" d="M347.451,124.075c92.307,0,177.134,44.901,163.002,112.266
	C495.628,307,404.024,363.993,347.451,363.993S199.273,307,184.449,236.341C170.316,168.976,255.142,124.075,347.451,124.075z"/>
<path style="fill:#E8E8E8;" d="M347.451,298.437c-50.003,0-123.548-17.74-163.476-64.621c0.146,0.839,0.297,1.679,0.475,2.525
	C199.273,307,290.877,363.993,347.451,363.993S495.628,307,510.452,236.341c0.178-0.846,0.329-1.687,0.475-2.525
	C470.999,280.697,397.453,298.437,347.451,298.437z"/>
<g>
	<path style="fill:#4A5058;" d="M276.406,257.384c-4.552,0-8.24-3.688-8.24-8.24v-12.272c0-4.552,3.688-8.24,8.24-8.24
		c4.551,0,8.24,3.688,8.24,8.24v12.272C284.646,253.694,280.958,257.384,276.406,257.384z"/>
	<path style="fill:#4A5058;" d="M418.489,257.384c-4.551,0-8.24-3.688-8.24-8.24v-12.272c0-4.552,3.689-8.24,8.24-8.24
		c4.552,0,8.24,3.688,8.24,8.24v12.272C426.729,253.694,423.04,257.384,418.489,257.384z"/>
	<path style="fill:#4A5058;" d="M375.974,311.446c-4.552,0-8.24,3.688-8.24,8.24c0,3.321-2.702,6.023-6.023,6.023
		s-6.023-2.702-6.023-6.023v-20.55h-16.481v20.55c0,3.321-2.702,6.023-6.024,6.023c-3.32,0-6.022-2.702-6.022-6.023
		c0-4.552-3.688-8.24-8.24-8.24s-8.24,3.688-8.24,8.24c0,12.409,10.095,22.504,22.503,22.504c5.409,0,10.378-1.918,14.265-5.11
		c3.885,3.192,8.855,5.11,14.263,5.11c12.409,0,22.504-10.095,22.504-22.504C384.215,315.134,380.526,311.446,375.974,311.446z"/>
	<path style="fill:#4A5058;" d="M374.803,284.528l-6.367,7.582c-10.952,13.043-31.022,13.043-41.973,0l-6.367-7.582
		c-3.281-3.907-0.503-9.865,4.598-9.865h45.51C375.306,274.663,378.084,280.621,374.803,284.528z"/>
	<path style="fill:#4A5058;" d="M155.932,423.163h-45.024v20.115c0,6.072,4.922,10.994,10.994,10.994h48.336
		c4.64,0,8.402-3.762,8.402-8.402l0,0C178.639,433.329,168.472,423.163,155.932,423.163z"/>
	<path style="fill:#4A5058;" d="M247.74,423.163h-45.024v20.115c0,6.072,4.922,10.994,10.994,10.994h48.336
		c4.64,0,8.402-3.762,8.402-8.402l0,0C270.448,433.329,260.282,423.163,247.74,423.163z"/>
</g>
<g>
</g>
<g>
</g>
<g>
</g>
<g>
</g>
<g>
</g>
<g>
</g>
<g>
</g>
<g>
</g>
<g>
</g>
<g>
</g>
<g>
</g>
<g>
</g>
<g>
</g>
<g>
</g>
<g>
</g>
</svg>
