<?xml version="1.0" encoding="iso-8859-1"?>
<!-- Generator: Adobe Illustrator 19.0.0, SVG Export Plug-In . SVG Version: 6.00 Build 0)  -->
<svg version="1.1" id="Layer_1" xmlns="http://www.w3.org/2000/svg" xmlns:xlink="http://www.w3.org/1999/xlink" x="0px" y="0px"
	 viewBox="0 0 512 512" style="enable-background:new 0 0 512 512;" xml:space="preserve">
<path style="fill:#B0E2E8;" d="M251.641,498.067h86.167c4.025,0,7.288-3.263,7.288-7.288V375.212H244.353v115.568
	C244.353,494.804,247.616,498.067,251.641,498.067z"/>
<path style="fill:#F8E9B4;" d="M345.095,468.963L345.095,468.963v21.817c0,4.025-3.263,7.288-7.288,7.288h-15.695v-6.122
	C322.113,479.253,332.403,468.963,345.095,468.963z"/>
<path style="opacity:0.08;enable-background:new    ;" d="M251.282,498.067h86.167c4.025,0,7.288-3.263,7.288-7.288V375.212H243.994
	v115.568C243.994,494.804,247.257,498.067,251.282,498.067z"/>
<path style="fill:#BCE9ED;" d="M35.077,257.617c-8.87,0-17.809-4.566-25.167-12.859C5.339,239.607,0,231.131,0,224.195
	c0-4.465,3.62-8.085,8.085-8.085c4.433,0,8.033,3.568,8.084,7.989c0.434,3.692,9.115,17.348,18.909,17.348
	c4.466,0,8.085,3.62,8.085,8.085C43.162,253.997,39.543,257.617,35.077,257.617z"/>
<path style="fill:#B0E2E8;" d="M243.815,196.692H128.46c-65.191,0-118.039,52.848-118.039,118.039l0,0
	c0,25.282,7.952,48.706,21.487,67.913v108.135c0,4.025,3.263,7.288,7.288,7.288h86.167c4.025,0,7.288-3.263,7.288-7.288v-58.008
	h44.241v58.008c0,4.025,3.263,7.288,7.288,7.288h86.167c4.025,0,7.288-3.263,7.288-7.288v-62.934
	c48.709-14.543,84.22-59.677,84.22-113.114l0,0C361.853,249.541,309.006,196.692,243.815,196.692z"/>
<path style="opacity:0.08;enable-background:new    ;" d="M243.814,196.692H128.46c-12.422,0-24.394,1.924-35.639,5.481
	c-0.008,0.608-0.023,1.214-0.023,1.823l0,0c0,83.144,67.402,150.547,150.547,150.547h111.619c4.456-12.44,6.89-25.84,6.89-39.813
	l0,0C361.853,249.541,309.006,196.692,243.814,196.692z"/>
<g>
	<path style="fill:#F8E9B4;" d="M132.65,468.963L132.65,468.963v21.817c0,4.025-3.263,7.288-7.288,7.288h-15.695v-6.122
		C109.667,479.253,119.957,468.963,132.65,468.963z"/>
	<path style="fill:#F8E9B4;" d="M277.633,468.963L277.633,468.963v21.817c0,4.025-3.263,7.288-7.288,7.288H254.65v-6.122
		C254.65,479.253,264.94,468.963,277.633,468.963z"/>
</g>
<path style="fill:#BCE9ED;" d="M416.608,68.666c-11.848,21.746-34.262,32.397-50.064,23.788
	c-15.802-8.608-19.007-33.217-7.16-54.963S391.55,8.94,407.353,17.55C423.155,26.158,428.456,46.918,416.608,68.666z"/>
<path style="opacity:0.2;enable-background:new    ;" d="M384.532,67.51c-1.306,0-2.631-0.317-3.86-0.987
	c-3.922-2.135-5.367-7.047-3.232-10.967l6.277-11.522c2.134-3.92,7.043-5.368,10.967-3.231c3.922,2.135,5.368,7.047,3.232,10.967
	l-6.277,11.521C390.172,65.985,387.396,67.51,384.532,67.51z"/>
<path style="fill:#F8E9B4;" d="M332.481,374.489h-41.013c-3.394,0-6.146-2.752-6.146-6.146v-28.803h53.305v28.803
	C338.628,371.737,335.876,374.489,332.481,374.489z"/>
<rect x="285.321" y="339.542" style="opacity:0.08;enable-background:new    ;" width="53.304" height="9.125"/>
<path style="fill:#F8E9B4;" d="M430.961,374.489h-41.014c-3.394,0-6.146-2.752-6.146-6.146v-41.506h53.305v41.506
	C437.108,371.737,434.356,374.489,430.961,374.489z"/>
<rect x="383.802" y="326.833" style="opacity:0.08;enable-background:new    ;" width="53.445" height="21.828"/>
<path style="fill:#B0E2E8;" d="M451.076,154.129C435.346,87.796,375.737,38.446,304.595,38.446h-46.246
	c-17.565,0-34.422,3.018-50.095,8.548c-2.184-5.149-5.268-10.234-9.233-14.959c-15.918-18.971-37.182-21.617-50.966-10.05
	c-13.785,11.566-14.871,32.967,1.048,51.938c1.781,2.122,3.667,4.072,5.627,5.863c-28.902,27.433-46.927,66.214-46.927,109.208l0,0
	c0,83.145,67.402,150.547,150.547,150.547h157.639c53.026,0,96.013-42.986,96.013-96.013l0,0
	C512,202.883,486.747,168.14,451.076,154.129z"/>
<g>
	<path style="fill:#4A5058;" d="M284.273,152.386c-4.466,0-8.085-3.62-8.085-8.085v-12.04c0-4.465,3.619-8.085,8.085-8.085
		c4.466,0,8.085,3.62,8.085,8.085v12.04C292.358,148.766,288.738,152.386,284.273,152.386z"/>
	<path style="fill:#4A5058;" d="M390.441,152.386c-4.466,0-8.085-3.62-8.085-8.085v-12.04c0-4.465,3.619-8.085,8.085-8.085
		c4.466,0,8.085,3.62,8.085,8.085v12.04C398.526,148.766,394.907,152.386,390.441,152.386z"/>
</g>
<g style="opacity:0.2;">
	<circle cx="311.979" cy="219.48" r="17.895"/>
	<circle cx="437.247" cy="219.48" r="17.895"/>
</g>
<path style="opacity:0.2;enable-background:new    ;" d="M178.712,66.6c-2.308,0-4.599-0.982-6.197-2.888l-8.434-10.051
	c-2.871-3.42-2.424-8.519,0.996-11.39c3.421-2.871,8.52-2.424,11.39,0.996l8.434,10.051c2.871,3.42,2.424,8.519-0.996,11.39
	C182.39,65.979,180.546,66.6,178.712,66.6z"/>
<g>
</g>
<g>
</g>
<g>
</g>
<g>
</g>
<g>
</g>
<g>
</g>
<g>
</g>
<g>
</g>
<g>
</g>
<g>
</g>
<g>
</g>
<g>
</g>
<g>
</g>
<g>
</g>
<g>
</g>
</svg>
