<?xml version="1.0" encoding="iso-8859-1"?>
<!-- Generator: Adobe Illustrator 19.0.0, SVG Export Plug-In . SVG Version: 6.00 Build 0)  -->
<svg version="1.1" id="Layer_1" xmlns="http://www.w3.org/2000/svg" xmlns:xlink="http://www.w3.org/1999/xlink" x="0px" y="0px"
	 viewBox="0 0 512.002 512.002" style="enable-background:new 0 0 512.002 512.002;" xml:space="preserve">
<path style="fill:#7D7060;" d="M109.003,461.157l-77.988,16.312c-8.086,1.691-13.878,8.821-13.878,17.081l0,0
	c0,9.637,7.812,17.451,17.451,17.451h73.163c37.002,0,73.572-7.957,107.229-23.332l15.628-7.139V384.62l-59.779,47.515
	C152.763,446.494,131.591,456.432,109.003,461.157z"/>
<path style="opacity:0.05;enable-background:new    ;" d="M170.828,432.134c-1.275,1.015-2.571,2-3.877,2.97
	c-1.057,4.013-1.635,8.251-1.635,12.689c0,19.062,10.355,35.8,25.965,45.34c1.488,0.909,2.604,2.266,3.203,3.84
	c6.933-2.475,13.776-5.236,20.497-8.306l15.628-7.139v-96.909L170.828,432.134z"/>
<g>
	<path style="fill:#6E614F;" d="M376.806,359.197c-19.741,0-40.022-7.265-52.178-20.285c-6.541-7.004-6.164-17.983,0.84-24.522
		c7.005-6.541,17.984-6.166,24.524,0.84c7.554,8.089,27.993,12.68,41.077,6.507c8.666-4.085,19.006-0.378,23.095,8.289
		c4.089,8.667,0.378,19.006-8.289,23.096C397.138,357.242,387.043,359.197,376.806,359.197z"/>
	<path style="fill:#6E614F;" d="M385.44,477.924h-13.089c-2.715,0-4.259-3.098-2.625-5.266c6.665-8.838,10.599-19.693,10.599-31.433
		c0-29.678-25.094-50.782-56.048-50.782s-56.048,21.104-56.048,50.782c0,19.062,10.355,35.8,25.965,45.34
		c2.262,1.383,3.693,3.792,3.693,6.443v9.244c0,5.385,4.364,9.749,9.749,9.749h100.36c3.137,0,5.748-2.512,5.76-5.649
		C413.815,490.662,401.115,477.924,385.44,477.924z"/>
</g>
<path style="opacity:0.15;enable-background:new    ;" d="M385.44,477.924h-13.089c-2.715,0-4.259-3.098-2.625-5.266
	c6.665-8.838,10.599-19.693,10.599-31.433c0-29.678-25.094-50.782-56.048-50.782s-56.048,21.104-56.048,50.782
	c0,19.062,10.355,35.8,25.965,45.34c2.262,1.383,3.693,3.792,3.693,6.443v9.244c0,5.385,4.364,9.749,9.749,9.749h100.36
	c3.137,0,5.748-2.512,5.76-5.649C413.815,490.662,401.115,477.924,385.44,477.924z"/>
<path style="fill:#7D7060;" d="M338.816,216.488H236.528c0,92.221-40.602,104.225-40.602,182.313
	c0,40.579,36.67,73.474,81.903,73.474c58.637,0,93.796-6.511,93.796-64.572C371.625,346.43,338.816,344.382,338.816,216.488z"/>
<path style="opacity:0.1;enable-background:new    ;" d="M338.816,216.488H236.528c0,19.823-1.88,35.933-4.824,49.797
	c20.068,19.766,47.607,31.968,78,31.968h35.367C341.379,278.13,338.816,252.225,338.816,216.488z"/>
<path style="fill:#F8ECC8;" d="M225.98,407.703h147.885c4.458,0,7.922,3.821,7.574,8.266
	c-4.533,57.887-57.342,65.561-103.609,65.561C247.187,479.646,225.98,458.314,225.98,407.703z"/>
<g>
	<path style="fill:#6E614F;" d="M296.757,477.924h-13.089c-2.715,0-4.259-3.098-2.625-5.266
		c6.665-8.838,10.599-19.693,10.599-31.433c0-29.678-25.094-50.782-56.048-50.782s-56.048,21.104-56.048,50.782
		c0,19.062,10.355,35.8,25.965,45.34c2.262,1.383,3.693,3.792,3.693,6.443v9.244c0,5.385,4.364,9.749,9.749,9.749h100.36
		c3.136,0,5.748-2.512,5.76-5.649C325.133,490.662,312.432,477.924,296.757,477.924z"/>
	<path style="fill:#6E614F;" d="M301.17,391.899c-1.756,0-3.541-0.269-5.304-0.834c-26.932-8.639-49.684-38.789-49.684-65.836
		c0-9.583,7.769-17.351,17.351-17.351c9.583,0,17.351,7.769,17.351,17.351c0,11.068,11.805,28.373,25.581,32.792
		c9.125,2.927,14.148,12.697,11.222,21.822C315.326,387.206,308.509,391.899,301.17,391.899z"/>
	<path style="fill:#6E614F;" d="M335.759,78.154l8.481,43.06c1.975,10.025,14.732,13.22,21.199,5.309l27.777-33.98
		c17.411-21.3,21.627-50.477,10.957-75.835l0,0C397.122-0.051,375.959-5.351,361.84,6.106l0,0
		C340.477,23.441,330.442,51.161,335.759,78.154z"/>
</g>
<path style="fill:#7D7060;" d="M467.886,149.112h-41.98c-9.37-51.911-54.783-91.291-109.393-91.291
	c-12.494,0-24.507,2.062-35.716,5.863c-0.032-22.093-9.927-43.339-27.475-57.577l0,0C239.204-5.35,218.041-0.05,210.989,16.709l0,0
	c-10.67,25.357-6.454,54.535,10.957,75.835l6.759,8.269c-14.639,18.827-23.361,42.482-23.361,68.178
	c0,61.397,49.771,111.169,111.169,111.169h74.282c57.476,0,104.069-46.594,104.069-104.069l0,0
	C494.863,161.191,482.784,149.112,467.886,149.112z"/>
<g>
	<path style="fill:#4A5058;" d="M324.743,149.375c-4.534,0-8.21-3.675-8.21-8.21v-12.226c0-4.535,3.676-8.21,8.21-8.21
		c4.534,0,8.21,3.675,8.21,8.21v12.226C332.952,145.7,329.277,149.375,324.743,149.375z"/>
	<path style="fill:#4A5058;" d="M391.386,149.375c-4.534,0-8.21-3.675-8.21-8.21v-12.226c0-4.535,3.676-8.21,8.21-8.21
		s8.21,3.675,8.21,8.21v12.226C399.595,145.7,395.92,149.375,391.386,149.375z"/>
</g>
<path style="opacity:0.15;enable-background:new    ;" d="M460.492,217.567c-5.181,0-9.948-1.807-13.703-4.824
	c-3.755,3.017-8.522,4.824-13.703,4.824c-12.083,0-21.914-9.83-21.914-21.914c0-4.535,3.676-8.21,8.21-8.21s8.21,3.675,8.21,8.21
	c0,3.03,2.464,5.494,5.494,5.494c3.029,0,5.493-2.464,5.493-5.494c0-4.535,3.676-8.21,8.21-8.21s8.21,3.675,8.21,8.21
	c0,3.03,2.464,5.494,5.493,5.494c3.029,0,5.493-2.464,5.493-5.494c0-4.535,3.676-8.21,8.21-8.21s8.21,3.675,8.21,8.21
	C482.404,207.737,472.574,217.567,460.492,217.567z"/>
<path style="fill:#EDBCB9;" d="M256.024,67.849l-1.005,20.514c-0.234,4.776-4.301,5.795-6.758,1.692l-10.555-17.619
	c-6.616-11.044-9.216-25.359-6.755-37.203l0,0c1.626-7.828,8.373-9.518,13.497-3.38l0,0C252.2,41.141,256.654,54.99,256.024,67.849z
	"/>
<path style="fill:#4A5058;" d="M470.776,157.764l-5.583,6.65c-9.604,11.438-27.204,11.438-36.809,0l-5.584-6.65
	c-2.877-3.426-0.441-8.651,4.033-8.651h39.91C471.217,149.112,473.653,154.338,470.776,157.764z"/>
<g>
</g>
<g>
</g>
<g>
</g>
<g>
</g>
<g>
</g>
<g>
</g>
<g>
</g>
<g>
</g>
<g>
</g>
<g>
</g>
<g>
</g>
<g>
</g>
<g>
</g>
<g>
</g>
<g>
</g>
</svg>
