<?xml version="1.0" encoding="iso-8859-1"?>
<!-- Generator: Adobe Illustrator 19.0.0, SVG Export Plug-In . SVG Version: 6.00 Build 0)  -->
<svg version="1.1" id="Layer_1" xmlns="http://www.w3.org/2000/svg" xmlns:xlink="http://www.w3.org/1999/xlink" x="0px" y="0px"
	 viewBox="0 0 512 512" style="enable-background:new 0 0 512 512;" xml:space="preserve">
<g>
	<path style="fill:#4A5058;" d="M242.312,454.063c-7.809,0-14.141-6.331-14.141-14.141c0-24.92-10.006-41.329-19.301-46.029
		c-6.97-3.523-9.764-12.029-6.24-18.999c3.521-6.97,12.027-9.763,18.999-6.24c9.857,4.984,18.665,14.304,24.802,26.244
		c6.555,12.756,10.021,28.325,10.021,45.023C256.453,447.733,250.122,454.063,242.312,454.063z"/>
	<path style="fill:#4A5058;" d="M182.673,454.063c-7.809,0-14.141-6.331-14.141-14.141c0-27.395-8.98-38.644-18.986-48.65
		c-5.523-5.523-5.523-14.476,0-19.997c5.522-5.522,14.477-5.522,19.997,0c14.162,14.162,27.268,32.282,27.268,68.647
		C196.813,447.733,190.482,454.063,182.673,454.063z"/>
	<path style="fill:#4A5058;" d="M118.403,454.063c-7.809,0-14.141-6.331-14.141-14.141c0-22.858-3.734-42.871-9.292-49.803
		c-4.886-6.094-3.906-14.993,2.187-19.878c6.093-4.883,14.991-3.905,19.878,2.187c5.791,7.224,15.507,25.598,15.507,67.493
		C132.543,447.733,126.212,454.063,118.403,454.063z"/>
</g>
<path style="opacity:0.15;enable-background:new    ;" d="M97.158,370.242c-6.093,4.886-7.072,13.785-2.187,19.878
	c5.558,6.931,9.292,26.945,9.292,49.803c0,7.809,6.332,14.141,14.141,14.141s14.141-6.331,14.141-14.141
	c0-41.896-9.715-60.269-15.507-67.493C112.149,366.338,103.251,365.359,97.158,370.242z M149.546,371.277
	c-5.523,5.523-5.523,14.474,0,19.997c10.006,10.006,18.986,21.254,18.986,48.65c0,7.809,6.331,14.141,14.141,14.141
	c7.809,0,14.141-6.331,14.141-14.141c0-36.365-13.106-54.484-27.268-68.647C164.023,365.755,155.068,365.755,149.546,371.277z
	 M246.433,394.9c-6.137-11.94-14.945-21.26-24.802-26.244c-6.972-3.524-15.477-0.73-18.999,6.24
	c-3.524,6.97-0.73,15.476,6.24,18.999c9.296,4.699,19.301,21.109,19.301,46.029c0,7.809,6.331,14.141,14.141,14.141
	c7.809,0,14.141-6.331,14.141-14.141C256.453,423.224,252.988,407.655,246.433,394.9z"/>
<path style="opacity:0.15;enable-background:new    ;" d="M97.158,370.242c-6.093,4.886-7.072,13.785-2.187,19.878
	c4.322,5.39,7.541,18.693,8.757,35.092h28.38c-1.948-31.628-10.01-46.467-15.072-52.782
	C112.149,366.338,103.251,365.359,97.158,370.242z M149.546,371.277c-5.523,5.523-5.523,14.474,0,19.997
	c7.988,7.988,15.318,16.779,17.951,33.938h28.517c-3.035-26.819-14.362-41.828-26.47-53.936
	C164.023,365.755,155.068,365.755,149.546,371.277z M246.433,394.9c-6.137-11.94-14.945-21.26-24.802-26.244
	c-6.972-3.524-15.477-0.73-18.999,6.24c-3.524,6.97-0.73,15.476,6.24,18.999c7.319,3.699,15.074,14.662,18.043,31.318h28.603
	C254.084,414.118,251.016,403.819,246.433,394.9z"/>
<path style="fill:#F4B759;" d="M60.145,410.272h158.153c33.459,0,60.585-27.124,60.585-60.584v-28.092
	c0-40.074-32.487-72.56-72.56-72.56h-95.043c-58.644,0-106.184,47.541-106.184,106.184l0,0
	C5.093,385.625,29.74,410.272,60.145,410.272z"/>
<path style="fill:#7D7060;" d="M11.356,380.717c9.198,17.564,27.588,29.555,48.789,29.555h158.153
	c22.117,0,41.458-11.857,52.035-29.555H11.356z"/>
<path style="opacity:0.1;enable-background:new    ;" d="M206.321,249.036h-22.261c-16.565,16.997-26.785,40.209-26.785,65.818
	v29.062c0,29.019,16.653,54.134,40.914,66.355h20.11c33.459,0,60.584-27.124,60.584-60.584v-28.092
	C278.882,281.522,246.395,249.036,206.321,249.036z"/>
<path style="fill:#4A5058;" d="M444.509,410.272H254.514c-41.021,0-74.275-33.254-74.275-74.275v-29.062
	c0-52.1,42.235-94.335,94.335-94.335h107.247C453.717,212.6,512,270.883,512,342.779l0,0
	C512,380.055,481.783,410.272,444.509,410.272z"/>
<g>
	<path style="fill:#FFFFFF;" d="M305.346,305.334c-4.521,0-8.184-3.663-8.184-8.184v-12.188c0-4.52,3.663-8.184,8.184-8.184
		c4.521,0,8.184,3.664,8.184,8.184v12.188C313.53,301.671,309.867,305.334,305.346,305.334z"/>
	<path style="fill:#FFFFFF;" d="M463.11,305.334c-4.52,0-8.184-3.663-8.184-8.184v-12.188c0-4.52,3.664-8.184,8.184-8.184
		c4.521,0,8.184,3.664,8.184,8.184v12.188C471.295,301.671,467.631,305.334,463.11,305.334z"/>
	<path style="fill:#FFFFFF;" d="M395.984,347.187c-4.391,0-8.456-1.427-11.755-3.843c-3.298,2.416-7.364,3.843-11.755,3.843
		c-10.994,0-19.94-8.945-19.94-19.94c0-4.521,3.664-8.184,8.184-8.184c4.521,0,8.184,3.663,8.184,8.184
		c0,1.97,1.602,3.571,3.571,3.571c1.97,0,3.571-1.602,3.571-3.571c0-4.521,3.663-8.184,8.184-8.184c4.521,0,8.184,3.663,8.184,8.184
		c0,1.97,1.602,3.571,3.571,3.571c1.97,0,3.571-1.602,3.571-3.571c0-4.521,3.663-8.184,8.184-8.184c4.521,0,8.184,3.663,8.184,8.184
		C415.923,338.242,406.978,347.187,395.984,347.187z"/>
</g>
<rect x="354.191" y="141.612" style="fill:#4A5058;" width="60.074" height="120.704"/>
<rect x="354.191" y="141.612" style="opacity:0.15;enable-background:new    ;" width="60.074" height="42.625"/>
<g>
	<path style="fill:#4A5058;" d="M432.387,87.975L432.387,87.975c0,14.22-11.528,25.748-25.748,25.748h-44.82
		c-14.22,0-25.748-11.528-25.748-25.748l0,0c0-16.59-13.449-30.039-30.039-30.039l0,0c-16.59,0-30.039,13.449-30.039,30.039v22.979
		c0,32.34,26.216,58.556,58.556,58.556h99.362c32.34,0,58.556-26.216,58.556-58.556V87.975c0-16.59-13.449-30.039-30.039-30.039l0,0
		C445.836,57.936,432.387,71.384,432.387,87.975z"/>
	<path style="fill:#4A5058;" d="M14.141,454.063C6.331,454.063,0,447.733,0,439.923c0-16.698,3.465-32.267,10.02-45.022
		c6.136-11.941,14.945-21.261,24.802-26.245c6.968-3.524,15.477-0.73,18.999,6.24c3.524,6.97,0.73,15.476-6.24,18.999
		c-9.296,4.699-19.3,21.107-19.3,46.029C28.281,447.733,21.95,454.063,14.141,454.063z"/>
	<path style="fill:#4A5058;" d="M73.78,454.063c-7.809,0-14.141-6.331-14.141-14.141c0-36.365,13.106-54.484,27.268-68.647
		c5.522-5.522,14.476-5.522,19.997,0c5.523,5.523,5.523,14.474,0,19.997C96.9,401.279,87.92,412.528,87.92,439.923
		C87.921,447.733,81.589,454.063,73.78,454.063z"/>
	<path style="fill:#4A5058;" d="M138.05,454.063c-7.809,0-14.141-6.331-14.141-14.141c0-41.897,9.715-60.27,15.508-67.493
		c4.883-6.093,13.784-7.072,19.877-2.186c6.093,4.886,7.071,13.785,2.186,19.877c-5.557,6.931-9.291,26.945-9.291,49.803
		C152.191,447.733,145.859,454.063,138.05,454.063z"/>
</g>
<g>
</g>
<g>
</g>
<g>
</g>
<g>
</g>
<g>
</g>
<g>
</g>
<g>
</g>
<g>
</g>
<g>
</g>
<g>
</g>
<g>
</g>
<g>
</g>
<g>
</g>
<g>
</g>
<g>
</g>
</svg>
