<?xml version="1.0" encoding="iso-8859-1"?>
<!-- Generator: Adobe Illustrator 19.0.0, SVG Export Plug-In . SVG Version: 6.00 Build 0)  -->
<svg version="1.1" id="Layer_1" xmlns="http://www.w3.org/2000/svg" xmlns:xlink="http://www.w3.org/1999/xlink" x="0px" y="0px"
	 viewBox="0 0 511.999 511.999" style="enable-background:new 0 0 511.999 511.999;" xml:space="preserve">
<rect x="264.584" y="158.164" style="fill:#EDBCB9;" width="82.41" height="82.41"/>
<path style="opacity:0.05;enable-background:new    ;" d="M264.587,158.162v46.682c13.272,3.047,27.806,4.508,43.047,4.508
	c13.844,0,27.105-1.205,39.366-3.708v-47.483h-82.413V158.162z"/>
<path style="fill:#EDBCB9;" d="M347.913,33.528C343.497,14.408,324.005,0,300.622,0c-25.001,0-45.557,16.469-47.99,37.559
	c-34.713,11.638-58.199,36.174-58.199,75.755c0,58.15,50.681,82.667,113.2,82.667s113.201-24.517,113.201-82.667
	C420.836,68.361,390.543,42.812,347.913,33.528z"/>
<g style="opacity:0.05;">
	<circle cx="221.641" cy="112.063" r="8.079"/>
	<circle cx="228.178" cy="142.924" r="8.079"/>
	<circle cx="245.978" cy="126.039" r="8.079"/>
</g>
<path style="fill:#EDBCB9;" d="M291.414,475.932h-16.957c-3.95,0-7.153-3.203-7.153-7.153v-48.226
	c0-13.827,4.484-27.172,12.243-38.617c4.56-6.725,7.225-14.838,7.225-23.576c0-23.115-18.63-41.879-41.694-42.096
	c-22.593-0.212-41.584,17.826-42.469,40.403c-0.369,9.427,2.365,18.196,7.262,25.372c7.731,11.329,12.173,24.575,12.173,38.29
	v48.449c0,3.95-3.202,7.153-7.153,7.153l0,0c-9.96,0-18.033,8.074-18.033,18.033l0,0c0,9.96,8.073,18.033,18.033,18.033h76.523
	c9.96,0,18.033-8.074,18.033-18.033l0,0C309.447,484.007,301.373,475.932,291.414,475.932z"/>
<path style="opacity:0.1;enable-background:new    ;" d="M291.414,475.932h-16.957c-3.95,0-7.153-3.203-7.153-7.153v-48.226
	c0-13.827,4.484-27.172,12.243-38.617c4.56-6.725,7.225-14.838,7.225-23.576c0-23.115-18.63-41.879-41.694-42.096
	c-22.593-0.212-41.584,17.826-42.469,40.403c-0.369,9.427,2.365,18.196,7.262,25.372c7.731,11.329,12.173,24.575,12.173,38.29
	v48.449c0,3.95-3.202,7.153-7.153,7.153l0,0c-9.96,0-18.033,8.074-18.033,18.033l0,0c0,9.96,8.073,18.033,18.033,18.033h76.523
	c9.96,0,18.033-8.074,18.033-18.033l0,0C309.447,484.007,301.373,475.932,291.414,475.932z"/>
<path style="opacity:0.1;enable-background:new    ;" d="M245.078,316.266c-22.593-0.212-41.584,17.826-42.469,40.403
	c-0.369,9.427,2.365,18.196,7.262,25.372c3.268,4.789,5.94,9.924,7.946,15.289h43.272c3.656,0,7.248-0.268,10.774-0.744
	c1.983-5.128,4.563-10.044,7.685-14.649c4.56-6.725,7.225-14.838,7.225-23.576C286.772,335.247,268.142,316.482,245.078,316.266z"/>
<path style="fill:#F8E9B4;" d="M421.304,129.456l-53.028-17.217c-22.017-7.148-44.602,9.264-44.602,32.412v8.103
	c0,14.978,13.035,26.622,27.918,24.939l75.388-8.526c7.28-0.824,12.781-6.982,12.781-14.309l0,0
	C439.762,143.285,432.31,133.03,421.304,129.456z"/>
<path style="fill:#4A5058;" d="M267.161,380.096h-74.993c-47.482,0-90.355-28.415-108.853-72.146l-8.331-19.696
	c-9.569-22.622,7.037-47.677,31.6-47.677h240.417v59.681C347.001,344.35,311.256,380.096,267.161,380.096z"/>
<path style="fill:#EDBCB9;" d="M253.053,475.932h-16.957c-3.95,0-7.153-3.203-7.153-7.153v-48.226
	c0-13.827,4.484-27.172,12.243-38.617c4.56-6.725,7.225-14.838,7.225-23.576c0-23.115-18.63-41.879-41.694-42.096
	c-22.593-0.212-41.584,17.826-42.469,40.403c-0.369,9.427,2.365,18.196,7.262,25.372c7.73,11.329,12.173,24.575,12.173,38.29v48.449
	c0,3.95-3.203,7.153-7.153,7.153l0,0c-9.96,0-18.033,8.074-18.033,18.033l0,0c0,9.96,8.074,18.033,18.033,18.033h76.523
	c9.96,0,18.033-8.074,18.033-18.033l0,0C271.086,484.007,263.012,475.932,253.053,475.932z"/>
<g style="opacity:0.05;">
	<circle cx="188.863" cy="370.111" r="8.079"/>
	<circle cx="202.85" cy="396.615" r="8.079"/>
	<circle cx="214.103" cy="373.825" r="8.079"/>
</g>
<path style="opacity:0.1;enable-background:new    ;" d="M196.102,240.577c-3.913,0-7.733,0.395-11.424,1.146l-39.216,3.934
	c-11.212,1.124-22.521,0.813-33.655-0.929c-13.939-2.181-26.535,8.597-26.535,22.707l0,0c0,11.646,8.671,21.246,19.906,22.754
	c-0.734,2.35-1.131,4.848-1.131,7.439c0,12.079,8.595,22.146,20.001,24.43c-0.789,2.427-1.227,5.011-1.227,7.701l0,0
	c0,13.763,11.157,24.92,24.92,24.92h48.361c31.508,0,57.05-25.542,57.05-57.05S227.61,240.577,196.102,240.577z"/>
<path style="fill:#E8E8E8;" d="M207.536,230.198c-3.913,0-7.733,0.395-11.424,1.146l-39.217,3.934
	c-11.212,1.124-22.521,0.813-33.655-0.929c-13.941-2.181-26.535,8.597-26.535,22.707l0,0c0,11.646,8.671,21.246,19.906,22.754
	c-0.734,2.35-1.131,4.848-1.131,7.439c0,12.079,8.595,22.146,20.001,24.43c-0.789,2.427-1.227,5.011-1.227,7.701l0,0
	c0,13.763,11.157,24.92,24.92,24.92h48.361c31.508,0,57.05-25.542,57.05-57.05C264.587,255.741,239.045,230.198,207.536,230.198z"/>
<g>
	<path style="fill:#4A5058;" d="M381.537,104.781c-4.513,0-8.17-3.657-8.17-8.17V83.515c0-4.513,3.657-8.17,8.17-8.17
		c4.513,0,8.17,3.657,8.17,8.17V96.61C389.707,101.123,386.05,104.781,381.537,104.781z"/>
	<path style="fill:#4A5058;" d="M301.794,104.108c-4.513,0-8.17-3.657-8.17-8.17c0-1.689-1.375-3.063-3.062-3.063
		s-3.063,1.375-3.063,3.063c0,4.513-3.657,8.17-8.17,8.17c-4.513,0-8.17-3.657-8.17-8.17c0-10.699,8.704-19.404,19.404-19.404
		s19.403,8.704,19.403,19.404C309.965,100.451,306.308,104.108,301.794,104.108z"/>
</g>
<g>
</g>
<g>
</g>
<g>
</g>
<g>
</g>
<g>
</g>
<g>
</g>
<g>
</g>
<g>
</g>
<g>
</g>
<g>
</g>
<g>
</g>
<g>
</g>
<g>
</g>
<g>
</g>
<g>
</g>
</svg>
