<?xml version="1.0" encoding="iso-8859-1"?>
<!-- Generator: Adobe Illustrator 19.0.0, SVG Export Plug-In . SVG Version: 6.00 Build 0)  -->
<svg version="1.1" id="Layer_1" xmlns="http://www.w3.org/2000/svg" xmlns:xlink="http://www.w3.org/1999/xlink" x="0px" y="0px"
	 viewBox="0 0 512 512" style="enable-background:new 0 0 512 512;" xml:space="preserve">
<circle style="fill:#EDBCB9;" cx="29.739" cy="336.978" r="29.739"/>
<path style="opacity:0.05;enable-background:new    ;" d="M50.148,315.365c-17.745,11.996-30.97,27.896-37.448,45.973
	c4.825,3.38,10.697,5.37,17.035,5.37c16.422,0,29.734-13.313,29.734-29.734C59.469,328.46,55.884,320.786,50.148,315.365z"/>
<path style="fill:#EDBCB9;" d="M266.719,501.417H236.2c-11.096,0-20.092-8.996-20.092-20.092v-68.31
	c0-11.096,8.995-20.092,20.092-20.092c11.096,0,20.092,8.995,20.092,20.092v48.219h10.427c11.096,0,20.091,8.995,20.091,20.091
	C286.81,492.422,277.815,501.417,266.719,501.417z"/>
<path style="opacity:0.05;enable-background:new    ;" d="M266.719,501.417H236.2c-11.096,0-20.092-8.996-20.092-20.092v-68.31
	c0-11.096,8.995-20.092,20.092-20.092c11.096,0,20.092,8.995,20.092,20.092v48.219h10.427c11.096,0,20.091,8.995,20.091,20.091
	C286.81,492.422,277.815,501.417,266.719,501.417z"/>
<ellipse style="fill:#EDBCB9;" cx="143.523" cy="386.714" rx="122.239" ry="94.671"/>
<path style="opacity:0.05;enable-background:new    ;" d="M143.519,292.041c-26.117,0-50.317,6.347-70.18,17.154
	c24.191,55.25,94.786,86.424,178.12,86.424c4.638,0,9.235-0.1,13.788-0.292c0.331-2.838,0.508-5.71,0.508-8.614
	C265.756,334.427,211.028,292.041,143.519,292.041z"/>
<path style="fill:#EDBCB9;" d="M215.536,201.269c20.175-11.625,27.106-37.404,15.481-57.579
	C189.691,71.968,136.901,32.257,69.629,22.286c-23.033-3.412-44.473,12.491-47.887,35.523
	c-3.414,23.033,12.489,44.472,35.523,47.887c41.243,6.114,72.297,30.814,100.691,80.092
	C169.581,205.962,195.361,212.894,215.536,201.269z"/>
<path style="fill:#E99B98;" d="M189.624,175.729c-2.83,0-5.582-1.471-7.097-4.099c-27.211-47.225-57.537-75.607-95.435-89.318
	c-4.249-1.537-6.447-6.228-4.91-10.477c1.538-4.249,6.23-6.446,10.477-4.91c41.164,14.892,75.198,46.469,104.046,96.536
	c2.256,3.915,0.911,8.918-3.004,11.174C192.414,175.376,191.01,175.729,189.624,175.729z"/>
<path style="fill:#EDBCB9;" d="M317.745,190.026c-20.175-11.625-27.106-37.405-15.481-57.579
	C343.589,60.725,396.38,21.013,463.652,11.043c23.033-3.412,44.472,12.491,47.887,35.523c3.414,23.033-12.49,44.472-35.523,47.887
	c-41.243,6.114-72.297,30.814-100.691,80.092C363.7,194.72,337.921,201.651,317.745,190.026z"/>
<path style="fill:#E99B98;" d="M343.657,164.485c-1.387,0-2.791-0.352-4.077-1.094c-3.915-2.256-5.26-7.259-3.004-11.174
	c28.848-50.065,62.882-81.642,104.047-96.534c4.248-1.537,8.939,0.66,10.477,4.911c1.537,4.249-0.662,8.94-4.91,10.477
	c-37.899,13.711-68.225,42.091-95.436,89.317C349.239,163.014,346.487,164.485,343.657,164.485z"/>
<path style="fill:#EDBCB9;" d="M454.74,241.955c0-82.307-83.751-149.029-187.063-149.029S80.613,159.649,80.613,241.955
	s83.751,130.208,187.063,130.208S454.74,324.262,454.74,241.955z"/>
<g>
	<path style="fill:#4A5058;" d="M215.723,224.441c-4.52,0-8.182-3.663-8.182-8.182v-12.184c0-4.519,3.662-8.182,8.182-8.182
		s8.182,3.663,8.182,8.182v12.184C223.905,220.778,220.242,224.441,215.723,224.441z"/>
	<path style="fill:#4A5058;" d="M382.884,224.441c-4.52,0-8.182-3.663-8.182-8.182v-12.184c0-4.519,3.662-8.182,8.182-8.182
		s8.182,3.663,8.182,8.182v12.184C391.066,220.778,387.403,224.441,382.884,224.441z"/>
</g>
<path style="opacity:0.05;enable-background:new    ;" d="M323.47,240.31h-54.878c-17.416,0-31.532,14.118-31.532,31.532
	s14.118,31.533,31.532,31.533c11.767,0,22.02-6.45,27.439-16.002c5.419,9.552,15.672,16.002,27.439,16.002
	c17.416,0,31.532-14.118,31.532-31.533S340.885,240.31,323.47,240.31z"/>
<path style="fill:#FFFFFF;" d="M326.743,228.977h-54.878c-17.416,0-31.532,14.118-31.532,31.532
	c0,17.416,14.118,31.532,31.532,31.532c11.767,0,22.02-6.45,27.439-16.002c5.419,9.552,15.672,16.002,27.439,16.002
	c17.416,0,31.532-14.118,31.532-31.532C358.276,243.093,344.158,228.977,326.743,228.977z"/>
<path style="fill:#D46D59;" d="M323.504,237.704l-5.632,6.708c-9.689,11.539-27.446,11.539-37.134,0l-5.632-6.708
	c-2.902-3.456-0.445-8.729,4.068-8.729h40.264C323.949,228.977,326.406,234.248,323.504,237.704z"/>
<path style="fill:#EDBCB9;" d="M187.742,501.417h-30.519c-11.096,0-20.091-8.996-20.091-20.092v-53.577
	c0-11.096,8.995-20.092,20.091-20.092s20.092,8.995,20.092,20.092v33.485h10.427c11.096,0,20.091,8.995,20.091,20.091
	C207.833,492.422,198.838,501.417,187.742,501.417z"/>
<path style="opacity:0.05;enable-background:new    ;" d="M187.742,501.417h-30.519c-11.096,0-20.091-8.996-20.091-20.092v-53.577
	c0-11.096,8.995-20.092,20.091-20.092s20.092,8.995,20.092,20.092v33.485h10.427c11.096,0,20.091,8.995,20.091,20.091
	C207.833,492.422,198.838,501.417,187.742,501.417z"/>
<path style="fill:#EDBCB9;" d="M96.685,461.235H84.593l6.343-18.199c7.551-21.667-8.534-44.307-31.48-44.307l0,0
	c-18.412,0-33.337,14.925-33.337,33.337v49.26c0,11.096,8.996,20.092,20.092,20.092h50.475c11.096,0,20.092-8.996,20.092-20.092
	C116.777,470.23,107.781,461.235,96.685,461.235z"/>
<path style="opacity:0.05;enable-background:new    ;" d="M96.685,461.235H84.593l6.343-18.199
	c7.551-21.667-8.534-44.307-31.48-44.307l0,0c-18.412,0-33.337,14.925-33.337,33.337v49.26c0,11.096,8.996,20.092,20.092,20.092
	h50.475c11.096,0,20.092-8.996,20.092-20.092C116.777,470.23,107.781,461.235,96.685,461.235z"/>
<g>
</g>
<g>
</g>
<g>
</g>
<g>
</g>
<g>
</g>
<g>
</g>
<g>
</g>
<g>
</g>
<g>
</g>
<g>
</g>
<g>
</g>
<g>
</g>
<g>
</g>
<g>
</g>
<g>
</g>
</svg>
