<?xml version="1.0" encoding="iso-8859-1"?>
<!-- Generator: Adobe Illustrator 19.0.0, SVG Export Plug-In . SVG Version: 6.00 Build 0)  -->
<svg version="1.1" id="Layer_1" xmlns="http://www.w3.org/2000/svg" xmlns:xlink="http://www.w3.org/1999/xlink" x="0px" y="0px"
	 viewBox="0 0 512 512" style="enable-background:new 0 0 512 512;" xml:space="preserve">
<path style="fill:#F7DA70;" d="M313.653,423.215L313.653,423.215c4.928-1.213,7.939-6.19,6.726-11.117l-20.583-83.637
	c-4.674-18.991-23.858-30.597-42.849-25.924l0,0c-23.312,5.737-34.279,32.518-21.688,52.959l29.339,47.629
	C274.849,419.767,294.674,427.886,313.653,423.215z"/>
<path style="fill:#F4B759;" d="M163.264,370.471l-42.436,118.681C116.847,500.285,125.1,512,136.924,512h36.972
	c8.44,0,15.617-6.161,16.896-14.503l8.621-56.261L163.264,370.471z"/>
<path style="opacity:0.08;enable-background:new    ;" d="M163.265,370.471l-12.069,33.753c-11.028,42.5,2.163,53.833,45.336,55.807
	l2.881-18.797L163.265,370.471z"/>
<path style="fill:#F8E9B4;" d="M280.757,462.558h-19.258l-5.88-15.035l3.443-12.284c1.663-5.934-1.799-12.093-7.734-13.756
	c-5.929-1.662-12.093,1.797-13.756,7.734l-4.45,15.882c-0.654,2.334-0.53,4.818,0.354,7.075l4.061,10.384h-2.899
	c-6.163,0-11.159,4.997-11.159,11.159c0,6.163,4.997,11.159,11.159,11.159h19.207c0.015,0,0.029,0.003,0.043,0.003
	c0.024,0,0.048-0.003,0.071-0.003h26.801c6.163,0,11.159-4.997,11.159-11.159C291.916,467.554,286.92,462.558,280.757,462.558z"/>
<path style="opacity:0.06;enable-background:new    ;" d="M280.847,462.558h-19.258l-5.88-15.035l3.443-12.284
	c1.663-5.934-1.799-12.093-7.734-13.756c-5.929-1.662-12.093,1.797-13.756,7.734l-4.45,15.882c-0.654,2.334-0.53,4.818,0.354,7.075
	l4.061,10.384h-2.899c-6.163,0-11.159,4.997-11.159,11.159c0,6.163,4.997,11.159,11.159,11.159h19.207
	c0.015,0,0.029,0.003,0.043,0.003c0.024,0,0.048-0.003,0.07-0.003h26.801c6.163,0,11.159-4.997,11.159-11.159
	C292.006,467.554,287.01,462.558,280.847,462.558z"/>
<path style="fill:#F4B759;" d="M303.355,364.746c-3.004,35.732-30.574,79.862-82.856,79.862c-40.397,0-78.72-10.442-57.234-74.138
	c18.631-55.23,26.11-87.51,66.507-87.51C293.395,282.961,309.14,295.939,303.355,364.746z"/>
<path style="opacity:0.08;enable-background:new    ;" d="M229.771,282.961c-25.802,0-38.171,13.188-48.597,37.092
	c21.833,7.479,46.779,11.174,73.281,11.174c17.217,0,33.778-1.562,49.257-4.703C299.713,290.796,279.183,282.961,229.771,282.961z"
	/>
<path style="fill:#F7DA70;" d="M133.851,421.128L133.851,421.128c-4.858-1.465-7.608-6.592-6.143-11.45l24.875-82.463
	c5.648-18.724,25.407-29.325,44.131-23.677l0,0c22.985,6.933,32.555,34.245,18.925,54.008l-31.76,46.051
	C172.781,419.689,152.564,426.773,133.851,421.128z"/>
<path style="fill:#F8E9B4;" d="M234.7,462.558h-19.259l-5.88-15.035l3.443-12.284c1.663-5.934-1.799-12.093-7.734-13.756
	c-5.933-1.663-12.093,1.798-13.756,7.734l-4.45,15.882c-0.654,2.334-0.53,4.818,0.354,7.075l4.061,10.384h-2.899
	c-6.163,0-11.159,4.997-11.159,11.159c0,6.163,4.996,11.159,11.159,11.159h19.207c0.015,0,0.029,0.003,0.043,0.003
	c0.024,0,0.048-0.003,0.07-0.003H234.7c6.163,0,11.159-4.997,11.159-11.159C245.859,467.554,240.862,462.558,234.7,462.558z"/>
<g>
	<path style="fill:#F4B759;" d="M267.917,0L267.917,0c12.445,0,22.119,10.827,20.724,23.193l-5.585,49.519
		c-0.869,7.705-7.386,13.527-15.139,13.527l0,0l0,0c-7.753,0-14.27-5.823-15.139-13.527l-5.585-49.519
		C245.798,10.827,255.474,0,267.917,0L267.917,0z"/>
	<path style="fill:#F4B759;" d="M205.887,22.549L205.887,22.549c8.799-8.799,23.297-7.984,31.055,1.745l31.067,38.965
		c4.833,6.062,4.343,14.788-1.14,20.27l0,0l0,0c-5.482,5.482-14.207,5.973-20.27,1.14l-38.965-31.067
		C197.903,45.844,197.087,31.348,205.887,22.549L205.887,22.549z"/>
	<path style="fill:#F4B759;" d="M411.394,195.961c0,80.773-69.572,119.469-155.394,119.469s-155.394-38.697-155.394-119.469
		c0-80.773,69.572-137.188,155.394-137.188S411.394,115.189,411.394,195.961z"/>
</g>
<g>
	<path style="fill:#4A5058;" d="M264.823,210.895c-4.494,0-8.135-3.641-8.135-8.135c0-3.065-2.494-5.559-5.559-5.559
		c-3.065,0-5.559,2.494-5.559,5.559c0,4.494-3.641,8.135-8.135,8.135s-8.135-3.641-8.135-8.135c0-12.037,9.793-21.829,21.829-21.829
		c12.037,0,21.829,9.793,21.829,21.829C272.958,207.254,269.316,210.895,264.823,210.895z"/>
	<path style="fill:#4A5058;" d="M386.141,210.895c-4.494,0-8.135-3.641-8.135-8.135c0-3.065-2.494-5.559-5.558-5.559
		c-3.065,0-5.559,2.494-5.559,5.559c0,4.494-3.642,8.135-8.135,8.135c-4.494,0-8.135-3.641-8.135-8.135
		c0-12.037,9.793-21.829,21.829-21.829c12.037,0,21.828,9.793,21.828,21.829C394.276,207.254,390.634,210.895,386.141,210.895z"/>
</g>
<path style="fill:#F8E9B4;" d="M309.57,241.788L309.57,241.788c-10.684,1.56-20.264-6.723-20.264-17.52v-4.657h54.769l-1.947,2.642
	C334.32,232.852,322.597,239.886,309.57,241.788z"/>
<path style="opacity:0.08;enable-background:new    ;" d="M289.305,219.611v4.657c0,0.817,0.072,1.614,0.178,2.399h48.96
	c1.304-1.395,2.54-2.861,3.685-4.414l1.946-2.642H289.305z"/>
<path style="fill:#F8E9B4;" d="M310.456,186.494L310.456,186.494c-10.998-2.041-21.15,6.401-21.15,17.586v15.531h57.178
	c2.807,0,4.56-3.041,3.152-5.47l0,0C341.236,199.649,326.925,189.551,310.456,186.494z"/>
<g>
</g>
<g>
</g>
<g>
</g>
<g>
</g>
<g>
</g>
<g>
</g>
<g>
</g>
<g>
</g>
<g>
</g>
<g>
</g>
<g>
</g>
<g>
</g>
<g>
</g>
<g>
</g>
<g>
</g>
</svg>
