<?xml version="1.0" encoding="iso-8859-1"?>
<!-- Generator: Adobe Illustrator 19.0.0, SVG Export Plug-In . SVG Version: 6.00 Build 0)  -->
<svg version="1.1" id="Layer_1" xmlns="http://www.w3.org/2000/svg" xmlns:xlink="http://www.w3.org/1999/xlink" x="0px" y="0px"
	 viewBox="0 0 512.001 512.001" style="enable-background:new 0 0 512.001 512.001;" xml:space="preserve">
<path style="fill:#97B05F;" d="M76.364,335.541c-22.071-5.687-42.347,13.978-37.339,36.213l10.431,46.31H29.055
	c-13.18,0-24.52,10.128-25.141,23.294c-0.662,14.057,10.539,25.661,24.45,25.661h80.408c28.847,0,52.232-23.384,52.232-52.232
	v-57.438L76.364,335.541z"/>
<path style="opacity:0.1;enable-background:new    ;" d="M93.734,340.017c-1.672,7.016-2.547,14.237-2.547,21.611
	c0,27.766,12.382,51.456,33.243,69.761l-27.705,27.704c-2.343,2.343-4.103,5.045-5.297,7.925h17.342
	c28.846,0,52.23-23.384,52.23-52.232v-57.438L93.734,340.017z"/>
<path style="fill:#97B05F;" d="M435.637,335.541c22.071-5.687,42.347,13.978,37.339,36.213l-10.431,46.31h20.401
	c13.18,0,24.521,10.128,25.141,23.294c0.662,14.057-10.539,25.661-24.45,25.661h-80.409c-28.846,0-52.23-23.384-52.23-52.232
	v-57.438L435.637,335.541z"/>
<path style="opacity:0.1;enable-background:new    ;" d="M418.267,340.017c1.673,7.016,2.547,14.237,2.547,21.611
	c0,27.766-12.382,51.456-33.243,69.761l27.705,27.704c2.343,2.343,4.103,5.045,5.297,7.925h-17.342
	c-28.846,0-52.23-23.384-52.23-52.232v-57.438L418.267,340.017z"/>
<path style="fill:#4EBF8C;" d="M420.813,340.261c0-67.81-73.79-122.781-164.813-122.781c-91.024,0-164.813,54.971-164.813,122.781
	s73.79,111.358,164.813,111.358C347.025,451.619,420.813,408.07,420.813,340.261z"/>
<path style="fill:#BDD186;" d="M420.813,340.261c0-67.81-73.79-122.781-164.813-122.781c-91.024,0-164.813,54.971-164.813,122.781
	s73.79,111.358,164.813,111.358C347.025,451.619,420.813,408.07,420.813,340.261z"/>
<path style="opacity:0.1;enable-background:new    ;" d="M256.001,217.48c-65.892,0-122.742,28.81-149.118,70.44
	c41.143,20.258,92.894,31.207,149.118,31.207s107.975-10.949,149.118-31.207C378.743,246.29,321.892,217.48,256.001,217.48z"/>
<path style="fill:#F8E9B4;" d="M256.001,345.009c-48.18,0-88.861,35.717-101.966,84.695c28.053,14.122,63.467,21.913,101.966,21.913
	c38.5,0,73.913-7.792,101.966-21.913C344.862,380.726,304.181,345.009,256.001,345.009z"/>
<g>
	<path style="fill:#97B05F;" d="M175.502,345.009c-13.519,0-24.478,10.959-24.478,24.478v51.898l-37.709,37.708
		c-9.56,9.559-9.56,25.057,0,34.616c4.779,4.78,11.043,7.169,17.307,7.169c6.262,0,12.529-2.391,17.307-7.168l3.281-3.281
		c1.44,12.145,11.756,21.571,24.289,21.571c13.519,0,24.478-10.959,24.478-24.478V369.487
		C199.98,355.969,189.021,345.009,175.502,345.009z"/>
	<path style="fill:#97B05F;" d="M398.685,459.093l-37.709-37.708v-51.898c0-13.519-10.959-24.478-24.477-24.478
		c-13.519,0-24.478,10.959-24.478,24.478v118.036c0,13.519,10.959,24.478,24.478,24.478c12.533,0,22.85-9.425,24.289-21.571
		l3.281,3.281c4.779,4.779,11.043,7.168,17.307,7.168c6.264,0,12.529-2.389,17.307-7.169
		C408.245,484.15,408.245,468.653,398.685,459.093z"/>
</g>
<path style="fill:#BDD186;" d="M479.737,61.072C479.737,27.343,452.394,0,418.664,0c-17.597,0-33.445,7.452-44.59,19.361
	C339.802,6.659,299.345,0,256.001,0s-83.801,6.659-118.074,19.361C126.782,7.452,110.934,0,93.337,0
	C59.608,0,32.265,27.343,32.265,61.072c0,13.276,4.25,25.552,11.443,35.57c-7.418,15.543-11.443,32.806-11.443,51.687
	c0,94.291,100.17,151.623,223.735,151.623s223.735-57.332,223.735-151.623c0-18.881-4.026-36.144-11.444-51.687
	C475.486,86.623,479.737,74.347,479.737,61.072z"/>
<g>
	<path style="fill:#4A5058;" d="M104.573,65.735c-4.512,0-8.168-3.657-8.168-8.168c0-5.064-4.12-9.185-9.185-9.185
		c-5.064,0-9.185,4.12-9.185,9.185c0,4.511-3.656,8.168-8.168,8.168s-8.168-3.657-8.168-8.168c0-14.072,11.449-25.521,25.521-25.521
		s25.521,11.448,25.521,25.521C112.741,62.078,109.085,65.735,104.573,65.735z"/>
	<path style="fill:#4A5058;" d="M442.134,65.735c-4.512,0-8.168-3.657-8.168-8.168c0-5.064-4.12-9.185-9.185-9.185
		c-5.064,0-9.185,4.12-9.185,9.185c0,4.511-3.656,8.168-8.168,8.168c-4.511,0-8.168-3.657-8.168-8.168
		c0-14.072,11.449-25.521,25.521-25.521c14.072,0,25.521,11.448,25.521,25.521C450.302,62.078,446.646,65.735,442.134,65.735z"/>
</g>
<path style="fill:#EDBCB9;" d="M272.332,92.572c-9.02,0-16.332-7.312-16.332-16.332c0,9.02-7.312,16.332-16.332,16.332
	c-3.484,0-6.705-1.1-9.357-2.958v18.811c0,14.187,11.502,25.688,25.688,25.688s25.688-11.501,25.688-25.688V89.613
	C279.038,91.472,275.816,92.572,272.332,92.572z"/>
<path style="fill:#D46D59;" d="M256.001,114.333c-8.775,0-16.711,2.523-22.431,6.594c4.392,7.863,12.786,13.186,22.431,13.186
	c9.646,0,18.039-5.323,22.431-13.186C272.711,116.857,264.775,114.333,256.001,114.333z"/>
<g style="opacity:0.1;">
	<circle cx="320.077" cy="243.232" r="23.712"/>
	<circle cx="377.068" cy="219.523" r="18.993"/>
</g>
<path style="fill:#4A5058;" d="M272.331,100.74c-6.268,0-11.994-2.367-16.331-6.252c-4.337,3.886-10.063,6.252-16.332,6.252
	c-13.509,0-24.499-10.99-24.499-24.5c0-4.511,3.656-8.168,8.168-8.168c4.512,0,8.168,3.657,8.168,8.168
	c0,4.501,3.661,8.164,8.163,8.164c4.502,0,8.164-3.661,8.164-8.164c0-4.511,3.656-8.168,8.168-8.168
	c4.512,0,8.168,3.657,8.168,8.168c0,4.501,3.661,8.164,8.163,8.164c4.502,0,8.164-3.661,8.164-8.164
	c0-4.511,3.656-8.168,8.168-8.168c4.512,0,8.168,3.657,8.168,8.168C296.831,89.749,285.841,100.74,272.331,100.74z"/>
<g>
</g>
<g>
</g>
<g>
</g>
<g>
</g>
<g>
</g>
<g>
</g>
<g>
</g>
<g>
</g>
<g>
</g>
<g>
</g>
<g>
</g>
<g>
</g>
<g>
</g>
<g>
</g>
<g>
</g>
</svg>
