<?xml version="1.0" encoding="iso-8859-1"?>
<!-- Generator: Adobe Illustrator 19.0.0, SVG Export Plug-In . SVG Version: 6.00 Build 0)  -->
<svg version="1.1" id="Layer_1" xmlns="http://www.w3.org/2000/svg" xmlns:xlink="http://www.w3.org/1999/xlink" x="0px" y="0px"
	 viewBox="0 0 512.001 512.001" style="enable-background:new 0 0 512.001 512.001;" xml:space="preserve">
<path style="fill:#E99B98;" d="M100.233,196.275c-2.065,0-4.128-0.787-5.703-2.363c-3.15-3.15-3.15-8.257,0-11.405
	c5.97-5.972,18.008-22.145,0.866-43.322c-0.751-0.927-1.522-1.828-2.312-2.7c0.109,11.802-4.231,22.416-12.622,30.807
	c-14.192,14.193-37.287,14.193-51.478,0c-6.876-6.876-10.662-16.017-10.662-25.74c0-9.724,3.786-18.864,10.662-25.739
	c8.39-8.39,19.027-12.727,30.806-12.622c-0.872-0.789-1.772-1.561-2.7-2.312c-21.176-17.143-37.35-5.105-43.322,0.866
	c-3.15,3.15-8.257,3.15-11.407,0s-3.15-8.257,0-11.405c14.566-14.565,39.258-22.737,64.876-1.997
	c7.827,6.335,14.172,13.944,18.618,22.076c8.132,4.445,15.741,10.791,22.076,18.618c20.741,25.62,12.568,50.312-1.997,64.876
	C104.362,195.488,102.298,196.275,100.233,196.275z M59.363,119.321c-7.351,0-13.727,2.652-18.974,7.899
	c-3.829,3.829-5.937,8.919-5.937,14.334s2.108,10.504,5.937,14.334c7.904,7.904,20.763,7.904,28.666,0
	c5.635-5.635,8.278-12.573,7.856-20.624c-0.222-4.225-1.285-8.557-3.085-12.814c-4.257-1.8-8.588-2.864-12.814-3.085
	C60.457,119.335,59.907,119.321,59.363,119.321z"/>
<path style="fill:#EDBCB9;" d="M424.123,436.166h-59.791c-3.814,0-6.906-3.092-6.906-6.906v-88.626h73.602v88.626
	C431.028,433.074,427.936,436.166,424.123,436.166z"/>
<path style="opacity:0.08;enable-background:new    ;" d="M424.123,436.166h-59.791c-3.814,0-6.906-3.092-6.906-6.906v-88.626
	h73.602v88.626C431.028,433.074,427.936,436.166,424.123,436.166z"/>
<path style="fill:#4A5058;" d="M424.123,436.166h-59.791c-3.814,0-6.906-3.092-6.906-6.906v-19.652h73.602v19.652
	C431.028,433.074,427.936,436.166,424.123,436.166z"/>
<path style="fill:#E99B98;" d="M482.719,132.473L482.719,132.473c-14.68-0.017-29.322,1.461-43.703,4.411l0,0
	c-8.241,1.69-11.83,11.455-6.647,18.081l0,0c16.659,21.292,35.847,40.48,57.139,57.139l0,0c6.625,5.183,16.39,1.594,18.081-6.647
	l0,0c2.95-14.377,4.427-29.017,4.411-43.694v-0.01C511.983,145.59,498.883,132.491,482.719,132.473z"/>
<path style="fill:#EDBCB9;" d="M357.117,108.273H212.191c-76.196,0-137.966,61.769-137.966,137.964l0,0
	c0,40.47,17.424,76.869,45.181,102.106v80.916c0,3.814,3.092,6.906,6.906,6.906h59.791c3.814,0,6.906-3.092,6.906-6.906v-46.391
	c6.269,0.872,12.671,1.333,19.182,1.333h43.845v45.057c0,3.814,3.092,6.906,6.906,6.906h59.791c3.814,0,6.906-3.092,6.906-6.906
	v-45.057h27.479c76.196,0,137.964-61.769,137.964-137.966l0,0C495.083,170.042,433.314,108.273,357.117,108.273z"/>
<g>
	<path style="fill:#4A5058;" d="M323.026,210.399c-4.455,0-8.065-3.611-8.065-8.065c0-1.765-1.436-3.199-3.2-3.199
		c-1.765,0-3.199,1.436-3.199,3.199c0,4.454-3.61,8.065-8.065,8.065s-8.065-3.611-8.065-8.065c0-10.659,8.671-19.33,19.33-19.33
		s19.331,8.672,19.331,19.33C331.091,206.788,327.48,210.399,323.026,210.399z"/>
	<path style="fill:#4A5058;" d="M447.089,213.918c-4.455,0-8.065-3.611-8.065-8.065v-12.011c0-4.454,3.61-8.065,8.065-8.065
		c4.454,0,8.065,3.611,8.065,8.065v12.011C455.154,210.307,451.543,213.918,447.089,213.918z"/>
</g>
<g style="opacity:0.05;">
	<ellipse cx="119.798" cy="253.574" rx="18.4" ry="23.777"/>
	<ellipse cx="162.813" cy="294.31" rx="15.12" ry="19.529"/>
	<ellipse cx="170.19" cy="232.239" rx="12.544" ry="16.206"/>
</g>
<path style="fill:#E99B98;" d="M354.92,205.588L354.92,205.588c-12.298,12.27-23.315,25.761-32.881,40.263l0,0
	c-5.481,8.311-0.314,19.486,9.569,20.693l0,0c31.759,3.878,63.872,3.878,95.631,0l0,0c9.883-1.207,15.05-12.382,9.569-20.692l0,0
	c-9.562-14.499-20.577-27.988-32.873-40.256l-0.009-0.009C390.386,192.077,368.463,192.077,354.92,205.588z"/>
<path style="opacity:0.1;enable-background:new    ;" d="M362.139,250.482c-4.454,0-8.065-3.611-8.065-8.065v-8.031
	c0-4.454,3.611-8.065,8.065-8.065c4.455,0,8.065,3.611,8.065,8.065v8.031C370.205,246.87,366.594,250.482,362.139,250.482z"/>
<path style="opacity:0.1;enable-background:new    ;" d="M396.711,250.482c-4.455,0-8.065-3.611-8.065-8.065v-8.031
	c0-4.454,3.61-8.065,8.065-8.065c4.455,0,8.065,3.611,8.065,8.065v8.031C404.776,246.87,401.166,250.482,396.711,250.482z"/>
<path style="opacity:0.02;enable-background:new    ;" d="M208.23,178.587L208.23,178.587c1.446,14.608,4.377,29.031,8.745,43.045
	l0,0c2.503,8.031,12.578,10.63,18.653,4.811l0,0c19.527-18.698,36.706-39.702,51.16-62.549l0,0
	c4.497-7.109-0.047-16.467-8.416-17.329l0,0c-14.599-1.502-29.314-1.513-43.915-0.034l-0.01,0.001
	C218.367,148.163,206.638,162.502,208.23,178.587z"/>
<path style="fill:#E99B98;" d="M220.966,161.754L220.966,161.754c-0.017,14.68,1.461,29.322,4.411,43.702l0,0
	c1.691,8.241,11.455,11.83,18.081,6.647l0,0c21.292-16.659,40.48-35.847,57.139-57.139l0,0c5.183-6.625,1.594-16.39-6.647-18.081
	l0,0c-14.377-2.95-29.017-4.427-43.694-4.411h-0.01C234.084,132.491,220.984,145.59,220.966,161.754z"/>
<g>
	<path style="fill:#4A5058;" d="M186.105,436.166h-59.791c-3.814,0-6.906-3.092-6.906-6.906v-19.652h73.602v19.652
		C193.01,433.074,189.918,436.166,186.105,436.166z"/>
	<path style="fill:#4A5058;" d="M322.733,436.166h-59.791c-3.814,0-6.906-3.092-6.906-6.906v-19.652h73.602v19.652
		C329.639,433.074,326.548,436.166,322.733,436.166z"/>
</g>
<g>
</g>
<g>
</g>
<g>
</g>
<g>
</g>
<g>
</g>
<g>
</g>
<g>
</g>
<g>
</g>
<g>
</g>
<g>
</g>
<g>
</g>
<g>
</g>
<g>
</g>
<g>
</g>
<g>
</g>
</svg>
