<?xml version="1.0" encoding="iso-8859-1"?>
<!-- Generator: Adobe Illustrator 19.0.0, SVG Export Plug-In . SVG Version: 6.00 Build 0)  -->
<svg version="1.1" id="Layer_1" xmlns="http://www.w3.org/2000/svg" xmlns:xlink="http://www.w3.org/1999/xlink" x="0px" y="0px"
	 viewBox="0 0 512 512" style="enable-background:new 0 0 512 512;" xml:space="preserve">
<path style="fill:#F8ECC8;" d="M463.918,342.383H434.94c-9.845,0-17.826,7.981-17.826,17.826v17.621h67.968
	c3.945,0,7.142-3.197,7.142-7.142l0,0C492.223,355.056,479.55,342.383,463.918,342.383z"/>
<path style="opacity:0.2;enable-background:new    ;" d="M463.918,342.383H434.94c-9.845,0-17.826,7.981-17.826,17.826v17.621
	h67.968c3.945,0,7.142-3.197,7.142-7.142l0,0C492.223,355.056,479.55,342.383,463.918,342.383z"/>
<path style="fill:#F8ECC8;" d="M438.74,342.383h-28.978c-9.845,0-17.826,7.981-17.826,17.826v17.621h67.968
	c3.945,0,7.142-3.197,7.142-7.142l0,0C467.045,355.056,454.372,342.383,438.74,342.383z"/>
<path style="opacity:0.1;enable-background:new    ;" d="M438.74,342.383h-28.978c-9.845,0-17.826,7.981-17.826,17.826v17.621
	h67.968c3.945,0,7.142-3.197,7.142-7.142l0,0C467.045,355.056,454.372,342.383,438.74,342.383z"/>
<path style="fill:#F8ECC8;" d="M413.561,342.383h-28.978c-9.845,0-17.826,7.981-17.826,17.826v8.089
	c0,5.264,4.268,9.531,9.531,9.531h58.437c3.945,0,7.142-3.197,7.142-7.142l0,0C441.866,355.056,429.193,342.383,413.561,342.383z"/>
<path style="fill:#7D7060;" d="M286.002,215.728H177.884c-54.705,0-99.053,44.347-99.053,99.053v17.067
	c0,14.478,11.736,26.215,26.215,26.215h184.432c14.478,0,26.215-11.737,26.215-26.215V245.42
	C315.693,229.021,302.4,215.728,286.002,215.728z"/>
<path style="opacity:0.1;enable-background:new    ;" d="M286.002,215.728h-88.954c-2.72,9.664-4.176,19.855-4.176,30.388l0,0
	c0,58.337,44.625,106.243,101.599,111.466c12.09-2.331,21.224-12.963,21.224-25.734V245.42
	C315.693,229.021,302.4,215.728,286.002,215.728z"/>
<path style="fill:#7D7060;" d="M400.053,358.062h-75.096c-61.827,0-111.946-50.121-111.946-111.946l0,0
	c0-61.826,50.12-111.946,111.946-111.946h75.096c61.827,0,111.946,50.121,111.946,111.946l0,0
	C512,307.942,461.879,358.062,400.053,358.062z"/>
<path style="opacity:0.15;enable-background:new    ;" d="M390.303,272.44c-4.506,0-8.159,3.652-8.159,8.159
	c0,3.165-2.575,5.74-5.74,5.74s-5.74-2.575-5.74-5.74v-19.35h-16.319v19.349c0,3.165-2.575,5.74-5.74,5.74
	c-3.165,0-5.74-2.575-5.74-5.74c0-4.507-3.653-8.159-8.159-8.159c-4.506,0-8.159,3.652-8.159,8.159
	c0,12.164,9.896,22.058,22.058,22.058c5.264,0,10.103-1.853,13.899-4.941c3.796,3.089,8.635,4.941,13.899,4.941
	c12.164,0,22.058-9.896,22.058-22.058C398.462,276.092,394.809,272.44,390.303,272.44z"/>
<g>
	<path style="fill:#4A5058;" d="M386.836,250.41l-5.663,6.745c-9.741,11.601-27.594,11.601-37.335,0l-5.664-6.745
		c-2.918-3.475-0.447-8.775,4.091-8.775h40.481C387.283,241.635,389.754,246.935,386.836,250.41z"/>
	<path style="fill:#4A5058;" d="M286.753,187.574h-57.227c-10.472,17.033-16.515,37.081-16.515,58.542l0,0
		c0,1.972,0.052,3.934,0.153,5.881h73.589c17.79,0,32.212-14.421,32.212-32.212S304.544,187.574,286.753,187.574z"/>
	<path style="fill:#4A5058;" d="M438.257,187.574h57.228C505.956,204.607,512,224.655,512,246.116l0,0
		c0,1.972-0.052,3.934-0.153,5.881h-73.589c-17.79,0-32.212-14.421-32.212-32.212S420.467,187.574,438.257,187.574z"/>
</g>
<g>
	<path style="fill:#FFFFFF;" d="M290.969,231.208c-4.506,0-8.159-3.652-8.159-8.159c0-1.431-1.164-2.596-2.595-2.596
		c-1.431,0-2.595,1.164-2.595,2.596c0,4.507-3.653,8.159-8.159,8.159s-8.159-3.652-8.159-8.159c0-10.43,8.485-18.914,18.913-18.914
		s18.913,8.485,18.913,18.914C299.128,227.556,295.475,231.208,290.969,231.208z"/>
	<path style="fill:#FFFFFF;" d="M455.55,231.208c-4.506,0-8.159-3.652-8.159-8.159c0-1.431-1.164-2.596-2.595-2.596
		c-1.431,0-2.595,1.164-2.595,2.596c0,4.507-3.653,8.159-8.159,8.159c-4.506,0-8.159-3.652-8.159-8.159
		c0-10.43,8.485-18.914,18.913-18.914s18.913,8.485,18.913,18.914C463.709,227.556,460.056,231.208,455.55,231.208z"/>
</g>
<path style="fill:#6E614F;" d="M299.308,377.83h-73.878c-23.609,0-42.746-19.138-42.746-42.746l0,0
	c0-23.609,19.138-42.746,42.746-42.746h42.647c32.232,0,58.362,26.129,58.362,58.363l0,0
	C326.438,365.684,314.291,377.83,299.308,377.83z"/>
<path style="fill:#F8ECC8;" d="M28.305,377.83h48.964c9.846,0,17.826-7.981,17.826-17.826v-8.089c0-5.264-4.268-9.531-9.531-9.531
	H7.142c-3.945,0-7.142,3.197-7.142,7.142l0,0C0,365.157,12.673,377.83,28.305,377.83z"/>
<path style="opacity:0.1;enable-background:new    ;" d="M85.563,342.383H17.871c3.465,20.128,20.994,35.447,42.113,35.447h17.285
	c9.846,0,17.826-7.981,17.826-17.826v-8.089C95.096,346.651,90.828,342.383,85.563,342.383z"/>
<path style="fill:#6E614F;" d="M111.584,377.83h-54.99c-14.984,0-27.13-12.146-27.13-27.13l0,0
	c0-32.232,26.129-58.363,58.363-58.363h23.759c23.609,0,42.746,19.138,42.746,42.746l0,0
	C154.331,358.692,135.192,377.83,111.584,377.83z"/>
<path style="fill:#F8ECC8;" d="M351.614,342.383h-28.978c-9.845,0-17.826,7.981-17.826,17.826v17.621h67.968
	c3.945,0,7.142-3.197,7.142-7.142l0,0C379.919,355.056,367.246,342.383,351.614,342.383z"/>
<path style="opacity:0.2;enable-background:new    ;" d="M351.614,342.383h-28.978c-9.845,0-17.826,7.981-17.826,17.826v17.621
	h67.968c3.945,0,7.142-3.197,7.142-7.142l0,0C379.919,355.056,367.246,342.383,351.614,342.383z"/>
<path style="fill:#F8ECC8;" d="M326.436,342.383h-28.978c-9.845,0-17.826,7.981-17.826,17.826v17.621h67.968
	c3.945,0,7.142-3.197,7.142-7.142l0,0C354.741,355.056,342.068,342.383,326.436,342.383z"/>
<path style="opacity:0.1;enable-background:new    ;" d="M326.436,342.383h-28.978c-9.845,0-17.826,7.981-17.826,17.826v17.621
	h67.968c3.945,0,7.142-3.197,7.142-7.142l0,0C354.741,355.056,342.068,342.383,326.436,342.383z"/>
<path style="fill:#F8ECC8;" d="M301.257,342.383h-28.978c-9.846,0-17.826,7.981-17.826,17.826v8.089
	c0,5.264,4.268,9.531,9.531,9.531h58.437c3.945,0,7.142-3.197,7.142-7.142l0,0C329.562,355.056,316.889,342.383,301.257,342.383z"/>
<g>
</g>
<g>
</g>
<g>
</g>
<g>
</g>
<g>
</g>
<g>
</g>
<g>
</g>
<g>
</g>
<g>
</g>
<g>
</g>
<g>
</g>
<g>
</g>
<g>
</g>
<g>
</g>
<g>
</g>
</svg>
