<?xml version="1.0" encoding="iso-8859-1"?>
<!-- Generator: Adobe Illustrator 19.0.0, SVG Export Plug-In . SVG Version: 6.00 Build 0)  -->
<svg version="1.1" id="Layer_1" xmlns="http://www.w3.org/2000/svg" xmlns:xlink="http://www.w3.org/1999/xlink" x="0px" y="0px"
	 viewBox="0 0 512 512" style="enable-background:new 0 0 512 512;" xml:space="preserve">
<path style="fill:#F4B759;" d="M306.958,478.567h-31.874v-42.072c0-9.232-7.484-16.716-16.716-16.716s-16.716,7.484-16.716,16.716
	v42.072h-9.171c-9.232,0-16.716,7.484-16.716,16.716c0,9.232,7.484,16.716,16.716,16.716h74.477c9.232,0,16.716-7.484,16.716-16.716
	C323.674,486.051,316.19,478.567,306.958,478.567z"/>
<path style="opacity:0.1;enable-background:new    ;" d="M306.958,478.567h-31.874v-42.072c0-9.232-7.484-16.716-16.716-16.716
	s-16.716,7.484-16.716,16.716v42.072h-9.171c-9.232,0-16.716,7.484-16.716,16.716c0,9.232,7.484,16.716,16.716,16.716h74.477
	c9.232,0,16.716-7.484,16.716-16.716C323.674,486.051,316.19,478.567,306.958,478.567z"/>
<path style="opacity:0.1;enable-background:new    ;" d="M258.369,419.779c-9.232,0-16.716,7.484-16.716,16.716v31.232h1.471
	c11.104,0,21.828-1.615,31.961-4.611v-26.62C275.084,427.264,267.6,419.779,258.369,419.779z"/>
<path style="fill:#F4B759;" d="M229.556,478.567h-31.874v-42.072c0-9.232-7.484-16.716-16.716-16.716s-16.716,7.484-16.716,16.716
	v42.072h-9.171c-9.232,0-16.716,7.484-16.716,16.716c0,9.232,7.484,16.716,16.716,16.716h74.477c9.232,0,16.716-7.484,16.716-16.716
	C246.273,486.051,238.788,478.567,229.556,478.567z"/>
<path style="opacity:0.1;enable-background:new    ;" d="M180.967,419.779c-9.232,0-16.716,7.484-16.716,16.716v28.269
	c8.505,1.937,17.355,2.962,26.447,2.962h6.985v-31.232C197.683,427.264,190.199,419.779,180.967,419.779z"/>
<path style="fill:#E8E8E8;" d="M243.123,455.751h-52.426c-65.531,0-118.655-53.123-118.655-118.655v-26.141
	c0-14.284,15.787-22.927,27.82-15.23l20.246,12.95c7.971,5.098,17.768,6.467,26.83,3.75l0,0
	c58.271-17.469,120.214-18.642,179.104-3.392l29.627,7.671v26.497C355.671,405.362,305.282,455.751,243.123,455.751z"/>
<path style="opacity:0.05;enable-background:new    ;" d="M326.045,309.034c-58.89-15.25-120.833-14.077-179.104,3.392l0,0
	c-0.99,0.296-1.988,0.536-2.991,0.735c29.703,22.908,70.824,36.922,119.697,36.922c35.134,0,66.263-7.242,92.027-19.823v-13.554
	L326.045,309.034z"/>
<g>
	<path style="fill:#E8E8E8;" d="M260.302,92.34c-10.77,0-19.502-8.732-19.502-19.502c0-28.891,21.716-57.101,43.169-70.035
		c9.225-5.559,21.21-2.592,26.771,6.632c5.563,9.224,2.592,21.209-6.631,26.772c-12.948,7.806-24.305,24.924-24.305,36.633
		C279.804,83.609,271.073,92.34,260.302,92.34z"/>
	<path style="fill:#E8E8E8;" d="M439.957,196.976c0,76.432-68.547,138.391-171.338,138.391S97.281,273.407,97.281,196.976
		c0-76.432,68.547-138.391,171.338-138.391S439.957,120.544,439.957,196.976z"/>
</g>
<g>
	<path style="fill:#4A5058;" d="M243.335,179.894c-4.51,0-8.164-3.655-8.164-8.164c0-3.584-2.915-6.498-6.498-6.498
		c-3.583,0-6.498,2.915-6.498,6.498c0,4.509-3.654,8.164-8.164,8.164c-4.51,0-8.164-3.655-8.164-8.164
		c0-12.587,10.239-22.827,22.827-22.827c12.587,0,22.827,10.24,22.827,22.827C251.499,176.238,247.844,179.894,243.335,179.894z"/>
	<path style="fill:#4A5058;" d="M414.583,179.894c-4.509,0-8.164-3.655-8.164-8.164c0-3.584-2.915-6.498-6.498-6.498
		s-6.498,2.915-6.498,6.498c0,4.509-3.654,8.164-8.164,8.164c-4.509,0-8.164-3.655-8.164-8.164
		c0-12.587,10.239-22.827,22.827-22.827s22.827,10.24,22.827,22.827C422.748,176.238,419.093,179.894,414.583,179.894z"/>
</g>
<path style="fill:#F4B759;" d="M240.493,221.302L240.493,221.302c0,32.913,45.3,56.743,91.021,47.879l0,0
	c32.955-6.389,57.789-24.567,65.784-46.999C351.503,222.182,240.493,221.302,240.493,221.302z"/>
<path style="opacity:0.1;enable-background:new    ;" d="M240.493,221.302L240.493,221.302c0,32.913,45.3,56.743,91.021,47.879l0,0
	c32.955-6.389,57.789-24.567,65.784-46.999C351.503,222.182,240.493,221.302,240.493,221.302z"/>
<path style="fill:#F4B759;" d="M413.686,212.596h-7.566l-45.195-44.376c-24.246-23.807-63.147-23.63-87.175,0.398L243,199.369
	c-13.108,13.108-3.824,35.518,14.712,35.518h155.974c6.156,0,11.146-4.99,11.146-11.146
	C424.832,217.585,419.841,212.596,413.686,212.596z"/>
<path style="opacity:0.1;enable-background:new    ;" d="M296.732,191.853c-1.929,0-3.867-0.68-5.422-2.064
	c-3.369-2.996-3.672-8.157-0.675-11.526l5.453-6.131c2.997-3.368,8.155-3.673,11.527-0.675c3.369,2.996,3.672,8.157,0.675,11.526
	l-5.453,6.131C301.222,190.928,298.983,191.853,296.732,191.853z"/>
<path style="opacity:0.05;enable-background:new    ;" d="M194.748,415.02l-47.17-8.692c-14.635-2.698-25.258-15.457-25.258-30.339
	l0,0c0-9.654,7.289-17.748,16.889-18.756l58.016-6.096c19.068-2.004,35.673,12.949,35.673,32.121l0,0
	C232.9,403.438,214.596,418.677,194.748,415.02z"/>
<g>
</g>
<g>
</g>
<g>
</g>
<g>
</g>
<g>
</g>
<g>
</g>
<g>
</g>
<g>
</g>
<g>
</g>
<g>
</g>
<g>
</g>
<g>
</g>
<g>
</g>
<g>
</g>
<g>
</g>
</svg>
