<?xml version="1.0" encoding="iso-8859-1"?>
<!-- Generator: Adobe Illustrator 19.0.0, SVG Export Plug-In . SVG Version: 6.00 Build 0)  -->
<svg version="1.1" id="Layer_1" xmlns="http://www.w3.org/2000/svg" xmlns:xlink="http://www.w3.org/1999/xlink" x="0px" y="0px"
	 viewBox="0 0 512 512" style="enable-background:new 0 0 512 512;" xml:space="preserve">
<g>
	<path style="fill:#7D7060;" d="M350.364,470.199h-17.02v-5.155c0-13.077-10.601-23.678-23.678-23.678
		c-13.077,0-23.678,10.601-23.678,23.678v18.048c0,11.967,9.701,21.67,21.67,21.67h42.706c9.544,0,17.281-7.737,17.281-17.281
		C367.645,477.935,359.907,470.199,350.364,470.199z"/>
	<path style="fill:#7D7060;" d="M417.101,421.034c-18.018,0-39.176-7.967-49.959-19.994c-6.371-7.106-5.775-18.032,1.332-24.403
		c7.105-6.371,18.032-5.774,24.403,1.332c4.744,5.292,21.201,10.084,27.948,8.138c9.178-2.645,18.748,2.649,21.393,11.817
		c2.643,9.17-2.646,18.748-11.816,21.393C426.347,420.485,421.832,421.034,417.101,421.034z"/>
</g>
<path style="fill:#4A5058;" d="M170.695,467.794l-117.674-10.81c-34.408-3.161-58.546-35.366-51.925-69.279l0,0
	c6.621-33.913,41.1-54.674,74.17-44.66l113.098,34.245c22.762,6.892,36.611,29.894,32.055,53.235l0,0
	C215.861,453.865,194.377,469.968,170.695,467.794z"/>
<g style="opacity:0.2;">
	<g>
		<path d="M31.562,423.058c-2.104,0-4.209-0.803-5.815-2.408c-3.211-3.212-3.211-8.418,0-11.63L70.9,363.867
			c3.212-3.21,8.418-3.21,11.63,0c3.211,3.212,3.211,8.418,0,11.631L37.376,420.65C35.77,422.255,33.665,423.058,31.562,423.058z"/>
		<path d="M71.161,435.265c-2.104,0-4.209-0.803-5.815-2.408c-3.211-3.212-3.211-8.418,0-11.63l38.513-38.513
			c3.212-3.21,8.418-3.21,11.63,0c3.211,3.212,3.211,8.418,0,11.63l-38.513,38.513C75.37,434.461,73.265,435.265,71.161,435.265z"/>
		<path d="M115.476,442.755c-2.104,0-4.209-0.803-5.815-2.408c-3.211-3.212-3.211-8.418,0-11.63l18.267-18.267
			c3.213-3.21,8.418-3.21,11.63,0c3.211,3.212,3.211,8.418,0,11.63l-18.267,18.267C119.685,441.952,117.58,442.755,115.476,442.755z
			"/>
	</g>
	<g>
		<path d="M134.076,435.265c-2.104,0-4.209-0.803-5.815-2.408l-42.649-42.648c-3.211-3.212-3.211-8.418,0-11.631
			c3.212-3.21,8.418-3.21,11.63,0l42.649,42.648c3.211,3.212,3.211,8.418,0,11.63C138.284,434.461,136.179,435.265,134.076,435.265z
			"/>
		<path d="M85.806,438.802c-2.104,0-4.209-0.803-5.815-2.408l-46.598-46.598c-3.211-3.212-3.211-8.418,0-11.631
			c3.212-3.21,8.418-3.21,11.63,0l46.598,46.598c3.211,3.212,3.211,8.418,0,11.631C90.015,437.999,87.91,438.802,85.806,438.802z"/>
	</g>
</g>
<path style="opacity:0.15;enable-background:new    ;" d="M188.365,377.29l-51.39-15.56c-2.984,9.393-4.582,19.307-4.582,29.554
	c0,29.306,7.374,55.881,25.586,75.342l12.716,1.168c23.683,2.175,45.167-13.928,49.723-37.269l0,0
	C224.976,407.183,211.125,384.182,188.365,377.29z"/>
<path style="fill:#6E614F;" d="M395.081,381.681c0-59.664-54.151-108.031-120.948-108.031c-66.798,0-120.948,48.367-120.948,108.031
	s30.534,108.031,120.948,108.031C340.932,489.712,395.081,441.344,395.081,381.681z"/>
<path style="opacity:0.05;enable-background:new    ;" d="M274.134,273.65c-45.959,0-85.93,22.898-106.397,56.616
	c27.778,20.432,62.078,32.51,99.204,32.51h62.705c21.384,0,41.829-4.012,60.634-11.313
	C375.644,306.507,329.188,273.65,274.134,273.65z"/>
<path style="fill:#6E614F;" d="M443.204,58.063c15.738-15.738,41.255-15.738,56.993,0c15.738,15.738,15.738,41.255,0,56.993
	c-15.738,15.738-31.375,5.859-47.113-9.879C437.345,89.438,427.466,73.801,443.204,58.063z"/>
<circle style="fill:#EDBCB9;" cx="473.617" cy="84.632" r="8.543"/>
<path style="fill:#7D7060;" d="M335.127,342.463h-62.705c-92.569,0-167.612-75.043-167.612-167.612l0,0
	c0-92.57,75.043-167.612,167.612-167.612h62.705c92.569,0,167.612,75.043,167.612,167.612l0,0
	C502.739,267.421,427.696,342.463,335.127,342.463z"/>
<g>
	<path style="fill:#4A5058;" d="M300.619,177.257c-4.542,0-8.223-3.681-8.223-8.223c0-2.713-2.206-4.917-4.916-4.917
		c-2.713,0-4.917,2.206-4.917,4.917c0,4.542-3.681,8.223-8.223,8.223s-8.223-3.681-8.223-8.223c0-11.78,9.584-21.364,21.364-21.364
		c11.78,0,21.363,9.584,21.363,21.364C308.842,173.576,305.161,177.257,300.619,177.257z"/>
	<path style="fill:#4A5058;" d="M442.404,177.257c-4.542,0-8.223-3.681-8.223-8.223c0-2.713-2.206-4.917-4.916-4.917
		c-2.713,0-4.917,2.206-4.917,4.917c0,4.542-3.682,8.223-8.223,8.223c-4.542,0-8.223-3.681-8.223-8.223
		c0-11.78,9.584-21.364,21.364-21.364c11.78,0,21.363,9.584,21.363,21.364C450.627,173.576,446.946,177.257,442.404,177.257z"/>
</g>
<path style="fill:#F8E9B4;" d="M387.043,251.555H329.69v37.991c0,5.697,4.618,10.316,10.316,10.316h36.722
	c5.697,0,10.316-4.618,10.316-10.316v-37.991H387.043z"/>
<path style="fill:#6E614F;" d="M403.796,225.576c-4.542,0-8.223,3.681-8.223,8.223c0,7.991-6.501,14.491-14.491,14.491
	c-7.991,0-14.492-6.501-14.492-14.491v-30.401h-16.446v30.401c0,7.991-6.501,14.491-14.491,14.491
	c-7.991,0-14.491-6.501-14.491-14.491c0-4.542-3.681-8.223-8.223-8.223c-4.542,0-8.223,3.681-8.223,8.223
	c0,17.059,13.878,30.938,30.938,30.938c8.969,0,17.059-3.836,22.714-9.954c5.656,6.118,13.746,9.954,22.715,9.954
	c17.059,0,30.938-13.878,30.938-30.938C412.019,229.256,408.338,225.576,403.796,225.576z"/>
<path style="fill:#4A5058;" d="M394.033,184.269l-8.301,9.885c-14.279,17.005-40.446,17.005-54.723,0l-8.301-9.885
	c-4.277-5.094-0.656-12.862,5.995-12.862h59.335C394.689,171.407,398.31,179.177,394.033,184.269z"/>
<path style="fill:#6E614F;" d="M175.539,58.063c-15.738-15.738-41.255-15.738-56.993,0s-15.738,41.255,0,56.993
	s31.375,5.859,47.113-9.879C181.398,89.438,191.277,73.801,175.539,58.063z"/>
<circle style="fill:#EDBCB9;" cx="145.121" cy="84.632" r="8.543"/>
<path style="opacity:0.08;enable-background:new    ;" d="M279.103,443.075c-2.522-0.022-5.079-0.601-7.492-1.793
	c-18.187-8.987-34.59-35.745-34.411-56.139c0.083-9.543,7.888-17.213,17.432-17.129c9.543,0.083,17.213,7.888,17.129,17.432
	c-0.063,7.108,8.865,21.741,15.161,24.852c8.556,4.228,12.065,14.592,7.836,23.147C291.722,439.589,285.523,443.13,279.103,443.075z
	"/>
<g>
	<path style="fill:#7D7060;" d="M290.434,435.812c-2.476,0.482-5.096,0.428-7.699-0.258c-19.618-5.168-41.041-28.104-44.945-48.121
		c-1.828-9.368,4.285-18.443,13.653-20.269c9.368-1.828,18.443,4.285,20.271,13.653c1.361,6.977,13.034,19.527,19.826,21.318
		c9.23,2.431,14.74,11.884,12.308,21.113C302.102,429.873,296.737,434.583,290.434,435.812z"/>
	<path style="fill:#7D7060;" d="M285.659,470.199h-17.02v-5.155c0-13.077-10.601-23.678-23.678-23.678
		c-13.077,0-23.678,10.601-23.678,23.678v18.048c0,11.967,9.701,21.67,21.67,21.67h42.706c9.544,0,17.281-7.737,17.281-17.281
		C302.941,477.935,295.203,470.199,285.659,470.199z"/>
</g>
<g>
</g>
<g>
</g>
<g>
</g>
<g>
</g>
<g>
</g>
<g>
</g>
<g>
</g>
<g>
</g>
<g>
</g>
<g>
</g>
<g>
</g>
<g>
</g>
<g>
</g>
<g>
</g>
<g>
</g>
</svg>
