<?xml version="1.0" encoding="iso-8859-1"?>
<!-- Generator: Adobe Illustrator 19.0.0, SVG Export Plug-In . SVG Version: 6.00 Build 0)  -->
<svg version="1.1" id="Layer_1" xmlns="http://www.w3.org/2000/svg" xmlns:xlink="http://www.w3.org/1999/xlink" x="0px" y="0px"
	 viewBox="0 0 512 512" style="enable-background:new 0 0 512 512;" xml:space="preserve">
<path style="fill:#F4B759;" d="M236.694,477.649H211.17v-33.152c0-9.486-7.69-17.176-17.176-17.176
	c-9.486,0-17.176,7.69-17.176,17.176v33.152h-8.844c-9.486,0-17.176,7.69-17.176,17.176c0,9.486,7.69,17.176,17.176,17.176h68.719
	c9.486,0,17.176-7.69,17.176-17.176C253.869,485.339,246.18,477.649,236.694,477.649z"/>
<path style="opacity:0.1;enable-background:new    ;" d="M236.694,477.649H211.17v-33.152c0-9.486-7.69-17.176-17.176-17.176
	c-9.486,0-17.176,7.69-17.176,17.176v33.152h-8.844c-9.486,0-17.176,7.69-17.176,17.176c0,9.486,7.69,17.176,17.176,17.176h68.719
	c9.486,0,17.176-7.69,17.176-17.176C253.869,485.339,246.18,477.649,236.694,477.649z"/>
<path style="fill:#E8E8E8;" d="M264.679,369.603c0,49.628-41.83,89.86-109.058,89.86s-105.156-40.232-105.156-89.86
	s37.928-80.938,105.156-80.938S264.679,319.974,264.679,369.603z"/>
<path style="opacity:0.04;enable-background:new    ;" d="M96.023,341.679H55.142c-3.075,8.48-4.676,17.815-4.676,27.925
	c0,15.726,3.821,30.503,11.163,43.361l34.283,3.018c20.877,1.838,38.842-14.614,38.842-35.571
	C134.755,359.02,117.414,341.679,96.023,341.679z"/>
<path style="fill:#E8E8E8;" d="M101.507,404.612l-36.073-3.177c-23.11-2.035-43.31-16.417-52.793-37.59l0,0
	c-7.055-15.75,4.469-33.538,21.726-33.538h67.248c21.392,0,38.732,17.341,38.732,38.732l0,0
	C140.349,389.999,122.385,406.451,101.507,404.612z"/>
<path style="opacity:0.08;enable-background:new    ;" d="M101.507,404.612l-36.073-3.177c-23.11-2.035-43.31-16.417-52.793-37.59
	l0,0c-7.055-15.75,4.469-33.538,21.726-33.538h67.248c21.392,0,38.732,17.341,38.732,38.732l0,0
	C140.349,389.999,122.385,406.451,101.507,404.612z"/>
<path style="opacity:0.05;enable-background:new    ;" d="M155.622,288.665c-21.326,0-39.693,3.16-54.846,9.048
	c23.339,27.666,59.093,44.736,100.264,49.284c2.214,2.516,4.527,4.958,6.939,7.319l0,0c15.992,15.647,33.771,29.185,52.895,40.377
	c2.489-7.965,3.805-16.377,3.805-25.089C264.679,319.974,222.849,288.665,155.622,288.665z"/>
<path style="fill:#E8E8E8;" d="M374.014,189.121c0-83.677-67.834-149.106-151.511-149.106S70.993,105.444,70.993,189.121
	s67.834,132.648,151.511,132.648C306.18,321.77,374.014,272.798,374.014,189.121z"/>
<g>
	<path style="fill:#4A5058;" d="M346.23,164.729c-4.457,0-8.071-3.612-8.071-8.071c0-3.093-2.516-5.609-5.61-5.609
		c-3.093,0-5.609,2.516-5.609,5.609c0,4.458-3.614,8.071-8.071,8.071c-4.457,0-8.071-3.612-8.071-8.071
		c0-11.993,9.757-21.75,21.75-21.75s21.751,9.757,21.751,21.75C354.301,161.117,350.688,164.729,346.23,164.729z"/>
	<path style="fill:#4A5058;" d="M244.163,164.729c-4.457,0-8.071-3.612-8.071-8.071c0-3.093-2.516-5.609-5.609-5.609
		c-3.094,0-5.61,2.516-5.61,5.609c0,4.458-3.614,8.071-8.071,8.071c-4.457,0-8.071-3.612-8.071-8.071
		c0-11.993,9.757-21.75,21.751-21.75c11.993,0,21.75,9.757,21.75,21.75C252.234,161.117,248.62,164.729,244.163,164.729z"/>
</g>
<path style="fill:#F4B759;" d="M351.211,410.323L351.211,410.323c-50.164-10.838-96.245-35.633-132.927-71.526l0,0
	c-25.936-25.378-40.555-60.134-40.555-96.42l0,0h323.736v46.686C501.467,368.129,428.494,427.02,351.211,410.323z"/>
<path style="opacity:0.1;enable-background:new    ;" d="M351.211,410.323L351.211,410.323
	c-50.164-10.838-96.245-35.633-132.927-71.526l0,0c-25.936-25.378-40.555-60.134-40.555-96.42l0,0h323.736v46.686
	C501.467,368.129,428.494,427.02,351.211,410.323z"/>
<path style="fill:#F4B759;" d="M448.211,189.121H230.985c-29.412,0-53.256,23.843-53.256,53.256l0,0h323.736l0,0
	C501.467,212.965,477.623,189.121,448.211,189.121z"/>
<path style="fill:#E8E8E8;" d="M215.496,57.485c-4.457,0-8.071-3.612-8.071-8.071c0-27.501-18.475-33.273-33.973-33.273
	c-4.457,0-8.071-3.612-8.071-8.071c0-4.457,3.614-8.071,8.071-8.071c7.92,0,19.51,1.335,29.749,7.697
	c9.291,5.772,20.366,17.696,20.366,41.717C223.567,53.872,219.953,57.485,215.496,57.485z"/>
<path style="fill:#F4B759;" d="M174.709,477.649h-25.524v-33.152c0-9.486-7.69-17.176-17.176-17.176
	c-9.486,0-17.176,7.69-17.176,17.176v33.152h-8.844c-9.486,0-17.176,7.69-17.176,17.176c0,9.486,7.69,17.176,17.176,17.176h68.719
	c9.486,0,17.176-7.69,17.176-17.176C191.884,485.339,184.194,477.649,174.709,477.649z"/>
<g>
</g>
<g>
</g>
<g>
</g>
<g>
</g>
<g>
</g>
<g>
</g>
<g>
</g>
<g>
</g>
<g>
</g>
<g>
</g>
<g>
</g>
<g>
</g>
<g>
</g>
<g>
</g>
<g>
</g>
</svg>
