<?xml version="1.0" encoding="iso-8859-1"?>
<!-- Generator: Adobe Illustrator 19.0.0, SVG Export Plug-In . SVG Version: 6.00 Build 0)  -->
<svg version="1.1" id="Layer_1" xmlns="http://www.w3.org/2000/svg" xmlns:xlink="http://www.w3.org/1999/xlink" x="0px" y="0px"
	 viewBox="0 0 512 512" style="enable-background:new 0 0 512 512;" xml:space="preserve">
<path style="fill:#7D7060;" d="M175.841,438.819c-4.865,0-9.747-0.197-14.632-0.608c-46.755-3.941-87.19-26.652-116.934-65.676
	C21.482,342.63,7.295,308.415,2.106,270.839c-4.865-35.233-1.264-72.325,10.413-107.268C38.892,84.645,102.973,23.909,183.935,1.106
	c8.141-2.296,16.597,2.447,18.89,10.586c2.292,8.14-2.448,16.597-10.587,18.889C121.046,50.634,64.719,103.978,41.563,173.276
	c-10.191,30.497-13.344,62.786-9.121,93.373c4.458,32.285,16.633,61.663,36.189,87.32c24.702,32.409,56.716,50.485,95.151,53.724
	c50.176,4.229,94.344-17.993,110.403-32.994c6.181-5.772,15.87-5.442,21.642,0.737c5.772,6.18,5.442,15.87-0.737,21.642
	C271.821,418.815,224.862,438.819,175.841,438.819z"/>
<path style="opacity:0.1;enable-background:new    ;" d="M295.827,375.439c-5.772-6.18-15.461-6.51-21.642-0.738
	c-10.991,10.267-35.155,23.913-65.397,30.15c2.69,11.022,7.5,20.397,13.987,28.113c30.413-7.505,56.7-21.299,72.314-35.884
	C301.27,391.308,301.6,381.619,295.827,375.439z"/>
<path style="fill:#F7DA70;" d="M432.432,412.211c-0.863-4.595-1.216-9.36-1.257-14.291c-0.021-4.922,0.281-9.981,1.048-15.091
	c1.471-10.219,4.717-20.733,9.976-30.602c5.207-9.868,12.488-19.052,21.265-26.175c8.745-7.165,18.787-12.333,29.161-14.857
	c8.408-2.046,16.883,3.112,18.927,11.521c1.334,5.486-0.398,11-4.098,14.739l-1.124,1.126c-2.851,2.863-5.594,5.476-8.124,8.132
	c-2.528,2.651-4.806,5.35-6.947,8.045c-4.245,5.426-7.802,11.02-10.861,17.232c-3.061,6.202-5.69,12.935-8.372,20.303l-4.16,11.521
	c-1.489,3.994-3.004,8.196-5.094,12.559c-3.837,8.009-13.44,11.391-21.449,7.554c-4.772-2.287-7.902-6.621-8.84-11.446
	L432.432,412.211z"/>
<path style="opacity:0.15;enable-background:new    ;" d="M465.986,372.632c-4.794-9.547-12.157-18.057-21.246-24.861
	c-0.889,1.468-1.747,2.95-2.541,4.455c-5.259,9.868-8.507,20.383-9.976,30.602c-0.192,1.277-0.354,2.551-0.489,3.82
	c0.512,0.812,0.991,1.635,1.414,2.476c3.226,6.423,9.705,10.132,16.434,10.132c2.771,0,5.586-0.63,8.232-1.959
	C466.882,392.744,470.541,381.7,465.986,372.632z"/>
<g>
	<path style="fill:#6E614F;" d="M223.879,370.183c-15.69,0-31.09-4.13-44.576-12.107c-17.245-10.202-30.037-26.012-35.094-43.38
		c-2.838-9.743,2.759-19.942,12.502-22.779c9.744-2.839,19.942,2.759,22.779,12.502c5.095,17.493,28.066,32.967,54.148,28.109
		c9.972-1.853,19.569,4.728,21.425,14.704c1.856,9.976-4.727,19.569-14.704,21.425C234.878,369.678,229.361,370.183,223.879,370.183
		z"/>
	<path style="fill:#6E614F;" d="M451.291,389.816c-6.729,0-13.208-3.709-16.434-10.132c-8.177-16.281-33.573-27.336-58.341-17.845
		c-9.477,3.63-20.101-1.107-23.732-10.583c-3.631-9.476,1.107-20.102,10.583-23.732c20.115-7.707,42.121-7.937,61.963-0.644
		c18.806,6.912,34.249,20.146,42.367,36.311c4.555,9.068,0.895,20.111-8.173,24.666
		C456.877,389.186,454.062,389.816,451.291,389.816z"/>
</g>
<path style="fill:#F8E9B4;" d="M467.697,363.191c-2.794-5.563-6.473-10.767-10.84-15.498c-17.507,0.727-25.672,13.64-28.004,23.788
	c2.489,2.505,4.531,5.267,6.004,8.203c3.226,6.423,9.705,10.132,16.434,10.132c2.771,0,5.586-0.63,8.232-1.959
	C468.592,383.303,472.251,372.259,467.697,363.191z"/>
<path style="fill:#6E614F;" d="M244.295,511.473c-5.84,0-11.582-2.778-15.145-7.95c-15.038-21.822-17.989-45.812-8.311-67.552
	c9.02-20.261,28.763-36.164,48.013-38.674c10.06-1.316,19.284,5.781,20.596,15.845c1.313,10.062-5.781,19.284-15.845,20.595
	c-5.009,0.654-14.726,7.147-19.193,17.18c-4.397,9.877-2.716,20.56,4.999,31.754c5.758,8.355,3.653,19.797-4.704,25.555
	C251.521,510.421,247.89,511.473,244.295,511.473z"/>
<path style="fill:#F8E9B4;" d="M259.408,482.672c-2.141-3.106-3.799-6.171-5.01-9.192c-13.837,0.307-26.613,8.198-33.184,15.89
	c2.098,4.788,4.741,9.52,7.934,14.153c3.564,5.172,9.305,7.95,15.145,7.95c3.595,0,7.227-1.052,10.41-3.246
	C263.061,502.468,265.167,491.027,259.408,482.672z"/>
<path style="opacity:0.1;enable-background:new    ;" d="M289.447,413.141c-1.313-10.062-10.535-17.16-20.596-15.845
	c-14.225,1.855-28.714,11.027-38.952,23.863c7.193,10.172,16.998,17.869,28.568,23.092c4.867-6.182,11.346-10.022,15.134-10.515
	C283.666,432.425,290.76,423.203,289.447,413.141z"/>
<path style="fill:#6E614F;" d="M407.165,485.013c-0.241,0-0.483-0.004-0.725-0.014c-10.141-0.394-18.041-8.934-17.647-19.073
	c0.527-13.584-3.768-23.509-12.767-29.501c-9.142-6.086-20.826-6.374-25.407-4.245c-9.202,4.277-20.129,0.281-24.405-8.922
	c-4.276-9.203-0.281-20.13,8.922-24.406c17.607-8.178,42.794-5.307,61.255,6.983c19.81,13.188,30.152,35.034,29.125,61.516
	C425.128,477.249,416.983,485.013,407.165,485.013z"/>
<g>
	<path style="fill:#F8E9B4;" d="M424.307,449.138c-13.818-3.388-27.923-0.167-36.534,4.717c0.844,3.633,1.191,7.655,1.02,12.071
		c-0.393,10.14,7.507,18.679,17.647,19.073c0.243,0.01,0.485,0.014,0.725,0.014c9.818,0,17.963-7.764,18.348-17.662
		C425.76,460.994,425.345,454.907,424.307,449.138z"/>
	<path style="fill:#F8E9B4;" d="M179.492,304.42c-2.838-9.743-13.035-15.341-22.779-12.502c-9.743,2.838-15.34,13.036-12.502,22.779
		c2.203,7.562,5.874,14.828,10.738,21.466c10.319-2.936,22.457-10.752,31.371-19.43C183.102,312.935,180.75,308.74,179.492,304.42z"
		/>
</g>
<path style="opacity:0.1;enable-background:new    ;" d="M255.064,347.233c-1.856-9.976-11.453-16.557-21.425-14.704
	c-4.608,0.858-9.115,1.07-13.447,0.76c-5.138,10.885-8.372,23.043-9.226,35.941c4.26,0.625,8.574,0.953,12.912,0.953
	c5.482,0,10.998-0.504,16.481-1.524C250.337,366.802,256.92,357.211,255.064,347.233z"/>
<path style="fill:#6E614F;" d="M390.317,364.802c0-51.024-37.279-92.387-83.265-92.387c-45.986,0-83.265,41.364-83.265,92.387
	s37.278,76.467,83.265,76.467C353.039,441.27,390.317,415.827,390.317,364.802z"/>
<path style="opacity:0.1;enable-background:new    ;" d="M307.052,272.416c-33.664,0-62.641,22.179-75.764,54.075
	c23.084,14.321,49.619,23.065,76.991,23.065c26.599,0,52.405-8.258,75.025-21.865C370.42,295.151,341.137,272.416,307.052,272.416z"
	/>
<circle style="fill:#7D7060;" cx="161.855" cy="221.312" r="38.939"/>
<circle style="fill:#F8ECC8;" cx="161.855" cy="221.312" r="13.238"/>
<path style="opacity:0.1;enable-background:new    ;" d="M161.851,182.369c-6.989,0-13.543,1.851-19.213,5.075
	c-0.092,2.249-0.148,4.513-0.148,6.799c0,22.396,7.354,45.235,19.945,65.988c21.235-0.314,38.355-17.614,38.355-38.923
	C200.79,199.801,183.356,182.369,161.851,182.369z"/>
<circle style="fill:#7D7060;" cx="454.704" cy="221.312" r="38.939"/>
<circle style="fill:#F8ECC8;" cx="454.704" cy="221.312" r="13.238"/>
<path style="fill:#6E614F;" d="M308.279,328.889c80.222,0,153.268-75.066,153.268-145.688c0-86.662-66.607-147.798-153.268-147.798
	S155.011,96.54,155.011,183.201C155.011,253.823,228.057,328.889,308.279,328.889z"/>
<path style="fill:#F8E9B4;" d="M359.485,124.2c-16.423,0.178-31.498,5.961-43.412,15.524c-4.55,3.654-11.042,3.654-15.592,0
	c-11.913-9.563-26.987-15.348-43.411-15.524c-39.979-0.431-71.891,33.01-71.431,72.989c0.514,44.597,15.766,73.459,33.836,100.602
	c25.615,19.018,56.629,31.099,88.8,31.099c32.173,0,63.185-12.081,88.8-31.099c18.07-27.143,33.322-56.005,33.836-100.602
	C431.377,157.21,399.464,123.768,359.485,124.2z"/>
<path style="fill:#EDBCB9;" d="M319.358,273.167c-6.119,0-11.08-4.961-11.08-11.08c0,6.119-4.961,11.08-11.08,11.08
	c-1.739,0-3.378-0.412-4.842-1.125v15.422c0,8.793,7.129,15.922,15.922,15.922s15.922-7.129,15.922-15.922v-15.422
	C322.736,272.755,321.098,273.167,319.358,273.167z"/>
<g>
	<path style="fill:#4A5058;" d="M248.781,256.99c-4.512,0-8.17-3.658-8.17-8.17c0-1.451-1.181-2.632-2.632-2.632
		c-1.451,0-2.632,1.181-2.632,2.632c0,4.512-3.658,8.17-8.17,8.17s-8.17-3.658-8.17-8.17c0-10.461,8.511-18.972,18.972-18.972
		s18.972,8.511,18.972,18.972C256.951,253.332,253.293,256.99,248.781,256.99z"/>
	<path style="fill:#4A5058;" d="M389.38,256.99c-4.512,0-8.17-3.658-8.17-8.17c0-1.451-1.181-2.632-2.632-2.632
		s-2.632,1.181-2.632,2.632c0,4.512-3.658,8.17-8.17,8.17c-4.512,0-8.17-3.658-8.17-8.17c0-10.461,8.511-18.972,18.972-18.972
		c10.461,0,18.972,8.511,18.972,18.972C397.55,253.332,393.892,256.99,389.38,256.99z"/>
	<path style="fill:#4A5058;" d="M319.358,281.337c-4.122,0-7.945-1.302-11.08-3.516c-3.135,2.215-6.959,3.516-11.08,3.516
		c-10.615,0-19.25-8.635-19.25-19.25c0-4.512,3.658-8.17,8.17-8.17s8.17,3.658,8.17,8.17c0,1.605,1.305,2.91,2.91,2.91
		c1.605,0,2.91-1.305,2.91-2.91c0-4.512,3.658-8.17,8.17-8.17c4.512,0,8.17,3.658,8.17,8.17c0,1.605,1.305,2.91,2.91,2.91
		c1.605,0,2.91-1.305,2.91-2.91c0-4.512,3.658-8.17,8.17-8.17c4.512,0,8.17,3.658,8.17,8.17
		C338.609,272.7,329.974,281.337,319.358,281.337z"/>
</g>
<path style="fill:#D46D59;" d="M308.279,290.302c-5.617,0-10.597,2.009-13.779,5.113c2.753,4.758,7.886,7.969,13.779,7.969
	c5.893,0,11.026-3.21,13.779-7.969C318.876,292.311,313.895,290.302,308.279,290.302z"/>
<path style="fill:#EDBCB9;" d="M317.773,237.451l-2.464,2.935c-4.239,5.047-12.005,5.047-16.243,0l-2.464-2.935
	c-1.269-1.512-0.195-3.818,1.78-3.818h17.611C317.968,233.633,319.042,235.939,317.773,237.451z"/>
<g>
</g>
<g>
</g>
<g>
</g>
<g>
</g>
<g>
</g>
<g>
</g>
<g>
</g>
<g>
</g>
<g>
</g>
<g>
</g>
<g>
</g>
<g>
</g>
<g>
</g>
<g>
</g>
<g>
</g>
</svg>
