<?xml version="1.0" encoding="iso-8859-1"?>
<!-- Generator: Adobe Illustrator 19.0.0, SVG Export Plug-In . SVG Version: 6.00 Build 0)  -->
<svg version="1.1" id="Layer_1" xmlns="http://www.w3.org/2000/svg" xmlns:xlink="http://www.w3.org/1999/xlink" x="0px" y="0px"
	 viewBox="0 0 512 512" style="enable-background:new 0 0 512 512;" xml:space="preserve">
<path style="fill:#E8E8E8;" d="M354.043,447.596v-69.238c0-17.905-14.515-32.419-32.42-32.419l0,0
	c-17.905,0-32.42,14.515-32.42,32.419v92.01c0,14.393,11.668,26.061,26.061,26.061h72.622c6.308,0,11.423-5.114,11.423-11.423l0,0
	c0-20.66-16.749-37.41-37.41-37.41H354.043z"/>
<path style="opacity:0.08;enable-background:new    ;" d="M354.043,447.596v-69.238c0-17.905-14.515-32.419-32.42-32.419l0,0
	c-17.905,0-32.42,14.515-32.42,32.419v92.01c0,14.393,11.668,26.061,26.061,26.061h72.622c6.308,0,11.423-5.114,11.423-11.423l0,0
	c0-20.66-16.749-37.41-37.41-37.41H354.043z"/>
<path style="fill:#E8E8E8;" d="M173.024,402.094C96.892,374.852,49.171,303.601,48.238,227.23
	c-0.208-17.04-23.32-21.956-30.515-6.509c-2.45,5.258-4.678,10.675-6.671,16.244c-35.01,97.84,15.924,205.535,113.764,240.545
	L173.024,402.094z"/>
<path style="fill:#4A5058;" d="M48.236,227.23c-0.111-9-6.61-14.613-13.778-15.635c-0.391,1.036-0.782,2.072-1.157,3.119
	C-0.929,310.375,47.008,415.446,140.609,452.8l32.414-50.706C96.892,374.852,49.171,303.601,48.236,227.23z"/>
<path style="opacity:0.1;enable-background:new    ;" d="M89.362,342.343l-5.232,6.903c-17.554,23.159-29.31,50.071-34.435,78.489
	c19.977,21.76,45.376,39.13,75.121,49.773l48.21-75.415C138.861,389.869,110.423,368.778,89.362,342.343z"/>
<path style="fill:#4A5058;" d="M294.898,121.973h82.933c4.317,0,7.816-3.499,7.816-7.816V93.786c0-15.013-4.549-29.674-13.046-42.05
	l-18.374-26.762c-8.609-12.539-27.119-12.539-35.727,0l-23.303,33.942c-5.286,7.7-8.116,16.822-8.116,26.161v29.08
	C287.081,118.474,290.581,121.973,294.898,121.973z"/>
<path style="fill:#EDBCB9;" d="M323.366,105.338h25.996c4.159,0,7.53-3.371,7.53-7.53v-8.214c0-6.863-1.894-13.564-5.434-19.222
	l-10.99-17.568c-1.896-3.031-6.311-3.031-8.207,0l-14.075,22.498c-1.535,2.454-2.349,5.291-2.349,8.185v14.32
	C315.837,101.967,319.208,105.338,323.366,105.338z"/>
<path style="fill:#4A5058;" d="M320.522,76.04h-77.616c-1.218-6.108-3.658-11.939-7.219-17.124l-23.303-33.942
	c-8.608-12.539-27.119-12.539-35.727,0l-18.374,26.762c-8.497,12.377-13.046,27.038-13.046,42.05v167.361
	c0,17.143-4.976,33.917-14.325,48.285l-19.157,29.448c-19.436,29.874-29.776,64.751-29.765,100.392
	c0.008,24.007,19.507,43.455,43.514,43.455h134.199c41.251,0,74.692-33.44,74.692-74.692v-87.651h61.194V160.967
	c0-6.728,9.078-13.273,7.599-19.548C394.358,103.938,360.698,76.04,320.522,76.04z"/>
<path style="fill:#FFFFFF;" d="M321.982,357.356c-13.038,0.463-23.185,11.576-23.185,24.623v29.779
	c0,27.202-22.052,49.254-49.254,49.254l0,0c-13.161,0-24.144,9.317-26.718,21.715h36.877c41.251,0,74.692-33.44,74.692-74.692
	v-47.746C330.73,358.283,326.49,357.196,321.982,357.356z"/>
<path style="fill:#E8E8E8;" d="M475.615,199.052h-70.166v-38.086c0-8.464-1.254-16.632-3.56-24.346
	c-8.004-5.287-17.861-8.415-28.529-8.415c-17.868,0-33.466,8.76-41.869,21.788c-8.403-13.028-24.001-21.788-41.869-21.788
	c-26.765,0-48.462,19.642-48.462,43.871c0,23.05,19.64,41.934,44.596,43.719v53.324c0,28.312,22.952,51.264,51.264,51.264h99.614
	c41.623,0,75.365-33.742,75.365-75.365v-9.582C511.999,215.343,495.709,199.052,475.615,199.052z"/>
<g>
	<path style="fill:#4A5058;" d="M296.152,193.919c-4.538,0-8.217-3.678-8.217-8.217v-12.237c0-4.539,3.679-8.217,8.217-8.217
		c4.538,0,8.217,3.678,8.217,8.217v12.237C304.368,190.24,300.69,193.919,296.152,193.919z"/>
	<path style="fill:#4A5058;" d="M368.288,193.919c-4.538,0-8.217-3.678-8.217-8.217v-12.237c0-4.539,3.679-8.217,8.217-8.217
		c4.538,0,8.217,3.678,8.217,8.217v12.237C376.505,190.24,372.826,193.919,368.288,193.919z"/>
</g>
<path style="fill:#EDBCB9;" d="M461.317,264.533c-7.574,0-13.713-6.14-13.713-13.713c0,7.574-6.14,13.713-13.713,13.713
	c-3.896,0-7.404-1.632-9.9-4.24v17.729c0,13.042,10.572,23.614,23.613,23.614s23.613-10.572,23.613-23.614v-17.729
	C468.72,262.902,465.211,264.533,461.317,264.533z"/>
<path style="opacity:0.1;enable-background:new    ;" d="M447.602,284.445c-4.538,0-8.217-3.678-8.217-8.217v-25.408
	c0-4.539,3.679-8.217,8.217-8.217c4.538,0,8.217,3.678,8.217,8.217v25.408C455.819,280.766,452.14,284.445,447.602,284.445z"/>
<g>
	<path style="fill:#4A5058;" d="M475.03,242.603c-4.538,0-8.217,3.678-8.217,8.217c0,3.031-2.466,5.497-5.497,5.497
		s-5.497-2.465-5.497-5.497v-23.625h-16.434v23.625c0,3.031-2.465,5.497-5.497,5.497s-5.497-2.465-5.497-5.497
		c0-4.539-3.679-8.217-8.217-8.217c-4.538,0-8.217,3.678-8.217,8.217c0,12.092,9.838,21.93,21.93,21.93
		c5.184,0,9.956-1.808,13.713-4.828c3.758,3.021,8.529,4.828,13.713,4.828c12.093,0,21.93-9.838,21.93-21.93
		C483.247,246.282,479.568,242.603,475.03,242.603z"/>
	<path style="fill:#4A5058;" d="M478.536,210.209l-7.2,8.575c-12.384,14.75-35.082,14.75-47.466,0l-7.2-8.575
		c-3.71-4.418-0.569-11.156,5.201-11.156h51.466C479.105,199.052,482.246,205.791,478.536,210.209z"/>
</g>
<path style="fill:#EDBCB9;" d="M173.992,91.126v-5.808c0-4.094,1.133-8.108,3.273-11.599l9.239-15.071
	c3.669-5.985,12.365-5.985,16.033,0l9.239,15.071c2.14,3.491,3.272,7.505,3.272,11.599l0,0c0,5.807-3.745,10.951-9.271,12.735
	l-15.425,4.98C182.271,105.645,173.992,99.618,173.992,91.126z"/>
<g>
	<path style="fill:#E8E8E8;" d="M275.343,447.596v-69.238c0-17.905-14.515-32.419-32.42-32.419l0,0
		c-17.905,0-32.42,14.515-32.42,32.419v92.01c0,14.393,11.668,26.061,26.061,26.061h72.622c6.308,0,11.423-5.114,11.423-11.423l0,0
		c0-20.66-16.749-37.41-37.41-37.41H275.343z"/>
	<path style="fill:#E8E8E8;" d="M156.745,447.598h-7.665l7.042-32.354c4.699-21.587-11.746-41.996-33.838-41.996l0,0
		c-27.281,0-50.875,19.012-56.679,45.669l-7.874,36.173c-4.626,21.251,11.562,41.341,33.31,41.341h91.689
		c6.308,0,11.423-5.114,11.423-11.423C194.154,464.346,177.405,447.598,156.745,447.598z"/>
</g>
<g>
</g>
<g>
</g>
<g>
</g>
<g>
</g>
<g>
</g>
<g>
</g>
<g>
</g>
<g>
</g>
<g>
</g>
<g>
</g>
<g>
</g>
<g>
</g>
<g>
</g>
<g>
</g>
<g>
</g>
</svg>
