<?xml version="1.0" encoding="iso-8859-1"?>
<!-- Generator: Adobe Illustrator 19.0.0, SVG Export Plug-In . SVG Version: 6.00 Build 0)  -->
<svg version="1.1" id="Layer_1" xmlns="http://www.w3.org/2000/svg" xmlns:xlink="http://www.w3.org/1999/xlink" x="0px" y="0px"
	 viewBox="0 0 512 512" style="enable-background:new 0 0 512 512;" xml:space="preserve">
<path style="fill:#E8E8E8;" d="M314.25,181.188c84.491,0,143.459-35.977,132.218-96.402C434.699,21.518,381.986,0.126,314.25,0.126
	c-64.431,0-122.876,20.938-144.648,81.745c-20.971,58.567,4.714,108.228,31.562,142.2c23.932,30.283,54.49,45.743,79.044,58.165
	c31.742,16.059,45.296,24.071,48.86,46.308c-17.79-3.406-31.583-6.046-31.583-6.046c-69.456-13.296-141.289-9.487-208.795,11.072
	l0,0c-20.596,6.272-42.705,6.306-63.321,0.095c-5.543-2.283-12.98-6.06-18.367-10.351C4.176,321.067,0,323.134,0,326.744v40.666
	c0,79.786,67.396,144.464,150.535,144.464h79.381c97.065,0,175.751-107.816,175.751-168.665l0,0
	c0-82.212-52.791-108.919-91.336-128.42c-22.203-11.233-47.955-18.987-63.76-46.49C266.615,181.669,292.746,181.188,314.25,181.188z
	"/>
<path style="fill:#4A5058;" d="M446.469,84.786c-1.863-10.017-4.76-18.975-8.572-26.974h-93.114
	c-17.378,0-31.465,14.087-31.465,31.465s14.087,31.465,31.465,31.465h99.474C448.03,110.002,448.923,97.976,446.469,84.786z"/>
<circle style="fill:#FFFFFF;" cx="349.171" cy="89.282" r="8.072"/>
<path style="opacity:0.05;enable-background:new    ;" d="M447.534,92.545c-3.457-4.32-8.771-7.545-15.993-7.545
	c-13.991,0-20.844,12.094-20.844,20.844c0,6.894-5.589,12.483-12.484,12.483l0,0c-13.634,0-24.687,11.053-24.687,24.688v0.558
	c0,11.979,8.532,21.962,19.85,24.21C429.425,153.235,450.641,127.335,447.534,92.545z"/>
<path style="fill:#F4B759;" d="M509.732,140.36L509.732,140.36c-9.841,8.519-22.423,13.208-35.44,13.208h-76.078
	c-13.634,0-24.687-11.053-24.687-24.688v-0.558c0-13.634,11.053-24.688,24.687-24.688l0,0c6.894,0,12.484-5.589,12.484-12.483
	c0-8.749,6.853-20.844,20.844-20.844c13.991,0,20.844,12.095,20.844,20.844c0,13.213,34.584,28.597,55.787,38.291
	C512.514,131.426,513.341,137.236,509.732,140.36z"/>
<path style="opacity:0.2;enable-background:new    ;" d="M433.048,115.415c-4.509,0-8.163-3.655-8.163-8.163v-6.168
	c0-4.508,3.654-8.163,8.163-8.163c4.509,0,8.163,3.655,8.163,8.163v6.168C441.211,111.76,437.556,115.415,433.048,115.415z"/>
<path style="opacity:0.1;enable-background:new    ;" d="M250.01,349.353l-41.739-34.555c-40.442,0.668-80.728,6.94-119.582,18.773
	l0,0c-5.365,1.634-10.833,2.834-16.35,3.621c0.104,0.906,0.199,1.814,0.324,2.716l-5.404-2.119
	c-5.663,0.539-11.359,0.639-17.035,0.294c-7.15,3.548-12.073,11.284-10.975,20.282l0,0c3.753,30.781,21.524,57.724,47.561,73.411
	c38.211,23.501,111.103,44.944,162.342-0.601c2.819-2.24,5.453-4.799,7.841-7.683l0,0
	C275.536,401.092,272.41,367.899,250.01,349.353z"/>
<path style="fill:#E8E8E8;" d="M264.143,335.22l-88.248-73.057c-14.961-12.386-37.725-4.297-41.516,14.752l0,0
	c-1.125,5.656-1.856,11.331-2.214,16.992l-11.474-6.475c-15.476-8.733-34.668,2.233-35.001,20.001l0,0
	c-0.116,6.193,0.272,12.32,1.106,18.342l-6.368-2.498c-14.042-5.506-28.87,5.984-27.046,20.955l0,0
	c3.753,30.781,21.524,57.724,47.561,73.411c38.211,23.501,111.103,44.942,162.341-0.601c2.819-2.24,5.453-4.799,7.841-7.683l0,0
	C289.67,386.959,286.544,353.765,264.143,335.22z"/>
<path style="opacity:0.05;enable-background:new    ;" d="M264.143,335.22l-88.248-73.057
	c-14.961-12.386-37.725-4.297-41.516,14.752l0,0c-1.125,5.656-1.856,11.331-2.214,16.992l-11.474-6.475
	c-15.476-8.733-34.668,2.233-35.001,20.001l0,0c-0.116,6.193,0.272,12.32,1.106,18.342l-6.368-2.498
	c-14.042-5.506-28.87,5.984-27.046,20.955l0,0c3.753,30.781,21.524,57.724,47.561,73.411
	c38.211,23.501,111.103,44.942,162.341-0.601c2.819-2.24,5.453-4.799,7.841-7.683l0,0
	C289.67,386.959,286.544,353.765,264.143,335.22z"/>
<path style="opacity:0.1;enable-background:new    ;" d="M213.595,353.6c-23.629-9.142-65.517-47.647-80-72.352
	c-0.689,4.219-1.163,8.443-1.43,12.659l-11.474-6.475c-1.032-0.582-2.082-1.071-3.141-1.482
	c14.955,28.6,61.375,71.742,90.155,82.876c0.969,0.374,1.965,0.552,2.944,0.552c3.274,0,6.363-1.983,7.614-5.22
	C219.889,359.953,217.8,355.226,213.595,353.6z M152.598,375.86c-11.971-5.218-52-39.988-66.905-66.411
	c-0.007,5.506,0.36,10.959,1.103,16.326l-6.368-2.498c-2.084-0.817-4.184-1.252-6.245-1.364
	c18.176,28.475,57.339,62.569,71.894,68.913c1.062,0.464,2.168,0.682,3.258,0.682c3.149,0,6.148-1.833,7.487-4.903
	C158.621,382.472,156.731,377.662,152.598,375.86z"/>
<g>
</g>
<g>
</g>
<g>
</g>
<g>
</g>
<g>
</g>
<g>
</g>
<g>
</g>
<g>
</g>
<g>
</g>
<g>
</g>
<g>
</g>
<g>
</g>
<g>
</g>
<g>
</g>
<g>
</g>
</svg>
