<?xml version="1.0" encoding="iso-8859-1"?>
<!-- Generator: Adobe Illustrator 19.0.0, SVG Export Plug-In . SVG Version: 6.00 Build 0)  -->
<svg version="1.1" id="Layer_1" xmlns="http://www.w3.org/2000/svg" xmlns:xlink="http://www.w3.org/1999/xlink" x="0px" y="0px"
	 viewBox="0 0 512 512" style="enable-background:new 0 0 512 512;" xml:space="preserve">
<path style="fill:#4A5058;" d="M224.159,488.417c-10.345,0-18.732-8.386-18.732-18.732v-42.459c0-10.345,8.386-18.732,18.732-18.732
	c10.345,0,18.732,8.386,18.732,18.732v42.459C242.89,480.031,234.504,488.417,224.159,488.417z"/>
<path style="opacity:0.15;enable-background:new    ;" d="M224.159,408.495c-10.345,0-18.732,8.386-18.732,18.732v17.15
	c9.871,9.759,22.861,16.664,37.464,19.282v-36.434C242.89,416.881,234.504,408.495,224.159,408.495z"/>
<path style="fill:#4A5058;" d="M287.84,488.417c-10.345,0-18.731-8.386-18.731-18.732v-42.459c0-10.345,8.386-18.732,18.731-18.732
	s18.732,8.386,18.732,18.732v42.459C306.572,480.031,298.185,488.417,287.84,488.417z"/>
<path style="opacity:0.15;enable-background:new    ;" d="M287.84,408.495c-10.345,0-18.731,8.386-18.731,18.732v36.432
	c14.604-2.618,27.593-9.523,37.464-19.282v-17.151C306.572,416.881,298.185,408.495,287.84,408.495z"/>
<path style="fill:#4A5058;" d="M209.532,417.103c-35.922-18.699-75.261-1.556-92.644,16.85c-5.098,5.399-13.306,6.188-19.363,1.892
	c-27.477-19.492-63.185-9.187-86.376,10.836c-4.707,4.064-11.895,0.087-11.088-6.08c4.889-37.354,24.541-87.81,76.694-116.266
	c6.88-3.755,15.247-3.351,21.906,0.782c30.758,19.092,76.926,20.693,99.71,6.632h57.63L209.532,417.103z"/>
<path style="fill:#A4A8AB;" d="M195.675,360.145c-20.394,13.273-64.218,11.761-91.75-6.26c-5.96-3.902-13.45-4.282-19.609-0.739
	c-35.374,20.354-50.124,52.627-57.103,82.411c21.754-11.901,48.602-15.113,70.314,0.288c6.056,4.296,14.264,3.506,19.363-1.892
	c17.382-18.406,56.722-35.549,92.644-16.85l31.012-56.96h-44.871V360.145z"/>
<path style="opacity:0.1;enable-background:new    ;" d="M200.74,331.75c-18.924,12.129-31.361,32.627-31.361,55.874
	c0,7.51,1.318,14.726,3.713,21.473c11.89-0.504,24.357,1.717,36.44,8.007l46.472-85.354L200.74,331.75L200.74,331.75z"/>
<path style="fill:#4A5058;" d="M302.467,417.103c35.922-18.699,75.261-1.556,92.644,16.85c5.098,5.399,13.306,6.188,19.363,1.892
	c27.477-19.492,63.185-9.187,86.377,10.836c4.707,4.064,11.895,0.087,11.088-6.08c-4.889-37.354-24.541-87.81-76.694-116.266
	c-6.88-3.755-15.247-3.351-21.906,0.782c-30.758,19.092-76.926,20.693-99.71,6.632h-57.63L302.467,417.103z"/>
<path style="fill:#A4A8AB;" d="M316.323,360.145c20.394,13.273,64.218,11.761,91.75-6.26c5.96-3.902,13.45-4.282,19.609-0.739
	c35.374,20.354,50.125,52.627,57.104,82.411c-21.754-11.901-48.602-15.113-70.314,0.288c-6.056,4.296-14.264,3.506-19.363-1.892
	c-17.382-18.406-56.722-35.549-92.644-16.85l-31.012-56.96h44.87V360.145z"/>
<path style="opacity:0.1;enable-background:new    ;" d="M311.259,331.75c18.924,12.129,31.361,32.627,31.361,55.874
	c0,7.51-1.318,14.726-3.713,21.473c-11.89-0.504-24.358,1.717-36.44,8.007l-46.472-85.354L311.259,331.75L311.259,331.75z"/>
<ellipse style="fill:#4A5058;" cx="256.005" cy="388.889" rx="69.993" ry="66.187"/>
<path style="opacity:0.15;enable-background:new    ;" d="M256,322.697c-29.771,0-55.184,17.586-65.301,42.367
	c19.746,7.161,41.898,11.177,65.301,11.177s45.555-4.016,65.301-11.177C311.184,340.283,285.771,322.697,256,322.697z"/>
<path style="fill:#4A5058;" d="M113.212,70.59l27.104-38.262c8.259-11.66,25.564-11.66,33.823,0l27.104,38.262
	c32.6,46.019,28.171,108.655-10.579,149.631l0,0c-18.157,19.199-48.715,19.199-66.872,0l0,0
	C85.041,179.246,80.613,116.611,113.212,70.59z"/>
<path style="fill:#EDBCB9;" d="M136.227,101.349l14.115-23.377c3.363-5.571,10.41-5.571,13.773,0l14.114,23.377
	c15.554,25.762,13.441,60.827-5.047,83.765l0,0c-8.663,10.748-23.243,10.748-31.906,0l0,0
	C122.786,162.176,120.673,127.112,136.227,101.349z"/>
<path style="fill:#4A5058;" d="M398.786,70.59l-27.104-38.261c-8.26-11.66-25.564-11.66-33.823,0L310.756,70.59
	c-32.6,46.019-28.171,108.655,10.579,149.631l0,0c18.157,19.199,48.715,19.199,66.872,0l0,0
	C426.958,179.246,431.386,116.611,398.786,70.59z"/>
<path style="fill:#EDBCB9;" d="M375.772,101.349l-14.114-23.377c-3.363-5.571-10.41-5.571-13.773,0l-14.114,23.377
	c-15.554,25.762-13.441,60.827,5.047,83.765l0,0c8.663,10.748,23.243,10.748,31.906,0l0,0
	C389.213,162.176,391.326,127.112,375.772,101.349z"/>
<path style="fill:#4A5058;" d="M406.223,248.912c0-62.236-67.257-100.2-150.224-100.2s-150.224,37.964-150.224,100.2
	S173.032,361.6,255.999,361.6S406.223,311.148,406.223,248.912z"/>
<g>
	<path style="fill:#FFFFFF;" d="M178.382,248.811c-4.492,0-8.134-3.641-8.134-8.134v-12.113c0-4.493,3.642-8.134,8.134-8.134
		c4.492,0,8.134,3.641,8.134,8.134v12.113C186.516,245.17,182.874,248.811,178.382,248.811z"/>
	<path style="fill:#FFFFFF;" d="M333.624,248.811c-4.492,0-8.134-3.641-8.134-8.134v-12.113c0-4.493,3.642-8.134,8.134-8.134
		c4.493,0,8.134,3.641,8.134,8.134v12.113C341.758,245.17,338.117,248.811,333.624,248.811z"/>
</g>
<path style="fill:#EDBCB9;" d="M238.359,205.216L238.359,205.216c-8.856,8.835-16.788,18.549-23.676,28.992l0,0
	c-3.946,5.984-0.226,14.031,6.89,14.9l0,0c22.868,2.793,45.991,2.793,68.859,0l0,0c7.115-0.869,10.836-8.916,6.89-14.9l0,0
	c-6.885-10.44-14.816-20.152-23.67-28.985l-0.005-0.005C263.896,195.488,248.11,195.488,238.359,205.216z"/>
<path style="fill:#FFFFFF;" d="M272.499,303.695c-6.339,0-12.127-2.408-16.495-6.355c-4.369,3.949-10.156,6.355-16.495,6.355
	c-13.58,0-24.629-11.05-24.629-24.63c0-4.493,3.642-8.134,8.134-8.134s8.134,3.641,8.134,8.134c0,4.611,3.751,8.363,8.361,8.363
	s8.361-3.751,8.361-8.363c0-4.493,3.642-8.134,8.134-8.134s8.135,3.641,8.135,8.134c0,4.611,3.75,8.363,8.361,8.363
	c4.61,0,8.361-3.751,8.361-8.363c0-4.493,3.642-8.134,8.134-8.134c4.493,0,8.134,3.641,8.134,8.134
	C297.128,292.646,286.079,303.695,272.499,303.695z"/>
<path style="opacity:0.2;enable-background:new    ;" d="M245.757,218.549c-4.492,0-8.134,3.641-8.134,8.134v4.733
	c0,4.493,3.642,8.134,8.134,8.134c4.492,0,8.134-3.641,8.134-8.134v-4.733C253.89,222.189,250.249,218.549,245.757,218.549z
	 M266.243,218.549c-4.493,0-8.134,3.641-8.134,8.134v4.733c0,4.493,3.641,8.134,8.134,8.134s8.134-3.641,8.134-8.134v-4.733
	C274.376,222.189,270.736,218.549,266.243,218.549z"/>
<g>
</g>
<g>
</g>
<g>
</g>
<g>
</g>
<g>
</g>
<g>
</g>
<g>
</g>
<g>
</g>
<g>
</g>
<g>
</g>
<g>
</g>
<g>
</g>
<g>
</g>
<g>
</g>
<g>
</g>
</svg>
