<?xml version="1.0" encoding="iso-8859-1"?>
<!-- Generator: Adobe Illustrator 19.0.0, SVG Export Plug-In . SVG Version: 6.00 Build 0)  -->
<svg version="1.1" id="Layer_1" xmlns="http://www.w3.org/2000/svg" xmlns:xlink="http://www.w3.org/1999/xlink" x="0px" y="0px"
	 viewBox="0 0 511.998 511.998" style="enable-background:new 0 0 511.998 511.998;" xml:space="preserve">
<g>
	<path style="fill:#D4624E;" d="M31.39,287.249c-1.68,0-3.386-0.264-5.068-0.821c-8.461-2.797-13.051-11.924-10.254-20.384
		c15.012-45.401,64.16-70.124,109.567-55.116c8.46,2.797,13.051,11.925,10.254,20.385c-2.797,8.459-11.924,13.05-20.384,10.254
		c-28.511-9.43-59.372,6.099-68.799,34.608C44.465,282.954,38.16,287.249,31.39,287.249z"/>
	<path style="fill:#D4624E;" d="M115.608,231.343c-4.596,0.001-9.158-1.951-12.349-5.741c-19.342-22.968-53.763-25.918-76.731-6.575
		c-6.816,5.74-16.994,4.868-22.734-1.948c-5.74-6.816-4.867-16.995,1.948-22.734c36.576-30.806,91.395-26.105,122.2,10.472
		c5.739,6.816,4.867,16.994-1.948,22.734C122.967,230.098,119.276,231.343,115.608,231.343z"/>
</g>
<path style="opacity:0.08;enable-background:new    ;" d="M127.941,204.815c-12.942-15.367-30.127-25.084-48.413-28.928
	c-10.225,8.291-16.725,18.998-19.661,30.402c16.086-0.497,32.243,6.076,43.391,19.313c3.192,3.79,7.755,5.742,12.349,5.741
	c3.669,0,7.359-1.245,10.385-3.793C132.809,221.809,133.681,211.632,127.941,204.815z"/>
<path style="opacity:0.08;enable-background:new    ;" d="M125.635,210.929c-23.186-7.664-47.338-4.949-67.432,5.571
	c-0.854,11.511,1.7,23.169,7.442,33.311c13.793-10.369,32.271-14.06,49.86-8.244c8.461,2.796,17.588-1.795,20.384-10.254
	C138.686,222.854,134.095,213.726,125.635,210.929z"/>
<g>
	<path style="fill:#D4624E;" d="M480.609,287.249c1.68,0,3.386-0.264,5.068-0.821c8.461-2.797,13.051-11.924,10.254-20.384
		c-15.013-45.401-64.16-70.124-109.567-55.116c-8.46,2.797-13.051,11.925-10.254,20.385c2.797,8.459,11.924,13.05,20.384,10.254
		c28.511-9.43,59.372,6.099,68.798,34.608C467.535,282.954,473.839,287.249,480.609,287.249z"/>
	<path style="fill:#D4624E;" d="M396.39,231.343c4.596,0.001,9.158-1.951,12.349-5.741c19.342-22.968,53.763-25.918,76.731-6.575
		c6.816,5.74,16.994,4.868,22.734-1.948c5.74-6.816,4.867-16.995-1.948-22.734c-36.576-30.806-91.395-26.105-122.2,10.472
		c-5.739,6.816-4.867,16.994,1.948,22.734C389.031,230.098,392.722,231.343,396.39,231.343z"/>
</g>
<path style="fill:#BD4936;" d="M93.437,173.262L93.437,173.262c-34.571,26.831-28.229,80.793,11.619,98.879l0,0
	c95.92,43.535,205.966,43.535,301.884,0l0,0c39.848-18.085,46.189-72.048,11.619-98.879l0,0
	C322.902,99.019,189.096,99.019,93.437,173.262z"/>
<g>
	<path style="fill:#4A5058;" d="M177.114,196.868c-4.52,0-8.185-3.664-8.185-8.185v-12.189c0-4.521,3.665-8.185,8.185-8.185
		c4.52,0,8.185,3.664,8.185,8.185v12.189C185.298,193.204,181.634,196.868,177.114,196.868z"/>
	<path style="fill:#4A5058;" d="M334.886,196.868c-4.52,0-8.185-3.664-8.185-8.185v-12.189c0-4.521,3.665-8.185,8.185-8.185
		s8.185,3.664,8.185,8.185v12.189C343.071,193.204,339.406,196.868,334.886,196.868z"/>
	<path style="fill:#4A5058;" d="M269.66,211.11c-5.165,0-9.917-1.802-13.661-4.809c-3.744,3.008-8.496,4.809-13.661,4.809
		c-12.046,0-21.846-9.8-21.846-21.847c0-4.521,3.665-8.185,8.185-8.185c4.52,0,8.185,3.664,8.185,8.185
		c0,3.021,2.457,5.477,5.476,5.477c3.02,0,5.476-2.457,5.476-5.477c0-4.521,3.665-8.185,8.185-8.185s8.185,3.664,8.185,8.185
		c0,3.021,2.457,5.477,5.476,5.477s5.477-2.457,5.477-5.477c0-4.521,3.665-8.185,8.185-8.185c4.52,0,8.185,3.664,8.185,8.185
		C291.507,201.31,281.706,211.11,269.66,211.11z"/>
</g>
<path style="fill:#F8E9B4;" d="M255.999,231.934c-54.577,0-99.64,24.836-106.476,56.988c69.391,21.152,143.562,21.152,212.953,0
	C355.639,256.769,310.576,231.934,255.999,231.934z"/>
<path style="opacity:0.05;enable-background:new    ;" d="M417.973,261.111L417.973,261.111c-95.92,43.535-205.966,43.535-301.884,0
	l0,0c-35.033-15.9-44.154-59.527-22.357-88.071c-0.097,0.075-0.196,0.147-0.294,0.223l0,0
	c-34.569,26.831-28.229,80.793,11.619,98.879l0,0c95.92,43.535,205.964,43.535,301.884,0l0,0
	c9.314-4.228,16.772-10.431,22.33-17.774C425.865,256.948,422.111,259.233,417.973,261.111z"/>
<path style="fill:#D4624E;" d="M122.576,354.221c-1.113,0-2.243-0.116-3.375-0.356c-48.632-10.35-52.812-43.933-52.935-53.978
	c-0.323-26.483,19.298-51.191,45.641-57.475c8.662-2.07,17.369,3.284,19.437,11.952c2.067,8.667-3.284,17.369-11.951,19.437
	c-11.642,2.776-21,14.303-20.86,25.692c0.181,14.815,17.235,20.65,27.385,22.81c8.715,1.855,14.278,10.424,12.422,19.139
	C136.726,349.026,130.029,354.221,122.576,354.221z"/>
<path style="opacity:0.08;enable-background:new    ;" d="M125.919,322.303c-6.845-1.457-16.824-4.59-22.656-11.017
	c-5.124,13.687-4.672,26.525-0.558,37.59c4.835,1.975,10.303,3.671,16.496,4.989c1.133,0.24,2.261,0.356,3.375,0.356
	c7.454,0,14.151-5.197,15.765-12.779C140.196,332.727,134.634,324.158,125.919,322.303z"/>
<path style="fill:#BD4936;" d="M228.953,353.256c-4.516,19.374-25.668,49.121-68.299,39.185
	c-30.396-7.085-55.003-31.648-45.886-70.765C119.821,299.999,202.343,307.258,228.953,353.256z"/>
<g>
	<path style="fill:#D4624E;" d="M226.535,366.926l-7.522-4.539c-11.093-6.693-24.894-7.04-36.309-0.912l0,0
		c-18.093,9.713-40.274,7.451-56.035-5.713l0,0c-10.716-8.951-15.565-23.164-12.307-36.771c3.957-16.519,17.236-28.299,40.571-28.3
		c47.941-0.002,70.371,28.034,87.037,62.101l0,0C246.749,362.565,235.849,372.547,226.535,366.926z"/>
	<path style="fill:#D4624E;" d="M389.415,354.221c-7.454,0-14.151-5.196-15.765-12.779c-1.855-8.715,3.707-17.284,12.422-19.139
		c10.15-2.16,27.204-7.996,27.385-22.81c0.14-11.39-9.219-22.916-20.862-25.692c-8.667-2.067-14.018-10.77-11.951-19.437
		c2.068-8.669,10.775-14.021,19.437-11.952c26.343,6.284,45.965,30.991,45.641,57.476c-0.123,10.046-4.303,43.628-52.934,53.977
		C391.658,354.107,390.528,354.221,389.415,354.221z"/>
</g>
<path style="opacity:0.08;enable-background:new    ;" d="M386.08,322.303c6.845-1.457,16.824-4.59,22.656-11.017
	c5.124,13.687,4.671,26.525,0.558,37.59c-4.835,1.975-10.303,3.671-16.496,4.989c-1.133,0.24-2.261,0.356-3.375,0.356
	c-7.454,0-14.151-5.197-15.765-12.779C371.803,332.727,377.365,324.158,386.08,322.303z"/>
<path style="fill:#BD4936;" d="M283.039,353.256c4.516,19.374,25.668,49.121,68.299,39.185
	c30.396-7.085,55.003-31.648,45.886-70.765C392.17,299.999,309.648,307.258,283.039,353.256z"/>
<path style="fill:#D4624E;" d="M285.457,366.926l7.522-4.539c11.093-6.693,24.894-7.04,36.309-0.912l0,0
	c18.093,9.713,40.274,7.451,56.035-5.713l0,0c10.716-8.951,15.565-23.164,12.307-36.771c-3.957-16.519-17.236-28.299-40.571-28.3
	c-47.941-0.002-70.371,28.034-87.036,62.101l0,0C265.241,362.565,276.143,372.547,285.457,366.926z"/>
<g>
</g>
<g>
</g>
<g>
</g>
<g>
</g>
<g>
</g>
<g>
</g>
<g>
</g>
<g>
</g>
<g>
</g>
<g>
</g>
<g>
</g>
<g>
</g>
<g>
</g>
<g>
</g>
<g>
</g>
</svg>
