<?xml version="1.0" encoding="iso-8859-1"?>
<!-- Generator: Adobe Illustrator 19.0.0, SVG Export Plug-In . SVG Version: 6.00 Build 0)  -->
<svg version="1.1" id="Layer_1" xmlns="http://www.w3.org/2000/svg" xmlns:xlink="http://www.w3.org/1999/xlink" x="0px" y="0px"
	 viewBox="0 0 512 512" style="enable-background:new 0 0 512 512;" xml:space="preserve">
<rect x="277.197" y="39.411" style="fill:#F7DA70;" width="29.049" height="62.426"/>
<circle style="fill:#7D7060;" cx="291.729" cy="26.479" r="26.479"/>
<rect x="355.759" y="39.411" style="fill:#F7DA70;" width="29.049" height="62.426"/>
<circle style="fill:#7D7060;" cx="370.29" cy="26.479" r="26.479"/>
<path style="fill:#F7DA70;" d="M288.145,512h-21.891c-4.704,0-8.517-3.813-8.517-8.517v-99.843h38.925v99.843
	C296.662,508.187,292.849,512,288.145,512z"/>
<path style="fill:#7D7060;" d="M288.145,512h-21.891c-4.704,0-8.517-3.813-8.517-8.517v-16.901h38.925v16.901
	C296.662,508.187,292.849,512,288.145,512z"/>
<path style="opacity:0.1;enable-background:new    ;" d="M288.145,512h-21.891c-4.704,0-8.517-3.813-8.517-8.517v-99.843h38.925
	v99.843C296.662,508.187,292.849,512,288.145,512z"/>
<path style="fill:#F7DA70;" d="M54.284,401.11H38.03c0-19.922,15.42-53.638,73.213-53.638v16.254
	c-20.838,0-37.019,5.093-46.794,14.727C55.016,387.751,54.284,398.147,54.284,401.11z"/>
<path style="fill:#7D7060;" d="M58.638,408.188c0-8.219-5.588-14.882-12.481-14.882s-12.481,6.663-12.481,14.882
	c0,8.219,5.588,23.354,12.481,23.354S58.638,416.408,58.638,408.188z"/>
<path style="fill:#F7DA70;" d="M333.741,82.81c-67.932,0-123.002,34.595-123.002,93.013v139.43c0,11.741-9.517,21.258-21.258,21.258
	h-47.131c-35.532,0-64.337,28.804-64.337,64.337l0,0c0,15.984,8.453,29.991,21.13,37.806v64.829c0,4.704,3.813,8.517,8.517,8.517
	h21.891c4.704,0,8.517-3.813,8.517-8.517v-58.249h53.208v58.249c0,4.704,3.813,8.517,8.517,8.517h21.891
	c4.704,0,8.517-3.813,8.517-8.517v-58.249h10.352c35.59,0,64.442-28.851,64.442-64.442V266.659
	c9.015,1.403,18.414,2.14,28.078,2.173v0.005h56.329c0,0,67.343-51.823,67.343-93.013C456.744,117.405,401.673,82.81,333.741,82.81z
	"/>
<g>
	<path style="fill:#4A5058;" d="M318.203,143.626c-4.489,0-8.127-3.639-8.127-8.127v-12.103c0-4.488,3.638-8.127,8.127-8.127
		s8.127,3.639,8.127,8.127v12.103C326.33,139.988,322.692,143.626,318.203,143.626z"/>
	<path style="fill:#4A5058;" d="M404.801,143.626c-4.488,0-8.127-3.639-8.127-8.127v-12.103c0-4.488,3.639-8.127,8.127-8.127
		c4.489,0,8.127,3.639,8.127,8.127v12.103C412.928,139.988,409.289,143.626,404.801,143.626z"/>
</g>
<g>
	<path style="fill:#7D7060;" d="M129.551,512H107.66c-4.704,0-8.517-3.813-8.517-8.517v-16.901h38.925v16.901
		C138.068,508.187,134.255,512,129.551,512z"/>
	<path style="fill:#7D7060;" d="M221.684,512h-21.891c-4.704,0-8.517-3.813-8.517-8.517v-16.901h38.925v16.901
		C230.202,508.187,226.388,512,221.684,512z"/>
</g>
<g>
	<path style="fill:#6E614F;" d="M210.739,296.641c21.299,0,38.565-17.266,38.565-38.565s-17.266-38.565-38.565-38.565V296.641z"/>
	<path style="fill:#6E614F;" d="M304.994,289.486c-19.14,0-34.656,15.516-34.656,34.656c0,19.14,15.516,34.656,34.656,34.656
		V289.486z"/>
	<circle style="fill:#6E614F;" cx="234.926" cy="369.509" r="19.234"/>
	<circle style="fill:#6E614F;" cx="180.28" cy="401.107" r="19.234"/>
	<path style="fill:#6E614F;" d="M91.243,387.165c-4.314,0-8.43,0.831-12.212,2.329c-0.657,3.688-1.02,7.478-1.02,11.354l0,0
		c0,15.984,8.453,29.991,21.13,37.806v13.96c14.521-3.546,25.302-16.634,25.302-32.248
		C124.445,402.03,109.58,387.165,91.243,387.165z"/>
	<path style="fill:#6E614F;" d="M173.051,336.511h-30.702c-14.271,0-27.451,4.654-38.121,12.517
		c4.116,14.827,17.703,25.714,33.841,25.714c19.4,0,35.127-15.726,35.127-35.127C173.195,338.569,173.14,337.535,173.051,336.511z"
		/>
</g>
<path style="opacity:0.1;enable-background:new    ;" d="M250.894,159.141c-2.609-10.189-11.821-17.332-22.339-17.324
	c-3.494,0.003-7.335,0.354-11.28,1.282c-4.236,9.853-6.536,20.79-6.536,32.723v41.923c11.552-3.589,24.339-9.88,32.92-20.946
	C253.951,183.528,253.524,169.412,250.894,159.141z"/>
<path style="fill:#F4B759;" d="M193.882,142.516c10.292-13.272,24.07-16.372,34.672-16.381c10.519-0.009,19.729,7.134,22.339,17.324
	c2.631,10.27,3.057,24.387-7.235,37.659c-12.204,15.736-32.927,21.843-46.482,24.206c-7.531,1.312-14.563-4.14-15.166-11.761
	C180.924,179.843,181.68,158.252,193.882,142.516z"/>
<g>
	<g>
		<path id="SVGCleanerId_0" style="fill:#F7D140;" d="M478.324,210.618c0,32.153-39.813,58.218-88.923,58.218
			c-49.111,0-88.923-26.065-88.923-58.218s34.378-58.218,88.923-58.218S478.324,178.465,478.324,210.618z"/>
	</g>
	<g>
		<path id="SVGCleanerId_0_1_" style="fill:#F7D140;" d="M478.324,210.618c0,32.153-39.813,58.218-88.923,58.218
			c-49.111,0-88.923-26.065-88.923-58.218s34.378-58.218,88.923-58.218S478.324,178.465,478.324,210.618z"/>
	</g>
</g>
<g>
	<path id="SVGCleanerId_0_2_" style="fill:#F4B759;" d="M478.324,210.618c0,32.153-39.813,58.218-88.923,58.218
		c-49.111,0-88.923-26.065-88.923-58.218s34.378-58.218,88.923-58.218S478.324,178.465,478.324,210.618z"/>
</g>
<path style="fill:#4A5058;" d="M425.886,236.311c-5.033,0-9.667-1.741-13.331-4.654c-3.664,2.913-8.297,4.654-13.332,4.654
	c-11.832,0-21.459-9.626-21.459-21.459c0-4.488,3.638-8.127,8.127-8.127s8.127,3.639,8.127,8.127c0,2.869,2.334,5.205,5.205,5.205
	c2.869,0,5.205-2.334,5.205-5.205c0-4.488,3.638-8.127,8.127-8.127c4.488,0,8.127,3.639,8.127,8.127
	c0,2.869,2.334,5.205,5.203,5.205c2.869,0,5.205-2.334,5.205-5.205c0-4.488,3.638-8.127,8.127-8.127
	c4.488,0,8.127,3.639,8.127,8.127C447.344,226.686,437.718,236.311,425.886,236.311z"/>
<g>
</g>
<g>
</g>
<g>
</g>
<g>
</g>
<g>
</g>
<g>
</g>
<g>
</g>
<g>
</g>
<g>
</g>
<g>
</g>
<g>
</g>
<g>
</g>
<g>
</g>
<g>
</g>
<g>
</g>
</svg>
