<?xml version="1.0" encoding="iso-8859-1"?>
<!-- Generator: Adobe Illustrator 19.0.0, SVG Export Plug-In . SVG Version: 6.00 Build 0)  -->
<svg version="1.1" id="Layer_1" xmlns="http://www.w3.org/2000/svg" xmlns:xlink="http://www.w3.org/1999/xlink" x="0px" y="0px"
	 viewBox="0 0 512.001 512.001" style="enable-background:new 0 0 512.001 512.001;" xml:space="preserve">
<path style="fill:#ADD9E8;" d="M105.533,280.926c-13.764-55.418-46.439-79.12-87.167-87.118
	c-12.905-2.534-22.836,11.355-16.297,22.767c7.444,12.99,13.969,29.44,16.396,46.636c1.321,9.365,6.862,17.215,14.544,21.668
	c-7.682,4.454-13.223,12.304-14.544,21.67c-2.426,17.196-8.952,33.646-16.396,46.636c-6.538,11.411,3.392,25.3,16.297,22.767
	c40.728-7.997,73.402-31.699,87.167-87.118V280.926z"/>
<g>
	<path style="fill:#B0E2E8;" d="M105.533,280.926c-13.764-55.418-46.439-79.12-87.167-87.118
		c-12.905-2.534-22.836,11.355-16.297,22.767c7.444,12.99,13.969,29.44,16.396,46.636c1.321,9.365,6.862,17.215,14.544,21.668
		c-7.682,4.454-13.223,12.304-14.544,21.67c-2.426,17.196-8.952,33.646-16.396,46.636c-6.538,11.411,3.392,25.3,16.297,22.767
		c40.728-7.997,73.402-31.699,87.167-87.118V280.926z"/>
	<path style="fill:#B0E2E8;" d="M266.161,101.885c36.677,18.177,72.744,52.894,75.035,96.44
		c-22.893,1.793-105.634,8.126-125.734,20.528c6.586-15.691,14.707-55.543,11.714-90.224
		C225.354,107.521,247.177,92.476,266.161,101.885z"/>
</g>
<path style="opacity:0.05;enable-background:new    ;" d="M242.56,101.69c-9.607,4.608-16.435,14.758-15.384,26.939
	c2.994,34.681-5.128,74.533-11.714,90.224c4.002-2.47,10.494-4.697,18.496-6.698c5.097-20.433,10.552-62.753,5.709-93.243
	C238.664,112.584,239.866,106.661,242.56,101.69z"/>
<path style="fill:#B0E2E8;" d="M508.932,291.436c23.78-65.517-94.872-103.422-209.043-103.422S76.293,226.101,76.293,291.436
	S185.719,408.96,299.889,408.96S485.303,356.54,508.932,291.436z"/>
<path style="fill:#4A5058;" d="M434.283,266.349c-4.512,0-8.17-3.658-8.17-8.17c0-3.614-2.941-6.556-6.556-6.556
	s-6.556,2.941-6.556,6.556c0,4.512-3.658,8.17-8.17,8.17c-4.512,0-8.17-3.658-8.17-8.17c0-12.625,10.272-22.896,22.896-22.896
	c12.625,0,22.896,10.272,22.896,22.896C442.454,262.691,438.796,266.349,434.283,266.349z"/>
<g>
	<g>
		<path id="SVGCleanerId_0" style="fill:#ADD9E8;" d="M473.254,289.979c-90.69,0.479-196.342,51.483-396.689,6.978
			c5.945,62.73,112.388,112.003,223.323,112.003c114.171,0,185.414-52.42,209.043-117.524c0.218-0.601,0.4-1.195,0.594-1.792
			C498.764,289.696,486.769,289.907,473.254,289.979z"/>
	</g>
	<g>
		<path id="SVGCleanerId_0_1_" style="fill:#ADD9E8;" d="M473.254,289.979c-90.69,0.479-196.342,51.483-396.689,6.978
			c5.945,62.73,112.388,112.003,223.323,112.003c114.171,0,185.414-52.42,209.043-117.524c0.218-0.601,0.4-1.195,0.594-1.792
			C498.764,289.696,486.769,289.907,473.254,289.979z"/>
	</g>
</g>
<g>
	<path id="SVGCleanerId_0_2_" style="fill:#E8E8E8;" d="M473.254,289.979c-90.69,0.479-196.342,51.483-396.689,6.978
		c5.945,62.73,112.388,112.003,223.323,112.003c114.171,0,185.414-52.42,209.043-117.524c0.218-0.601,0.4-1.195,0.594-1.792
		C498.764,289.696,486.769,289.907,473.254,289.979z"/>
</g>
<path style="opacity:0.15;enable-background:new    ;" d="M219.894,309.472c0,0-51.362,11.89-82.634,39.83
	c-4.633,4.14-9.075,8.504-13.264,12.992c21.844,14.59,49.827,26.493,81.023,34.628c17.118-17.464,32.08-40.8,41.581-71.505
	C250.935,311.41,234.535,308.671,219.894,309.472z"/>
<path style="fill:#ADD9E8;" d="M168.148,300.101h62.126c13.023,0,21.682,13.446,16.326,25.317
	c-21.546,47.753-86.419,87.561-121.437,87.561c-36.352,0-21.76-62.23,12.924-99.718C145.841,304.88,156.732,300.101,168.148,300.101
	z"/>
<path style="fill:#B0E2E8;" d="M168.148,300.101h62.126c13.023,0,21.682,13.446,16.326,25.317
	c-21.546,47.753-86.419,87.561-121.437,87.561c-36.352,0-21.76-62.23,12.924-99.718C145.841,304.88,156.732,300.101,168.148,300.101
	z"/>
<g style="opacity:0.1;">
	<path d="M347.96,281.709c-3.004,0-5.896-1.662-7.323-4.536c-8.14-16.379-6.49-41.373-0.194-56.076
		c1.777-4.148,6.581-6.069,10.727-4.294c4.148,1.777,6.07,6.58,4.294,10.727c-4.751,11.092-5.962,30.765-0.194,42.371
		c2.008,4.042,0.361,8.944-3.681,10.952C350.422,281.435,349.181,281.709,347.96,281.709z"/>
	<path d="M319.062,287.121c-3.004,0-5.896-1.663-7.323-4.536c-8.14-16.379-6.49-41.374-0.194-56.076
		c1.777-4.148,6.582-6.07,10.727-4.294c4.148,1.777,6.07,6.58,4.294,10.727c-4.751,11.092-5.962,30.765-0.194,42.371
		c2.008,4.04,0.361,8.945-3.68,10.952C321.523,286.847,320.283,287.121,319.062,287.121z"/>
	<path d="M290.162,292.534c-3.004,0-5.896-1.663-7.323-4.536c-8.14-16.379-6.49-41.373-0.194-56.076
		c1.777-4.148,6.581-6.069,10.727-4.294c4.148,1.777,6.07,6.58,4.294,10.727c-4.751,11.092-5.962,30.765-0.194,42.371
		c2.008,4.04,0.361,8.945-3.68,10.952C292.624,292.259,291.383,292.534,290.162,292.534z"/>
</g>
<g>
</g>
<g>
</g>
<g>
</g>
<g>
</g>
<g>
</g>
<g>
</g>
<g>
</g>
<g>
</g>
<g>
</g>
<g>
</g>
<g>
</g>
<g>
</g>
<g>
</g>
<g>
</g>
<g>
</g>
</svg>
