<?xml version="1.0" encoding="iso-8859-1"?>
<!-- Generator: Adobe Illustrator 19.0.0, SVG Export Plug-In . SVG Version: 6.00 Build 0)  -->
<svg version="1.1" id="Layer_1" xmlns="http://www.w3.org/2000/svg" xmlns:xlink="http://www.w3.org/1999/xlink" x="0px" y="0px"
	 viewBox="0 0 512 512" style="enable-background:new 0 0 512 512;" xml:space="preserve">
<path style="fill:#A4A8AB;" d="M369.853,376.232c0-62.879-50.974-113.853-113.853-113.853s-113.853,50.974-113.853,113.853
	s38.8,106.195,113.853,106.195S369.853,439.111,369.853,376.232z"/>
<ellipse style="fill:#F8E9B4;" cx="255.998" cy="350.707" rx="71.635" ry="74.37"/>
<path style="opacity:0.1;enable-background:new    ;" d="M347.395,308.332c-24.268,3.088-42.124,24.692-40.273,49.37l3.768,50.254
	c1.501,20.017,10.414,37.7,23.841,50.583c23.267-18.791,35.122-47.559,35.122-82.306
	C369.853,350.785,361.503,327.289,347.395,308.332z"/>
<path style="opacity:0.1;enable-background:new    ;" d="M164.606,308.332c24.268,3.088,42.124,24.692,40.273,49.37l-3.768,50.254
	c-1.501,20.017-10.414,37.7-23.841,50.583c-23.267-18.791-35.122-47.559-35.122-82.306
	C142.149,350.785,150.499,327.289,164.606,308.332z"/>
<g style="opacity:0.1;">
	<path d="M256.001,389.494c-4.497,0-8.14-3.644-8.14-8.14v-14.957c0-4.497,3.644-8.14,8.14-8.14s8.14,3.644,8.14,8.14v14.957
		C264.141,385.851,260.497,389.494,256.001,389.494z"/>
	<path d="M229.416,397.939c-4.497,0-8.14-3.644-8.14-8.14v-14.955c0-4.496,3.644-8.14,8.14-8.14c4.497,0,8.14,3.645,8.14,8.14
		v14.955C237.557,394.294,233.913,397.939,229.416,397.939z"/>
	<path d="M282.586,397.939c-4.497,0-8.14-3.644-8.14-8.14v-14.955c0-4.496,3.644-8.14,8.14-8.14c4.496,0,8.14,3.645,8.14,8.14
		v14.955C290.726,394.294,287.081,397.939,282.586,397.939z"/>
</g>
<path style="opacity:0.1;enable-background:new    ;" d="M256.001,262.379c-47.868,0-88.831,29.544-105.663,71.391
	c30.411,13.531,66.693,20.421,105.663,20.421s75.253-6.889,105.664-20.421C344.832,291.924,303.869,262.379,256.001,262.379z"/>
<g>
	<path style="fill:#4A5058;" d="M106.216,463.398L106.216,463.398c-7.779-1.435-12.921-8.903-11.487-16.682l20.735-112.421
		c4.637-25.137,28.773-41.757,53.911-37.121l0,0c25.137,4.637,41.757,28.773,37.121,53.911l-9.141,49.559
		C189.517,443.139,148.713,471.235,106.216,463.398z"/>
	<path style="fill:#4A5058;" d="M405.786,463.398L405.786,463.398c7.779-1.435,12.921-8.903,11.487-16.682l-20.735-112.421
		c-4.637-25.137-28.773-41.757-53.911-37.121l0,0c-25.137,4.637-41.757,28.773-37.121,53.911l9.141,49.559
		C322.485,443.139,363.289,471.235,405.786,463.398z"/>
</g>
<path style="opacity:0.15;enable-background:new    ;" d="M342.627,297.173L342.627,297.173
	c-24.858,4.585-41.372,28.24-37.253,53.074c32.307-5.367,61.333-16.187,84.762-32.303
	C380.322,302.446,361.77,293.643,342.627,297.173z"/>
<path style="opacity:0.15;enable-background:new    ;" d="M169.375,297.173L169.375,297.173
	c-19.143-3.531-37.696,5.274-47.508,20.771c23.429,16.115,52.453,26.936,84.762,32.303
	C210.748,325.414,194.234,301.758,169.375,297.173z"/>
<path style="fill:#A4A8AB;" d="M450.189,179.803c0-99.397-86.941-145.608-194.187-145.608S61.813,80.406,61.813,179.803
	s86.941,151.521,194.187,151.521S450.189,279.199,450.189,179.803z"/>
<g>
	<path style="fill:#4A5058;" d="M182.195,211.77c-4.497,0-8.14-3.644-8.14-8.14c0-1.772-1.441-3.214-3.214-3.214
		s-3.214,1.441-3.214,3.214c0,4.497-3.644,8.14-8.14,8.14c-4.497,0-8.14-3.644-8.14-8.14c0-10.748,8.746-19.494,19.494-19.494
		c10.749,0,19.494,8.746,19.494,19.494C190.335,208.127,186.692,211.77,182.195,211.77z"/>
	<path style="fill:#4A5058;" d="M352.515,211.77c-4.497,0-8.14-3.644-8.14-8.14c0-1.772-1.441-3.214-3.214-3.214
		c-1.772,0-3.214,1.441-3.214,3.214c0,4.497-3.644,8.14-8.14,8.14c-4.497,0-8.14-3.644-8.14-8.14
		c0-10.748,8.746-19.494,19.494-19.494c10.749,0,19.494,8.746,19.494,19.494C360.655,208.127,357.011,211.77,352.515,211.77z"/>
</g>
<path style="opacity:0.1;enable-background:new    ;" d="M330.146,42.617h-10.879c-34.941,0-63.267,28.325-63.267,63.266
	c0-34.94-28.325-63.266-63.266-63.266h-10.879C117.53,58.507,70.614,97.17,62.931,160.893c4.112,0.767,8.347,1.187,12.68,1.187
	h87.845c16.826,0,33.342,4.523,47.821,13.093l27.818,16.466c10.425,6.171,23.383,6.171,33.808,0l27.817-16.466
	c14.479-8.571,30.996-13.093,47.823-13.093h87.845c4.335,0,8.569-0.42,12.68-1.187C441.389,97.17,394.472,58.507,330.146,42.617z"/>
<path style="fill:#F8E9B4;" d="M483.566,2.011L483.566,2.011c-29.661,17.558-63.496,26.822-97.964,26.822h-66.335
	c-34.94,0-63.267,28.325-63.267,63.266c0-34.94-28.325-63.266-63.266-63.266H126.4c-34.468,0-68.303-9.264-97.964-26.822l0,0
	c-9.508-5.629-21.53,1.225-21.53,12.275v65.305c0,37.945,30.761,68.706,68.706,68.706h87.845c16.826,0,33.342,4.522,47.821,13.093
	l27.818,16.467c10.424,6.17,23.383,6.17,33.807,0l27.817-16.466c14.479-8.571,30.996-13.093,47.823-13.093h87.845
	c37.945,0,68.706-30.761,68.706-68.706V14.286C505.095,3.237,493.074-3.618,483.566,2.011z"/>
<path style="opacity:0.1;enable-background:new    ;" d="M24.527,76.405V5.655c0-1.783,0.294-3.462,0.821-5.014
	C16.517-2.111,6.906,4.406,6.906,14.286v65.305c0,37.945,30.761,68.706,68.706,68.706h4.05
	C47.913,139.795,24.527,110.837,24.527,76.405z"/>
<path style="opacity:0.1;enable-background:new    ;" d="M240.552,186.867l-12.203,7.948c-7.07,4.605-9.104,15.848-4.283,23.672
	l20.246,32.861c5.307,8.614,15.88,8.614,21.187,0l20.246-32.861c4.821-7.824,2.787-19.067-4.283-23.672l-12.203-7.948
	C260.287,181.024,249.525,181.024,240.552,186.867z"/>
<g>
	<path style="fill:#F4B759;" d="M240.269,182.713l-13.375,7.122c-7.749,4.126-9.979,14.199-4.694,21.21l22.191,29.443
		c5.817,7.718,17.405,7.718,23.222,0l22.191-29.443c5.284-7.01,3.054-17.084-4.694-21.21l-13.375-7.122
		C261.898,177.476,250.104,177.476,240.269,182.713z"/>
	<path style="fill:#F4B759;" d="M219.231,512c-9.623,0-17.424-7.801-17.424-17.424v-29.611c0-9.623,7.801-17.424,17.424-17.424
		s17.424,7.801,17.424,17.424v29.611C236.655,504.198,228.853,512,219.231,512z"/>
	<path style="fill:#F4B759;" d="M292.771,512c-9.623,0-17.424-7.801-17.424-17.424v-29.611c0-9.623,7.801-17.424,17.424-17.424
		s17.424,7.801,17.424,17.424v29.611C310.195,504.198,302.394,512,292.771,512z"/>
</g>
<g>
</g>
<g>
</g>
<g>
</g>
<g>
</g>
<g>
</g>
<g>
</g>
<g>
</g>
<g>
</g>
<g>
</g>
<g>
</g>
<g>
</g>
<g>
</g>
<g>
</g>
<g>
</g>
<g>
</g>
</svg>
