<?xml version="1.0" encoding="iso-8859-1"?>
<!-- Generator: Adobe Illustrator 19.0.0, SVG Export Plug-In . SVG Version: 6.00 Build 0)  -->
<svg version="1.1" id="Layer_1" xmlns="http://www.w3.org/2000/svg" xmlns:xlink="http://www.w3.org/1999/xlink" x="0px" y="0px"
	 viewBox="0 0 512.003 512.003" style="enable-background:new 0 0 512.003 512.003;" xml:space="preserve">
<path style="fill:#7D7060;" d="M22.021,340.281H5.523c0-34.595,28.145-62.739,62.739-62.739v16.498
	C42.765,294.039,22.021,314.783,22.021,340.281z"/>
<path style="opacity:0.15;enable-background:new    ;" d="M41.093,283.735c-1.275,6.849-2,13.809-2.155,20.82
	c7.986-6.567,18.203-10.516,29.324-10.516v-16.498C58.536,277.541,49.318,279.766,41.093,283.735z"/>
<path style="fill:#6E614F;" d="M27.545,349.241c0-7.607-6.166-13.772-13.772-13.772S0,341.636,0,349.241
	c0,7.607,6.166,24.349,13.772,24.349S27.545,356.848,27.545,349.241z"/>
<path style="fill:#7D7060;" d="M250.703,369.597l1.763,6.521c1.402,5.188,3.549,10.146,6.373,14.719l0,0
	c4.548,7.366,6.957,15.852,6.957,24.509v61.004c0,4.854,3.934,8.788,8.788,8.788h27.998v-69.79c0-8.657,2.409-17.144,6.957-24.509
	l0,0c2.823-4.573,4.97-9.531,6.373-14.719l1.763-6.521c5.96-22.048-10.646-43.739-33.485-43.739l0,0
	C261.348,325.858,244.742,347.55,250.703,369.597z"/>
<path style="opacity:0.08;enable-background:new    ;" d="M284.187,325.858c-22.84,0-39.445,21.69-33.485,43.739l1.763,6.521
	c1.402,5.188,3.549,10.146,6.373,14.719l0,0c1.772,2.87,3.208,5.913,4.315,9.066c18.517-3.262,35.859-9.935,51.349-19.352
	c0.528-1.457,1.003-2.934,1.408-4.435l1.763-6.521C323.633,347.55,307.027,325.858,284.187,325.858z"/>
<path style="fill:#4A5058;" d="M302.58,458.991h-6.02c-4.982,0-9.021,4.039-9.021,9.021v7.674c0,5.22,4.232,9.452,9.452,9.452h20.29
	c5.578,0,9.438-5.575,7.474-10.796l0,0C321.282,465.106,312.448,458.991,302.58,458.991z"/>
<path style="fill:#7D7060;" d="M478.519,113.774h-31.851V99.653c0-40.2-32.589-72.789-72.789-72.789h-32.125
	c-40.2,0-72.789,32.589-72.789,72.789v137.462c0,0.159-0.001,0.319-0.003,0.477c-0.311,21.226-28.479,28.535-39.287,10.263
	l-17.23-29.131c-11.571-19.562-39.879-19.562-51.449,0l-9.557,16.158c-2.211,3.738-7.62,3.738-9.831,0l-9.557-16.158
	c-11.571-19.562-39.878-19.563-51.449,0l-11.715,19.805c-11.799,19.948-18.024,42.699-18.024,65.875v56.026l0.015,0.009
	c-0.003,3.008,0.374,6.079,1.207,9.159l1.763,6.521c1.402,5.188,3.549,10.146,6.373,14.719l0,0
	c4.548,7.366,6.957,15.852,6.957,24.509v61.004c0,4.854,3.934,8.788,8.788,8.788h27.998v-69.79c0-8.657,2.409-17.144,6.957-24.509
	c1.695-2.745,3.14-5.631,4.332-8.62h57.683c1.192,2.989,2.639,5.874,4.333,8.62l0,0c4.548,7.366,6.957,15.852,6.957,24.509v61.003
	c0,4.854,3.934,8.788,8.788,8.788h27.998v-69.79c0-8.657,2.409-17.144,6.957-24.509c1.695-2.745,3.14-5.631,4.333-8.62h4.78
	c82.433,0,149.259-66.825,149.259-149.259V216.78h56.139c38.396,0,69.523-31.127,69.523-69.523l0,0
	C512,128.764,497.01,113.774,478.519,113.774z"/>
<g>
	<path style="fill:#4A5058;" d="M367.936,107.132c-4.556,0-8.249-3.693-8.249-8.249V86.599c0-4.556,3.693-8.249,8.249-8.249
		c4.557,0,8.249,3.693,8.249,8.249v12.284C376.185,103.439,372.493,107.132,367.936,107.132z"/>
	<path style="fill:#4A5058;" d="M422.839,107.132c-4.557,0-8.249-3.693-8.249-8.249V86.599c0-4.556,3.692-8.249,8.249-8.249
		s8.249,3.693,8.249,8.249v12.284C431.088,103.439,427.396,107.132,422.839,107.132z"/>
</g>
<path style="opacity:0.15;enable-background:new    ;" d="M471.455,191.835c-5.11,0-9.813-1.767-13.532-4.724
	c-3.719,2.956-8.422,4.724-13.532,4.724c-12.009,0-21.781-9.77-21.781-21.779c0-4.556,3.692-8.249,8.249-8.249
	s8.249,3.693,8.249,8.249c0,2.912,2.369,5.282,5.283,5.282s5.283-2.369,5.283-5.282c0-4.556,3.693-8.249,8.249-8.249
	c4.557,0,8.249,3.693,8.249,8.249c0,2.912,2.369,5.282,5.283,5.282c2.912,0,5.283-2.369,5.283-5.282
	c0-4.556,3.692-8.249,8.249-8.249c4.557,0,8.249,3.693,8.249,8.249C493.234,182.064,483.464,191.835,471.455,191.835z"/>
<g>
	<path style="fill:#4A5058;" d="M103.962,458.991h-6.02c-4.982,0-9.021,4.039-9.021,9.021v7.674c0,5.22,4.232,9.452,9.452,9.452
		h20.29c5.578,0,9.438-5.575,7.474-10.796l0,0C122.664,465.106,113.83,458.991,103.962,458.991z"/>
	<path style="fill:#4A5058;" d="M221.009,458.991h-6.02c-4.982,0-9.021,4.039-9.021,9.021v7.674c0,5.22,4.232,9.452,9.452,9.452
		h20.29c5.578,0,9.438-5.575,7.474-10.796l0,0C239.711,465.106,230.877,458.991,221.009,458.991z"/>
</g>
<path style="opacity:0.15;enable-background:new    ;" d="M294.405,83.811c-2.413-3.769-7.764-4.228-10.928-1.064l-14.449,14.449
	c-0.027,0.818-0.063,1.633-0.063,2.458v62.325c3.218-1.023,6.422-2.851,9.464-5.654c0.757-0.698,1.505-1.416,2.241-2.152
	C301.707,133.135,306.965,103.43,294.405,83.811z"/>
<path style="fill:#7D7060;" d="M245.21,103.295c-22.178,22.178,10.157,56.567,33.219,35.311c0.758-0.698,1.505-1.416,2.241-2.152
	c21.035-21.035,26.294-50.741,13.734-70.36c-2.413-3.769-7.764-4.228-10.928-1.064L245.21,103.295z"/>
<g style="opacity:0.15;">
	<path d="M439.31,153.527c-4.557,0-8.249-3.693-8.249-8.249v-5.129c0-4.556,3.692-8.249,8.249-8.249
		c4.557,0,8.249,3.693,8.249,8.249v5.129C447.559,149.833,443.867,153.527,439.31,153.527z"/>
	<path d="M476.536,153.527c-4.557,0-8.249-3.693-8.249-8.249v-5.129c0-4.556,3.692-8.249,8.249-8.249s8.249,3.693,8.249,8.249v5.129
		C484.785,149.833,481.092,153.527,476.536,153.527z"/>
</g>
<path style="opacity:0.15;enable-background:new    ;" d="M325.657,216.777h60.679v16.181h-44.498
	C332.902,232.96,325.657,225.715,325.657,216.777L325.657,216.777z"/>
<g>
</g>
<g>
</g>
<g>
</g>
<g>
</g>
<g>
</g>
<g>
</g>
<g>
</g>
<g>
</g>
<g>
</g>
<g>
</g>
<g>
</g>
<g>
</g>
<g>
</g>
<g>
</g>
<g>
</g>
</svg>
