<?xml version="1.0" encoding="iso-8859-1"?>
<!-- Generator: Adobe Illustrator 19.0.0, SVG Export Plug-In . SVG Version: 6.00 Build 0)  -->
<svg version="1.1" id="Layer_1" xmlns="http://www.w3.org/2000/svg" xmlns:xlink="http://www.w3.org/1999/xlink" x="0px" y="0px"
	 viewBox="0 0 511.999 511.999" style="enable-background:new 0 0 511.999 511.999;" xml:space="preserve">
<g>
	<path style="fill:#BDD186;" d="M380.616,402.968h-12.818L365.575,381c-0.425-4.186-2.39-8.065-5.514-10.883l-53.147-47.903
		c-6.953-6.266-17.669-5.71-23.935,1.242c-6.265,6.952-5.71,17.669,1.243,23.935l48.291,43.525c0,0,3.107,30.705,3.107,30.707
		c0.848,1.722,0.796,3.998,1.712,5.828c1.128,2.25,2.748,4.258,4.732,5.811c6.312,4.943,15.137,3.6,22.669,3.6
		c5.295,0,10.589,0,15.884,0c9.359,0,16.947-7.588,16.947-16.947C397.563,410.555,389.975,402.968,380.616,402.968z"/>
	<path style="fill:#BDD186;" d="M185.484,245.059c-8.435,0.179-15.552,5.492-18.444,12.889c-3.35-2.262-7.398-3.56-11.747-3.467
		c-8.52,0.181-15.686,5.601-18.521,13.112c-2.173-0.737-4.498-1.136-6.926-1.085c-9.281,0.198-16.953,6.611-19.17,15.176
		c-2.93-1.535-6.275-2.378-9.816-2.303c-8.905,0.189-16.328,6.104-18.876,14.148c-2.064-0.654-4.261-1.003-6.546-0.955
		c-11.188,0.238-20.066,9.5-19.828,20.689c0.003,0.159,0.027,0.312,0.034,0.47c-1.398-0.273-2.842-0.41-4.324-0.38
		c-11.188,0.238-20.066,9.5-19.828,20.688c0.238,11.188,9.5,20.066,20.688,19.828s20.066-9.5,19.828-20.688
		c-0.003-0.159-0.027-0.312-0.034-0.47c1.398,0.273,2.842,0.41,4.324,0.38c8.905-0.189,16.328-6.104,18.876-14.148
		c2.064,0.654,4.262,1.003,6.546,0.955c9.281-0.198,16.953-6.611,19.17-15.176c2.93,1.535,6.276,2.378,9.816,2.303
		c8.519-0.181,15.686-5.601,18.521-13.112c2.173,0.737,4.498,1.136,6.926,1.085c8.436-0.179,15.552-5.49,18.444-12.887
		c3.35,2.262,7.398,3.56,11.747,3.467c11.188-0.238,20.066-9.5,19.828-20.689C205.935,253.699,196.672,244.821,185.484,245.059z"/>
</g>
<path style="fill:#97B05F;" d="M337.927,251.467c-111.577-13.998-202.511,27.922-260.874,63.966C23.116,348.743,0,391.158,0,445.275
	l0,0c0,33.545,27.194,60.739,60.74,60.739s60.74-27.194,60.74-60.739c0-29.545-21.1-54.154-49.051-59.604
	c11.68-13.368,28.354-22.215,49.051-22.215h172.774c39.746,0,71.966-32.22,71.966-71.966v-36.473L337.927,251.467z"/>
<path style="opacity:0.1;enable-background:new    ;" d="M337.927,251.467c-44.478-5.58-85.671-2.269-122.833,6.008
	c10.679,47.196,61.544,82.958,122.689,82.958c3.192,0,6.355-0.098,9.487-0.29c11.762-12.811,18.949-29.891,18.949-48.653v-36.473
	L337.927,251.467z"/>
<path style="fill:#BDD186;" d="M354.271,327.993c107.444,0,161.022-95.491,126.603-159.213l0,0
	c-11.244-21.262-27.406-38.905-46.654-51.85c-8.027-5.398-14.634-12.651-18.962-21.3l-37.626-75.21
	c-4.426-8.847-13.47-14.435-23.363-14.435l0,0l0,0c-9.893,0-18.937,5.588-23.363,14.435l-37.625,75.209
	c-4.328,8.651-10.935,15.903-18.961,21.3c-19.248,12.945-35.41,30.588-46.654,51.85l0,0
	C193.248,232.502,246.827,327.993,354.271,327.993z"/>
<path style="fill:#EDBCB9;" d="M367.932,223.35c-7.545,0-13.661-6.117-13.661-13.661c0,7.545-6.117,13.661-13.661,13.661
	c-4.052,0-7.681-1.775-10.182-4.576v20.497c0,13.169,10.675,23.844,23.844,23.844s23.844-10.675,23.844-23.844v-20.497
	C375.613,221.576,371.984,223.35,367.932,223.35z"/>
<path style="fill:#D46D59;" d="M354.271,246.948c-7.71,0-14.62,2.435-19.325,6.284c4.331,5.986,11.371,9.884,19.325,9.884
	c7.954,0,14.993-3.898,19.325-9.884C368.891,249.383,361.981,246.948,354.271,246.948z"/>
<path style="fill:#4A5058;" d="M367.932,231.535c-5.164,0-9.918-1.802-13.661-4.811c-3.744,3.008-8.496,4.811-13.661,4.811
	c-12.046,0-21.847-9.8-21.847-21.847c0-4.52,3.664-8.185,8.185-8.185s8.185,3.665,8.185,8.185c0,3.02,2.457,5.477,5.477,5.477
	c3.02,0,5.476-2.457,5.476-5.477c0-4.52,3.664-8.185,8.185-8.185s8.185,3.665,8.185,8.185c0,3.02,2.457,5.477,5.476,5.477
	c3.021,0,5.477-2.457,5.477-5.477c0-4.52,3.664-8.185,8.185-8.185s8.185,3.665,8.185,8.185
	C389.778,221.734,379.978,231.535,367.932,231.535z"/>
<g style="opacity:0.1;">
	<circle cx="385.237" cy="102.18" r="8.093"/>
	<circle cx="359.046" cy="128.197" r="8.093"/>
	<circle cx="342.861" cy="94.082" r="8.093"/>
</g>
<path style="fill:#97B05F;" d="M405.982,155.121L405.982,155.121c8.375,27.518,29.91,49.053,57.428,57.428l0,0
	c9.091,2.767,18.87-1.277,23.352-9.655l20.585-38.477c8.175-15.281,5.386-34.11-6.869-46.365l0,0
	c-12.253-12.254-31.084-15.044-46.365-6.869l-38.477,20.585C407.259,136.252,403.216,146.03,405.982,155.121z"/>
<path style="fill:#4A5058;" d="M483.076,151.581c-4.521,0-8.185-3.665-8.185-8.185v-12.189c0-4.52,3.664-8.185,8.185-8.185
	s8.185,3.665,8.185,8.185v12.189C491.26,147.916,487.596,151.581,483.076,151.581z"/>
<path style="fill:#97B05F;" d="M302.559,155.121L302.559,155.121c-8.375,27.518-29.91,49.053-57.428,57.428l0,0
	c-9.091,2.767-18.87-1.277-23.352-9.655l-20.585-38.477c-8.175-15.281-5.386-34.11,6.869-46.365l0,0
	c12.253-12.254,31.084-15.044,46.365-6.869l38.477,20.585C301.282,136.252,305.325,146.03,302.559,155.121z"/>
<path style="fill:#4A5058;" d="M225.466,151.581c-4.521,0-8.185-3.665-8.185-8.185v-12.189c0-4.52,3.664-8.185,8.185-8.185
	c4.521,0,8.185,3.665,8.185,8.185v12.189C233.651,147.916,229.987,151.581,225.466,151.581z"/>
<path style="opacity:0.15;enable-background:new    ;" d="M68.921,467.916c-15.711,0-28.493-12.782-28.493-28.493
	c0-20.768,16.895-37.663,37.664-37.663c15.038,0,28.513,6.8,37.532,17.479c-8.135-17.11-24.034-29.813-43.147-33.556
	c-27.165,2.818-48.419,25.843-48.419,53.741c0,24.738,20.125,44.863,44.863,44.863c20.693,0,37.527-16.835,37.527-37.527
	c0-17.457-14.202-31.659-31.659-31.659c-14.868,0-26.964,12.096-26.964,26.964c0,4.52,3.664,8.185,8.185,8.185
	s8.185-3.665,8.185-8.185c0-5.842,4.754-10.595,10.595-10.595c8.43,0,15.289,6.859,15.289,15.289
	C90.079,458.425,80.588,467.916,68.921,467.916z"/>
<g>
	<path style="fill:#BDD186;" d="M296.924,376.903h-27.412l-25.565-6.004l13.056-29.173c3.823-8.543-0.003-18.568-8.546-22.391
		c-8.544-3.823-18.568,0.003-22.391,8.546l-21.437,47.903c-2.066,4.614-1.963,9.91,0.28,14.44c2.243,4.531,6.392,7.824,11.314,8.979
		l37.344,8.771l2.797,11.389c1.899,7.733,8.823,12.909,16.445,12.909c1.337,0,2.698-0.159,4.054-0.492
		c9.091-2.233,14.649-11.411,12.417-20.499l-0.119-0.482h7.763c9.359,0,16.947-7.588,16.947-16.947
		C313.871,384.491,306.284,376.903,296.924,376.903z"/>
	<path style="fill:#BDD186;" d="M186.204,402.968h-17.017l-9.734-22.429l30.671-34.472c6.222-6.992,5.597-17.705-1.396-23.926
		c-6.993-6.222-17.706-5.595-23.925,1.396l-37.863,42.556c-4.387,4.931-5.512,11.958-2.885,18.011l18.377,42.344
		c0.021,0.05,0.044,0.099,0.064,0.148l0.027,0.063c2.627,6.06,8.951,10.205,15.555,10.205c0.029,0,0.058-0.004,0.087-0.004h28.039
		c9.359,0,16.947-7.588,16.947-16.947C203.15,410.555,195.563,402.968,186.204,402.968z"/>
</g>
<g>
</g>
<g>
</g>
<g>
</g>
<g>
</g>
<g>
</g>
<g>
</g>
<g>
</g>
<g>
</g>
<g>
</g>
<g>
</g>
<g>
</g>
<g>
</g>
<g>
</g>
<g>
</g>
<g>
</g>
</svg>
