<?xml version="1.0" encoding="iso-8859-1"?>
<!-- Generator: Adobe Illustrator 19.0.0, SVG Export Plug-In . SVG Version: 6.00 Build 0)  -->
<svg version="1.1" id="Layer_1" xmlns="http://www.w3.org/2000/svg" xmlns:xlink="http://www.w3.org/1999/xlink" x="0px" y="0px"
	 viewBox="0 0 512 512" style="enable-background:new 0 0 512 512;" xml:space="preserve">
<path style="fill:#F8ECC8;" d="M48.855,412.041c-17.463,0-30.565-5.089-38.943-15.127C3.243,388.922,0,378.28,0,364.379
	c0-9.308,7.546-16.854,16.855-16.854s16.855,7.546,16.855,16.854c0,7.343,1.306,10.004,2.084,10.936
	c1.577,1.889,6.459,3.016,13.063,3.016c9.308,0,16.855,7.546,16.855,16.855C65.71,404.495,58.164,412.041,48.855,412.041z"/>
<path style="opacity:0.05;enable-background:new    ;" d="M48.855,378.331c-6.603,0-11.486-1.127-13.063-3.016
	c-0.777-0.932-2.084-3.594-2.084-10.936c0-3.682-1.195-7.079-3.199-9.851c-6.505,15.491-10.856,32.11-12.68,49.482
	c7.947,5.328,18.326,8.032,31.024,8.032c9.308,0,16.855-7.546,16.855-16.855C65.71,385.878,58.164,378.331,48.855,378.331z"/>
<path style="fill:#6E614F;" d="M315.579,420.546v-23.917c0-12.033-9.754-21.788-21.788-21.788l0,0
	c-12.033,0-21.788,9.754-21.788,21.788v42.523c0,12.647,10.253,22.901,22.901,22.901h31.103c8.582,0,15.539-6.957,15.539-15.539l0,0
	c0-8.582-6.957-15.539-15.539-15.539l0,0C320.248,430.974,315.579,426.305,315.579,420.546z"/>
<path style="fill:#F8E9B4;" d="M227.363,447.911H54.327c-13.984,0-25.321-11.337-25.321-25.321l0,0
	c0-97.159,78.763-175.922,175.922-175.922h128.017v95.659C332.946,400.639,285.674,447.911,227.363,447.911z"/>
<path style="opacity:0.05;enable-background:new    ;" d="M204.929,246.667c-35.475,0-68.49,10.51-96.123,28.572
	c2.644,36.728,30.482,66.461,66.331,72.007c7.144,1.105,13.886,4.088,19.618,8.493c29.008,22.289,67.27,35.84,109.212,35.84
	c5.801,0,11.532-0.259,17.178-0.765c7.525-14.524,11.801-31.001,11.801-48.487v-95.659H204.929V246.667z"/>
<path style="fill:#7D7060;" d="M79.209,304.625c-1.677,0-3.333,0.086-4.976,0.216c-24.414,27.082-40.533,61.786-44.349,100.114
	c11.392,14.753,29.243,24.265,49.325,24.265c34.405,0,62.297-27.892,62.297-62.297C141.506,332.516,113.614,304.625,79.209,304.625z
	"/>
<g>
	<path style="fill:#6E614F;" d="M114.526,423.468l3.189-29.897c1.664-15.596-10.56-29.191-26.244-29.191l0,0
		c-32.889,0-62.131,20.926-72.744,52.055l0,0c-7.628,22.375,9.005,45.619,32.645,45.619h95.152c3.711,0,6.719-3.008,6.719-6.719l0,0
		c0-13.453-10.906-24.359-24.359-24.359h-7.609C117.241,430.974,114.097,427.479,114.526,423.468z"/>
	<path style="fill:#6E614F;" d="M226.877,420.546v-23.917c0-12.033-9.754-21.788-21.788-21.788l0,0
		c-12.033,0-21.788,9.754-21.788,21.788v42.523c0,12.647,10.253,22.901,22.901,22.901h31.103c8.582,0,15.539-6.957,15.539-15.539
		l0,0c0-8.582-6.957-15.539-15.539-15.539l0,0C231.546,430.974,226.877,426.305,226.877,420.546z"/>
</g>
<ellipse style="fill:#F8E9B4;" cx="316.61" cy="237.678" rx="164.079" ry="141.257"/>
<path style="fill:#EDBCB9;" d="M351.15,317.089c0,19.075-15.464,34.539-34.539,34.539s-34.539-15.464-34.539-34.539v-46.098h69.077
	V317.089z"/>
<path style="opacity:0.15;enable-background:new    ;" d="M316.611,321.968c-4.516,0-8.178-3.661-8.178-8.178v-38.319
	c0-4.516,3.661-8.178,8.178-8.178c4.516,0,8.178,3.661,8.178,8.178v38.319C324.789,318.307,321.128,321.968,316.611,321.968z"/>
<path style="opacity:0.1;enable-background:new    ;" d="M480.083,225.526c-0.033-0.019-0.065-0.039-0.098-0.058
	c-0.078-1.094-0.176-2.183-0.276-3.27c-8.958-70.727-78.556-125.772-163.096-125.772c-84.537,0-154.131,55.04-163.095,125.761
	c-0.1,1.091-0.197,2.183-0.277,3.28c-0.033,0.019-0.065,0.039-0.098,0.059c-0.397,4.007-0.611,8.059-0.611,12.154
	c0,49.766,29.899,93.517,75.072,118.677c29.038-6.113,54.607-21.63,73.374-43.228c8.204-9.441,23.067-9.441,31.271,0
	c18.767,21.598,44.337,37.115,73.374,43.228c45.173-25.161,75.072-68.911,75.072-118.677
	C480.693,233.585,480.48,229.533,480.083,225.526z"/>
<path style="fill:#F8E9B4;" d="M479.985,201.784c-6.132-84.88-76.93-151.838-163.372-151.838s-157.24,66.958-163.372,151.838
	c-19.12,10.922-32.015,31.492-32.015,55.088l0,0c0,43.457,35.229,78.684,78.684,78.684l0,0c40.357,0,76.525-17.866,101.067-46.111
	c8.204-9.441,23.067-9.441,31.271,0c24.542,28.245,60.711,46.111,101.067,46.111l0,0c43.457,0,78.684-35.229,78.684-78.684l0,0
	C511.999,233.276,499.103,212.707,479.985,201.784z"/>
<path style="fill:#7D7060;" d="M292.604,51.695c-75.21,11.048-133.798,73.206-139.361,150.067
	c18.453,17.949,43.63,29.019,71.406,29.019c56.58,0,102.448-45.867,102.448-102.448C327.096,97.833,313.754,70.463,292.604,51.695z"
	/>
<path style="opacity:0.1;enable-background:new    ;" d="M230.903,74.136c-39.305,24.181-67.613,64.499-75.716,111.721
	c1.257,0.224,2.53,0.415,3.833,0.534l0,0c19.772,1.801,38.585-8.863,47.195-26.752l26.977-56.047
	C238.062,93.473,236.581,82.402,230.903,74.136z"/>
<g>
	<path style="fill:#6E614F;" d="M154.842,171.435L154.842,171.435c-28.962-6.18-42.851-39.372-26.922-64.337l10.545-16.526
		c16.849-26.405,48.322-39.576,78.956-33.039l0,0c19.39,4.137,28.689,26.36,18.024,43.073l-32.296,50.615
		C192.84,167.377,173.584,175.433,154.842,171.435z"/>
	<path style="fill:#6E614F;" d="M478.383,171.435L478.383,171.435c28.962-6.18,42.851-39.372,26.922-64.337L494.76,90.572
		c-16.849-26.405-48.322-39.576-78.956-33.039l0,0c-19.39,4.137-28.689,26.36-18.024,43.073l32.296,50.615
		C440.385,167.377,459.64,175.433,478.383,171.435z"/>
</g>
<g>
	<path style="fill:#4A5058;" d="M349.449,242.166l-7.642,9.102c-13.147,15.658-37.24,15.658-50.387,0l-7.643-9.102
		c-3.938-4.69-0.604-11.842,5.521-11.842h54.633C350.052,230.324,353.386,237.476,349.449,242.166z"/>
	<path style="fill:#4A5058;" d="M244.484,169.596c-4.516,0-8.178,3.661-8.178,8.178v12.178c0,4.516,3.661,8.178,8.178,8.178
		c4.516,0,8.178-3.661,8.178-8.178v-12.178C252.661,173.257,249.001,169.596,244.484,169.596z"/>
	<path style="fill:#4A5058;" d="M388.74,169.596c-4.516,0-8.178,3.661-8.178,8.178v12.178c0,4.516,3.661,8.178,8.178,8.178
		c4.516,0,8.178-3.661,8.178-8.178v-12.178C396.918,173.257,393.257,169.596,388.74,169.596z"/>
</g>
<g>
</g>
<g>
</g>
<g>
</g>
<g>
</g>
<g>
</g>
<g>
</g>
<g>
</g>
<g>
</g>
<g>
</g>
<g>
</g>
<g>
</g>
<g>
</g>
<g>
</g>
<g>
</g>
<g>
</g>
</svg>
