<?xml version="1.0" encoding="iso-8859-1"?>
<!-- Generator: Adobe Illustrator 19.0.0, SVG Export Plug-In . SVG Version: 6.00 Build 0)  -->
<svg version="1.1" id="Layer_1" xmlns="http://www.w3.org/2000/svg" xmlns:xlink="http://www.w3.org/1999/xlink" x="0px" y="0px"
	 viewBox="0 0 512 512" style="enable-background:new 0 0 512 512;" xml:space="preserve">
<circle style="fill:#BDD186;" cx="295.754" cy="182.331" r="21.4"/>
<path style="opacity:0.1;enable-background:new    ;" d="M316.293,176.351h-41.075c-0.551,1.898-0.862,3.899-0.862,5.975
	c0,11.819,9.581,21.4,21.4,21.4c11.819,0,21.4-9.582,21.4-21.4C317.156,180.249,316.845,178.249,316.293,176.351z"/>
<circle style="fill:#BDD186;" cx="234.914" cy="182.331" r="21.4"/>
<path style="opacity:0.1;enable-background:new    ;" d="M228.086,176.351c-4.708,0-9.35,0.279-13.915,0.81
	c-0.411,1.657-0.654,3.381-0.654,5.165c0,11.819,9.581,21.4,21.4,21.4c11.819,0,21.4-9.582,21.4-21.4
	c0-2.076-0.311-4.076-0.862-5.975H228.086z"/>
<circle style="fill:#BDD186;" cx="177.87" cy="194.54" r="21.4"/>
<path style="opacity:0.1;enable-background:new    ;" d="M157.139,199.772c2.337,9.286,10.718,16.17,20.729,16.17
	c11.819,0,21.4-9.582,21.4-21.4c0-5.073-1.773-9.726-4.723-13.393C180.902,185.141,168.279,191.51,157.139,199.772z"/>
<circle style="fill:#BDD186;" cx="131.187" cy="236.847" r="21.4"/>
<path style="opacity:0.1;enable-background:new    ;" d="M138.603,216.795c-9.24,10.486-16.654,22.614-21.776,35.884
	c3.8,3.451,8.828,5.571,14.365,5.571c11.819,0,21.4-9.582,21.4-21.4C152.592,227.641,146.763,219.814,138.603,216.795z"/>
<circle style="fill:#BDD186;" cx="78.115" cy="279.154" r="21.4"/>
<path style="opacity:0.1;enable-background:new    ;" d="M56.759,278.261c-0.012,0.299-0.045,0.591-0.045,0.892
	c0,11.819,9.581,21.4,21.4,21.4s21.4-9.582,21.4-21.4c0-3.296-0.767-6.407-2.098-9.195L56.759,278.261z"/>
<path style="fill:#97B05F;" d="M497.213,213.262c-8.167,0-14.787,6.62-14.787,14.787v11.505h-19.741v-11.505
	c0-8.167-6.62-14.787-14.787-14.787c-8.167,0-14.787,6.62-14.787,14.787v11.505h-21.374c-5.591-32.498-33.89-57.23-67.984-57.23
	H233.08c-51.578,0-95.5,32.747-112.126,78.583c-2.738,7.55-9.223,13.12-17.092,14.727l-90.005,18.383
	C5.792,295.665,0,302.76,0,310.992c0,9.567,7.756,17.324,17.324,17.324h466.609c15.5,0,28.067-12.566,28.067-28.067V228.05
	C512,219.883,505.379,213.262,497.213,213.262z"/>
<g>
	<path style="fill:#4A5058;" d="M345.028,239.236c-4.533,0-8.205-3.673-8.205-8.205c0-0.881-0.715-1.597-1.596-1.597
		c-0.881,0-1.597,0.717-1.597,1.597c0,4.533-3.674,8.205-8.205,8.205c-4.533,0-8.205-3.673-8.205-8.205
		c0-9.93,8.078-18.008,18.008-18.008c9.928,0,18.007,8.078,18.007,18.008C353.233,235.564,349.56,239.236,345.028,239.236z"/>
	<path style="fill:#4A5058;" d="M389.428,239.236c-4.533,0-8.205-3.673-8.205-8.205c0-0.881-0.716-1.597-1.596-1.597
		c-0.881,0-1.596,0.717-1.596,1.597c0,4.533-3.673,8.205-8.205,8.205s-8.205-3.673-8.205-8.205c0-9.93,8.078-18.008,18.007-18.008
		s18.007,8.078,18.007,18.008C397.634,235.564,393.961,239.236,389.428,239.236z"/>
</g>
<g>
	<path style="fill:#FFFFFF;" d="M433.109,294.393c-4.533,0-8.205-3.673-8.205-8.205V275.87c0-4.533,3.673-8.205,8.205-8.205
		c4.533,0,8.205,3.673,8.205,8.205v10.318C441.315,290.72,437.642,294.393,433.109,294.393z"/>
	<path style="fill:#FFFFFF;" d="M460.486,294.393c-4.533,0-8.205-3.673-8.205-8.205V275.87c0-4.533,3.673-8.205,8.205-8.205
		s8.205,3.673,8.205,8.205v10.318C468.691,290.72,465.017,294.393,460.486,294.393z"/>
	<path style="fill:#FFFFFF;" d="M487.861,294.393c-4.533,0-8.205-3.673-8.205-8.205V275.87c0-4.533,3.673-8.205,8.205-8.205
		c4.533,0,8.205,3.673,8.205,8.205v10.318C496.066,290.72,492.394,294.393,487.861,294.393z"/>
</g>
<path style="fill:#F8E9B4;" d="M322.182,305.013L1.043,316.866c2.408,6.673,8.779,11.45,16.281,11.45h372.317
	C370.844,312.414,346.787,304.105,322.182,305.013z"/>
<path style="opacity:0.15;enable-background:new    ;" d="M328.81,319.31h-15.577c-4.055,0-7.495-2.975-8.081-6.987
	c-1.476-10.116-10.151-17.616-20.373-17.616c-12.554,0-22.186,11.14-20.373,23.563l1.466,10.046h82.523
	C343.661,322.805,336.646,319.31,328.81,319.31z"/>
<path style="opacity:0.15;enable-background:new    ;" d="M193.514,319.31h-15.577c-4.055,0-7.495-2.975-8.081-6.987
	c-1.476-10.116-10.151-17.616-20.373-17.616c-12.554,0-22.186,11.14-20.373,23.563l1.466,10.046h82.523
	C208.364,322.805,201.348,319.31,193.514,319.31z"/>
<g>
	<path style="fill:#BDD186;" d="M314.453,311.229L314.453,311.229c-1.476-10.116-10.151-17.616-20.373-17.616l0,0
		c-12.554,0-22.186,11.14-20.373,23.563l2.508,17.181c1.4,9.597,9.63,16.713,19.329,16.713h61.353c3.885,0,7.035-3.149,7.035-7.034
		l0,0c0-14.259-11.56-25.818-25.818-25.818h-15.577C318.479,318.216,315.039,315.241,314.453,311.229z"/>
	<path style="fill:#BDD186;" d="M180.196,311.229L180.196,311.229c-1.476-10.116-10.151-17.616-20.373-17.616l0,0
		c-12.554,0-22.186,11.14-20.373,23.563l2.508,17.181c1.4,9.597,9.63,16.713,19.329,16.713h61.353c3.885,0,7.034-3.149,7.034-7.034
		l0,0c0-14.259-11.56-25.818-25.818-25.818h-15.577C184.222,318.216,180.781,315.241,180.196,311.229z"/>
</g>
<path style="fill:#4A5058;" d="M412.995,264.569c-4.533,0-8.205,3.673-8.205,8.205s3.673,8.205,8.205,8.205h99.004v-16.411
	L412.995,264.569L412.995,264.569z"/>
<g style="opacity:0.1;">
	<path d="M286.015,249.624c-10.136,0-18.383-8.247-18.383-18.383c0-3.761,1.136-7.262,3.081-10.179
		c-1.945-2.916-3.081-6.417-3.081-10.178c0-10.136,8.247-18.383,18.383-18.383c4.533,0,8.205,3.673,8.205,8.205
		c0,4.533-3.673,8.205-8.205,8.205c-1.087,0-1.973,0.885-1.973,1.973c0,1.087,0.885,1.973,1.973,1.973
		c4.533,0,8.205,3.673,8.205,8.205s-3.673,8.205-8.205,8.205c-1.087,0-1.973,0.886-1.973,1.974c0,1.087,0.885,1.973,1.973,1.973
		c4.533,0,8.205,3.673,8.205,8.205C294.22,245.952,290.546,249.624,286.015,249.624z"/>
	<path d="M213.807,249.624c-10.136,0-18.383-8.247-18.383-18.383c0-3.761,1.136-7.262,3.081-10.179
		c-1.945-2.916-3.081-6.417-3.081-10.178c0-10.136,8.247-18.383,18.383-18.383c4.532,0,8.205,3.673,8.205,8.205
		c0,4.533-3.674,8.205-8.205,8.205c-1.087,0-1.973,0.885-1.973,1.973c0,1.087,0.885,1.973,1.973,1.973
		c4.532,0,8.205,3.673,8.205,8.205s-3.674,8.205-8.205,8.205c-1.087,0-1.973,0.886-1.973,1.974c0,1.087,0.885,1.973,1.973,1.973
		c4.532,0,8.205,3.673,8.205,8.205C222.013,245.952,218.339,249.624,213.807,249.624z"/>
	<path d="M249.911,249.624c-10.136,0-18.383-8.247-18.383-18.383c0-3.761,1.136-7.262,3.081-10.179
		c-1.945-2.916-3.081-6.417-3.081-10.178c0-10.136,8.247-18.383,18.383-18.383c4.532,0,8.205,3.673,8.205,8.205
		c0,4.533-3.674,8.205-8.205,8.205c-1.087,0-1.973,0.885-1.973,1.973c0,1.087,0.885,1.973,1.973,1.973
		c4.532,0,8.205,3.673,8.205,8.205s-3.674,8.205-8.205,8.205c-1.087,0-1.973,0.886-1.973,1.974c0,1.087,0.885,1.973,1.973,1.973
		c4.532,0,8.205,3.673,8.205,8.205C258.118,245.952,254.443,249.624,249.911,249.624z"/>
	<path d="M177.704,269.98c-10.136,0-18.383-8.247-18.383-18.383c0-3.761,1.136-7.262,3.081-10.178
		c-1.946-2.916-3.081-6.417-3.081-10.178c0-10.136,8.247-18.383,18.383-18.383c4.532,0,8.205,3.673,8.205,8.205
		c0,4.533-3.674,8.205-8.205,8.205c-1.087,0-1.973,0.885-1.973,1.973c0,1.087,0.885,1.973,1.973,1.973
		c4.532,0,8.205,3.673,8.205,8.205s-3.674,8.205-8.205,8.205c-1.087,0-1.973,0.885-1.973,1.973c0,1.087,0.885,1.973,1.973,1.973
		c4.532,0,8.205,3.673,8.205,8.205C185.909,266.306,182.235,269.98,177.704,269.98z"/>
</g>
<g>
</g>
<g>
</g>
<g>
</g>
<g>
</g>
<g>
</g>
<g>
</g>
<g>
</g>
<g>
</g>
<g>
</g>
<g>
</g>
<g>
</g>
<g>
</g>
<g>
</g>
<g>
</g>
<g>
</g>
</svg>
