<?xml version="1.0" encoding="iso-8859-1"?>
<!-- Generator: Adobe Illustrator 19.0.0, SVG Export Plug-In . SVG Version: 6.00 Build 0)  -->
<svg version="1.1" id="Layer_1" xmlns="http://www.w3.org/2000/svg" xmlns:xlink="http://www.w3.org/1999/xlink" x="0px" y="0px"
	 viewBox="0 0 512 512" style="enable-background:new 0 0 512 512;" xml:space="preserve">
<path style="fill:#6E614F;" d="M41.368,308.821c-10.85,5.92-36.01,8.298-40.558-0.038s11.069-28.206,21.919-34.125
	c10.85-5.92,20.991-1.529,26.138,7.906C54.013,291.997,52.216,302.901,41.368,308.821z"/>
<path style="fill:#7D7060;" d="M239.378,474.045h-22.602c-4.364,0-7.901-3.538-7.901-7.901V352.751
	c0-10.605,8.598-19.202,19.202-19.202l0,0c10.605,0,19.202,8.597,19.202,19.202v113.392
	C247.279,470.507,243.742,474.045,239.378,474.045z"/>
<path style="fill:#4A5058;" d="M208.874,447.832v18.312c0,4.364,3.538,7.901,7.901,7.901h22.602c4.364,0,7.901-3.538,7.901-7.901
	v-18.312H208.874z"/>
<path style="opacity:0.15;enable-background:new    ;" d="M239.378,474.045h-22.602c-4.364,0-7.901-3.538-7.901-7.901V352.751
	c0-10.605,8.598-19.202,19.202-19.202l0,0c10.605,0,19.202,8.597,19.202,19.202v113.392
	C247.279,470.507,243.742,474.045,239.378,474.045z"/>
<path style="fill:#F8ECC8;" d="M366.954,108.783V58.189c0-10.959,8.884-19.843,19.843-19.843l0,0
	c17.631,0,31.923,14.293,31.923,31.923v22.183c0,7.351,5.959,13.312,13.311,13.312l0,0c7.351,0,13.312-5.96,13.312-13.312V59.019
	c0-11.633,9.43-21.064,21.064-21.064l0,0c16.956,0,30.702,13.746,30.702,30.702v52.016c0,21.961-17.776,39.776-39.737,39.825
	l-117.736,0.264c-9.774,0.022-17.709-7.896-17.709-17.67l0,0c0-9.759,7.911-17.67,17.67-17.67h10.72
	C359.505,125.421,366.954,117.972,366.954,108.783z"/>
<path style="opacity:0.1;enable-background:new    ;" d="M374.865,109.602V59.008c0-10.753,8.559-19.487,19.234-19.811
	c-2.346-0.55-4.789-0.849-7.302-0.849l0,0c-10.959,0-19.843,8.884-19.843,19.843v50.594c0,9.189-7.449,16.638-16.638,16.638h-10.72
	c-1.854,0-3.64,0.289-5.32,0.818h23.952C367.416,126.24,374.865,118.791,374.865,109.602z M466.374,151.495l-117.736,0.264
	c-9.774,0.022-17.709-7.896-17.709-17.67l-0.818-5.888c-4.915,3.138-8.184,8.627-8.184,14.891c0,9.775,7.935,17.692,17.709,17.67
	l117.736-0.264c13.263-0.029,24.99-6.545,32.207-16.534C483.051,148.68,475.042,151.475,466.374,151.495z"/>
<path style="fill:#7D7060;" d="M406.3,184.448h-34.541l-3.352-29.154c-3.466-30.141-28.984-52.893-59.324-52.893H231.88
	c-30.34,0-55.858,22.752-59.324,52.893L160.562,259.61H87.277c-34.587,0-62.626,28.039-62.626,62.626v143.908
	c0,4.364,3.538,7.901,7.901,7.901h22.602c4.364,0,7.901-3.538,7.901-7.901v-38.661c0-6.151,2.172-12.104,6.13-16.81l0.003-0.004
	c8.853-10.523,13.952-23.661,14.548-37.348h57.063v92.823c0,4.364,3.538,7.901,7.901,7.901h22.602c4.364,0,7.901-3.538,7.901-7.901
	V373.32h25.726c12.557,0,24.224-3.794,33.93-10.291l22.367,54.371c1.893,4.602,8.462,4.445,10.133-0.242l14.366-40.301
	c1.305-3.662,6.013-4.664,8.696-1.85l11.496,12.056c2.143,2.247,5.822,1.909,7.517-0.693l32.827-50.356h119.871
	c25.33,0,45.865-20.534,45.865-45.865l0,0C512,231.772,464.676,184.448,406.3,184.448z"/>
<g>
	<path style="fill:#4A5058;" d="M342.206,184.569c-4.52,0-8.184-3.663-8.184-8.184v-12.187c0-4.521,3.664-8.184,8.184-8.184
		c4.52,0,8.184,3.663,8.184,8.184v12.187C350.39,180.905,346.726,184.569,342.206,184.569z"/>
	<path style="fill:#4A5058;" d="M297.387,183.441c-4.52,0-8.184-3.663-8.184-8.184c0-2.031-1.653-3.684-3.684-3.684
		s-3.684,1.653-3.684,3.684c0,4.521-3.664,8.184-8.184,8.184c-4.52,0-8.184-3.663-8.184-8.184c0-11.057,8.996-20.052,20.052-20.052
		s20.052,8.995,20.052,20.052C305.571,179.778,301.907,183.441,297.387,183.441z"/>
	<path style="fill:#4A5058;" d="M24.651,447.832v18.312c0,4.364,3.538,7.901,7.901,7.901h22.602c4.364,0,7.901-3.538,7.901-7.901
		v-18.312H24.651z"/>
	<path style="fill:#4A5058;" d="M140.801,447.832v18.312c0,4.364,3.538,7.901,7.901,7.901h22.602c4.364,0,7.901-3.538,7.901-7.901
		v-18.312H140.801z"/>
</g>
<path style="opacity:0.15;enable-background:new    ;" d="M201.412,195.712l-35.026,13.249l-4.412,38.364
	c1.034-0.66,2.039-1.395,3-2.223l23.83-20.563C197.153,217.333,201.79,206.734,201.412,195.712z"/>
<path style="fill:#6E614F;" d="M196.63,206.163l-28.262,24.389c-12.059,10.406-30.588,7.406-38.748-6.272l0,0
	c-3.465-5.807-1.324-13.332,4.678-16.447l46.959-24.369c6.484-3.364,14.467-1.094,18.209,5.179l0,0
	C202.899,194.398,201.703,201.786,196.63,206.163z"/>
<path style="opacity:0.15;enable-background:new    ;" d="M180.492,138.331c-1.109,0-2.19-0.113-3.238-0.321
	c-2.371,5.375-3.994,11.174-4.697,17.284l-2.108,18.33l7.638,0.017c17.503,0.039,32.207-13.148,34.069-30.551l0,0L180.492,138.331z"
	/>
<path style="fill:#F8ECC8;" d="M167.128,108.783V58.189c0-10.959-8.884-19.843-19.843-19.843l0,0
	c-17.631,0-31.923,14.293-31.923,31.923v22.183c0,7.351-5.959,13.312-13.312,13.312l0,0c-7.351,0-13.312-5.96-13.312-13.312V59.019
	c0-11.633-9.43-21.064-21.064-21.064l0,0c-16.956,0-30.702,13.746-30.702,30.702v52.016c0,21.961,17.776,39.776,39.736,39.825
	l117.736,0.264c9.774,0.022,17.709-7.896,17.709-17.67l0,0c0-9.759-7.911-17.67-17.67-17.67h-10.72
	C174.577,125.421,167.128,117.972,167.128,108.783z"/>
<path style="opacity:0.1;enable-background:new    ;" d="M204.21,150.997l-117.736-0.264c-21.961-0.049-39.736-17.865-39.736-39.825
	V58.892c0-5.977,1.714-11.552,4.668-16.269c-8.665,5.428-14.432,15.054-14.432,26.033v52.016c0,21.961,17.776,39.776,39.736,39.826
	l117.736,0.264c7.433,0.016,13.792-4.563,16.417-11.054C208.808,150.538,206.565,151.002,204.21,150.997z"/>
<ellipse style="opacity:0.15;enable-background:new    ;" cx="372.016" cy="240.775" rx="15.299" ry="21.565"/>
<ellipse style="opacity:0.15;enable-background:new    ;" cx="459.346" cy="240.775" rx="15.299" ry="21.565"/>
<path style="opacity:0.15;enable-background:new    ;" d="M431.106,311.739c-5.89,0-11.285-2.168-15.425-5.751
	c-4.14,3.581-9.535,5.751-15.425,5.751c-13.018,0-23.609-10.591-23.609-23.609c0-4.52,3.664-8.184,8.184-8.184
	c4.52,0,8.184,3.664,8.184,8.184c0,3.993,3.249,7.241,7.241,7.241s7.241-3.249,7.241-7.241c0-4.52,3.664-8.184,8.184-8.184
	s8.184,3.664,8.184,8.184c0,3.993,3.249,7.241,7.241,7.241s7.241-3.249,7.241-7.241c0-4.52,3.664-8.184,8.184-8.184
	c4.52,0,8.184,3.664,8.184,8.184C454.716,301.148,444.124,311.739,431.106,311.739z"/>
<g>
</g>
<g>
</g>
<g>
</g>
<g>
</g>
<g>
</g>
<g>
</g>
<g>
</g>
<g>
</g>
<g>
</g>
<g>
</g>
<g>
</g>
<g>
</g>
<g>
</g>
<g>
</g>
<g>
</g>
</svg>
