<?xml version="1.0" encoding="iso-8859-1"?>
<!-- Generator: Adobe Illustrator 19.0.0, SVG Export Plug-In . SVG Version: 6.00 Build 0)  -->
<svg version="1.1" id="Layer_1" xmlns="http://www.w3.org/2000/svg" xmlns:xlink="http://www.w3.org/1999/xlink" x="0px" y="0px"
	 viewBox="0 0 512 512" style="enable-background:new 0 0 512 512;" xml:space="preserve">
<path style="fill:#B0E2E8;" d="M385.839,75.161c-11.843,0-22.412,5.536-29.276,14.147c-6.864-8.613-17.432-14.147-29.276-14.147
	c-20.64,0-37.431,16.791-37.431,37.431c0,4.505,3.651,8.155,8.155,8.155s8.155-3.65,8.155-8.155
	c0-11.645,9.475-21.121,21.121-21.121c11.645,0,21.121,9.475,21.121,21.121v31.304c0,4.505,3.651,8.155,8.155,8.155
	s8.155-3.65,8.155-8.155v-31.304c0-11.645,9.475-21.121,21.121-21.121c11.647,0,21.122,9.475,21.122,21.121
	c0,4.505,3.651,8.155,8.155,8.155s8.155-3.65,8.155-8.155C423.271,91.951,406.479,75.161,385.839,75.161z"/>
<path style="fill:#F7DA70;" d="M366.239,408.842c11.995,26.154,32.702,32.496,48.726,25.148
	c16.024-7.349,24.727-27.18,12.733-53.334c-11.995-26.154-40.145-48.727-56.17-41.378
	C355.504,346.626,354.245,382.687,366.239,408.842z"/>
<path style="opacity:0.08;enable-background:new    ;" d="M366.239,408.842c11.995,26.154,32.702,32.496,48.726,25.148
	c16.024-7.349,24.727-27.18,12.733-53.334c-11.995-26.154-40.145-48.727-56.17-41.378
	C355.504,346.626,354.245,382.687,366.239,408.842z"/>
<path style="opacity:0.08;enable-background:new    ;" d="M427.698,380.655c-11.995-26.154-40.145-48.727-56.17-41.378
	c-12.937,5.934-16.246,30.582-10.73,53.622h71.161C431.047,389.002,429.652,384.915,427.698,380.655z"/>
<path style="fill:#F7DA70;" d="M356.563,167.533L356.563,167.533c-77.533,0-147.072,47.715-174.968,120.055l-2.427,6.294
	c-6.631,17.195-21.01,30.236-38.768,35.16l0,0c-14.541,4.033-29.86-3.085-36.155-16.798l-1.527-3.325
	c4.218-1.119,7.981-2.475,10.792-4l0,0c23.912-12.981,42.174-34.353,51.267-59.995l0,0c3.922-11.059-8.92-20.463-18.278-13.385l0,0
	c-10.539,7.968-23.61,11.843-36.788,10.905c-14.651-1.043-26.52,11.712-24.429,26.25c-2.091-14.538-17.075-23.43-30.838-18.299l0,0
	c-12.379,4.615-26.014,4.581-38.37-0.094c-10.976-4.153-20.645,8.489-13.766,17.993l0,0c15.952,22.04,39.498,37.398,66.1,43.112l0,0
	c1.11,0.239,2.332,0.422,3.639,0.556l2.825,9.74c9.513,32.802,39.557,55.37,73.71,55.37h309.318
	c29.88,0,54.102-24.223,54.102-54.102l0,0C512,237.124,442.409,167.533,356.563,167.533z"/>
<g>
	<path style="fill:#4A5058;" d="M310.525,303.424c-4.504,0-8.155-3.651-8.155-8.155v-12.145c0-4.505,3.651-8.155,8.155-8.155
		s8.155,3.65,8.155,8.155v12.145C318.68,299.773,315.028,303.424,310.525,303.424z"/>
	<path style="fill:#4A5058;" d="M467.723,303.424c-4.504,0-8.155-3.651-8.155-8.155v-12.145c0-4.505,3.651-8.155,8.155-8.155
		c4.504,0,8.155,3.65,8.155,8.155v12.145C475.879,299.773,472.227,303.424,467.723,303.424z"/>
	<path style="fill:#4A5058;" d="M402.736,315.353c-5.146,0-9.882-1.795-13.611-4.792c-3.73,2.997-8.465,4.792-13.611,4.792
		c-12.002,0-21.767-9.763-21.767-21.767c0-4.504,3.651-8.155,8.155-8.155s8.155,3.651,8.155,8.155c0,3.009,2.448,5.456,5.457,5.456
		c3.01,0,5.456-2.448,5.456-5.456c0-4.504,3.651-8.155,8.155-8.155s8.155,3.651,8.155,8.155c0,3.009,2.448,5.456,5.456,5.456
		c3.009,0,5.456-2.448,5.456-5.456c0-4.504,3.651-8.155,8.155-8.155c4.504,0,8.155,3.651,8.155,8.155
		C424.502,305.589,414.738,315.353,402.736,315.353z"/>
</g>
<path style="fill:#F8ECC8;" d="M389.125,341.728c-60.911,0-91.052,18.599-115.541,35.344h184.315
	c11.685,0,22.494-3.717,31.338-10.014C467.013,353.687,437.963,341.728,389.125,341.728z"/>
<path style="opacity:0.05;enable-background:new    ;" d="M11.191,266.375L11.191,266.375c-4.11-5.678-3.286-12.289,0.201-16.875
	c-8.767,0.283-14.961,10.677-9.086,18.793l0,0c15.952,22.041,39.498,37.398,66.1,43.112l0,0c0.261,0.057,0.535,0.105,0.808,0.155
	C46.12,302.358,25.943,286.756,11.191,266.375z"/>
<path style="fill:#F7DA70;" d="M309.746,408.842c-11.995,26.154-32.702,32.496-48.726,25.148
	c-16.024-7.349-24.728-27.18-12.733-53.334c11.995-26.154,40.145-48.727,56.17-41.378
	C320.481,346.626,321.742,382.687,309.746,408.842z"/>
<path style="opacity:0.08;enable-background:new    ;" d="M309.746,408.842c-11.995,26.154-32.702,32.496-48.726,25.148
	c-16.024-7.349-24.728-27.18-12.733-53.334c11.995-26.154,40.145-48.727,56.17-41.378
	C320.481,346.626,321.742,382.687,309.746,408.842z"/>
<g>
</g>
<g>
</g>
<g>
</g>
<g>
</g>
<g>
</g>
<g>
</g>
<g>
</g>
<g>
</g>
<g>
</g>
<g>
</g>
<g>
</g>
<g>
</g>
<g>
</g>
<g>
</g>
<g>
</g>
</svg>
