<?xml version="1.0" encoding="iso-8859-1"?>
<!-- Generator: Adobe Illustrator 19.0.0, SVG Export Plug-In . SVG Version: 6.00 Build 0)  -->
<svg version="1.1" id="Layer_1" xmlns="http://www.w3.org/2000/svg" xmlns:xlink="http://www.w3.org/1999/xlink" x="0px" y="0px"
	 viewBox="0 0 512 512" style="enable-background:new 0 0 512 512;" xml:space="preserve">
<path style="fill:#F4B759;" d="M42.583,153.652L42.583,153.652c-56.776,58.645-56.776,151.76,0,210.406l0,0
	c7.964,8.227,21.303,7.731,28.636-1.062l0,0c38.027-45.6,88.518-79.131,145.3-96.489l0.004-0.001c7.547-2.308,7.547-12.992,0-15.299
	l0,0c-56.782-17.36-107.275-50.889-145.303-96.49l-0.001-0.001C63.885,145.92,50.546,145.425,42.583,153.652z"/>
<path style="fill:#4A5058;" d="M75.764,160.025c-1.532-1.754-3.053-3.52-4.546-5.311l-0.001-0.001
	c-7.333-8.793-20.671-9.287-28.636-1.062l0,0c-56.776,58.645-56.776,151.76,0,210.406l0,0c7.964,8.227,21.302,7.731,28.636-1.062
	l0,0c1.494-1.792,3.015-3.558,4.547-5.312C26.76,301.008,26.76,216.701,75.764,160.025z"/>
<path style="opacity:0.1;enable-background:new    ;" d="M216.521,251.205L216.521,251.205
	c-35.92-10.981-69.318-28.442-98.641-51.328c-16.424,17.73-26.256,37.754-26.256,58.977c0,21.224,9.832,41.248,26.256,58.978
	c29.322-22.885,62.719-40.345,98.638-51.326l0.004-0.001C224.07,264.197,224.07,253.512,216.521,251.205z"/>
<ellipse transform="matrix(-0.0276 -0.9996 0.9996 -0.0276 133.6627 436.5063)" style="fill:#4A5058;" cx="279.141" cy="153.242" rx="77.953" ry="90.237"/>
<ellipse transform="matrix(-0.0276 -0.9996 0.9996 -0.0276 133.6627 436.5063)" style="fill:#F4B759;" cx="279.141" cy="153.242" rx="53.395" ry="61.808"/>
<ellipse transform="matrix(0.1381 -0.9904 0.9904 0.1381 -131.467 550.9122)" style="fill:#4A5058;" cx="250.797" cy="350.991" rx="77.953" ry="57.762"/>
<ellipse transform="matrix(0.1381 -0.9904 0.9904 0.1381 -131.468 550.9111)" style="fill:#F4B759;" cx="250.796" cy="350.991" rx="53.395" ry="39.565"/>
<path style="opacity:0.1;enable-background:new    ;" d="M261.578,273.787c-31.596-4.405-62.028,26.59-67.973,69.231
	c-1.264,9.067-1.308,17.926-0.307,26.305c29.391,15.596,63.538,27.653,97.49,33.463c8.634-11.777,14.874-26.871,17.236-43.818
	C313.968,316.329,293.174,278.191,261.578,273.787z"/>
<ellipse transform="matrix(0.1381 0.9904 -0.9904 0.1381 676.2503 -58.8893)" style="fill:#4A5058;" cx="371.96" cy="359.1" rx="77.953" ry="57.762"/>
<ellipse transform="matrix(0.1381 0.9904 -0.9904 0.1381 676.2503 -58.8893)" style="fill:#F4B759;" cx="371.96" cy="359.1" rx="53.395" ry="39.565"/>
<path style="opacity:0.1;enable-background:new    ;" d="M429.176,351.106c-5.944-42.64-36.377-73.635-67.973-69.231
	c-31.596,4.405-52.39,42.542-46.446,85.182c2.083,14.941,7.18,28.441,14.272,39.5c1.553,0.033,3.103,0.05,4.647,0.05
	c34.299,0,66.37-5.388,93.198-15.787C430.17,378.774,431.14,365.191,429.176,351.106z"/>
<path style="fill:#F4B759;" d="M117.701,258.855c0,61.34,123.341,131.621,224.687,131.621S525.7,343.505,510.084,258.855
	c-16.319-88.46-88.508-131.621-167.696-131.621C241.042,127.234,117.701,197.515,117.701,258.855z"/>
<g>
	<path style="fill:#4A5058;" d="M485.232,267.004c-4.512,0-8.168-3.656-8.168-8.168v-12.164c0-4.512,3.656-8.168,8.168-8.168
		s8.168,3.656,8.168,8.168v12.164C493.4,263.348,489.744,267.004,485.232,267.004z"/>
	<path style="fill:#4A5058;" d="M383.763,260.923c-4.512,0-8.168-3.656-8.168-8.168c0-2.063-1.678-3.741-3.741-3.741
		s-3.741,1.678-3.741,3.741c0,4.512-3.656,8.168-8.168,8.168s-8.168-3.656-8.168-8.168c0-11.07,9.007-20.077,20.077-20.077
		s20.077,9.007,20.077,20.077C391.931,257.267,388.275,260.923,383.763,260.923z"/>
</g>
<g>
	<path style="fill:#FFFFFF;" d="M328.593,227.366c8.243-45.747,30.888-81.729,59.527-95.056
		c-14.721-3.385-30.088-5.077-45.732-5.077c-6.86,0-13.822,0.332-20.838,0.952c-18.735,23.725-32.323,54.968-38.802,90.92
		c-6.808,37.78-4.937,77.009,5.411,113.445c5.675,19.982,13.891,38.803,24.343,56.019c10.08,1.243,20.087,1.907,29.887,1.907
		c9.612,0,19.048-0.425,28.245-1.261C327.227,340.672,319.987,275.114,328.593,227.366z"/>
	<path style="fill:#FFFFFF;" d="M206.856,243.189c4.132-38.329,18.953-72.826,41.864-98.958
		c-27.635,9.586-53.644,22.615-75.095,37.49c-6.51,17.804-10.958,36.755-13.085,56.474c-3.476,32.237-0.416,64.338,8.564,94.59
		c19.147,13.936,42.344,26.403,67.29,36.152C212.684,332.005,202.049,287.762,206.856,243.189z"/>
</g>
<path style="fill:#4A5058;" d="M152.42,237.32c-3.171,29.406-1.155,58.667,5.962,87.15c6.687,5.531,14.027,10.885,21.901,15.988
	c-1.283-3.51-2.42-6.874-3.348-9.996c-8.824-29.724-11.607-60.471-8.274-91.39c2.028-18.812,6.28-37.165,12.638-54.555
	c0.937-2.572,2.133-6.009,3.555-10.159c-8.11,5.029-15.715,10.321-22.674,15.81C157.451,205.393,154.159,221.197,152.42,237.32z
	 M198.735,242.313c-4.539,42.105,4.308,84.763,24.968,121.359c8.656,3.796,17.58,7.279,26.676,10.382
	c-2.493-3.059-4.92-6.285-7.159-9.604c-22.756-35.487-32.786-78.237-28.242-120.385c3.936-36.518,17.729-69.178,39.881-94.444
	c2.927-3.334,6.185-6.857,9.609-10.43c-10.444,3.055-20.735,6.635-30.734,10.64C214.519,175.82,202.487,207.504,198.735,242.313z
	 M296.016,330.319c-10.01-35.244-11.82-73.201-5.231-109.765c6.147-34.102,19.001-64.292,37.217-87.36
	c1.462-1.883,3.054-3.806,4.742-5.752c-7.362,0.313-14.816,0.983-22.304,1.965c-17.339,24.181-29.65,54.5-35.732,88.251
	c-7.028,39-5.094,79.5,5.592,117.125c5.224,18.395,12.575,35.96,21.869,52.313c7.007,1.132,14,2.003,20.936,2.572
	c-1.276-1.839-2.521-3.667-3.698-5.459C309.31,367.545,301.44,349.415,296.016,330.319z M391.466,139.762
	c3.267-1.41,6.556-2.711,9.824-3.912c-8.311-2.568-16.877-4.563-25.631-5.981c-26.925,17.165-47.2,52.176-55.104,96.048
	c-3.436,19.066-5.954,49.082,1.57,83.805c6.65,30.686,19.551,57.646,38.37,80.237c7.165-0.408,14.2-1.066,21.082-1.96
	c-1.798-1.455-3.487-2.935-5.047-4.443c-19.018-21.345-31.951-47.349-38.439-77.294c-5.428-25.049-5.947-52.555-1.46-77.448
	C344.329,186.093,365.334,151.985,391.466,139.762z"/>
<path style="opacity:0.1;enable-background:new    ;" d="M244.501,274.033l-40.604,44.455c-4.855,4.034-12.072,3.311-16.032-1.605
	l0,0c-20.073-24.924-20.073-60.465,0-85.39l0,0c3.959-4.916,11.177-5.638,16.032-1.605l40.604,13.962
	C253.944,251.696,253.944,266.188,244.501,274.033z"/>
<path style="fill:#F4B759;" d="M245.317,272.812l-35.159,29.21c-4.855,4.034-12.072,3.311-16.032-1.605l0,0
	c-20.073-24.924-20.073-60.465,0-85.39l0,0c3.959-4.916,11.176-5.638,16.032-1.605l35.159,29.208
	C254.76,250.475,254.76,264.968,245.317,272.812z"/>
<path style="opacity:0.05;enable-background:new    ;" d="M245.317,272.812l-35.159,29.21c-4.855,4.034-12.072,3.311-16.032-1.605
	l0,0c-20.073-24.924-20.073-60.465,0-85.39l0,0c3.959-4.916,11.176-5.638,16.032-1.605l35.159,29.208
	C254.76,250.475,254.76,264.968,245.317,272.812z"/>
<g>
	<path style="fill:#4A5058;" d="M214.968,217.418l-4.81-3.997c-4.855-4.034-12.072-3.311-16.032,1.605l0,0
		c-20.073,24.924-20.073,60.465,0,85.39l0,0c3.959,4.916,11.176,5.638,16.032,1.605l4.81-3.996
		C197.35,274.067,197.35,241.376,214.968,217.418z"/>
	<path style="fill:#4A5058;" d="M442.024,274.688c-4.21,0-8.113-1.343-11.302-3.624c-3.189,2.282-7.092,3.624-11.302,3.624
		c-10.736,0-19.469-8.734-19.469-19.47c0-4.512,3.656-8.168,8.168-8.168s8.168,3.656,8.168,8.168c0,1.728,1.406,3.134,3.133,3.134
		c1.728,0,3.134-1.406,3.134-3.134c0-4.512,3.656-8.168,8.168-8.168c4.512,0,8.168,3.656,8.168,8.168
		c0,1.728,1.406,3.134,3.134,3.134c1.727,0,3.133-1.406,3.133-3.134c0-4.512,3.656-8.168,8.168-8.168
		c4.512,0,8.168,3.656,8.168,8.168C461.493,265.954,452.759,274.688,442.024,274.688z"/>
</g>
<g>
</g>
<g>
</g>
<g>
</g>
<g>
</g>
<g>
</g>
<g>
</g>
<g>
</g>
<g>
</g>
<g>
</g>
<g>
</g>
<g>
</g>
<g>
</g>
<g>
</g>
<g>
</g>
<g>
</g>
</svg>
