<?xml version="1.0" encoding="iso-8859-1"?>
<!-- Generator: Adobe Illustrator 19.0.0, SVG Export Plug-In . SVG Version: 6.00 Build 0)  -->
<svg version="1.1" id="Layer_1" xmlns="http://www.w3.org/2000/svg" xmlns:xlink="http://www.w3.org/1999/xlink" x="0px" y="0px"
	 viewBox="0 0 512 512" style="enable-background:new 0 0 512 512;" xml:space="preserve">
<path style="fill:#F4B759;" d="M392.663,6.194H119.337C53.429,6.194,0,59.623,0,125.53c0,98.507,79.855,178.361,178.361,178.361
	h155.277C432.145,303.892,512,224.036,512,125.53C512,59.623,458.571,6.194,392.663,6.194z"/>
<path style="opacity:0.05;enable-background:new    ;" d="M392.663,6.194H119.337C53.429,6.194,0,59.623,0,125.53
	c0,98.507,79.855,178.361,178.361,178.361h155.277C432.145,303.892,512,224.036,512,125.53C512,59.623,458.571,6.194,392.663,6.194z
	"/>
<path style="fill:#F4B759;" d="M460.507,318.617l-19.337,29.009c-26.339,39.513-70.685,63.247-118.172,63.247H222.776v94.933h97.788
	c74.767,0,139.608-51.679,156.287-124.562l11.581-50.607c2.215-9.677-5.138-18.902-15.064-18.902l0,0
	C468.199,311.735,463.373,314.318,460.507,318.617z"/>
<path style="opacity:0.05;enable-background:new    ;" d="M460.507,318.617l-19.337,29.009
	c-26.339,39.513-70.685,63.247-118.172,63.247H222.776v94.933h97.788c74.767,0,139.608-51.679,156.287-124.562l11.581-50.607
	c2.215-9.677-5.138-18.902-15.064-18.902l0,0C468.199,311.735,463.373,314.318,460.507,318.617z"/>
<circle style="fill:#F8E9B4;" cx="125.308" cy="133.782" r="67.63"/>
<circle style="fill:#4A5058;" cx="125.308" cy="133.782" r="32.331"/>
<circle style="fill:#F8E9B4;" cx="386.692" cy="133.782" r="67.63"/>
<circle style="fill:#4A5058;" cx="386.692" cy="133.782" r="32.331"/>
<path style="opacity:0.1;enable-background:new    ;" d="M396.426,86.329L396.426,86.329c-4.525-37.544-36.382-65.791-74.197-65.791
	H189.771c-37.815,0-69.672,28.247-74.197,65.791l0,0c-5.889,48.853,26.771,92.593,72.713,102.723v114.839h135.427V189.053
	C369.655,178.922,402.315,135.182,396.426,86.329z"/>
<path style="fill:#F4B759;" d="M303.474,428.778v-17.903H54.194c-26.215,0-47.466,21.251-47.466,47.466l0,0
	c0,26.215,21.251,47.466,47.466,47.466h172.252C268.986,505.806,303.474,471.319,303.474,428.778z"/>
<circle style="fill:#4A5058;" cx="48.872" cy="458.339" r="8.183"/>
<circle style="fill:#F8E9B4;" cx="101.164" cy="458.339" r="8.183"/>
<circle style="fill:#4A5058;" cx="153.446" cy="458.339" r="8.183"/>
<path style="fill:#F8E9B4;" d="M303.47,410.873V147.199h-94.933v263.674c0,52.43-42.503,94.933-94.933,94.933h112.84
	c42.541,0,77.028-34.487,77.028-77.028v-17.903h-0.002V410.873z"/>
<path style="opacity:0.1;enable-background:new    ;" d="M173.914,484.189l70.706,19.441c8.735-2.114,16.886-5.711,24.174-10.519
	l-81.497-22.408C183.294,475.629,178.815,480.153,173.914,484.189z M208.537,410.873c0,0.003,0,0.006,0,0.006v1.992h94.933v-16.552
	h-94.933V410.873z M208.537,214.889v16.552h94.933v-16.552H208.537z M208.537,322.156h94.933v-16.552h-94.933V322.156z"/>
<path style="opacity:0.08;enable-background:new    ;" d="M208.537,147.199v49.242c6.531,1.44,13.33,2.202,20.326,2.202h54.282
	c6.995,0,13.794-0.762,20.324-2.202v-49.242L208.537,147.199L208.537,147.199z"/>
<path style="fill:#F4B759;" d="M283.145,176.91h-54.282c-56.202,0-99.764-49.128-93.037-104.926l0,0
	c4.525-37.544,36.382-65.791,74.197-65.791h91.964c37.815,0,69.672,28.247,74.197,65.791l0,0
	C382.909,127.783,339.348,176.91,283.145,176.91z"/>
<g>
	<path style="fill:#4A5058;" d="M189.866,101.071c-4.57,0-8.276-3.704-8.276-8.276V80.471c0-4.572,3.705-8.276,8.276-8.276
		s8.276,3.704,8.276,8.276v12.324C198.142,97.366,194.436,101.071,189.866,101.071z"/>
	<path style="fill:#4A5058;" d="M322.142,101.071c-4.57,0-8.276-3.704-8.276-8.276V80.471c0-4.572,3.705-8.276,8.276-8.276
		c4.57,0,8.276,3.704,8.276,8.276v12.324C330.418,97.366,326.712,101.071,322.142,101.071z"/>
</g>
<path style="fill:#D46D59;" d="M276.256,94.635h-40.503v57.706c0,2.274,2.473,3.684,4.43,2.527l12.968-7.668
	c1.76-1.041,3.946-1.041,5.706,0l12.968,7.668c1.958,1.158,4.43-0.254,4.43-2.527V94.635H276.256z"/>
<rect x="235.752" y="94.632" style="opacity:0.1;enable-background:new    ;" width="40.503" height="23.239"/>
<path style="fill:#4A5058;" d="M270.931,110.374c-5.679,0-10.889-2.051-14.926-5.451c-4.038,3.4-9.247,5.451-14.926,5.451
	c-12.794,0-23.202-10.409-23.202-23.202c0-4.572,3.705-8.276,8.276-8.276s8.276,3.704,8.276,8.276c0,3.667,2.984,6.65,6.65,6.65
	c3.668,0,6.65-2.984,6.65-6.65c0-4.572,3.705-8.276,8.276-8.276c4.57,0,8.276,3.704,8.276,8.276c0,3.667,2.984,6.65,6.65,6.65
	c3.668,0,6.65-2.984,6.65-6.65c0-4.572,3.705-8.276,8.276-8.276c4.57,0,8.276,3.704,8.276,8.276
	C294.133,99.966,283.724,110.374,270.931,110.374z"/>
<g>
</g>
<g>
</g>
<g>
</g>
<g>
</g>
<g>
</g>
<g>
</g>
<g>
</g>
<g>
</g>
<g>
</g>
<g>
</g>
<g>
</g>
<g>
</g>
<g>
</g>
<g>
</g>
<g>
</g>
</svg>
