<?xml version="1.0" encoding="iso-8859-1"?>
<!-- Generator: Adobe Illustrator 19.0.0, SVG Export Plug-In . SVG Version: 6.00 Build 0)  -->
<svg version="1.1" id="Layer_1" xmlns="http://www.w3.org/2000/svg" xmlns:xlink="http://www.w3.org/1999/xlink" x="0px" y="0px"
	 viewBox="0 0 512.002 512.002" style="enable-background:new 0 0 512.002 512.002;" xml:space="preserve">
<path style="fill:#6E614F;" d="M328.943,467.038L328.943,467.038c-20.09,0-36.376-16.286-36.376-36.376v-66.327h72.75v66.327
	C365.319,450.752,349.033,467.038,328.943,467.038z"/>
<path style="opacity:0.15;enable-background:new    ;" d="M328.943,467.038L328.943,467.038c-20.09,0-36.376-16.286-36.376-36.376
	v-66.327h72.75v66.327C365.319,450.752,349.033,467.038,328.943,467.038z"/>
<path style="fill:#7D7060;" d="M208.723,149.325c0-57.638-46.724-104.362-104.362-104.362C46.724,44.963,0,91.687,0,149.325
	c0,55.972,44.065,101.649,99.395,104.241c-1.104,27.825,7.586,55.692,25.473,78.311l0,0l64.985-10.763
	c-9.437-3.825-18.869-19.961-18.869-46.573c0-32.728,36.269-61.71,37.672-121.657C208.696,151.702,208.723,150.517,208.723,149.325z
	"/>
<path style="fill:#60523F;" d="M92.054,87.742c-34.348,0-62.292,27.944-62.292,62.292c0,28.387,23.094,51.481,51.481,51.481
	c23.618,0,42.832-19.214,42.832-42.832c0-4.55-3.689-8.238-8.238-8.238c-4.55,0-8.238,3.689-8.238,8.238
	c0,14.533-11.823,26.355-26.355,26.355c-19.301,0-35.004-15.703-35.004-35.004c0-25.262,20.552-45.815,45.815-45.815
	c32.713,0,59.328,26.615,59.328,59.327c0,42.027-34.192,76.219-76.219,76.219c-10.538,0-20.804-1.66-30.544-4.873
	c15.214,10.641,33.393,17.327,53.055,18.572c40.269-10.085,70.185-46.568,70.185-89.918
	C167.858,121.747,133.852,87.742,92.054,87.742z"/>
<path style="fill:#6E614F;" d="M189.895,288.201c-42.21,0-76.428,34.217-76.428,76.428v66.034c0,20.09,16.286,36.376,36.375,36.376
	l0,0c20.09,0,36.376-16.286,36.376-36.376v-17.829h49.084v17.829c0,20.09,16.286,36.376,36.376,36.376l0,0
	c20.09,0,36.375-16.286,36.375-36.376v-17.829h5.59c28.54,0,51.676-23.136,51.676-51.676v-72.957H189.895z"/>
<path style="opacity:0.08;enable-background:new    ;" d="M202.074,288.201c0.613,5.893,1.684,11.674,3.192,17.311
	c0.924,3.451,1.145,7.05,0.518,10.568c-0.938,5.264-1.241,10.747-0.818,16.372c2.312,30.739,26.449,55.86,57.073,59.393
	c5.08,0.587,10.053,0.567,14.867,0.02c4.248-0.482,8.558,0.123,12.548,1.658c16.176,6.222,33.881,10.022,52.496,10.863
	c14.071-9.234,23.37-25.141,23.37-43.227v-72.956H202.074V288.201z"/>
<path style="fill:#6E614F;" d="M488.431,193.637v-53.001c0-15.755-12.773-28.528-28.528-28.528
	c-15.755,0-28.528,12.773-28.528,28.528v8.372c-20.304-8.999-43.328-14.079-67.728-14.079c-24.4,0-47.424,5.08-67.728,14.079v-8.374
	c0-15.755-12.773-28.528-28.528-28.528s-28.528,12.773-28.528,28.528v53.001c-14.913,19.948-23.569,43.701-23.569,69.198
	c0,70.64,66.421,127.905,148.354,127.905c81.934,0,148.354-57.265,148.354-127.905C512,237.338,503.344,213.585,488.431,193.637z"/>
<g>
	<path style="fill:#F8E9B4;" d="M340.655,283.332c0.585-4.521,0.903-9.184,0.903-13.959c0-40.585-22.146-73.485-49.465-73.485
		c-25.911,0-47.154,29.601-49.277,67.278c-14.759,11.877-24.213,30.078-24.213,50.496c0,35.785,29.009,64.794,64.794,64.794
		s64.794-29.009,64.794-64.794C348.191,302.701,345.46,292.382,340.655,283.332z"/>
	<path style="fill:#F8E9B4;" d="M484.477,263.165c-2.123-37.676-23.367-67.278-49.277-67.278c-27.319,0-49.465,32.9-49.465,73.485
		c0,4.775,0.317,9.438,0.903,13.959c-4.804,9.05-7.535,19.369-7.535,30.33c0,35.785,29.009,64.794,64.794,64.794
		s64.794-29.009,64.794-64.794C508.689,293.243,499.236,275.042,484.477,263.165z"/>
</g>
<g>
	<path style="fill:#4A5058;" d="M292.567,256.96c-4.55,0-8.238-3.689-8.238-8.238v-12.269c0-4.55,3.689-8.238,8.238-8.238
		c4.55,0,8.238,3.689,8.238,8.238v12.269C300.806,253.271,297.117,256.96,292.567,256.96z"/>
	<path style="fill:#4A5058;" d="M434.724,256.96c-4.55,0-8.238-3.689-8.238-8.238v-12.269c0-4.55,3.689-8.238,8.238-8.238
		s8.238,3.689,8.238,8.238v12.269C442.963,253.271,439.274,256.96,434.724,256.96z"/>
</g>
<path style="fill:#FFFFFF;" d="M383.975,301.376h-40.657c-0.923,0-1.672,0.748-1.672,1.672v35.718c0,4.326,3.507,7.833,7.833,7.833
	h28.334c4.327,0,7.833-3.507,7.833-7.833v-35.718C385.647,302.125,384.898,301.376,383.975,301.376z"/>
<path style="opacity:0.1;enable-background:new    ;" d="M341.646,301.376v28.978c7.439-1.089,14.174-4.34,19.547-9.098
	c1.398-1.238,3.508-1.238,4.907,0c5.374,4.757,12.108,8.009,19.547,9.098v-28.978H341.646z"/>
<path style="fill:#7D7060;" d="M322.751,282.455c-15.521,0-22.562,19.508-10.541,29.326c6.519,5.324,14.847,8.518,23.92,8.518
	c9.616,0,18.388-3.592,25.063-9.502c1.398-1.238,3.508-1.238,4.907,0c6.674,5.91,15.447,9.502,25.063,9.502
	c9.073,0,17.401-3.193,23.92-8.518c12.023-9.818,4.982-29.326-10.541-29.326H322.751z"/>
<path style="fill:#4A5058;" d="M389.45,284.573l-6.161,7.338c-10.598,12.621-30.02,12.621-40.617,0l-6.161-7.338
	c-3.175-3.781-0.487-9.547,4.45-9.547H385C389.936,275.026,392.624,280.792,389.45,284.573z"/>
<path style="fill:#F8E9B4;" d="M326.901,167.992c0,4.55,3.689,8.238,8.238,8.238s8.238-3.689,8.238-8.238v-31.869
	c-5.597,0.659-11.097,1.582-16.477,2.764V167.992z M355.407,135.129v32.863c0,4.55,3.689,8.238,8.238,8.238
	c4.55,0,8.238-3.689,8.238-8.238v-32.863c-2.727-0.129-5.474-0.2-8.238-0.2S358.136,135.001,355.407,135.129z M383.915,136.123
	v31.869c0,4.55,3.689,8.238,8.238,8.238s8.238-3.689,8.238-8.238v-29.105C395.011,137.705,389.511,136.782,383.915,136.123z"/>
<g>
</g>
<g>
</g>
<g>
</g>
<g>
</g>
<g>
</g>
<g>
</g>
<g>
</g>
<g>
</g>
<g>
</g>
<g>
</g>
<g>
</g>
<g>
</g>
<g>
</g>
<g>
</g>
<g>
</g>
</svg>
