<?xml version="1.0" encoding="iso-8859-1"?>
<!-- Generator: Adobe Illustrator 19.0.0, SVG Export Plug-In . SVG Version: 6.00 Build 0)  -->
<svg version="1.1" id="Layer_1" xmlns="http://www.w3.org/2000/svg" xmlns:xlink="http://www.w3.org/1999/xlink" x="0px" y="0px"
	 viewBox="0 0 512 512" style="enable-background:new 0 0 512 512;" xml:space="preserve">
<circle style="fill:#E8E8E8;" cx="35.023" cy="245.339" r="30.284"/>
<path style="opacity:0.05;enable-background:new    ;" d="M43.103,268.941c-16.725,0-30.284-13.558-30.284-30.284
	c0-7.5,2.732-14.358,7.248-19.647c-9.151,5.21-15.326,15.045-15.326,26.328c0,16.725,13.559,30.284,30.284,30.284
	c9.226,0,17.481-4.13,23.036-10.637C53.647,267.498,48.545,268.941,43.103,268.941z"/>
<path style="fill:#A4A8AB;" d="M273.962,483.529h-35.726c-3.609,0-6.535-2.926-6.535-6.535v-75.033h48.796v75.034
	C280.497,480.603,277.572,483.529,273.962,483.529z"/>
<path style="fill:#4A5058;" d="M231.702,462.649h48.796v14.345c0,3.609-2.926,6.535-6.535,6.535h-35.726
	c-3.609,0-6.535-2.926-6.535-6.535L231.702,462.649L231.702,462.649z"/>
<path style="fill:#E8E8E8;" d="M337.023,315.384c0-12.199-6.112-22.965-15.437-29.419c0.369-2.059,0.572-4.176,0.572-6.342
	c0-19.398-15.448-35.177-34.711-35.735c-3.848-15.6-17.927-27.171-34.715-27.171c-3.302,0-6.497,0.457-9.533,1.295
	c-6.56-7.897-16.452-12.928-27.521-12.928c-7.862,0-15.127,2.543-21.029,6.843c-6.527-6.99-15.82-11.368-26.139-11.368
	c-10.319,0-19.611,4.376-26.139,11.368c-5.902-4.3-13.167-6.843-21.029-6.843c-11.069,0-20.962,5.031-27.521,12.928
	c-3.036-0.838-6.23-1.295-9.533-1.295c-16.788,0-30.868,11.571-34.715,27.171c-19.263,0.557-34.711,16.336-34.711,35.735
	c0,2.165,0.203,4.282,0.572,6.342C6.112,292.419,0,303.185,0,315.384c0,8.287,2.827,15.91,7.559,21.974
	C2.827,343.421,0,351.044,0,359.331c0,16.09,10.627,29.696,25.245,34.187c-0.023,0.522-0.039,1.047-0.039,1.574
	c0,19.75,16.011,35.761,35.761,35.761c0.947,0,1.882-0.048,2.81-0.12c5.429,12.835,18.138,21.841,32.95,21.841
	c8.012,0,15.408-2.635,21.37-7.086c6.541,7.188,15.971,11.7,26.455,11.7c9.217,0,17.619-3.489,23.959-9.216
	c6.342,5.727,14.742,9.216,23.959,9.216c10.484,0,19.914-4.512,26.455-11.7c5.962,4.451,13.358,7.086,21.37,7.086
	c14.812,0,27.522-9.006,32.95-21.841c0.929,0.072,1.864,0.12,2.811,0.12c19.75,0,35.761-16.011,35.761-35.761
	c0-0.528-0.017-1.052-0.039-1.574c14.618-4.491,25.245-18.096,25.245-34.187c0-8.287-2.827-15.91-7.559-21.974
	C334.197,331.294,337.023,323.671,337.023,315.384z"/>
<path style="opacity:0.05;enable-background:new    ;" d="M337.023,315.384c0-12.199-6.112-22.965-15.437-29.419
	c0.369-2.059,0.572-4.176,0.572-6.342c0-19.398-15.448-35.177-34.711-35.735c-3.848-15.6-17.927-27.171-34.715-27.171
	c-3.302,0-6.497,0.457-9.533,1.295c-6.56-7.897-16.452-12.928-27.521-12.928c-7.862,0-15.127,2.543-21.029,6.843
	c-6.527-6.99-15.82-11.368-26.139-11.368c-10.319,0-19.611,4.376-26.139,11.368c-5.902-4.3-13.167-6.843-21.029-6.843
	c-11.069,0-20.962,5.031-27.521,12.928c-3.036-0.838-6.23-1.295-9.533-1.295c-9.017,0-17.248,3.341-23.538,8.849
	c-0.576,12.138,6.184,23.955,17.938,29.24c7.433,3.342,15.494,3.451,22.619,0.939c0.507,17.594,11.106,32.65,26.212,39.597
	c1.858,22.401,20.102,40.148,42.722,41.203c7.547,14.291,22.548,24.036,39.832,24.036c4.16,0,8.182-0.576,12.007-1.632
	c7.772,6.384,17.717,10.219,28.559,10.219c11.228,0,21.488-4.12,29.374-10.917c7.886,6.797,18.146,10.917,29.374,10.917
	c10.415,0,19.997-3.545,27.625-9.482c0.001-0.119,0.008-0.236,0.008-0.355c0-8.287-2.827-15.91-7.559-21.974
	C334.197,331.294,337.023,323.671,337.023,315.384z"/>
<path style="fill:#A4A8AB;" d="M88.476,184.766c17.677-10.342,34.532-22.518,49.67-37.787l0.138-0.139
	c3.478-3.509,9.141-3.533,12.65-0.055c2.123,2.104,2.962,5.061,2.529,7.804c-3.744,22.758-11.329,45.653-21.178,67.558l-0.634,1.41
	c-6.901,15.348-24.936,22.195-40.283,15.294c-15.348-6.901-22.195-24.936-15.294-40.283
	C78.777,192.557,83.187,187.853,88.476,184.766z"/>
<path style="opacity:0.1;enable-background:new    ;" d="M150.934,146.786c-3.509-3.478-9.172-3.453-12.65,0.055l-0.138,0.139
	c-13.339,13.454-28.012,24.505-43.406,34.018c-0.894,3.536-1.375,7.237-1.375,11.052c0,13.348,5.814,25.335,15.041,33.579
	c-3.089,4.741-5.309,10.098-6.438,15.848c12.292,0.764,24.333-6.02,29.682-17.917l0.634-1.41
	c9.849-21.905,17.434-44.801,21.178-67.558C153.895,151.847,153.056,148.89,150.934,146.786z"/>
<path style="fill:#A4A8AB;" d="M496.91,184.766c-17.678-10.342-34.532-22.518-49.67-37.787l-0.138-0.139
	c-3.478-3.509-9.141-3.533-12.65-0.055c-2.123,2.104-2.96,5.061-2.529,7.804c3.744,22.758,11.329,45.653,21.178,67.558l0.634,1.41
	c6.901,15.348,24.936,22.195,40.283,15.294c15.348-6.901,22.194-24.936,15.294-40.283C506.61,192.557,502.2,187.853,496.91,184.766z
	"/>
<path style="fill:#E8E8E8;" d="M479.181,180.351c0-15.656-7.994-29.44-20.119-37.508c2.37-5.476,3.689-11.512,3.689-17.859
	c0-23.195-17.54-42.285-40.079-44.749c-4.574-20.019-22.477-34.96-43.882-34.96c-6.684,0-13.022,1.467-18.725,4.08
	c-7.991-12.551-22.017-20.884-37.998-20.884c-11.228,0-21.488,4.12-29.374,10.917c-7.886-6.797-18.145-10.917-29.374-10.917
	c-15.981,0-30.007,8.333-37.998,20.884c-5.704-2.613-12.041-4.08-18.725-4.08c-21.405,0-39.308,14.941-43.882,34.96
	c-22.539,2.463-40.079,21.555-40.079,44.749c0,6.346,1.32,12.383,3.689,17.859c-12.125,8.068-20.119,21.852-20.119,37.508
	c0,13.348,5.814,25.334,15.041,33.579c-4.601,7.061-7.285,15.486-7.285,24.544c0,18.157,10.755,33.794,26.236,40.916
	c1.857,22.401,20.102,40.148,42.722,41.203c7.547,14.291,22.548,24.036,39.832,24.036c4.16,0,8.183-0.576,12.007-1.632
	c7.772,6.384,17.717,10.219,28.559,10.219c11.228,0,21.488-4.12,29.374-10.917c7.886,6.797,18.145,10.917,29.374,10.917
	c10.842,0,20.788-3.834,28.559-10.219c3.824,1.055,7.847,1.632,12.007,1.632c17.284,0,32.287-9.745,39.832-24.036
	c22.62-1.056,40.865-18.802,42.722-41.203c15.482-7.122,26.236-22.758,26.236-40.916c0-9.056-2.684-17.482-7.285-24.544
	C473.367,205.685,479.181,193.699,479.181,180.351z"/>
<path style="fill:#A4A8AB;" d="M364.362,168.64l-31.111,7.725c-13.326,3.308-26.922,4.977-40.558,4.977l0,0
	c-13.636,0-27.233-1.668-40.558-4.977l-31.111-7.725c-19.402-4.818-37.738,12.075-37.738,34.764l0,0
	c0,21.234,16.171,37.739,34.633,35.349l0,0c12.552-1.624,24.845,3.753,32.603,13.753c6.856,8.837,16.862,14.407,28.009,14.407
	h28.325c11.148,0,21.154-5.57,28.009-14.407c7.758-10,20.052-15.377,32.604-13.753l0,0c18.462,2.39,34.633-14.115,34.633-35.349l0,0
	C402.101,180.714,383.765,163.823,364.362,168.64z"/>
<g>
	<path style="fill:#4A5058;" d="M233.583,220.113c-4.525,0-8.193-3.668-8.193-8.193v-12.201c0-4.525,3.668-8.193,8.193-8.193
		s8.193,3.668,8.193,8.193v12.201C241.776,216.444,238.108,220.113,233.583,220.113z"/>
	<path style="fill:#4A5058;" d="M351.805,220.113c-4.525,0-8.193-3.668-8.193-8.193v-12.201c0-4.525,3.668-8.193,8.193-8.193
		s8.193,3.668,8.193,8.193v12.201C359.998,216.444,356.329,220.113,351.805,220.113z"/>
	<path style="fill:#4A5058;" d="M306.369,243.602c-5.17,0-9.928-1.804-13.675-4.815c-3.748,3.011-8.506,4.815-13.676,4.815
		c-12.058,0-21.868-9.81-21.868-21.869c0-4.525,3.668-8.193,8.193-8.193c4.525,0,8.193,3.668,8.193,8.193
		c0,3.023,2.459,5.483,5.482,5.483c3.023,0,5.483-2.459,5.483-5.483c0-4.525,3.668-8.193,8.193-8.193
		c4.525,0,8.193,3.668,8.193,8.193c0,3.023,2.459,5.483,5.482,5.483c3.023,0,5.483-2.459,5.483-5.483
		c0-4.525,3.668-8.193,8.193-8.193c4.525,0,8.193,3.668,8.193,8.193C328.238,233.792,318.428,243.602,306.369,243.602z"/>
	<path style="fill:#4A5058;" d="M306.115,213.213l-3.124,3.721c-5.374,6.399-15.222,6.399-20.596,0l-3.124-3.721
		c-1.609-1.917-0.247-4.841,2.256-4.841h22.33C306.362,208.372,307.725,211.297,306.115,213.213z"/>
</g>
<g>
	<path style="fill:#A4A8AB;" d="M98.345,483.529H62.62c-3.609,0-6.535-2.926-6.535-6.535v-75.033h48.796v75.034
		C104.88,480.603,101.955,483.529,98.345,483.529z"/>
	<path style="fill:#A4A8AB;" d="M200.063,483.529h-35.726c-3.609,0-6.535-2.926-6.535-6.535v-75.033h48.796v75.034
		C206.597,480.603,203.671,483.529,200.063,483.529z"/>
</g>
<path style="opacity:0.1;enable-background:new    ;" d="M104.361,377.434c-8.322,0-15.81,3.57-21.018,9.259
	c-4.88-3.917-11.074-6.266-17.819-6.266c-15.736,0-28.493,12.756-28.493,28.493c0,6.286,2.04,12.092,5.487,16.804
	c4.065,2.453,8.658,4.118,13.568,4.789v5.292c2.955,1.037,6.129,1.607,9.438,1.607c8.322,0,15.81-3.57,21.018-9.259
	c4.88,3.917,11.074,6.266,17.819,6.266c15.736,0,28.493-12.756,28.493-28.493C132.853,390.19,120.097,377.434,104.361,377.434z"/>
<path style="fill:#E8E8E8;" d="M106.206,361.796c-9.113,0-17.312,3.909-23.016,10.139c-5.344-4.29-12.126-6.862-19.513-6.862
	c-17.232,0-31.201,13.969-31.201,31.201s13.969,31.201,31.201,31.201c9.113,0,17.312-3.909,23.016-10.14
	c5.344,4.29,12.126,6.863,19.513,6.863c17.232,0,31.201-13.969,31.201-31.201C137.407,375.766,123.438,361.796,106.206,361.796z"/>
<path style="opacity:0.1;enable-background:new    ;" d="M206.274,377.933c-8.302,0-15.771,3.561-20.968,9.237
	c-4.869-3.909-11.047-6.251-17.776-6.251c-15.698,0-28.424,12.726-28.424,28.424c0,15.698,12.726,28.424,28.424,28.424
	c8.302,0,15.771-3.561,20.968-9.238c4.868,3.908,11.047,6.252,17.776,6.252c15.698,0,28.424-12.726,28.424-28.424
	C234.698,390.659,221.972,377.933,206.274,377.933z"/>
<path style="fill:#E8E8E8;" d="M208.166,361.796c-9.113,0-17.313,3.909-23.016,10.139c-5.344-4.29-12.126-6.862-19.513-6.862
	c-17.232,0-31.201,13.969-31.201,31.201s13.969,31.201,31.201,31.201c9.113,0,17.312-3.909,23.016-10.14
	c5.344,4.29,12.126,6.863,19.513,6.863c17.232,0,31.201-13.969,31.201-31.201C239.368,375.766,225.398,361.796,208.166,361.796z"/>
<g>
	<path style="fill:#4A5058;" d="M56.085,462.649h48.796v14.345c0,3.609-2.926,6.535-6.535,6.535H62.62
		c-3.609,0-6.535-2.926-6.535-6.535V462.649z"/>
	<path style="fill:#4A5058;" d="M157.802,462.649h48.796v14.345c0,3.609-2.926,6.535-6.535,6.535h-35.726
		c-3.609,0-6.535-2.926-6.535-6.535L157.802,462.649L157.802,462.649z"/>
</g>
<g>
</g>
<g>
</g>
<g>
</g>
<g>
</g>
<g>
</g>
<g>
</g>
<g>
</g>
<g>
</g>
<g>
</g>
<g>
</g>
<g>
</g>
<g>
</g>
<g>
</g>
<g>
</g>
<g>
</g>
</svg>
