<?xml version="1.0" encoding="iso-8859-1"?>
<!-- Generator: Adobe Illustrator 19.0.0, SVG Export Plug-In . SVG Version: 6.00 Build 0)  -->
<svg version="1.1" id="Layer_1" xmlns="http://www.w3.org/2000/svg" xmlns:xlink="http://www.w3.org/1999/xlink" x="0px" y="0px"
	 viewBox="0 0 512 512" style="enable-background:new 0 0 512 512;" xml:space="preserve">
<path style="fill:#BCE9ED;" d="M22.63,325.894H6.319c0-18.175,17.479-53.805,57.887-53.805V288.4
	C34.594,288.4,22.63,314.86,22.63,325.894z"/>
<path style="fill:#F8E9B4;" d="M26.721,331.231c0-7.452-5.982-13.494-13.361-13.494S0,323.779,0,331.231
	c0,7.452,5.982,22.119,13.361,22.119S26.721,338.684,26.721,331.231z"/>
<path style="fill:#B0E2E8;" d="M303.285,467.296H246.08c-6.89,0-12.476-5.585-12.476-12.475V312.352h82.156V454.82
	C315.761,461.71,310.175,467.296,303.285,467.296z"/>
<path style="fill:#F8E9B4;" d="M315.761,420.43L315.761,420.43v34.39c0,6.89-5.585,12.475-12.475,12.475h-28.603v-5.787
	C274.682,438.822,293.074,420.43,315.761,420.43z"/>
<path style="opacity:0.1;enable-background:new    ;" d="M303.285,467.296H246.08c-6.89,0-12.476-5.585-12.476-12.475V312.352
	h82.156V454.82C315.761,461.71,310.175,467.296,303.285,467.296z"/>
<path style="fill:#B0E2E8;" d="M186.518,211.932c-75.136,0-136.044,44.96-136.044,100.42V454.82c0,6.89,5.585,12.475,12.475,12.475
	h57.205c6.89,0,12.475-5.585,12.475-12.475v-54.981c12.747,2.026,27.35,3.238,44.044,3.577v51.405
	c0,6.89,5.585,12.475,12.475,12.475h57.205c6.89,0,12.475-5.585,12.475-12.475v-58.8c50.406-13.223,63.733-43.177,63.733-83.668
	C322.563,256.891,261.654,211.932,186.518,211.932z"/>
<path style="fill:#F8E9B4;" d="M132.63,420.43L132.63,420.43v34.39c0,6.89-5.585,12.475-12.475,12.475H91.552v-5.787
	C91.552,438.822,109.943,420.43,132.63,420.43z"/>
<path style="opacity:0.05;enable-background:new    ;" d="M186.518,211.932c-23.778,0-46.126,4.507-65.575,12.421
	c14.331,60.116,74.056,105.209,145.568,105.209c19.767,0,38.629-3.454,55.886-9.709c0.111-2.459,0.165-4.959,0.165-7.502
	C322.563,256.891,261.654,211.932,186.518,211.932z"/>
<path style="fill:#F8E9B4;" d="M258.83,420.43L258.83,420.43v34.39c0,6.89-5.585,12.475-12.475,12.475h-28.603v-5.787
	C217.751,438.822,236.143,420.43,258.83,420.43z"/>
<path style="fill:#BCE9ED;" d="M512,123.949c0-41.307-33.486-74.792-74.792-74.792s-74.792,33.485-74.792,74.792v129.383
	c0,23.955,19.419,43.374,43.374,43.374c23.955,0,43.374-19.419,43.374-43.374c0-42.549,20.147-55.977,38.491-74.171
	c2.829-2.586,5.449-5.394,7.853-8.384c0.063-0.074,0.133-0.14,0.19-0.217C512,148.311,512,123.949,512,123.949z"/>
<path style="fill:#EDBCB9;" d="M458.45,144.566c0-26.519-21.498-48.017-48.017-48.017c-26.519,0-48.017,21.498-48.017,48.017v83.065
	c0,15.379,12.467,27.847,27.847,27.847s27.847-12.467,27.847-27.847c0-27.317,12.934-35.938,24.712-47.618
	c1.816-1.66,3.498-3.463,5.042-5.383c0.04-0.048,0.082-0.092,0.122-0.14C460.762,159.446,458.45,144.566,458.45,144.566z"/>
<ellipse style="fill:#B0E2E8;" cx="285.21" cy="177.783" rx="148.847" ry="133.079"/>
<path style="opacity:0.05;enable-background:new    ;" d="M361.326,207.795l-45.836-6.655c-9,45.69,1.68,79.665,16.941,102.887
	c18.399-5.5,35.196-14.126,49.605-25.171C368.721,263.681,361.326,238.834,361.326,207.795z"/>
<path style="fill:#BCE9ED;" d="M19.379,123.949c0-41.307,33.485-74.792,74.792-74.792s74.792,33.485,74.792,74.792v129.383
	c0,23.955-19.419,43.374-43.374,43.374s-43.374-19.419-43.374-43.374c0-42.549-20.147-55.977-38.49-74.171
	c-2.829-2.586-5.449-5.394-7.853-8.384c-0.063-0.074-0.133-0.14-0.19-0.217C19.379,148.311,19.379,123.949,19.379,123.949z"/>
<path style="fill:#EDBCB9;" d="M72.929,144.566c0-26.519,21.498-48.017,48.017-48.017c26.519,0,48.017,21.498,48.017,48.017v83.065
	c0,15.379-12.467,27.847-27.847,27.847s-27.847-12.467-27.847-27.847c0-27.317-12.935-35.938-24.712-47.618
	c-1.816-1.66-3.498-3.463-5.041-5.383c-0.04-0.048-0.082-0.092-0.122-0.14C70.616,159.446,72.929,144.566,72.929,144.566z"/>
<path style="fill:#B0E2E8;" d="M424.224,338.045c-16.811,0.001-33.465-4.039-48.494-12.194
	c-22.13-12.01-58.266-42.586-62.927-115.158c-0.556-8.654,6.355-15.969,15.026-15.969h25.909c7.837,0,14.394,6.017,14.995,13.831
	c2.555,33.286,14.508,57.756,33.668,68.153c12.042,6.535,26.659,7.122,40.162,2.01c6.631-2.511,14.109-0.242,17.973,5.702
	l14.501,22.309c4.98,7.663,1.917,17.937-6.417,21.689C454.401,334.816,439.251,338.043,424.224,338.045z"/>
<path style="opacity:0.1;enable-background:new    ;" d="M369.014,211.796l-22.844,6.793c-4.318,1.284-6.776,5.824-5.493,10.142
	c1.053,3.542,4.298,5.833,7.814,5.833c0.769,0,1.553-0.11,2.328-0.34l20.7-6.156C370.41,222.935,369.567,217.506,369.014,211.796z
	 M361.402,269.34c-3.583,2.729-4.276,7.847-1.545,11.43c1.605,2.107,4.034,3.214,6.494,3.214c1.723,0,3.46-0.544,4.936-1.668
	l19.306-14.706c-3.603-3.753-6.804-8.177-9.581-13.207L361.402,269.34z M416.607,281.52L414.1,300.01
	c-0.606,4.463,2.522,8.572,6.986,9.177c0.373,0.05,0.742,0.075,1.107,0.075c4.017,0,7.516-2.97,8.071-7.062l2.829-20.874
	C427.56,282.315,421.987,282.391,416.607,281.52z"/>
<g>
	<path style="fill:#4A5058;" d="M283.494,180.652c-4.505,0-8.156-3.652-8.156-8.156v-12.997c0-4.504,3.65-8.156,8.156-8.156
		s8.156,3.652,8.156,8.156v12.997C291.65,177,287.998,180.652,283.494,180.652z"/>
	<path style="fill:#4A5058;" d="M388.967,180.652c-4.505,0-8.156-3.652-8.156-8.156v-12.997c0-4.504,3.65-8.156,8.156-8.156
		c4.504,0,8.156,3.652,8.156,8.156v12.997C397.122,177,393.471,180.652,388.967,180.652z"/>
</g>
<g>
</g>
<g>
</g>
<g>
</g>
<g>
</g>
<g>
</g>
<g>
</g>
<g>
</g>
<g>
</g>
<g>
</g>
<g>
</g>
<g>
</g>
<g>
</g>
<g>
</g>
<g>
</g>
<g>
</g>
</svg>
