<?xml version="1.0" encoding="iso-8859-1"?>
<!-- Generator: Adobe Illustrator 19.0.0, SVG Export Plug-In . SVG Version: 6.00 Build 0)  -->
<svg version="1.1" id="Layer_1" xmlns="http://www.w3.org/2000/svg" xmlns:xlink="http://www.w3.org/1999/xlink" x="0px" y="0px"
	 viewBox="0 0 511.995 511.995" style="enable-background:new 0 0 511.995 511.995;" xml:space="preserve">
<circle style="fill:#4A5058;" cx="34.879" cy="290.231" r="34.879"/>
<path style="opacity:0.15;enable-background:new    ;" d="M65.421,273.365c-22.864,7.056-42.118,22.339-54.3,42.395
	c6.229,5.802,14.58,9.357,23.764,9.357c19.266,0,34.884-15.618,34.884-34.884C69.769,284.113,68.188,278.364,65.421,273.365z"/>
<path style="fill:#4A5058;" d="M304.688,452.556V412.34c0-21.978-17.817-39.795-39.795-39.795l0,0
	c-21.978,0-39.795,17.817-39.795,39.795v72.764c0,9.618,7.797,17.415,17.415,17.415h77.009c7.751,0,14.036-6.284,14.036-14.036
	C333.56,470.884,321.199,456.18,304.688,452.556z"/>
<path style="opacity:0.2;enable-background:new    ;" d="M304.688,452.556V412.34c0-21.978-17.817-39.795-39.795-39.795l0,0
	c-21.978,0-39.795,17.817-39.795,39.795v72.764c0,9.618,7.797,17.415,17.415,17.415h77.009c7.751,0,14.036-6.284,14.036-14.036
	C333.56,470.884,321.199,456.18,304.688,452.556z"/>
<path style="opacity:0.15;enable-background:new    ;" d="M264.893,372.546L264.893,372.546c-21.978,0-39.795,17.817-39.795,39.795
	v42.511c33.074-1.288,62.064-18.455,79.548-44.112C303.807,389.504,286.335,372.546,264.893,372.546z"/>
<path style="fill:#E8E8E8;" d="M212.716,441.446H85.825c-39.85,0-72.156-32.306-72.156-72.156l0,0c0-53.549,43.41-96.96,96.96-96.96
	H252.59c33.779,0,61.161,27.383,61.161,61.161v6.92C313.751,396.211,268.516,441.446,212.716,441.446z"/>
<path style="fill:#4A5058;" d="M225.099,452.556V272.329H180.66c-19.413,0-35.149,15.737-35.149,35.149v177.624
	c0,9.618,7.797,17.415,17.415,17.415h76.903c7.88,0,14.204-6.449,14.143-14.329C253.833,470.721,241.518,456.159,225.099,452.556z"
	/>
<path style="opacity:0.1;enable-background:new    ;" d="M252.59,272.329H119.379c26.131,63.149,94.468,108.201,174.657,108.201
	c3.885,0,7.738-0.119,11.565-0.327c5.239-12.213,8.15-25.662,8.15-39.793v-6.92C313.75,299.712,286.369,272.329,252.59,272.329z"/>
<circle style="fill:#4A5058;" cx="450.865" cy="70.61" r="61.13"/>
<circle style="fill:#EDBCB9;" cx="450.865" cy="70.61" r="26.306"/>
<ellipse style="fill:#E8E8E8;" cx="313.755" cy="195.659" rx="186.012" ry="165.156"/>
<path style="fill:#EDBCB9;" d="M371.437,240.026c-6.544,0-11.85-5.305-11.85-11.85c0,6.544-5.305,11.85-11.848,11.85
	c-2.589,0-4.977-0.84-6.927-2.25v21.566c0,10.369,8.406,18.775,18.775,18.775c10.37,0,18.775-8.406,18.775-18.775v-21.566
	C376.414,239.186,374.026,240.026,371.437,240.026z"/>
<path style="fill:#D46D59;" d="M359.587,262.398c-6.74,0-12.856,1.543-17.374,4.051c2.802,6.843,9.521,11.669,17.374,11.669
	c7.853,0,14.572-4.825,17.374-11.669C372.444,263.942,366.328,262.398,359.587,262.398z"/>
<g>
	<path style="fill:#4A5058;" d="M371.437,248.185c-4.431,0-8.53-1.448-11.85-3.895c-3.319,2.447-7.417,3.895-11.85,3.895
		c-11.033,0-20.008-8.975-20.008-20.009c0-4.507,3.652-8.159,8.159-8.159c4.506,0,8.159,3.652,8.159,8.159
		c0,2.034,1.655,3.69,3.689,3.69c2.034,0,3.69-1.655,3.69-3.69c0-4.507,3.652-8.159,8.159-8.159s8.159,3.652,8.159,8.159
		c0,2.034,1.655,3.69,3.69,3.69c2.034,0,3.69-1.655,3.69-3.69c0-4.507,3.652-8.159,8.159-8.159c4.507,0,8.159,3.652,8.159,8.159
		C391.445,239.21,382.47,248.185,371.437,248.185z"/>
	<path style="fill:#4A5058;" d="M383.541,191.295l-5.574,6.64c-9.589,11.42-27.162,11.42-36.751,0l-5.574-6.64
		c-2.872-3.42-0.441-8.638,4.026-8.638h39.848C383.981,182.657,386.413,187.875,383.541,191.295z"/>
	<path style="fill:#4A5058;" d="M215.6,27.381c-23.874-23.874-62.582-23.874-86.458,0c-23.874,23.874-23.874,62.583,0,86.458
		s53.011,14.303,76.885-9.573C229.903,80.392,239.475,51.255,215.6,27.381z"/>
</g>
<circle style="fill:#EDBCB9;" cx="172.369" cy="70.61" r="26.306"/>
<g>
	<path style="fill:#4A5058;" d="M201.216,187.745c-15.465,15.465-15.466,40.539,0,56.005c15.465,15.465,40.539,15.465,56.005,0
		l26.176-26.176c15.465-15.465,15.465-40.539,0-56.005c-15.466-15.466-40.539-15.465-56.004,0L201.216,187.745z"/>
	<path style="fill:#4A5058;" d="M497.841,171.892l-10.323-10.323c-15.465-15.465-40.539-15.465-56.004,0
		c-15.465,15.465-15.465,40.539,0,56.005l26.176,26.176c8.13,8.13,18.916,11.979,29.564,11.561
		c8.076-18.502,12.513-38.613,12.513-59.647C499.768,187.59,499.102,179.655,497.841,171.892z"/>
</g>
<g>
	<path style="fill:#FFFFFF;" d="M255.396,203.989c-4.507,0-8.159-3.652-8.159-8.159v-12.151c0-4.507,3.652-8.159,8.159-8.159
		c4.507,0,8.159,3.652,8.159,8.159v12.151C263.555,200.336,259.902,203.989,255.396,203.989z"/>
	<path style="fill:#FFFFFF;" d="M469.998,201.18c-4.507,0-8.159-3.652-8.159-8.159c0-1.282-1.042-2.324-2.324-2.324
		c-1.28,0-2.323,1.042-2.323,2.324c0,4.507-3.653,8.159-8.159,8.159c-4.507,0-8.159-3.652-8.159-8.159
		c0-10.279,8.362-18.643,18.641-18.643c10.279,0,18.642,8.364,18.642,18.643C478.157,197.527,474.505,201.18,469.998,201.18z"/>
</g>
<path style="fill:#4A5058;" d="M93.257,452.556V412.34c0-21.978-17.817-39.795-39.795-39.795s-39.795,17.817-39.795,39.795v72.764
	c0,9.618,7.797,17.415,17.415,17.415h77.009c7.752,0,14.036-6.284,14.036-14.036C122.129,470.883,109.768,456.18,93.257,452.556z"/>
<g>
</g>
<g>
</g>
<g>
</g>
<g>
</g>
<g>
</g>
<g>
</g>
<g>
</g>
<g>
</g>
<g>
</g>
<g>
</g>
<g>
</g>
<g>
</g>
<g>
</g>
<g>
</g>
<g>
</g>
</svg>
