<?xml version="1.0" encoding="iso-8859-1"?>
<!-- Generator: Adobe Illustrator 19.0.0, SVG Export Plug-In . SVG Version: 6.00 Build 0)  -->
<svg version="1.1" id="Layer_1" xmlns="http://www.w3.org/2000/svg" xmlns:xlink="http://www.w3.org/1999/xlink" x="0px" y="0px"
	 viewBox="0 0 512.001 512.001" style="enable-background:new 0 0 512.001 512.001;" xml:space="preserve">
<path style="fill:#97B05F;" d="M173.237,472.54L173.237,472.54c-28.295,0-50.154-24.856-46.539-52.919l11.116-86.277h94.622
	l-12.661,98.269C216.76,455.016,196.833,472.54,173.237,472.54z"/>
<path style="opacity:0.1;enable-background:new    ;" d="M137.813,333.343l-5.327,41.351c14.271,18.312,36.871,28.902,62.319,28.902
	c11.089,0,20.881-2.023,29.328-5.804l8.303-64.449H137.813z"/>
<path style="fill:#97B05F;" d="M274.66,331.742L274.66,331.742c44.693-3.275,86.816-22.147,119.009-53.321l8.093-7.836
	c5.445-5.272,1.483-14.48-6.09-14.152l-125.087,5.427c-18.724,0.813-33.487,16.229-33.487,34.971l0,0
	C237.097,317.172,254.374,333.228,274.66,331.742z"/>
<path style="fill:#BDD186;" d="M269.385,296.015c0,46.968-23.687,77.407-66.85,77.407s-78.152-30.439-78.152-77.407
	s34.99-85.043,78.152-85.043S269.385,249.047,269.385,296.015z"/>
<path style="opacity:0.05;enable-background:new    ;" d="M124.615,289.771c-0.138,2.064-0.232,4.142-0.232,6.244
	c0,18.758,5.593,34.868,15.047,47.467c14.343-4.488,25.252-17.266,26.608-33.138l1.154-13.512L124.615,289.771z"/>
<path style="fill:#D4624E;" d="M224.871,214.852c-18.972,4.028-33.539,27.685-33.539,56.276c0,31.418,17.589,53.621,39.287,53.621
	c18.578,0,34.134-16.285,38.226-40.689C265.9,251.294,250.714,224.519,224.871,214.852z"/>
<path style="opacity:0.1;enable-background:new    ;" d="M202.535,210.972c-30.014,0-56.062,18.421-69.155,45.432
	c19.525,13.47,44.252,21.484,71.752,21.484c22.492,0,42.858-5.363,59.954-14.684C256.455,232.528,235.009,210.972,202.535,210.972z"
	/>
<path style="fill:#BDD186;" d="M273.345,79.308h0.003c-16.997-10.226-48.368-32.015-58.856-39.349
	c-1.645-1.15-3.925-0.205-4.279,1.771L207.7,55.758c-0.245,1.365-1.68,2.161-2.967,1.646l-28.014-11.207
	c-3.385-1.354-7.12,0.927-7.461,4.557l-1.777,18.898c-44.937,12.371-75.524,45.48-75.524,90.245
	c0,57.344,50.19,103.831,116.444,103.831s114.099-46.486,114.099-103.831C322.499,123.949,303.696,95.521,273.345,79.308z"/>
<g>
	<path style="fill:#4A5058;" d="M219.051,145.294c-4.512,0-8.17-3.657-8.17-8.17v-12.167c0-4.513,3.658-8.17,8.17-8.17
		s8.17,3.657,8.17,8.17v12.167C227.221,141.637,223.564,145.294,219.051,145.294z"/>
	<path style="fill:#4A5058;" d="M292.944,145.294c-4.513,0-8.17-3.657-8.17-8.17v-12.167c0-4.513,3.657-8.17,8.17-8.17
		c4.513,0,8.17,3.657,8.17,8.17v12.167C301.114,141.637,297.457,145.294,292.944,145.294z"/>
</g>
<path style="opacity:0.08;enable-background:new    ;" d="M248.076,173.354c0,19.173,16.821,33.997,35.841,31.587l29.671-3.758
	c3.997-8.763,6.733-18.149,8.035-27.967L248.076,173.354z"/>
<path style="fill:#4A5058;" d="M502.452,183.334l-233.213,10.273c-11.534,0.508-21.163-8.706-21.163-20.252l0,0
	c0-11.546,9.629-20.76,21.163-20.252l233.213,10.273c5.341,0.235,9.549,4.633,9.549,9.98l0,0
	C512.001,178.7,507.792,183.098,502.452,183.334z"/>
<path style="fill:#97B05F;" d="M129.63,331.742L129.63,331.742c-44.693-3.275-86.816-22.147-119.009-53.321l-8.093-7.836
	c-5.445-5.272-1.484-14.48,6.09-14.152l125.087,5.427c18.724,0.813,33.487,16.229,33.487,34.971l0,0
	C167.192,317.172,149.915,333.228,129.63,331.742z"/>
<g>
	<path style="fill:#4A5058;" d="M185.99,399.022c-9.024,0-16.34-7.316-16.34-16.34v-22.877c0-9.024,7.316-16.34,16.34-16.34
		c9.024,0,16.34,7.316,16.34,16.34v22.877C202.33,391.706,195.015,399.022,185.99,399.022z"/>
	<path style="fill:#4A5058;" d="M243.329,399.022c-9.024,0-16.34-7.316-16.34-16.34v-22.877c0-9.024,7.316-16.34,16.34-16.34
		c9.024,0,16.34,7.316,16.34,16.34v22.877C259.669,391.706,252.353,399.022,243.329,399.022z"/>
</g>
<g>
</g>
<g>
</g>
<g>
</g>
<g>
</g>
<g>
</g>
<g>
</g>
<g>
</g>
<g>
</g>
<g>
</g>
<g>
</g>
<g>
</g>
<g>
</g>
<g>
</g>
<g>
</g>
<g>
</g>
</svg>
