<?xml version="1.0" encoding="iso-8859-1"?>
<!-- Generator: Adobe Illustrator 19.0.0, SVG Export Plug-In . SVG Version: 6.00 Build 0)  -->
<svg version="1.1" id="Layer_1" xmlns="http://www.w3.org/2000/svg" xmlns:xlink="http://www.w3.org/1999/xlink" x="0px" y="0px"
	 viewBox="0 0 512.001 512.001" style="enable-background:new 0 0 512.001 512.001;" xml:space="preserve">
<path style="fill:#E8E8E8;" d="M22.966,305.382H6.669c0-42.053,42.923-64.056,85.324-64.056v16.297
	C57.69,257.624,22.966,274.028,22.966,305.382z"/>
<path style="fill:#4A5058;" d="M29.634,317.476c0-9.238-6.634-16.727-14.817-16.727S0,308.238,0,317.476
	c0,9.238,6.634,25.315,14.817,25.315S29.634,326.714,29.634,317.476z"/>
<circle style="fill:#EDBCB9;" cx="137.927" cy="370.66" r="52.313"/>
<path style="opacity:0.1;enable-background:new    ;" d="M137.923,318.338c-28.895,0-52.318,23.423-52.318,52.318
	c0,11.238,3.555,21.64,9.586,30.167h85.464c6.031-8.527,9.586-18.928,9.586-30.167C190.24,341.761,166.816,318.338,137.923,318.338z
	"/>
<g>
	<path style="fill:#EDBCB9;" d="M133.501,440.7c-4.5,0-8.149-3.648-8.149-8.148v-21.528c0-4.5,3.648-8.149,8.149-8.149
		c4.5,0,8.149,3.648,8.149,8.149v21.528C141.649,437.051,138.001,440.7,133.501,440.7z"/>
	<path style="fill:#EDBCB9;" d="M159.039,438.527c-4.5,0-8.149-3.648-8.149-8.148V408.85c0-4.5,3.648-8.148,8.149-8.148
		s8.148,3.648,8.148,8.148v21.528C167.188,434.879,163.539,438.527,159.039,438.527z"/>
</g>
<path style="fill:#E8E8E8;" d="M310.585,462.667h-54.452c-3.096,0-5.606-2.51-5.606-5.606V338.977h65.663v118.084
	C316.191,460.157,313.682,462.667,310.585,462.667z"/>
<path style="fill:#7D7060;" d="M310.585,462.667h-54.452c-3.096,0-5.606-2.51-5.606-5.606v-27.79h65.663v27.79
	C316.191,460.157,313.682,462.667,310.585,462.667z"/>
<path style="opacity:0.2;enable-background:new    ;" d="M310.585,462.667h-54.452c-3.096,0-5.606-2.51-5.606-5.606V338.977h65.663
	v118.084C316.191,460.157,313.682,462.667,310.585,462.667z"/>
<path style="fill:#E8E8E8;" d="M263.103,220.632H139.266c-49.688,0-89.968,40.281-89.968,89.968v146.461
	c0,3.096,2.51,5.606,5.606,5.606h54.452c3.095,0,5.606-2.51,5.606-5.606v-68.158c4.507,0.793,9.136,1.23,13.87,1.23h74.29v66.929
	c0,3.096,2.51,5.606,5.606,5.606h54.452c3.095,0,5.605-2.51,5.605-5.606v-68.396c41.994-7.599,73.854-44.317,73.854-88.501l0,0
	C342.636,256.239,307.028,220.632,263.103,220.632z"/>
<path style="opacity:0.05;enable-background:new    ;" d="M263.103,220.632H139.266c-3.739,0-7.415,0.255-11.034,0.698
	c10.018,63.9,79.37,113.375,163.442,113.375c15.973,0,31.412-1.793,46.017-5.124c3.19-9.221,4.946-19.111,4.946-29.416l0,0
	C342.636,256.239,307.028,220.632,263.103,220.632z"/>
<path style="fill:#4A5058;" d="M120.883,222.518c-37.119,7.707-65.834,38.289-70.799,76.341c6.369,2.527,13.306,3.931,20.576,3.931
	c30.84,0,55.842-25.002,55.842-55.842C126.502,238.184,124.479,229.897,120.883,222.518z"/>
<g>
	<path style="fill:#7D7060;" d="M186.847,61.642l-0.018,39.902c-0.002,3.666,2.803,6.722,6.455,7.035l0,0
		c20.83,1.785,40.563-9.608,49.433-28.54l0,0c1.555-3.319,0.311-7.277-2.865-9.108l-34.566-19.935
		C197.091,46.271,186.852,52.182,186.847,61.642z"/>
	<path style="fill:#7D7060;" d="M420.401,61.642l0.018,39.902c0.002,3.666-2.803,6.722-6.455,7.035l0,0
		c-20.83,1.785-40.564-9.608-49.433-28.54l0,0c-1.555-3.319-0.31-7.277,2.865-9.108l34.566-19.935
		C410.158,46.271,420.397,52.182,420.401,61.642z"/>
</g>
<g>
	<path style="fill:#A4A8AB;" d="M187.7,117.948l-36.824,9.147c-23.215,5.767-42.723,21.439-53.356,42.865l0,0
		c-6.89,13.884,2.677,30.286,18.155,31.123l0,0c21.874,1.182,42.125-11.531,50.565-31.745L187.7,117.948z"/>
	<path style="fill:#A4A8AB;" d="M419.549,117.948l36.824,9.147c23.213,5.767,42.723,21.439,53.356,42.865l0,0
		c6.89,13.884-2.677,30.286-18.154,31.123l0,0c-21.874,1.182-42.125-11.531-50.566-31.745L419.549,117.948z"/>
</g>
<ellipse style="fill:#E8E8E8;" cx="303.624" cy="188.133" rx="164.687" ry="129.344"/>
<g>
	<path style="fill:#4A5058;" d="M227.808,164.729c-4.5,0-8.148-3.648-8.148-8.148c0-2.511-2.043-4.553-4.553-4.553
		c-2.511,0-4.553,2.043-4.553,4.553c0,4.5-3.648,8.148-8.148,8.148s-8.149-3.648-8.149-8.148c0-11.497,9.353-20.85,20.85-20.85
		c11.497,0,20.85,9.353,20.85,20.85C235.957,161.081,232.308,164.729,227.808,164.729z"/>
	<path style="fill:#4A5058;" d="M404.845,164.729c-4.5,0-8.148-3.648-8.148-8.148c0-2.511-2.043-4.553-4.553-4.553
		c-2.511,0-4.553,2.043-4.553,4.553c0,4.5-3.648,8.148-8.148,8.148c-4.5,0-8.149-3.648-8.149-8.148
		c0-11.497,9.353-20.85,20.85-20.85c11.497,0,20.85,9.353,20.85,20.85C412.993,161.081,409.345,164.729,404.845,164.729z"/>
	<path style="fill:#4A5058;" d="M293.288,59.053c-43.315,2.108-82.091,17.36-109.947,40.745
		c11.221,14.587,28.84,23.997,48.666,23.997c33.897,0,61.376-27.479,61.376-61.376C293.383,61.289,293.347,60.168,293.288,59.053z"
		/>
</g>
<path style="fill:#EDBCB9;" d="M303.624,164.004c-71.098,0-130.712,35.306-146.777,82.851
	c27.243,41.917,82.741,70.621,146.777,70.621s119.533-28.703,146.776-70.621C434.337,199.31,374.723,164.004,303.624,164.004z"/>
<ellipse style="opacity:0.2;enable-background:new    ;" cx="259.818" cy="239.338" rx="19.871" ry="33.974"/>
<ellipse style="opacity:0.2;enable-background:new    ;" cx="347.431" cy="239.338" rx="19.872" ry="33.974"/>
<g>
	<path style="fill:#7D7060;" d="M263.176,462.667h-54.452c-3.096,0-5.606-2.51-5.606-5.606v-27.79h65.663v27.79
		C268.782,460.157,266.273,462.667,263.176,462.667z"/>
	<path style="fill:#7D7060;" d="M109.354,462.667H54.902c-3.096,0-5.606-2.51-5.606-5.606v-27.79h65.663v27.79
		C114.959,460.157,112.449,462.667,109.354,462.667z"/>
</g>
<circle style="fill:#4A5058;" cx="187.6" cy="344.78" r="19.611"/>
<g>
</g>
<g>
</g>
<g>
</g>
<g>
</g>
<g>
</g>
<g>
</g>
<g>
</g>
<g>
</g>
<g>
</g>
<g>
</g>
<g>
</g>
<g>
</g>
<g>
</g>
<g>
</g>
<g>
</g>
</svg>
