<?xml version="1.0" encoding="iso-8859-1"?>
<!-- Generator: Adobe Illustrator 19.0.0, SVG Export Plug-In . SVG Version: 6.00 Build 0)  -->
<svg version="1.1" id="Layer_1" xmlns="http://www.w3.org/2000/svg" xmlns:xlink="http://www.w3.org/1999/xlink" x="0px" y="0px"
	 viewBox="0 0 512 512" style="enable-background:new 0 0 512 512;" xml:space="preserve">
<path style="fill:#E8E8E8;" d="M289.662,455.599h-43.043c-9.895,0-17.917-8.022-17.917-17.917v-92.373h78.877v92.373
	C307.578,447.577,299.557,455.599,289.662,455.599z"/>
<path style="fill:#A4A8AB;" d="M284.258,455.599h-32.236v51.582c0,2.661,2.158,4.819,4.819,4.819h22.599
	c2.661,0,4.819-2.158,4.819-4.819V455.599z"/>
<rect x="252.027" y="455.601" style="opacity:0.08;enable-background:new    ;" width="32.236" height="16.102"/>
<path style="opacity:0.08;enable-background:new    ;" d="M228.702,345.309v92.373c0,9.895,8.022,17.917,17.917,17.917h5.403v51.582
	c0,2.661,2.158,4.819,4.819,4.819h22.599c2.661,0,4.819-2.158,4.819-4.819v-51.582h5.403c9.895,0,17.917-8.022,17.917-17.917
	v-92.373L228.702,345.309L228.702,345.309z"/>
<circle style="fill:#E8E8E8;" cx="64.839" cy="299.676" r="26.024"/>
<path style="opacity:0.05;enable-background:new    ;" d="M70.519,317.948c-14.373,0-26.024-11.651-26.024-26.024
	c0-4.021,0.914-7.829,2.542-11.228c-5.06,4.747-8.227,11.491-8.227,18.978c0,14.373,11.651,26.024,26.023,26.024
	c10.352,0,19.289-6.044,23.482-14.795C83.662,315.268,77.405,317.948,70.519,317.948z"/>
<g>
	<path style="fill:#E8E8E8;" d="M194.716,170.99v116.982h-75.565c-37.407,0-67.731,30.324-67.731,67.731v13.797
		c0,25.842,20.949,46.791,46.791,46.791h180.629c25.842,0,46.791-20.949,46.791-46.791V170.99H194.716z"/>
	<path style="fill:#E8E8E8;" d="M373.545,0L373.545,0c12.166,0,22.028,9.862,22.028,22.028v60.998h-58.917V36.889
		C336.656,16.516,353.171,0,373.545,0z"/>
</g>
<path style="opacity:0.2;enable-background:new    ;" d="M371.784,57.677c-4.544,0-8.227-3.683-8.227-8.227V35.322
	c0-4.543,3.682-8.227,8.227-8.227c4.545,0,8.227,3.683,8.227,8.227V49.45C380.011,53.993,376.327,57.677,371.784,57.677z"/>
<path style="fill:#E8E8E8;" d="M378.329,52.063h-91.314V22.029C287.015,9.862,277.152,0,264.985,0l0,0
	c-20.373,0-36.889,16.515-36.889,36.889v19.6c-19.627,8.407-33.381,27.893-33.381,50.597v81.797
	c0,33.017,26.766,59.782,59.782,59.782h100.991c42.871,0,77.623-34.753,77.623-77.623v-64.196
	C433.111,76.59,408.584,52.063,378.329,52.063z"/>
<path style="fill:#A4A8AB;" d="M470.457,173.192L470.457,173.192c-4.316-13.666-16.994-22.958-31.326-22.958h-6.02v-22.671
	c0-10.368-8.406-18.774-18.774-18.774h-97.738c-26.192,0-47.425,21.233-47.425,47.425v92.442h145.976
	C454.352,248.658,482.262,210.574,470.457,173.192z"/>
<g>
	<path style="fill:#4A5058;" d="M341.512,157.56c-4.543,0-8.227-3.683-8.227-8.227v-12.251c0-4.543,3.683-8.227,8.227-8.227
		c4.544,0,8.227,3.683,8.227,8.227v12.251C349.739,153.877,346.057,157.56,341.512,157.56z"/>
	<path style="fill:#4A5058;" d="M407.918,157.56c-4.544,0-8.227-3.683-8.227-8.227v-12.251c0-4.543,3.682-8.227,8.227-8.227
		c4.545,0,8.227,3.683,8.227,8.227v12.251C416.145,153.877,412.463,157.56,407.918,157.56z"/>
</g>
<circle style="fill:#EDBCB9;" cx="433.115" cy="204.727" r="19.49"/>
<path style="fill:#D46D59;" d="M418.817,203.216c-1.755,0-3.471,0.16-5.142,0.45c-0.019,0.355-0.054,0.706-0.054,1.066
	c0,10.764,8.726,19.49,19.491,19.49c4.725,0,9.057-1.684,12.431-4.482C440.639,209.944,430.517,203.216,418.817,203.216z"/>
<path style="opacity:0.2;enable-background:new    ;" d="M263.225,57.677c-4.543,0-8.227-3.683-8.227-8.227V35.322
	c0-4.543,3.683-8.227,8.227-8.227c4.544,0,8.227,3.683,8.227,8.227V49.45C271.452,53.993,267.769,57.677,263.225,57.677z"/>
<path style="fill:#E8E8E8;" d="M285.288,194.561h-24.151v58.577l44.734,0.365v-4.845c11.054,0,19.538-9.802,17.953-20.741l0,0
	C321.051,208.767,304.638,194.561,285.288,194.561z"/>
<path style="fill:#4A5058;" d="M448.532,168.876l-3.589,4.275c-6.173,7.353-17.488,7.353-23.663,0l-3.589-4.275
	c-1.849-2.203-0.283-5.561,2.592-5.561h25.657C448.815,163.314,450.381,166.673,448.532,168.876z"/>
<path style="fill:#E8E8E8;" d="M112.379,455.599H69.336c-9.895,0-17.917-8.022-17.917-17.917v-74.58
	c0-21.781,17.657-39.438,39.438-39.438l0,0c21.781,0,39.438,17.657,39.438,39.438v74.58
	C130.296,447.577,122.274,455.599,112.379,455.599z"/>
<path style="fill:#A4A8AB;" d="M106.976,455.599H74.741v51.582c0,2.661,2.158,4.819,4.819,4.819h22.599
	c2.661,0,4.819-2.158,4.819-4.819v-51.582H106.976z"/>
<rect x="74.744" y="455.601" style="opacity:0.08;enable-background:new    ;" width="32.236" height="16.102"/>
<path style="fill:#E8E8E8;" d="M230.199,455.599h-43.043c-9.895,0-17.917-8.022-17.917-17.917v-74.58
	c0-21.781,17.657-39.438,39.438-39.438l0,0c21.781,0,39.438,17.657,39.438,39.438v74.58
	C248.117,447.577,240.095,455.599,230.199,455.599z"/>
<path style="fill:#A4A8AB;" d="M224.797,455.599h-32.236v51.582c0,2.661,2.158,4.819,4.819,4.819h22.599
	c2.661,0,4.819-2.158,4.819-4.819L224.797,455.599L224.797,455.599z"/>
<rect x="192.563" y="455.601" style="opacity:0.08;enable-background:new    ;" width="32.236" height="16.102"/>
<g>
</g>
<g>
</g>
<g>
</g>
<g>
</g>
<g>
</g>
<g>
</g>
<g>
</g>
<g>
</g>
<g>
</g>
<g>
</g>
<g>
</g>
<g>
</g>
<g>
</g>
<g>
</g>
<g>
</g>
</svg>
