<?xml version="1.0" encoding="iso-8859-1"?>
<!-- Generator: Adobe Illustrator 19.0.0, SVG Export Plug-In . SVG Version: 6.00 Build 0)  -->
<svg version="1.1" id="Layer_1" xmlns="http://www.w3.org/2000/svg" xmlns:xlink="http://www.w3.org/1999/xlink" x="0px" y="0px"
	 viewBox="0 0 512.001 512.001" style="enable-background:new 0 0 512.001 512.001;" xml:space="preserve">
<path style="fill:#A4A8AB;" d="M126.712,201.01c-29.728-32.716-80.491-38.217-106.897-38.704
	c-9.983-0.184-18.354,7.422-19.124,17.377c-2.036,26.332-1.407,77.389,28.32,110.105c41.499,45.67,123.991,38.305,123.991,38.305
	S168.212,246.68,126.712,201.01z"/>
<path style="fill:#4A5058;" d="M19.815,162.306c-9.983-0.184-18.354,7.422-19.124,17.377c-0.769,9.949-1.154,23.428,0.262,38.112
	l56.774-51.589C43.246,163.394,29.792,162.49,19.815,162.306z M95.442,324.076l59.06-53.665
	c-1.471-13.344-4.472-27.553-10.048-40.939l-88.803,80.692C68.441,316.994,82.299,321.337,95.442,324.076z M95.18,178.176
	L9.291,256.219c4.283,11.755,10.404,23.044,19.032,32.775l97.664-88.744C117.126,190.732,106.473,183.562,95.18,178.176z"/>
<path style="opacity:0.05;enable-background:new    ;" d="M155.7,290.246c-19.428,5.664-35.618,18.93-45.099,36.383
	c23.891,3.114,42.401,1.464,42.401,1.464S155.994,312.064,155.7,290.246z"/>
<path style="fill:#A4A8AB;" d="M310.116,380.092c0-11.99-9.72-21.709-21.71-21.709l0,0c-11.99,0-21.71,9.72-21.71,21.709v63.219
	c0,7.851,6.365,14.216,14.216,14.216h29.203v-77.435H310.116z"/>
<path style="fill:#4A5058;" d="M325.55,423.319h-15.434v34.208h15.434c9.446,0,17.104-7.658,17.104-17.104l0,0
	C342.654,430.976,334.996,423.319,325.55,423.319z"/>
<path style="opacity:0.1;enable-background:new    ;" d="M325.55,423.319h-15.434v-43.226c0-11.99-9.72-21.71-21.709-21.71l0,0
	c-11.99,0-21.71,9.72-21.71,21.71v63.219c0,7.851,6.365,14.216,14.216,14.216h44.637c9.446,0,17.104-7.658,17.104-17.104
	C342.654,430.976,334.997,423.319,325.55,423.319z"/>
<path style="fill:#A4A8AB;" d="M282.322,287.225h-89.613c-41.582,0-75.292,33.71-75.292,75.292c0,12.89,5.011,24.604,13.181,33.322
	v47.47c0,7.851,6.365,14.216,14.216,14.216h29.203v-46.254h49.262v32.037c0,7.851,6.365,14.216,14.216,14.216h29.203V409.37
	c35.056-7.819,61.268-39.09,61.268-76.504l0,0C327.965,307.661,307.53,287.225,282.322,287.225z"/>
<path style="opacity:0.05;enable-background:new    ;" d="M282.322,287.225h-89.613c-5.204,0-10.286,0.528-15.193,1.534
	c26.901,44.71,93.007,71.173,143.941,75.393c4.177-9.586,6.508-20.161,6.508-31.284l0,0
	C327.965,307.661,307.53,287.225,282.322,287.225z"/>
<path style="fill:#4A5058;" d="M295.97,111.07c24.511,42.014-9.854,72.279-23.723,80.371c-13.87,8.092-57.127,23.114-81.638-18.9
	s-19.679-100.4,3.983-114.205C218.255,44.529,271.458,69.056,295.97,111.07z"/>
<path style="fill:#EDBCB9;" d="M265.375,125.296c11.789,20.209-2.576,33.502-9.735,37.679c-7.159,4.176-25.802,10.14-37.591-10.069
	c-11.789-20.209-15.347-50.645-2.278-58.269C228.839,87.012,253.584,105.087,265.375,125.296z"/>
<path style="fill:#4A5058;" d="M387.898,111.07c-24.511,42.014,9.854,72.279,23.723,80.371c13.87,8.092,57.127,23.114,81.638-18.9
	c24.511-42.014,19.679-100.4-3.983-114.205C465.614,44.529,412.411,69.056,387.898,111.07z"/>
<path style="fill:#EDBCB9;" d="M418.494,125.296c-11.789,20.209,2.576,33.502,9.735,37.679c7.159,4.176,25.802,10.14,37.591-10.069
	s15.346-50.645,2.278-58.269C455.03,87.012,430.284,105.087,418.494,125.296z"/>
<path style="fill:#A4A8AB;" d="M512,227.868c0,75.669-104.373,118.762-170.067,118.762c-65.693,0-170.067-43.093-170.067-118.762
	c0-75.669,76.142-124.284,170.067-124.284C435.86,103.584,512,152.199,512,227.868z"/>
<path style="fill:#EDBCB9;" d="M353.221,278.935c-6.233,0-11.286-5.054-11.286-11.286c0,6.233-5.053,11.286-11.286,11.286
	c-3.056,0-5.824-1.22-7.856-3.193v16.303c0,10.572,8.57,19.143,19.143,19.143c10.573,0,19.143-8.57,19.143-19.143v-16.303
	C359.045,277.714,356.277,278.935,353.221,278.935z"/>
<path style="fill:#D46D59;" d="M341.935,298.332c-6.19,0-11.734,1.883-15.546,4.855c3.474,4.839,9.135,8.001,15.546,8.001
	c6.411,0,12.072-3.163,15.546-8.001C353.668,300.214,348.125,298.332,341.935,298.332z"/>
<path style="fill:#4A5058;" d="M353.221,287.116c-4.204,0-8.101-1.339-11.286-3.612c-3.186,2.274-7.083,3.612-11.286,3.612
	c-10.735,0-19.469-8.733-19.469-19.469c0-4.52,3.664-8.182,8.182-8.182c4.519,0,8.182,3.662,8.182,8.182
	c0,1.711,1.392,3.104,3.104,3.104c1.711,0,3.104-1.392,3.104-3.104c0-4.52,3.664-8.182,8.182-8.182c4.519,0,8.182,3.662,8.182,8.182
	c0,1.711,1.392,3.104,3.104,3.104c1.711,0,3.104-1.392,3.104-3.104c0-4.52,3.664-8.182,8.182-8.182c4.519,0,8.182,3.662,8.182,8.182
	C372.689,278.383,363.955,287.116,353.221,287.116z"/>
<path style="fill:#E8E8E8;" d="M245.3,153.634h-42.797c-19.303,19.899-30.636,45.052-30.636,74.235
	c0,12.216,2.734,23.578,7.573,34.052h65.86c29.902,0,54.143-24.241,54.143-54.144l0,0
	C299.443,177.874,275.204,153.634,245.3,153.634z"/>
<g>
	<path style="fill:#4A5058;" d="M235.893,181.224h-53.151c-7.022,14.022-10.874,29.648-10.874,46.643
		c0,12.216,2.734,23.578,7.573,34.052h56.453c22.284,0,40.348-18.065,40.348-40.348
		C276.241,199.289,258.176,181.224,235.893,181.224z"/>
	<path style="fill:#4A5058;" d="M369.302,225.954l-6.369,7.586c-10.956,13.048-31.036,13.048-41.991,0l-6.369-7.586
		c-3.282-3.909-0.503-9.87,4.601-9.87h45.53C369.805,216.083,372.584,222.045,369.302,225.954z"/>
</g>
<path style="fill:#E8E8E8;" d="M438.569,153.634h42.796C500.667,173.532,512,198.685,512,227.868
	c0,12.216-2.734,23.578-7.573,34.052h-65.86c-29.903,0-54.143-24.241-54.143-54.144l0,0
	C384.425,177.874,408.665,153.634,438.569,153.634z"/>
<path style="fill:#4A5058;" d="M447.976,181.224h53.151c7.022,14.022,10.874,29.648,10.874,46.643
	c0,12.216-2.734,23.578-7.573,34.052h-56.453c-22.284,0-40.348-18.065-40.348-40.348
	C407.628,199.289,425.693,181.224,447.976,181.224z"/>
<g>
	<path style="fill:#FFFFFF;" d="M235.893,236.014c-4.519,0-8.182-3.662-8.182-8.182v-12.185c0-4.52,3.664-8.182,8.182-8.182
		c4.519,0,8.182,3.662,8.182,8.182v12.185C244.075,232.351,240.412,236.014,235.893,236.014z"/>
	<path style="fill:#FFFFFF;" d="M447.976,236.014c-4.519,0-8.182-3.662-8.182-8.182v-12.185c0-4.52,3.664-8.182,8.182-8.182
		c4.519,0,8.182,3.662,8.182,8.182v12.185C456.159,232.351,452.495,236.014,447.976,236.014z"/>
</g>
<g>
	<path style="fill:#4A5058;" d="M189.451,423.319h-15.434v34.208h15.434c9.446,0,17.104-7.658,17.104-17.104l0,0
		C206.555,430.976,198.897,423.319,189.451,423.319z"/>
	<path style="fill:#4A5058;" d="M282.131,423.319h-15.434v34.208h15.434c9.446,0,17.104-7.658,17.104-17.104l0,0
		C299.235,430.976,291.577,423.319,282.131,423.319z"/>
</g>
<g>
</g>
<g>
</g>
<g>
</g>
<g>
</g>
<g>
</g>
<g>
</g>
<g>
</g>
<g>
</g>
<g>
</g>
<g>
</g>
<g>
</g>
<g>
</g>
<g>
</g>
<g>
</g>
<g>
</g>
</svg>
