<?xml version="1.0" encoding="iso-8859-1"?>
<!-- Generator: Adobe Illustrator 19.0.0, SVG Export Plug-In . SVG Version: 6.00 Build 0)  -->
<svg version="1.1" id="Layer_1" xmlns="http://www.w3.org/2000/svg" xmlns:xlink="http://www.w3.org/1999/xlink" x="0px" y="0px"
	 viewBox="0 0 512 512" style="enable-background:new 0 0 512 512;" xml:space="preserve">
<path style="fill:#BCE9ED;" d="M12.043,312.666c-4.532,0-8.206-3.673-8.206-8.206c0-29.129,23.698-52.827,52.828-52.827
	c4.532,0,8.206,3.673,8.206,8.206s-3.674,8.206-8.206,8.206c-20.08,0-36.416,16.336-36.416,36.415
	C20.249,308.993,16.575,312.666,12.043,312.666z"/>
<path style="fill:#ADD9E8;" d="M24.657,312.548c0-6.809-5.52-12.328-12.328-12.328S0,305.739,0,312.548
	c0,6.809,5.52,25.057,12.328,25.057S24.657,319.357,24.657,312.548z"/>
<g>
	<path style="fill:#B0E2E8;" d="M24.657,312.548c0-6.809-5.52-12.328-12.328-12.328S0,305.739,0,312.548
		c0,6.809,5.52,25.057,12.328,25.057S24.657,319.357,24.657,312.548z"/>
	<path style="fill:#B0E2E8;" d="M317.337,459.119h-67.21c-6.205,0-11.234-5.03-11.234-11.234v-75.854
		c0-21.661,17.56-39.222,39.222-39.222l0,0c21.661,0,39.222,17.56,39.222,39.222v87.088H317.337z"/>
</g>
<path style="fill:#F8E9B4;" d="M308.244,429.151L308.244,429.151c-6.747,0-12.217,5.469-12.217,12.217v17.752h30.738
	c3.161,0,5.723-2.562,5.723-5.723l0,0C332.489,440.006,321.635,429.151,308.244,429.151z"/>
<path style="opacity:0.1;enable-background:new    ;" d="M317.371,430.93v-58.898c0-21.661-17.56-39.222-39.222-39.222l0,0
	c-21.661,0-39.222,17.56-39.222,39.222v75.854c0,6.205,5.03,11.234,11.234,11.234H326.8c3.161,0,5.724-2.562,5.724-5.723
	C332.523,443.224,326.252,434.528,317.371,430.93z"/>
<path style="fill:#B0E2E8;" d="M296.981,221.641h-178.78c-40.92,0-74.092,33.172-74.092,74.092v21.853
	c0,22.416,8.767,42.772,23.039,57.871v72.429c0,6.205,5.03,11.234,11.234,11.234h67.209v-57.248h34.236v46.014
	c0,6.205,5.03,11.234,11.234,11.234h67.209v-59.151c43.644-8.832,76.501-47.403,76.501-93.652V259.43
	C334.772,238.56,317.852,221.641,296.981,221.641z"/>
<path style="opacity:0.05;enable-background:new    ;" d="M133.03,221.641v21.127c0,48.367,39.21,87.577,87.577,87.577h111.117
	c1.988-7.677,3.048-15.728,3.048-24.028V259.43c0-20.871-16.919-37.791-37.791-37.791H133.03V221.641z"/>
<path style="fill:#ADD9E8;" d="M346.423,102.579c-3.223,3.881-2.01,9.742,2.477,12.047c17.978,9.236,40.575,5.122,54.026-11.071
	c8.913-10.729,11.877-24.433,9.262-37.108c-2.868-13.902-20.482-18.38-29.552-7.462L346.423,102.579z"/>
<path style="fill:#BCE9ED;" d="M346.423,102.579c-3.223,3.881-2.01,9.742,2.477,12.047c17.978,9.236,40.575,5.122,54.026-11.071
	c8.913-10.729,11.877-24.433,9.262-37.108c-2.868-13.902-20.482-18.38-29.552-7.462L346.423,102.579z"/>
<path style="fill:#B0E2E8;" d="M475.165,169.676h-60.478v-8.758c0-54.968-44.561-99.529-99.529-99.529h-67.311
	c-54.968,0-99.529,44.561-99.529,99.529v67.351c0,48.367,39.21,87.577,87.577,87.577h202.057c40.896,0,74.048-33.153,74.048-74.048
	v-35.286C512,186.167,495.508,169.676,475.165,169.676z"/>
<g>
	<path style="fill:#4A5058;" d="M356.949,152.073c-4.533,0-8.206-3.673-8.206-8.206v-12.22c0-4.533,3.673-8.206,8.206-8.206
		s8.206,3.673,8.206,8.206v12.22C365.155,148.4,361.481,152.073,356.949,152.073z"/>
	<path style="fill:#4A5058;" d="M313.167,151.512c-4.533,0-8.206-3.673-8.206-8.206c0-2.255-1.834-4.088-4.088-4.088
		s-4.086,1.834-4.086,4.088c0,4.533-3.673,8.206-8.206,8.206c-4.533,0-8.206-3.673-8.206-8.206c0-11.303,9.195-20.499,20.498-20.499
		s20.499,9.196,20.499,20.499C321.373,147.839,317.7,151.512,313.167,151.512z"/>
</g>
<path style="opacity:0.05;enable-background:new    ;" d="M200.476,101.624l-22.419-11.659
	c-11.013,10.834-19.518,24.207-24.557,39.177c17.95,5.471,37.515-0.387,49.515-14.686
	C206.462,110.345,205.235,104.099,200.476,101.624z"/>
<path style="fill:#F8E9B4;" d="M401.85,96.37l-41.214,73.305h111.04L430.462,96.37C424.19,85.212,408.124,85.212,401.85,96.37z"/>
<path style="fill:#4A5058;" d="M452.821,258.867c-6.045,0-11.577-2.247-15.801-5.949c-4.224,3.701-9.756,5.949-15.801,5.949
	c-13.238,0-24.006-10.77-24.006-24.007c0-4.533,3.673-8.206,8.206-8.206s8.206,3.673,8.206,8.206c0,4.188,3.407,7.595,7.594,7.595
	c4.188,0,7.595-3.407,7.595-7.595c0-4.533,3.674-8.206,8.206-8.206c4.533,0,8.206,3.673,8.206,8.206
	c0,4.188,3.407,7.595,7.595,7.595c4.188,0,7.595-3.407,7.595-7.595c0-4.533,3.673-8.206,8.206-8.206
	c4.533,0,8.206,3.673,8.206,8.206C476.828,248.097,466.058,258.867,452.821,258.867z"/>
<path style="fill:#ADD9E8;" d="M204.209,102.579c3.223,3.881,2.01,9.742-2.477,12.047c-17.978,9.236-40.575,5.122-54.027-11.071
	c-8.913-10.729-11.877-24.433-9.261-37.108c2.868-13.902,20.482-18.38,29.552-7.462L204.209,102.579z"/>
<path style="fill:#BCE9ED;" d="M204.209,102.579c3.223,3.881,2.01,9.742-2.477,12.047c-17.978,9.236-40.575,5.122-54.027-11.071
	c-8.913-10.729-11.877-24.433-9.261-37.108c2.868-13.902,20.482-18.38,29.552-7.462L204.209,102.579z"/>
<g>
	<path style="fill:#F8E9B4;" d="M136.499,429.151L136.499,429.151c-6.747,0-12.217,5.469-12.217,12.217v17.752h30.738
		c3.161,0,5.723-2.562,5.723-5.723l0,0C160.743,440.006,149.889,429.151,136.499,429.151z"/>
	<path style="fill:#F8E9B4;" d="M249.178,429.151L249.178,429.151c-6.747,0-12.217,5.469-12.217,12.217v17.752h30.738
		c3.161,0,5.723-2.562,5.723-5.723l0,0C273.423,440.006,262.568,429.151,249.178,429.151z"/>
</g>
<g>
</g>
<g>
</g>
<g>
</g>
<g>
</g>
<g>
</g>
<g>
</g>
<g>
</g>
<g>
</g>
<g>
</g>
<g>
</g>
<g>
</g>
<g>
</g>
<g>
</g>
<g>
</g>
<g>
</g>
</svg>
