<?xml version="1.0" encoding="iso-8859-1"?>
<!-- Generator: Adobe Illustrator 19.0.0, SVG Export Plug-In . SVG Version: 6.00 Build 0)  -->
<svg version="1.1" id="Layer_1" xmlns="http://www.w3.org/2000/svg" xmlns:xlink="http://www.w3.org/1999/xlink" x="0px" y="0px"
	 viewBox="0 0 512 512" style="enable-background:new 0 0 512 512;" xml:space="preserve">
<path style="fill:#97B05F;" d="M245.115,404.526h-31.628c-4.846,0-8.773-3.928-8.773-8.773v-60.846h49.174v60.846
	C253.888,400.599,249.961,404.526,245.115,404.526z"/>
<path style="fill:#BDD186;" d="M253.888,376.66L253.888,376.66v19.093c0,4.846-3.928,8.773-8.773,8.773h-13.607v-5.485
	C231.509,386.68,241.529,376.66,253.888,376.66z"/>
<path style="fill:#97B05F;" d="M8.013,376.428c-1.544,0-3.106-0.446-4.482-1.375c-3.67-2.48-4.635-7.465-2.156-11.135
	c8.783-13,23.383-20.762,39.054-20.762h12.699c4.429,0,8.019,3.591,8.019,8.019s-3.591,8.019-8.019,8.019H40.429
	c-10.337,0-19.967,5.122-25.763,13.702C13.117,375.19,10.588,376.428,8.013,376.428z"/>
<path style="opacity:0.1;enable-background:new    ;" d="M53.128,343.156H40.429c-7.892,0-15.511,1.973-22.254,5.588
	c2.574,5.157,6.605,9.455,11.557,12.36c3.38-1.24,6.991-1.909,10.697-1.909h12.699c4.429,0,8.019-3.591,8.019-8.019
	C61.147,346.746,57.558,343.156,53.128,343.156z"/>
<path style="fill:#F8E9B4;" d="M230.99,369.342H66.151c-20.826,0-37.708-16.883-37.708-37.709l0,0h240.255l0,0
	C268.699,352.459,251.816,369.342,230.99,369.342z"/>
<path style="opacity:0.1;enable-background:new    ;" d="M150.916,331.633v15.446h114.472c2.12-4.715,3.31-9.94,3.31-15.444l0,0
	H150.916V331.633z"/>
<path style="fill:#97B05F;" d="M99.247,404.526H67.619c-4.846,0-8.773-3.928-8.773-8.773v-60.846h49.174v60.846
	C108.02,400.599,104.092,404.526,99.247,404.526z"/>
<path style="fill:#BDD186;" d="M108.02,376.66L108.02,376.66v19.093c0,4.846-3.928,8.773-8.773,8.773H85.64v-5.485
	C85.64,386.68,95.66,376.66,108.02,376.66z"/>
<rect x="58.842" y="334.904" style="opacity:0.1;enable-background:new    ;" width="49.174" height="22.865"/>
<path style="fill:#97B05F;" d="M177.843,404.526h-31.628c-4.846,0-8.773-3.928-8.773-8.773v-60.846h49.174v60.846
	C186.618,400.599,182.689,404.526,177.843,404.526z"/>
<path style="fill:#BDD186;" d="M186.618,376.66L186.618,376.66v19.093c0,4.846-3.928,8.773-8.773,8.773h-13.607v-5.485
	C164.237,386.68,174.257,376.66,186.618,376.66z"/>
<path style="opacity:0.1;enable-background:new    ;" d="M137.442,334.906v22.865h14.574c12.398,0,24.347-3.517,34.6-9.821v-13.044
	H137.442z"/>
<path style="fill:#97B05F;" d="M268.699,331.634H29.817l13.237-55.144c6.707-27.941,31.695-47.64,60.429-47.64h91.549
	c28.734,0,53.722,19.699,60.429,47.64L268.699,331.634z"/>
<path style="opacity:0.15;enable-background:new    ;" d="M172.672,256.414l15.914-27.564h-18.52l-11.284,19.544h-36.506
	l-11.284-19.544h-7.511c-3.566,0-7.073,0.305-10.496,0.89l15.401,26.674l-41.114,71.211l6.945,4.01h9.26l38.799-67.201h36.506
	l38.798,67.201h9.26l6.945-4.01L172.672,256.414z"/>
<path style="fill:#BDD186;" d="M152.016,347.079H24.668c-8.53,0-15.444-6.915-15.444-15.444s6.915-15.446,15.444-15.446h127.348
	c12.539,0,24.219-6.749,30.482-17.613c10.828-18.787,31.026-30.458,52.71-30.458h28.857c8.53,0,15.446,6.915,15.446,15.446
	c0,8.53-6.915,15.444-15.446,15.444h-28.857c-10.674,0-20.616,5.745-25.947,14.993C197.501,334.404,175.566,347.079,152.016,347.079
	z"/>
<path style="fill:#97B05F;" d="M396.792,107.474h-33.364c-63.967,0-115.822,51.855-115.822,115.822v63.511
	c0,6.74-5.463,12.202-12.202,12.201l0,0c-10.697,0-20.739,5.559-26.056,14.841c-3.931,6.863-9.016,12.849-14.921,17.785h91.776
	c11.5,0,21.603-5.956,27.414-14.946h104.376c51.918,0,94.007-42.088,94.007-94.006l0,0C512,159.054,460.42,107.474,396.792,107.474z
	"/>
<g>
	<path style="fill:#4A5058;" d="M354.889,217.129c-4.429,0-8.019-3.591-8.019-8.019v-11.943c0-4.429,3.591-8.019,8.019-8.019
		s8.019,3.591,8.019,8.019v11.943C362.908,213.539,359.318,217.129,354.889,217.129z"/>
	<path style="fill:#4A5058;" d="M468.234,217.129c-4.429,0-8.019-3.591-8.019-8.019v-11.943c0-4.429,3.591-8.019,8.019-8.019
		s8.019,3.591,8.019,8.019v11.943C476.254,213.539,472.663,217.129,468.234,217.129z"/>
	<path style="fill:#4A5058;" d="M424.947,243.559c-5.061,0-9.717-1.765-13.385-4.713c-3.668,2.947-8.324,4.713-13.385,4.713
		c-11.803,0-21.405-9.602-21.405-21.405c0-4.429,3.591-8.019,8.02-8.019s8.019,3.591,8.019,8.019c0,2.959,2.407,5.366,5.366,5.366
		s5.366-2.407,5.366-5.366c0-4.429,3.591-8.019,8.02-8.019c4.429,0,8.019,3.591,8.019,8.019c0,2.959,2.407,5.366,5.366,5.366
		s5.367-2.407,5.367-5.366c0-4.429,3.591-8.019,8.02-8.019s8.019,3.591,8.019,8.019C446.352,233.956,436.75,243.559,424.947,243.559
		z"/>
</g>
<path style="opacity:0.1;enable-background:new    ;" d="M235.405,299.008c-10.697,0-20.739,5.559-26.056,14.841
	c-3.931,6.863-9.016,12.849-14.921,17.785h12.165c8.224-5.537,15.235-12.925,20.332-21.769c2.768-4.803,6.788-8.649,11.5-11.249
	C237.457,298.863,236.45,299.008,235.405,299.008L235.405,299.008z"/>
<g>
</g>
<g>
</g>
<g>
</g>
<g>
</g>
<g>
</g>
<g>
</g>
<g>
</g>
<g>
</g>
<g>
</g>
<g>
</g>
<g>
</g>
<g>
</g>
<g>
</g>
<g>
</g>
<g>
</g>
</svg>
