<?xml version="1.0" encoding="iso-8859-1"?>
<!-- Generator: Adobe Illustrator 19.0.0, SVG Export Plug-In . SVG Version: 6.00 Build 0)  -->
<svg version="1.1" id="Layer_1" xmlns="http://www.w3.org/2000/svg" xmlns:xlink="http://www.w3.org/1999/xlink" x="0px" y="0px"
	 viewBox="0 0 512 512" style="enable-background:new 0 0 512 512;" xml:space="preserve">
<g>
	<path style="fill:#4A5058;" d="M258.164,473.119c-4.426,0-8.838-1.766-12.096-5.256c-6.231-6.68-5.869-17.144,0.811-23.375
		c14.85-13.855,25.946-41.132,25.946-56.267c0-9.134,7.404-16.539,16.539-16.539s16.539,7.404,16.539,16.539
		c0,25.607-16.355,61.698-36.46,80.452C266.254,471.647,262.205,473.119,258.164,473.119z"/>
	<path style="fill:#4A5058;" d="M324.557,473.119c-4.426,0-8.838-1.766-12.096-5.256c-6.231-6.68-5.869-17.144,0.811-23.375
		c14.849-13.854,25.945-41.131,25.945-56.267c0-9.134,7.404-16.539,16.539-16.539c9.134,0,16.539,7.404,16.539,16.539
		c0,25.607-16.355,61.699-36.458,80.452C332.647,471.647,328.598,473.119,324.557,473.119z"/>
</g>
<path style="opacity:0.15;enable-background:new    ;" d="M289.363,371.682c-9.134,0-16.539,7.404-16.539,16.539
	c0,15.135-11.096,42.412-25.946,56.267c-6.679,6.23-7.042,16.696-0.811,23.375c3.257,3.49,7.671,5.256,12.096,5.256
	c4.042,0,8.091-1.472,11.279-4.445c20.103-18.754,36.46-54.846,36.46-80.452C305.901,379.086,298.497,371.682,289.363,371.682z
	 M355.755,371.682c-9.134,0-16.539,7.404-16.539,16.539c0,15.136-11.096,42.413-25.945,56.267
	c-6.678,6.23-7.042,16.696-0.811,23.375c3.257,3.49,7.671,5.256,12.096,5.256c4.041,0,8.091-1.472,11.279-4.445
	c20.102-18.753,36.458-54.845,36.458-80.452C372.294,379.086,364.889,371.682,355.755,371.682z"/>
<path style="opacity:0.1;enable-background:new    ;" d="M355.755,371.682c-9.134,0-16.539,7.404-16.539,16.539
	c0,8.296-3.339,20.239-8.796,31.62h35.688c3.904-11.036,6.185-22.058,6.185-31.62C372.294,379.086,364.889,371.682,355.755,371.682z
	 M289.363,371.682c-9.134,0-16.539,7.404-16.539,16.539c0,8.296-3.339,20.237-8.797,31.62h35.688
	c3.904-11.036,6.186-22.058,6.186-31.62C305.901,379.086,298.497,371.682,289.363,371.682z"/>
<path style="fill:#E8E8E8;" d="M322.743,54.678c-21.064,21.064-43.983,99.078-33.392,109.669
	c10.591,10.591,88.605-12.328,109.669-33.392c21.064-21.064,21.064-55.214,0-76.277C377.958,33.615,343.807,33.615,322.743,54.678z"
	/>
<path style="fill:#4A5058;" d="M43.559,240.242l-38.501,23.56c-6.744,4.127-6.744,13.922,0,18.049l38.501,23.559
	c7.159,4.38,16.535,1.111,19.419-6.771l3.691-10.093c3.713-10.151,3.713-21.29,0-31.441l-3.691-10.093
	C60.095,239.131,50.717,235.862,43.559,240.242z"/>
<path style="opacity:0.1;enable-background:new    ;" d="M66.669,257.105l-3.691-10.093c-2.884-7.882-12.26-11.151-19.419-6.771
	l-16.546,10.125c-1.286,7.293-1.96,14.797-1.96,22.459s0.675,15.166,1.96,22.459l16.546,10.125
	c7.159,4.38,16.535,1.111,19.419-6.771l3.691-10.093C70.382,278.396,70.382,267.258,66.669,257.105z"/>
<path style="fill:#F7DA70;" d="M383.541,401.286c70.947,0,128.459-57.513,128.459-128.459c0-70.947-57.513-128.46-128.459-128.46
	H166.875c-70.946,0-128.459,57.513-128.459,128.46c0,70.946,57.513,128.459,128.459,128.459H383.541z"/>
<g>
	<path style="fill:#4A5058;" d="M481.067,273.873c-4.522,0-8.186-3.664-8.186-8.186v-12.19c0-4.522,3.664-8.186,8.186-8.186
		s8.186,3.664,8.186,8.186v12.19C489.252,270.208,485.589,273.873,481.067,273.873z"/>
	<path style="fill:#4A5058;" d="M347.317,273.873c-4.522,0-8.186-3.664-8.186-8.186v-12.19c0-4.522,3.664-8.186,8.186-8.186
		c4.522,0,8.186,3.664,8.186,8.186v12.19C355.503,270.208,351.838,273.873,347.317,273.873z"/>
</g>
<path style="fill:#EDBCB9;" d="M428.415,277.219c-7.855,0-14.223-6.367-14.223-14.223c0,7.855-6.367,14.223-14.223,14.223
	c-3.568,0-6.82-1.324-9.318-3.494v18.236c0,13,10.539,23.54,23.54,23.54c13,0,23.54-10.539,23.54-23.54v-18.236
	C435.235,275.896,431.982,277.219,428.415,277.219z"/>
<path style="fill:#D46D59;" d="M414.192,298.842c-7.642,0-14.545,2.416-19.502,6.304c4.233,6.247,11.387,10.354,19.502,10.354
	c8.115,0,15.269-4.107,19.502-10.354C428.738,301.258,421.833,298.842,414.192,298.842z"/>
<g>
	<path style="fill:#4A5058;" d="M428.415,285.405c-5.395,0-10.35-1.917-14.223-5.105c-3.871,3.188-8.826,5.105-14.221,5.105
		c-12.356,0-22.408-10.052-22.408-22.407c0-4.522,3.664-8.186,8.186-8.186c4.522,0,8.186,3.664,8.186,8.186
		c0,3.329,2.708,6.036,6.037,6.036s6.036-2.707,6.036-6.036c0-4.522,3.664-8.186,8.186-8.186s8.186,3.664,8.186,8.186
		c0,3.329,2.708,6.036,6.037,6.036s6.036-2.707,6.036-6.036c0-4.522,3.664-8.186,8.186-8.186s8.186,3.664,8.186,8.186
		C450.823,275.353,440.771,285.405,428.415,285.405z"/>
	<path style="fill:#4A5058;" d="M282.007,272.826c0-62.035,42.92-114.226,100.621-128.46h-92.302
		c-41.805,18.701-74.473,59.729-74.473,128.46s32.669,109.758,74.473,128.459h92.302
		C324.926,387.051,282.007,334.861,282.007,272.826z"/>
	<path style="fill:#4A5058;" d="M140.82,272.826c0-62.035,42.92-114.226,100.622-128.46h-74.567c-7.375,0-14.601,0.631-21.637,1.824
		c-39.918,19.475-70.573,60.058-70.573,126.637c0,66.578,30.653,107.161,70.573,126.637c7.035,1.193,14.262,1.824,21.637,1.824
		h74.567C183.74,387.051,140.82,334.861,140.82,272.826z"/>
</g>
<path style="opacity:0.15;enable-background:new    ;" d="M240.398,144.367h-73.524c-19.202,0-37.417,4.221-53.776,11.773
	c4.771,5.56,10.746,10.241,17.794,13.584c26.914,12.767,108.094,8.157,114.514-5.375
	C247.118,160.738,244.973,153.412,240.398,144.367z"/>
<path style="fill:#E8E8E8;" d="M212.014,54.678c21.064,21.064,43.983,99.078,33.392,109.669
	c-10.591,10.591-88.605-12.328-109.669-33.392s-21.064-55.214,0-76.277C156.8,33.615,190.95,33.615,212.014,54.678z"/>
<g>
	<path style="fill:#4A5058;" d="M129.482,473.119c-4.426,0-8.838-1.766-12.096-5.256c-6.231-6.68-5.869-17.144,0.811-23.375
		c14.849-13.854,25.945-41.131,25.945-56.267c0-9.134,7.404-16.539,16.539-16.539s16.539,7.404,16.539,16.539
		c0,25.607-16.355,61.699-36.458,80.452C137.573,471.647,133.523,473.119,129.482,473.119z"/>
	<path style="fill:#4A5058;" d="M195.876,473.119c-4.426,0-8.838-1.765-12.096-5.256c-6.231-6.68-5.868-17.143,0.811-23.375
		c14.849-13.855,25.945-41.132,25.945-56.267c0-9.134,7.404-16.539,16.539-16.539s16.539,7.404,16.539,16.539
		c0,25.607-16.355,61.698-36.458,80.452C203.967,471.647,199.917,473.119,195.876,473.119z"/>
</g>
<g>
</g>
<g>
</g>
<g>
</g>
<g>
</g>
<g>
</g>
<g>
</g>
<g>
</g>
<g>
</g>
<g>
</g>
<g>
</g>
<g>
</g>
<g>
</g>
<g>
</g>
<g>
</g>
<g>
</g>
</svg>
